<?xml version="1.0" encoding="utf-8"?>
<!-- Generator: Adobe Illustrator 23.1.0, SVG Export Plug-In . SVG Version: 6.00 Build 0)  -->
<svg version="1.1" id="Calque_1" xmlns="http://www.w3.org/2000/svg" xmlns:xlink="http://www.w3.org/1999/xlink" x="0px" y="0px"
	 viewBox="0 0 432 611.3" style="enable-background:new 0 0 432 611.3;" xml:space="preserve">
<style type="text/css">
	.st0{fill:#282828;}
	.st1{fill:#221F20;}
	.st2{fill:#16270E;}
	.st3{fill:#2C211B;}
	.st4{fill:#333333;}
	.st5{fill:#9F7852;}
	.st6{fill:#2A292D;}
	.st7{fill:#393838;}
	.st8{fill:#88623D;}
	.st9{fill:#825232;}
	.st10{fill:#E7A87E;}
	.st11{fill:#1B1B1B;}
	.st12{fill:#B75924;}
	.st13{fill:#EFB289;}
	.st14{fill:#7A3A15;}
	.st15{fill:#5966A5;}
	.st16{fill:#5865A2;}
	.st17{fill:#6B2528;}
	.st18{fill:#6B2529;}
	.st19{fill:#6A2528;}
	.st20{fill:#284A18;}
	.st21{fill:#4B5277;}
	.st22{fill:#4A5276;}
	.st23{fill:#525B8A;}
	.st24{fill:#693F23;}
	.st25{fill:#9E7751;}
	.st26{fill:#52191B;}
	.st27{fill:#805131;}
	.st28{fill:#ECB087;}
	.st29{fill:#A29D9D;}
	.st30{fill:#8E8C8C;}
	.st31{fill:#50587F;}
	.st32{fill:#ECB088;}
	.st33{fill:#683E23;}
	.st34{fill:#E9AE86;}
	.st35{fill:#E4AA84;}
	.st36{fill:#BE5D26;}
	.st37{fill:#95481C;}
	.st38{fill:#8A4319;}
	.st39{fill:#C0BABA;}
	.st40{fill:#BCB6B6;}
	.st41{fill:#AAA5A5;}
	.st42{fill:#A19C9C;}
	.st43{fill:#A39E9E;}
	.st44{fill:#E5A652;}
	.st45{fill:#E8A853;}
	.st46{fill:#50587E;}
	.st47{fill:#DC9E4B;}
	.st48{fill:#C98B38;}
	.st49{fill:#8B643E;}
	.st50{fill:#CB8D3A;}
	.st51{fill:#1F1F1F;}
	.st52{fill:#433C38;}
	.st53{fill:#443D38;}
	.st54{fill:#534237;}
	.st55{fill:#654F40;}
	.st56{fill:#8B221B;}
	.st57{fill:#69594E;}
	.st58{fill:#F4F4F4;}
	.st59{fill:#38373F;}
	.st60{fill:#39363D;}
	.st61{fill:#37353B;}
	.st62{fill:#352E29;}
	.st63{fill:#363640;}
	.st64{fill:#FFFFFF;}
	.st65{fill:#FEFEFE;}
	.st66{fill:#D58987;}
	.st67{fill:#9C754F;}
	.st68{fill:#5764A2;}
	.st69{fill:#649E30;}
	.st70{fill:#35343B;}
	.st71{fill:#1F211D;}
	.st72{fill:#E1E1E1;}
	.st73{fill:#1F221D;}
	.st74{fill:#DCDCDC;}
</style>
<g>
	<g id="Calque_1-2">
		<path class="st0" d="M178.3,182.5c-0.6-3.7-1.2-7.3-0.5-11.1c0.7-3.6,1.2-7.2,1.8-10.8c0.2-1.1-0.5-1.6-1.1-2.2
			c-2.9-3-4.8-7-5.4-11.2c0.2-0.5-0.2-1.3,0.7-1.5c0.9,0.5,0.8,1.5,1.1,2.3c0.6,2.6,1.7,5,3.1,7.2c0.4,0.5,0.7,1.2,1.4,1.2
			s0.6-1,0.8-1.6c2.9-8.1,3.2-16.5,2.6-25c0-0.6,0.1-1.2,0.1-1.8c0.1-7.3,3.9-12.7,9.3-17.1c2-0.9,3.8-2.1,5.4-3.6
			c4.4-2.3,9.1-3.5,13.8-4.7c10.4-2.8,21.1-4.5,31.8-5.1c11.3-0.7,22.3,0.7,33.4,1.9c8.1,1,16,2.9,23.7,5.7c1.5,0.4,3,1.1,4.4,1.9
			c2,2.5,5,3,7.6,4.4c5.4,3,11.1,5.7,15.4,10.3c3.3,3.6,6.5,7.2,7.5,12.2c0.1,0.6,0.2,1.2,0.1,1.8c-0.2,0.6-0.5,1.2-1,1.6
			c-3,3.1-4.8,7.1-5.1,11.3c-0.5,4.8-0.4,9.7,0.4,14.5c0.3,1.6,1,2,2.5,1.3c2.3-1.1,4.3-2.9,5.5-5.2c1.7-3.1,2.9-6.4,3.6-9.9
			c0.2-0.8,0-1.8,1.1-2.2c0.8,0.5,0.1,1.4,0.6,2c-1.1,5.1-2.3,10.2-6.2,14.1c-1.5,1.6-3.4,2.7-5.4,3.3c-1.7,0.4-1.6,0.5-1.4,2.3
			c0.5,3.9,0.2,7.8-0.8,11.5c-1,1-0.4,2.4-0.7,3.6c-1.1,5.2-2.5,10.2-4.3,15.2c-0.4,1.2-0.6,2.8-2.2,2.8c-1.3,0-1.5-1.5-2.1-2.4
			c-0.2-0.4-0.4-0.7-0.7-0.9c-1.1,1.3-2,2.7-2.8,4.3c-4.5,6.9-10.9,11.6-18,15.4c-0.8,0.4-1.7,1-2.7,0.4c-0.5-0.3-0.5-0.8-0.3-2.7
			c-3.6,5-8.4,8.4-13.4,11.6c-7.7,5.1-15.9,9.5-24.4,13.2c-2.5,1.2-5.4,1.2-7.9,0.1c-10.5-4.5-20.5-10.2-29.7-16.9
			c-3.1-2.3-5.9-5-8.3-8c0.3,2.9-0.5,3.6-3,2.3c-8.3-4.3-15.4-10-19.9-18.5c-0.2-0.4-0.3-0.9-0.9-1.1c-0.8,0.4-0.9,1.4-1.3,2.1
			c-1.1,1.6-2,1.6-3-0.1c-0.3-0.5-0.6-1.1-0.8-1.8c-1.6-5.4-3.8-10.7-4.1-16.5C178.6,182.6,178.5,182.5,178.3,182.5z"/>
		<path class="st1" d="M377.4,297.8c-0.6-5.4-1.7-10.7-2.3-16.1c-0.7-5.8-2.7-11.4-6-16.2c-2.8-4.3-5.4-8.8-8.2-13.2
			c-5.3-8.3-11.3-16.1-19-22.4c-0.9-0.8-1.8-1.5-2.8-2.2c-5.8-3.6-11.9-6.3-18.3-8.3c-1.7-0.5-3.3-1.1-5-1.6
			c-0.4-0.1-0.9-0.4-1.2-0.7c-0.4-0.3-0.7-0.7-0.2-1.2c1.9-2.3,3.4-4.9,4.5-7.7c1.2,1.5,1.3,3.4,2.4,4.8c0.3,0.3,0.4,0.8,0.9,0.5
			c1.1-3.2,2.3-6.3,3.4-9.5c0.3-0.4,0-1.1,0.4-1.5c0.1,0,0.1-0.2,0-0.3c0.3-0.5,0-1.2,0.4-1.6c0.1-0.1,0.1-0.3,0-0.4
			c0.4-0.6-0.1-1.4,0.4-2c0.1,0,0.1,0,0.1,0c0.1-0.1,0.1-0.2,0-0.3c0.4-0.7-0.1-1.5,0.4-2.1c0.2-0.2,0.2-0.5,0.1-0.7
			c0.4-0.8-0.2-1.8,0.4-2.6c0.1-0.2,0.1-0.5,0-0.7c0.5-1-0.2-2.1,0.5-3.1c0.5-2.3-0.1-4.6,0.4-6.8c0.2-0.5,0.2-0.9,0.1-1.4
			c-1-0.2-0.9,0.7-0.9,1.2c-0.4,3.3-1.1,6.6-2.1,9.8c-0.8,3-1.9,6-2.9,8.9c-0.2,0.6-0.4,1.4-1.1,1.5c-0.9,0.1-0.9-1-1.3-1.5
			c-0.7-0.8-0.6-2.1-1.5-2.8c-0.8,0.2-0.9,1-1.2,1.5c-2.6,5.1-6.3,9.5-10.8,12.9c-3.2,2.4-6.4,4.9-10.2,6.5
			c-0.4,0.2-0.9,0.5-1.3,0.1c-0.4-0.4-0.1-0.8,0-1.3c0.1-0.9,1-1.7,0.2-2.8c-1.2,1.4-2.2,2.8-3.3,4c-2.9,3.1-6.2,5.8-9.8,8
			c-8.1,5.5-16.7,10.2-25.7,14.1c-2.4,1.1-5.1,1-7.4-0.1c-1.8-0.9-3.7-1.7-5.6-2.6c-7.8-3.6-15.2-8-22.2-13c-3.7-2.5-7-5.6-9.7-9.1
			c-0.3-0.4-0.5-1.2-1.4-1c-0.3,0.8,0.3,1.4,0.4,2.1c0.1,0.5,0.4,1.1-0.1,1.5c-0.5,0.4-1,0-1.5-0.2c-2.4-1.2-4.7-2.6-6.9-4.2
			c-6-3.8-10.8-9.2-13.9-15.5c-0.2-0.4-0.3-1.1-1.1-1.1c-0.7,0.4-0.5,1.3-0.9,1.9c-0.6,0.8-0.6,2.3-1.7,2.3s-1.2-1.6-1.7-2.6
			c0,0,0-0.1,0-0.2c-1.7-5.3-3.2-10.6-4.3-16.1c-0.1-0.4-0.2-0.6-0.6-0.2c0,2,0.1,4.1-0.2,5.7c0.5,1.1-0.1,2.4,0.4,3.5l0.1,0.8
			c0.5,0.8,0,1.7,0.4,2.5c-0.1,0.1,0,0.2,0.1,0.3c0.5,0.6,0,1.5,0.4,2.1c-0.1,0-0.1,0.1-0.1,0.1c0,0.1,0,0.2,0.1,0.2
			c0.5,0.6,0,1.4,0.4,2c-0.1,0.2,0,0.3,0.1,0.4c0.4,0.5,0.1,1.1,0.4,1.6c-0.1,0.2,0,0.3,0.1,0.4c0.4,0.4,0,1.1,0.4,1.5
			c0.5,0.4,0.2,1.1,0.5,1.6c0.5,2.8,1.5,5.5,3,8c0.6,0.3,0.7-0.2,0.9-0.5c0.5-1.7,1.2-3.5,2.1-5.1c1.1,3.7,3.2,6.4,5.2,9.3
			c-2.8,0.3-5.4,1.4-7.7,3c-7,4.4-14.2,8.4-20.4,13.9c-4.8,4-8.7,9-11.6,14.5c-3,6.1-6.8,11.8-9.9,17.8c-1.8,3.5-3.5,7-5.3,10.5
			c-0.9,1.9-2.2,3-4.5,2.8c-1.6-0.1-3.2-0.3-4.7-0.7c-3.9-1-7.5-2.8-11.3-3.8c-1.8-0.5-3.5-1.1-5.1-2c-3.1-1.7-5.9-3.8-8.4-6.3
			c-1.2-1.4-2.5-2.7-3.9-3.9c-0.7-0.6-1.2-1.5-1.3-2.4c-0.4-3.2-1.4-6.4-2.9-9.3c-1.1-2.2-2.2-4.4-3.2-6.7c-0.5-1.1-1.1-2-1.9-2.8
			c-2.8-3-6.4-5.1-10.4-6c-1.3-0.4-2.7-0.4-4,0c-1.6,0.4-3.2,0.8-4.8,1.2c-0.7-4.7-0.6-9.4-0.9-14c-0.5-7.7-0.7-15.3-1.1-23
			c-0.2-5.5-0.6-11-0.9-16.5c-0.2-1.2-0.1-2.5,0.5-3.7c1.6-2.7,2.3-5.9,1.9-9c-0.1-0.8,0-1.7,0-2.6c0.1-2.9,0.1-2.9,2.9-3.2
			c-0.2-1.2-1.2-0.9-2-1.1h-4.3c-1.4,0.2-3.1-0.6-4.3,0.9c0.8,1.3,2.1,0.8,3.2,0.9c2.8,0.2,2.9,0.2,2.9,3.1v4.5
			c0.1,2.8-1.2,5.1-2.5,7.4c-0.6,1.1-1.8,1.7-3,1.8c-4.4,0.4-7.7-1.8-9.2-6c-0.6-1.8-0.5-3.9-2-5.3c-0.8,0.1-0.7,0.7-0.5,1.2
			c0.3,2.4,1,4.7,1.9,6.9c0.3,0.7,0.4,1.5,0.5,2.3c0.3,6.9,0.6,13.7,0.9,20.6c0.2,5.2,0.4,10.4,0.7,15.6c0.4,6,0.9,12,1.2,18.1
			c0.2,2,0.1,2.2-2,2.1c-2.5,0-4.4,1.3-6.2,2.7c-1,0.8-1.6,2-1.7,3.3c-0.6,2.7,0.4,5.6,2.4,7.5c0.4,0.5,0.8,0.9,1.2,1.4
			c-6.3,3-6.1,9.6-1.3,13c-2.3,1.7-3.8,3.7-3,6.7c0.6,2.9,3.2,5.1,6.2,5.1c-0.3,0.6-0.5,1.1-0.8,1.6c-2,4.1-0.1,7.9,4.3,8.6
			c0.4,0.1,0.7,0.1,1,0.1c1.3-0.2,1.8,0.2,1.8,1.6c0.2,3.9,0.5,7.7,0.7,11.5c0.6,11.9,1.1,23.8,1.5,35.7c0.2,7.9,0.6,15.8,0.9,23.7
			c0.5,11,1.2,22,1.3,33c0,4.9,0.2,9.7,0.4,14.6c0.4,1.3,0,2.5,0.3,3.8c0,1.4,0,2.7,0.1,4.1c0.6,9.9,1,19.7,1.4,29.5
			c0.3,6.4,0.5,12.8,0.7,19.2c0.4,10.7,0.8,21.3,1.2,31.9c0.2,6.3,0.4,12.6,0.7,18.9c0.4,9.5,0.9,18.9,1.3,28.3
			c0.1,4.2,0.2,8.3,0.4,12.5c0,1-0.1,2,0.9,2.5c1.3,1.1,2.6,2.3,4.6,2c1,0,2.1,0,3.1,0.1c2.2,0,4.5,0.2,6.6-0.7
			c1.3-0.5,2.5-1.3,2.7-2.8c0.3-1.4,0.4-2.9,0.2-4.3c-0.3-1.7-0.5-3.4-0.6-5.2c-0.5-9.2-1-18.3-1.4-27.5
			c-0.4-10.1-0.8-20.3-1.4-30.4c-0.6-8.8-1-17.6-1.5-26.5c-0.4-9.3-1-18.7-1.4-28c-0.4-9.1-0.8-18.2-1.4-27.3
			c-0.6-9.8-1.1-19.6-1.6-29.4c-0.5-8.5-1-17.1-1.4-25.6c-0.2-4.5-0.4-8.9-0.6-13.4c-0.4-7.3-0.8-14.7-1.2-22
			c-0.3-5.9-0.7-11.9-0.9-17.9c-0.2-2.1-0.3-4.2-0.1-6.3c0.7,0.2,1.5,0.3,2.2,0.3c1.4,0,2.8,0.7,3.7,1.8c1.5,1.6,3.1,3.1,4.7,4.5
			c4.4,3.8,8.6,7.7,13,11.4c5.4,4.4,10.7,9.1,16.8,12.7c2.8,1.7,5.8,2.9,8.8,4.3c2.7,1.2,5.8,1.9,8.8,1.8c5.3-0.1,10.5-0.7,15.7-1.6
			c1.9-0.3,3.9-0.4,5.6-1.4c4.2-2.3,8-5,11.6-8.1c4.6-4.3,9.1-8.8,13.5-13.3c0.4-0.4,0.8-1.1,1.7-1.2c-0.1,0.6-0.1,1-0.2,1.4
			c-0.9,4.2-1.9,8.4-2.8,12.6c-0.2,0.4-0.3,0.8,0.1,1c0.4,0.2,0.4,0.2,0.3,0.8c0.2,3.2,2.1,4.4,5,3.2c2.4-1.2,4.3-3.1,5.5-5.5
			c3.4-5.9,5.1-12.6,8.4-18.7c0.6,1.8,2,1.5,3.4,1.3c7.1-1.1,14.2-2.3,21.3-3.5c2.9-0.5,3.6-1.3,3.2-4.2c-0.4-2.9-0.3-5.9-0.8-8.8
			c-0.4-2.4,0.1-2.8,2.6-2.6c9.9,0.8,19.9,1,29.9,0.5c9.5-0.6,19-0.9,28.4-2.5c1.7-0.3,2.1,0.3,2,1.9c-0.3,3.1-0.5,6.2-0.9,9.3
			c-0.3,2.6,0.2,3.6,2.6,4c7.6,1.4,15.3,2.7,22.9,4c1.5,0.3,2.7,0.2,3.2-1.8c0.8,1.2,1.5,2.5,2,3.8c3,6.3,4.6,13.3,10,18.3
			c0.3,0.3,0.5,0.6,0.6,1c2,4,3.5,8.2,4.6,12.6c2.2,10.4,3.8,21,3.8,31.8c0,6.8,0,6.7-6.8,7.2c-6.6,0.5-13.1,1.3-19.6,1.6
			c-2.2,0.1-4,0.1-5.2-2c-0.7,0.2-0.9,0.8-1,1.4c-0.3,9.4-0.1,18.8-0.1,28.3c0.3,1.4-0.6,3.1,1.1,4.1c1.3-1.4,0.7-3.3,1.1-5
			c0.3-1.4,0.9-2,2.4-2c2.7,0,5.3-0.6,7.9-0.7c5.4-0.5,10.8-0.4,16.2-0.8c1.4-0.1,1.6,0.8,1.4,1.9c-1.2,7.2-2.3,14.5-4.6,21.5
			c-6.1,18.9-13.1,37.6-19.8,56.3c-4.5,12.8-7,25.9-8.8,39.2c-0.3,2.4-0.2,4.7,1.3,6.7c0.8,1.2,0.6,1.8-0.8,2.3
			c-6.4,2.2-12.8,4.6-19,7.3c-3.4,1.4-6.8,1.3-10.3,1.5c-1.9,0.1-2.6-0.9-2.6-2.6c-0.1-2.5-0.5-5.1-0.8-7.6c-3-9.9-4.8-20-7-30.1
			c-1.1-5.1-1.8-10.2-2.2-15.4c-0.4-6.3-0.9-12.6-1.1-18.9c-0.1-1.1-0.3-2.2-0.5-3.3c-0.1-0.8-0.1-1.9-1.2-1.8
			c-1.1,0.1-1,1.1-1.1,1.9v0.5c-0.5,5.1-0.6,10.3-1,15.5c-0.3,3.1-0.1,6.3-1,9.3c-0.7,2.4-1,4.9-0.9,7.4c0.1,1.8,0.1,3.7-0.1,5.5
			c-0.7,7.5-0.6,15.2,0.4,22.7c0.5,4.5,1.4,8.9,1.1,13.4c-0.2,2.7-0.3,2.9-3,2.4c-6.9-1.1-13.6-2.9-20.6-3.2
			c-5.7-0.2-11.1-2.5-16.8-2.5c-1.3,0-1.7-0.6-1.4-1.8c0.4-1.6,0.5-3.2,0.4-4.8c-0.7-6.6-1.3-13.3-2.3-19.8
			c-0.2-1.2-0.6-2.3-1.1-3.4c-2.3-4.7-4.1-9.6-6-14.4c-3-7.8-5.9-15.7-10-23.1c-2.1-3.8-4.4-7.4-5.7-11.6
			c-2.2-7.2-4.6-14.3-7.1-21.4c-3.7-9.6-6.4-19.6-8.1-29.8c-0.7-0.8,0.9-1.6,0.1-2.4c-1.2-0.4-2.3-0.8-1.8,1.2
			c0.9,7.1,2.4,14,4.6,20.8c3.2,9.6,6.5,19.3,9.7,29c1,3.1,1.8,6.2,3.5,9.1c3.9,6.7,7.2,13.7,10.1,20.9c3.2,7.9,6,16,9.7,23.7
			c0.2,0.5,0.3,1,0.4,1.6c0.8,5.3,1.4,10.7,1.9,16.1c0.5,3.2,0.3,6.5-0.5,9.7c-0.3,1.3-1.1,2.4-2.3,3c-9.8,5.8-19.9,10.9-30.3,15.5
			c-1.2,0.5-2.4,0.9-3,2.2c0.8,0.8,1.7,1.2,2.7,0.3c0.4-0.6,1-1.1,1.7-1.3c10.2-4.4,20.1-9.6,29.7-15.3c2.6-1.5,5.6-2,8.5-1.5
			c3.9,0.5,7.6,2.1,11.5,2.2c7.8,0.2,15.3,2.3,22.9,3.5c3.1,0.5,3.8,1.3,3.9,4.4c0.2,3.5,0.3,6.9-0.8,10.2c1.7,0.3,1.6,2.4,3,2.9
			c0.2-0.9,0.2-1.9-0.1-2.8c-0.8-2.3-0.5-4.6-0.5-6.9c0.2-2.1,0-4.3-0.5-6.4c-1-3.2-0.8-6.4-1-9.7c0-1.1,0-2.2-0.2-3.3
			c-1.3-8.4-1.8-16.8-1.5-25.3c0.2-5.9-0.1-11.9,1.3-17.8c0.9-3.8,0.9-7.8,1-11.7c0-1.1,0.2-2.3,0.6-3.3c0.6,6.5,0.3,13.1,1.6,19.5
			c0.8,3.7,0.9,7.4,1.7,11.1c1.4,6.6,3.1,13,4.4,19.6c0.9,4.1,2.7,7.9,2.9,12.3s1.1,8.7,1.1,13.1c0,3-0.3,5.9-0.8,8.8
			c1.1-0.4,2.4,0.3,3.4-0.8c-0.2-1.3-1.6-2.3-1.2-3.8c0.3-2,0.4-4,0.3-6c0-3,0.2-3.3,3.3-3.2c3.6,0.1,7.2-0.5,10.5-1.9
			c6.1-2.6,12.3-5,18.6-7.1c1.7-0.6,3.5-0.6,5.1,0.2c10.4,4.6,20.9,9.2,31.4,13.7c3.1,1.3,6.5,2.1,9.1,4.6c1,0.4,2.1,0.2,2.9-0.6
			c-0.2-0.8-0.8-1.4-1.6-1.6c-0.8-0.3-1.7-0.7-2.6-1.1c-13.2-5.6-26.5-11.2-39.6-17c-0.8-0.3-1.5-0.7-2.2-1.3
			c-2.6-2.2-3.2-5.1-2.6-8.4c0.8-4.8,1.5-9.6,2.3-14.4c0.5-4.2,1.4-8.4,2.6-12.4c6.1-18.2,12.5-36.4,19.1-54.4
			c2.3-5.7,4.2-11.7,5.7-17.7c1.6-6.6,2.8-13.3,3.7-20c0.2-1.4-0.9-1.5-1.8-1.6c-1.7-0.1-3.3-0.1-5,0c-6.6,0.7-13.3,0.8-20,1.3
			c-2.5,0.2-2.8-0.2-2.8-2.7v-14.4c0-2.6,0.4-3,2.9-3c7.2,0.1,14.4-0.9,21.5-1.7c2.5-0.7,5.2,0,7.5-1.7c0.6-0.9,0.8-2,0.6-3
			c-0.1-4.1,0.2-8.1-0.4-12.2c-0.3-2,0.2-2.5,1.7-1.7c6.1,3,12.6,4.5,19.1,6c2.7,0.6,3,1.1,1.7,3.6c-5.1,10.1-12.2,18.2-22.8,22.8
			c-0.5,0.3-1,0.8-0.9,1.2c0.1,0.4,0.5,0.4,0.9,0.2c1.8-0.3,3.4-1,4.9-1.9c3.2-1.7,5.8-4.2,8.5-6.6c4.7-4,7.9-9.2,10.8-14.5
			c0.4-0.9,0.8-1.8,1-2.7c0.4-1.5,0.3-3.2,2.1-4c0.3-0.2,0.4-0.9,0.6-1.3c0.5-1.1,0.9-2.2,1.4-3.3c2.1-4.9,4.4-9.8,6.2-14.8
			c3-8.4,4.7-17.1,5-26C377.9,308.7,377.8,303.2,377.4,297.8z M340.9,302.8c-0.4,1.9-1.2,3.7-2,5.5c-0.9,1.8-1.8,3.6-2.9,5.3
			c-0.2,0.3-0.4,0.5-0.5,0.8c0,0,0,0,0,0.1c0,0,0,0-0.1,0.1c-0.9,1.3-1.8,2.6-2.7,3.9c-0.1,0.2-0.3,0.4-0.4,0.6
			c-0.4,0.8-0.7,1.6-0.8,2.4c0,0.1,0,0.2,0,0.3c0,0.4-0.6,0.7-1,0.2c-0.1-0.1-0.1-0.2-0.1-0.3c-0.5-0.5-0.7-1.1-1.1-1.6
			c-0.6-0.8-1.3-1.5-1.7-2.4c-0.9-1.9-0.8-4-1-6c-0.1-1.2-0.3-2.4-0.3-3.6c0-1.1,0.2-2.1,0.3-3.2c0.4-2.3,1-4.5,1.1-6.8
			c-0.2-0.3,0.1-0.9,0.6-0.8c1.1,0.2,2.1,0.8,3.1,1.2c1,0.4,2.1,0.8,3.2,1.2c2.1,0.8,4.1,1.7,6.2,2.3
			C341.2,302,341.2,302.5,340.9,302.8z"/>
		<path class="st2" d="M266.7,549c0.9-1.5,2.1-0.7,3.3-0.5c0.6-0.4,1.4-0.4,2,0.1c2.8,1.3,5.8,2.2,8.9,2.5c6.1,1.1,12,2.6,18.2,3.1
			c11.2,0.9,22.5,1.8,33.7-0.4c5.1-1,10-2.9,12.8-8c0.3-0.6,0.7-1.3,1.6-1.3c1-0.1,1.9-0.6,2.9-0.5c1.6,2.2,1.1,4.7,0.8,6.9
			c-0.9,6.9-5.3,12.4-13.2,14.2c-4.1,0.9-8.3,1.3-12.5,1.3c-3.7-0.1-7.3-0.5-10.9-1c-7.8-0.9-15.7-1.8-23.5-2.8
			c-5.8-0.8-11.8-0.7-17.5-2c-2.9-0.6-5.4-2.1-6.5-5C265.9,553.6,265.9,551.2,266.7,549z"/>
		<path class="st2" d="M253.6,549c2.1,0.1,2.1,0.1,2.4,2.1c0,0.3,0.2,0.6,0.5,0.8c0.1,2.1,0.5,4.3-0.9,6.2c-0.6,0.9-1.4,1.5-2.3,1.9
			c-5.1,1.8-10.4,2.9-15.8,3.4c-10,1-20,2.3-29.9,3.6c-4.9,0.7-9.8,1.6-14.8,1c-5.6-0.6-10.9-1.9-15.4-5.9
			c-3.8-3.4-5.1-7.7-5.2-12.6c0-1.1,0.5-2.2,1.3-3c0.8-0.4,1.6,0.9,2.5,0c1.3,0,1.8,1.2,2.6,1.9c4.2,4.6,10,7.3,16.2,7.5
			c16.4,0.8,32.9-0.6,48.9-4.3c2.5-0.7,5-1.5,7.5-2.5C252,548.9,252.8,548.3,253.6,549z"/>
		<path class="st3" d="M312.2,111.8l-5.8-2.6c-0.7-0.3-1.5-0.7-1.5-1.6c1.1-0.6,2,0.1,3,0.4c12,4.1,23.4,9.6,34,16.5
			c1.9,1.2,4,2,5.9,3.2c2.4,1.6,4.7,3.4,6.8,5.3c0.5-3.2-0.6-6.4-2.8-8.8c-3.8-4.6-9.3-6.6-13.9-10c-1.6-1.3-3.3-2.3-5.1-3
			c-6.2-2.7-12.5-5.3-18.9-7.6c-7.9-2.6-16-4.6-24.1-6c-15.8-3-31.8-4.2-47.8-3.8c-8.2,0.3-16.4,1.1-24.5,2.3
			c-15.4,2-30.3,6.8-44,14c-4.6,2.4-9.4,4.8-13,8.9c-1.7,1.9-3.2,4-4.8,6c-1.4,1.9-1.2,4.1-0.9,6.2c0.1,0.4,0.2,0.9,0.6,1
			s0.8-0.4,1.1-0.7c6.3-7.5,14.3-13.3,23.4-17c4.7-2,9.3-4.3,14.1-6c1.1-0.4,2.3-1.3,3.6-0.4c-1.1,1.9-3.1,2.4-4.9,3.3
			c-11.7,4.7-23.4,9.5-32.4,18.9c-0.7,0.8-1.3,1.6-1.9,2.4c-2,2.7-2,3.4,0.9,5c3.3,1.8,6.8,3.1,10.5,3.8c1.2,0.2,1.4-0.3,1.3-1.3
			c-0.1-2,0.1-4,0.6-5.9c0.8-6,6.9-9.1,12-6.1c0,0.5,0.1,1.1-0.5,1.5c-0.3,0.1-0.6,0.1-0.9,0c-5.4-1-8.1,1-8.4,6.5
			c-0.2,2.5-0.2,5,0.1,7.4c0.1,0.8,0.4,1.6-0.3,2.3c-0.1,0.5,0.1,1.1-0.5,1.5c-0.1-0.3-0.4-0.6-0.4-0.9c0.2-2.6-1.4-3.2-3.5-3.5
			c-3.5-0.6-6.8-1.8-9.9-3.4c-5.8-2.7-7.4-8.4-6.1-14.1c0.1-0.4,0.3-0.7,0.6-1c2.5-3.6,5.5-6.9,8.7-9.9c0.4-0.3,0.8-0.6,1.2-0.8
			c5.6-3.3,11.1-6.9,17.3-9.2c1.7-0.6,1.7-0.7,0.9-2.5c-0.6-2.1-0.1-4.5,1.4-6.1c1.7-1.4,3.7-2.5,5.8-3.3c1.3-0.5,2.2-1.7,2.1-3.1
			c0.7-6,1.3-11.9,2-17.9c0.4-3.5,1.3-7.2,4.1-9.7c2.4-2.3,5.3-4.1,8.4-5.4c8.7-3.1,17.9-3.9,27-4.9c12.6-1.3,25.2,0.1,37.8-0.2
			c3.2-0.1,6.4,0.7,9.5,0.9c9.2,0.6,18,3.3,27,5.3c2.9,0.6,5.6,1.7,8.1,3.3c3.8,2.5,6.6,6.1,7.9,10.4c2.5,6.8,3.7,13.9,3.7,21.1
			c-0.1,1.4,0.6,2.7,1.9,3.2c2.7,1.4,5,3.5,6.7,6c1.8,2.5,2.6,5.5,2.4,8.6c-0.2,1.3,0.5,2.5,1.6,3.1c2.1,1.2,4,2.7,6.1,3.8
			c3.7,1.9,6.5,4.8,9.1,8c0.5,0.7,0.9,1.5,1.1,2.3c0.7,2.8,0.6,5.7,0.9,8.6c0.1,1.6-0.8,2.6-1.8,3.4c-2,1.8-4.5,3.1-7.1,3.8
			c-1.4,0.3-3.1,0.3-4.1,1.1s-0.1,2.7-0.8,4c-0.1,0.2-0.1,0.5-0.2,0.7c-0.6-0.6-0.3-1.4-0.5-2.1c-0.4-0.6-0.6-1.3-0.5-2
			c-0.3-4.1-1.1-8-5.9-9.2c-0.2-0.1-0.4-0.3-0.5-0.5c-0.7-0.3-0.7-0.9-0.7-1.6c4.6-0.1,7.5,2,8.7,6.6c0.5,2,1.3,2.1,3,1.6
			c2.5-0.7,4.9-1.4,6.9-3.2c1.6-1.4,1.8-2.4,0.4-4.1c-1.7-2-3.7-3.6-6-4.7c-9-4.9-17.7-10.7-27.1-14.8
			C317.8,114,315.2,112.4,312.2,111.8z"/>
		<path class="st4" d="M73.8,165c-0.6-0.6-1.3-0.3-2-0.5c0.2-1.1,1.1-1.1,1.9-1.1c6.1,0.4,10.3-2.9,13.8-7.3
			c4.4-5.1,6.8-11.5,6.7-18.2c-0.2-26.1,0-52.1-0.1-78.2c0-4.1-0.3-8.2-2-12c-1-2.1-2-2.3-3.4-0.8c-1.7,5-2.2,10.1-2.3,15.3
			c-0.4,12.3,0,24.6-0.5,36.9c-0.3,7.6-0.2,15.2-0.4,22.8c-0.1,4.3-0.8,8.6-1.2,12.9c-0.1,1-0.4,1.9-0.8,2.7
			c-1.5,3.4-3.9,3.9-6.7,1.4c-2.4-4-3.7-8.5-3.8-13.2c0.1-13.5-0.2-27,0.1-40.5c0.2-9.9,0.6-19.7,1.2-29.6c0-3.4-0.1-6.9-0.5-10.3
			c0-0.6-0.2-1.4-0.9-1.5s-1,0.6-1.4,1.1c-2.4,3.8-2.9,8.1-3.2,12.4c-0.5,8.6-1.2,17.2-1.6,25.8c-0.5,10.8-0.9,21.6-1.7,32.4
			c-0.4,4.8-0.1,9.7-0.1,14.6c0.1,2.6-1,5.1-3,6.8c-1,0.5-2.1,0.5-3.1,0.1c-2.9-2.1-5-5.2-5.9-8.8c-1.4-4.7-2-9.5-2-14.4
			c0-4.8-0.7-9.6-0.5-14.3c0.7-15,0.5-30.1,2.3-45.2c0.4-3.4,1.1-7,0.2-10.5c-0.2-0.9,0-2.2-1.1-2.5c-1.3-0.3-1.4,1.2-2,2
			c-1.9,5.7-3.1,11.6-3.3,17.6c-0.6,7.7,0,15.4-0.6,23c-0.3,1.2-0.4,2.4-0.3,3.6c0,13.3,0.1,26.6,0,39.8c-0.2,1.5-0.7,2.9-1.5,4.2
			c-1.5,2.4-3.2,2.6-5.4,0.8c-2-2.8-3.3-6-3.8-9.4c-1.5-9.4-2.3-18.8-2.1-28.3c0.1-6.9-0.3-13.7-0.3-20.6c0-7.5,0.3-15,0.3-22.5
			c0-2.5-0.5-4.9-1.5-7.2c-0.8-2.1-1.3-2.1-2.8-0.3c-0.9,3.4-1.6,6.9-2.1,10.4c-0.2,1.1-0.2,2.2-1.2,3c-1.1-0.5-0.5-1.4-0.5-2.2
			c0.2-4,1.4-7.8,2.1-11.8c0.3-1.4,2.3-3.5,3.1-3.3c1.7,0.3,2.2,1.8,2.7,3.1c1.1,2.6,1.6,5.4,1.6,8.2c0.2,6.1,0.2,12.2-0.2,18.2
			c-0.2,2.8-0.1,5.6,0,8.4c0.1,9.3,0.2,18.5,0.5,27.8c0.1,4.5,0.6,8.9,1.4,13.3c0.4,1.6,0.5,3.3,0.8,5c0.5,2.4,1.4,4.8,2.8,6.8
			c1.1,1.7,2.4,1.6,3.3-0.3c0.7-1.4,1.1-3,1.2-4.6c0-10.4,0.1-20.8,0.2-31.2c0.1-8.8,0.1-17.6,0.3-26.4c-0.1-3.9,0.1-7.8,0.4-11.7
			c0.6-4.6,1.2-9.3,3.1-13.7c0.5-1.3,1.2-2.4,2.1-3.5c1-1.1,2-1,3,0.1c0.8,1,1.3,2.2,1.4,3.5c0.6,5-0.1,10-0.7,15
			c-0.4,3.9-0.7,7.8-0.9,11.7c-0.7,12.3-1,24.6-0.8,36.9c0,4,0.2,8,0.5,12c0.3,3.4,1,6.7,2.1,10c0.9,2.2,2.1,4.3,3.8,6.1
			c1,1.2,2.2,1,3.1-0.3c0.9-1.2,1.5-2.7,1.5-4.2c0-0.6,0.1-1.3,0.1-1.9c-0.3-9.1,0.4-18.2,0.8-27.3c0.3-7.5,0.6-15,1.1-22.5
			c0.5-8.8,1.2-17.7,1.9-26.5c0.3-3.5,1.9-6.5,3.7-9.5c0.4-0.7,1-1.3,1.8-1.5c0.9-0.3,1.8-0.2,2.1,0.9c0.6,1.6,1,3.4,1.1,5.1
			c0.2,11.4-0.4,22.9-1,34.3c0,0.5,0,1,0,1.4c0,15-0.3,30.1,0,45.1c0.2,3.5,1.3,6.8,3.1,9.7c1.1,2,2.9,1.8,3.9-0.4
			c0.6-1.5,1-3.2,1.1-4.9c1.5-14.3,1-28.7,1.3-43.1c0.2-9.6,0.4-19.2,0.4-28.8c0.1-5,1-9.9,2.6-14.6c0.3-1.3,1.5-2.2,2.8-2.3
			c1.2-0.1,2.4,0.6,2.9,1.7c1.2,2,1.9,4.2,2.3,6.5c0.4,2.5,0.6,5.1,0.6,7.6c0,26.2-0.1,52.5,0,78.7c0.1,6.4-2,12.5-6,17.5
			c-1,1.3-2.1,2.4-3.1,3.7C83.6,163.4,78.8,165.4,73.8,165z"/>
		<path class="st5" d="M171.6,394c-0.8-0.1-1.9-0.8-2,0.9c-0.9-3-0.9-6.1-1.4-9.2c-0.5-2.2-0.6-4.4-0.4-6.6c0.3-1.3,0.3-2.6,0-3.9
			c0.1-3.5,0-7,0.3-10.5c1.4,1.5,0.7,3.4,0.7,5c0,1.9,0.4,2.8,2.5,3.1c7.1,1.2,14.4,2,21.6,2.2c3.9,0,4.2,0.7,3.9,4.6
			c-0.5,4.4-0.7,8.9-0.7,13.4c0.1,3-0.4,3.5-3.4,3.5c-6.3,0-12.5-1.1-18.8-1.6C173.2,394.9,172.3,394.6,171.6,394z"/>
		<path class="st6" d="M171.6,394c3.9,0.4,7.8,0.8,11.6,1.2c3.5,0.5,7,0.7,10.5,0.8c1.8,0,1.8,0,1.8-1.7c0-4.2,0.2-8.3,0.5-12.4
			c0.1-1.3,0.3-2.5,0.4-3.8c0.1-1.8-0.1-2.1-1.9-2.2c-2.9-0.1-5.7-0.3-8.6-0.4c-5.6-0.3-11.1-1.4-16.6-2c-1-0.1-1.1-0.6-1.1-1.5
			c0.1-2.4,0.1-4.8-0.1-7.2c-0.2-7.4,1-14.6,1.7-21.9c0.7-5.2,2.1-10.3,4.1-15.1c1.1-3,2.3-6.1,3.4-9.1c0.1,0.2,0.2,0.6,0.2,0.6
			c1.2-0.4,0.7,0.5,0.7,1c-0.8,3.5-2,6.9-3.5,10.1c-2.9,7.1-3.2,14.6-4.3,22c-0.8,5.6-0.4,11.2-0.5,16.8c0,1.7,0.5,2.7,2.3,3
			c6.8,0.9,13.6,1.9,20.5,2c3,0,3.3-0.3,3.6-3.2c0.2-2.2,0.5-4.4,0.6-6.7c0.1-2.6,1.2-3.4,3.7-3.2c3.2,0.3,3.9,1,3.6,3.7
			s0,5.4-0.3,8.1c-0.2,0.7,0.2,1.5,0.9,1.7c0.1,0,0.2,0,0.3,0c0.8,0.2,1.6,0.3,2.4,0.4c7,0,14,1.2,21,1.1c3.3,0,3.3,0,4.4-3
			c1.6-4.3,4.4-6.4,8.8-6.5c9.3-0.3,18.7-0.6,28-0.6c5.5,0,9.2,2.1,11.1,7.3c0.2,1.1,1.3,1.9,2.4,1.7h0.1c3.5-0.4,7-0.4,10.5-0.7
			c1.7-0.2,2.4-0.8,2.4-2.5s-0.3-3.3-0.4-5c-0.1-2.5,0.7-3.3,3.1-3.5c4.9-0.5,5.5,0,5.8,5c0.1,1.2,0.3,2.4-0.7,3.4
			c-0.3,0.2-0.5,0.6-0.5,1c-1.2-0.3-1-1.3-1.1-2.1c-0.1-1-0.1-2.1-0.3-3.1c-0.2-1.2-0.5-2.2-2.1-1.9s-1.9,1-1.9,2.5
			c0.4,6,1,11.9,0.8,17.9c-0.3,7.4-0.4,14.8-0.4,22.3c-0.1,0.8,0,1.6,0.3,2.3c0.5,0.8,1.4,0.7,2.2,0.6s1.2-0.7,1.3-1.5
			c0.1-1.9,0-3.8,0.1-5.8c0.1-1-0.2-2.1,1.1-2.6c0.3,1.3-0.4,2.7,0.5,3.9c1.3,2.2,0.8,4.5,0.4,6.7c-0.2,0.7-0.8,1.3-1.5,1.4
			c-0.5,0.1-1.1,0.2-1.7,0.2c-4.6,0.3-5.2-0.2-5.1-4.8c0-2.6-0.3-5.3-0.1-7.9c0.1-1.6-0.7-2.1-2.1-2.2c-4-0.2-8,0.6-12,0.5
			c-1.2,0-1.5,0.9-1.9,1.8c-1.9,5.9-4.4,7.7-10.5,7.7c-8.7,0-17.4,0.1-26.1,0c-5.2-0.1-9.5-2-11.4-7.4c-0.3-1.1-1.4-1.8-2.6-1.7
			c-4.4,0.1-8.8-0.4-13.1-0.4c-3.7-0.1-7.3-0.4-11-0.6c-1.9-0.1-2.4,0.7-2.3,2.4c0.2,2.2,0.5,4.4,0.7,6.7s-0.4,2.9-2.6,3.2
			c-3.7,0.6-5.7-1.1-5.8-4.8c-0.1-1.9-0.3-3.7-0.5-5.5c-0.3-2.5-0.6-2.8-3.1-2.9c-6.9-0.3-13.7-1.3-20.5-2c-0.2,0-0.5-0.1-0.7-0.2
			c-0.4-0.3-0.4-0.6,0-0.9S171.4,394.4,171.6,394z"/>
		<path class="st7" d="M24.9,55.5c0.2,0.7-0.2,1.5,0.5,2.1c0.6,0.5,0.9,1.4,0.7,2.2c-0.7,3.4,0.1,6.8,0.1,10.3c0,3.9,0.1,7.8,0,11.8
			c-0.3,12,0.4,24,0.6,35.9c0.1,8.2,0.5,16.4,1,24.6c0.6,8.9,6.6,17.5,16.3,19.1c6.5,1.1,13.1,1.8,19.8,2c1.2-0.1,2.4,0,3.5,0.4
			c0.3,0.1,0.4,0.4,0.4,0.7c-1.4,0.4-3-0.4-4.4,0.5c-0.6,0.8-1.5,0.7-2.4,0.7c-0.8,0-1.6-0.1-2.4-0.3c-5.4-0.7-5.4-0.7-5.5,4.6
			c0.1,0.5-0.1,1-0.4,1.3c-0.3,0.3-0.3,0.7-0.5,1.1c-1.1-2.1-0.9-4.3-0.9-6.5c0-1.3-0.3-1.9-1.6-2c-2-0.1-4-0.5-5.9-0.8
			c-5.6-0.8-10.6-4.1-13.5-9c-2.7-4.1-4.7-8.8-4.4-14.1c0.2-7.3-0.1-14.5-0.7-21.8c-0.1-2.1-0.1-4.2-0.1-6.2
			c-0.4-16.6-0.7-33.2-0.6-49.9C24.4,59.9,24.1,57.6,24.9,55.5z"/>
		<path class="st8" d="M334.8,395.9c-0.1-0.9-0.8-1.1-1.6-1c-1.8,0.1-3.5,0.1-5.3,0.1c-0.3-0.9,0.4-1.3,1-1.7c1.7-1,2.2-2.6,2.5-4.4
			c0.8-4.1,0.3-8.3,1-12.3c0.4-2.2-1.6-2.4-2.7-3.3c0.9-0.6,2-0.3,3-0.5c1.5-0.3,2.9-0.6,4.3-0.9c0.3,0.2,0.4,0.5,0.5,0.8
			c0.2,5.2,0.8,10.4-0.5,15.5c0,0.3-1.6,0.5-0.1,1c-0.6,0.4-1,1-1,1.8C335.9,392.7,335.5,394.4,334.8,395.9z"/>
		<path class="st0" d="M328.5,188.6l-0.1-5.5c-0.1-0.5,0.1-1,0.4-1.3C328.7,184.1,329.2,186.4,328.5,188.6z"/>
		<path class="st9" d="M63.9,408c0.7,1.2,0.4,2.5,0.3,3.8C63.7,410.6,63.6,409.3,63.9,408z"/>
		<path class="st0" d="M178.4,188.6c0.8,1.1,0.4,2.3,0.4,3.5C178.4,191,178.3,189.8,178.4,188.6z"/>
		<path class="st0" d="M328,191.7c0.1-1.1-0.5-2.2,0.5-3.1C328.6,189.7,328.4,190.7,328,191.7z"/>
		<path class="st0" d="M327.6,195.1c0-0.9-0.4-1.9,0.4-2.6C328.1,193.3,328,194.3,327.6,195.1z"/>
		<path class="st0" d="M178.9,192.9c0.8,0.7,0.4,1.7,0.4,2.5C178.9,194.6,178.8,193.8,178.9,192.9z"/>
		<path class="st0" d="M326.6,200.2c0-0.7-0.3-1.5,0.4-2C327.1,198.9,327,199.6,326.6,200.2z"/>
		<path class="st0" d="M179.4,195.8c0.7,0.6,0.4,1.4,0.4,2.1C179.4,197.2,179.2,196.5,179.4,195.8z"/>
		<path class="st0" d="M327.1,197.9c0-0.7-0.3-1.5,0.4-2.1C327.6,196.5,327.5,197.2,327.1,197.9z"/>
		<path class="st0" d="M179.8,198.2c0.7,0.5,0.4,1.3,0.4,2C179.9,199.6,179.7,198.9,179.8,198.2z"/>
		<path class="st0" d="M326.1,202.1c-0.1-0.6-0.2-1.1,0.4-1.6C326.6,201.1,326.5,201.7,326.1,202.1z"/>
		<path class="st0" d="M180.8,202.5c0.6,0.4,0.5,0.9,0.4,1.5C180.9,203.6,180.7,203,180.8,202.5z"/>
		<path class="st0" d="M181.2,204c0.6,0.4,0.5,1,0.5,1.6C181.3,205.2,181.1,204.6,181.2,204z"/>
		<path class="st0" d="M184.6,213.5l0.9-0.5c0.1,0.4-0.2,0.9-0.6,1C184.9,214.1,184.7,213.7,184.6,213.5z"/>
		<path class="st0" d="M321.3,213.1l0.9,0.5c-0.1,0.2-0.2,0.5-0.3,0.5C321.4,213.9,321.3,213.5,321.3,213.1z"/>
		<path class="st0" d="M180.3,200.6c0.6,0.4,0.4,1,0.4,1.6C180.4,201.7,180.2,201.1,180.3,200.6z"/>
		<path class="st0" d="M325.6,204c0-0.6-0.1-1.1,0.4-1.5C326.1,203,326,203.6,325.6,204z"/>
		<path class="st10" d="M201.9,161.2c-0.6-1.7-1.5-3.2-2.6-4.6c-0.7,2.2-0.3,4.1-0.4,5.9s0,3.8,0,5.8c-0.9-0.1-0.9-0.9-1.2-1.4
			c-1.8-3.7-3.1-7.5-4-11.5c-0.3-1.9-0.8-3.7-1.5-5.5c-0.2-0.7-0.3-1.4-0.2-2.1c0.4-6.3,0.4-12.6,0-18.9c0-0.6,0.1-1.3,0.5-1.8
			c2.9-4.7,5.8-9.3,8.7-14c0.9-1.5,2.3-2.7,3.9-3.2c4.9-1.6,9.9-3.2,14.9-4.4c4.6-1.1,9.2-1.8,13.9-2.3c9-0.9,18-1,27-0.4
			c7.6,0.3,15.2,1.3,22.7,2.9c5.2,1.1,10.3,2.8,15.4,4.3c3.4,1,6.3,3.1,9.4,4.6c2.7,1.3,3.9,3.4,4.9,6c1.7,4.8,3.7,9.5,5.6,14.3
			c0.5,1.1,0.6,2.3,0.4,3.5c-0.4,1.9-0.7,3.8-0.8,5.7c-0.3,3.6-1,7.1-2,10.5c-1.2,4.4-2.8,8.6-4.7,12.8c-0.2,0.8-0.7,1.4-1.3,1.9
			c-0.4-3.8,0.1-7.6-0.4-11.9c-0.9,1.6-1.6,2.7-2.2,3.9c0,0.5-0.1,1-0.4,1.4c-3.9,4.5-8.1,8.6-14.2,9.9c-2.5,0.6-5.2,0.1-7.2-1.5
			c-4.4-3.6-9.8-5.8-15.5-6.3c-0.4,0-0.8-0.2-1-0.5c0.8-1.8,2.1-3.3,2-5.5c-0.1-3.2-1.7-5.1-4.9-4.8c-1.7,0.2-2-0.5-2.4-1.9
			c-0.9-3.7-1.6-7.4-2.6-10.7c1,4.2,2.4,8.9,3.1,13.2c0.8-1,2.3-1,3.9-0.5c1.9,0.5,2.6,2.1,2.8,3.8c0.3,2.4-0.7,4.7-2.5,6.2
			c-0.7,0.7-1.6,1.3-2.5,1.8c-2.5,1.2-5.1,2.1-7.6,3.2c-3.1,1.4-6.6,1-9.3-1c-1.4-1-3-1.7-4.8-2.1c-3-0.6-5.5-2.1-6.6-5.2
			c-0.3-1.8-0.6-3.5,0.5-5.1c0.8-1.3,2.2-2,3.7-1.8c2,0.4,2.4-0.6,2.8-2.3c0.9-3.6,1.6-7.2,2.6-10.7c-1,3.6-1.8,7.2-2.6,10.8
			c-0.4,1.6-0.9,2.3-2.7,2.2c-2.8-0.2-4.5,1.6-4.5,4.4c-0.1,0.8,0,1.6,0.1,2.4c0.2,0.8,0.6,1.5,1.1,2.1c1.2,1.1,0.8,1.8-0.6,2
			c-5.4,0.7-10.6,2.9-14.9,6.3c-2.1,1.6-4.9,2.1-7.5,1.4c-5.2-1.5-9.8-4.5-13.2-8.6C202.2,163.1,201.8,162.2,201.9,161.2z"/>
		<path class="st11" d="M238.3,160.8c1.5,3.2,4.4,4.2,7.5,4.8c1.2,0.2,2.3,0.7,3.2,1.4c2.7,2.3,5.9,2,9.1,1.9c0.2,0,0.5-0.1,0.6-0.3
			c1.7-2.1,4.4-2.1,6.7-3.1c1.2-0.5,2.2-1.1,3.2-1.9c0.5-0.3,0.8,0.1,1,0.4c5.6,0,11.1,2,15.4,5.5c3.7,3,7.6,3.1,11.6,1
			c3.9-2.1,7.4-5,10.2-8.4c0.3-0.4,0.6-0.7,0.9-1.1c0.6,0.4,0.8,1.1,0.5,1.7c-2.1,6.7-3.8,13.5-7.4,19.6c-1.8,3.1-3.9,5.9-7.2,7.8
			c-2.3,1.2-4.7,1.8-7.3,2c-1.9,0.4-3.8,0.3-5.7-0.3c-0.7-0.2-1.5,0-2.1,0.4c-1.7-0.2-3.3-1-5-1.4c-0.2,0.1-0.2,0.2-0.1,0.4
			c0.5,0.6,1.6,1,1.1,1.9s-1.4,0.4-2.2,0.3c-1.2-0.2-2.3-0.4-3.5-0.8c-4.2-1.3-8-3.8-10.8-7.2c-0.6-0.8-1.2-1.7-1.7-2.6
			c-1.4-2.3-1.6-2.3-3.1,0c-0.6,0.9-1.1,1.7-1.8,2.5c-3.1,3.8-7.3,5.9-11.7,7.7c-0.2,0.1-0.4,0.1-0.7,0.2c-0.5,0.1-1.1,0.1-1.6,0.1
			c-0.8,0-1.7,0.6-2.5-0.1c-0.3-0.3-0.2-0.4,0.8-2.2c-2,0.3-3.7,1.4-5.7,1.3c-3.6-0.1-7.3,0.2-10.9-0.8c-2.5-0.7-4.8-2.1-6.6-4
			c-3-3.4-5.3-7.2-6.8-11.4c-1.7-4.4-3.1-8.9-4.2-13.4c-0.1-0.6-0.4-1.1,0.2-1.5c2.1,2.9,4.8,5.5,7.8,7.5c1.8,1.3,3.9,2.2,6,2.9
			c2.9,1,6.2,0.4,8.6-1.6c4.4-3.6,9.8-5.7,15.5-6c-0.5-1.2-1.8-1.9-1.8-3.3c0.1-0.1,0.2-0.1,0.3,0
			C238.2,160.6,238.3,160.7,238.3,160.8z"/>
		<path class="st12" d="M197.6,108c-3.8,1.1-7.6,2.5-11.1,4.3c-4.5,2.1-9.1,3.9-13.5,6.2c-2.9,1.6-5.5,3.5-8,5.6
			c-1.9,1.5-3.6,3.1-5.5,4.6c-0.6,0.6-1.2,1.3-1.7,2c-0.7,1.1-1.5,2.1-2.5,3c-0.7-0.6-1.1-1.4-1.2-2.3c-0.3-3-0.4-5.9,2-8.3
			c1.3-1.4,2.5-2.9,3.6-4.5c2.8-3.4,6.7-5.3,10.4-7.6c7.5-4.6,15.7-7.4,23.9-10.4c6.7-2.5,13.7-3.6,20.6-5.1
			c3.4-0.6,6.8-0.9,10.2-1.1c4.4-0.4,8.7-0.9,13.1-1.3c0.9-0.1,1.8-0.1,2.6-0.1c5,0,10.1-0.1,15.1,0.1c5.5,0.2,11,0.9,16.4,1.3
			c8.5,0.6,16.9,2.3,25.2,4c12.5,2.7,24.6,6.8,36.1,12.4c2.3,3.3,5.8,5.2,8.8,7.7c2.4,1.9,4.7,3.9,5.9,6.8c0.4,1,1.1,2.1-0.4,2.9
			c-4.2-2.1-8.3-4.4-12.3-6.9c-9.6-5.7-19.8-10.2-30.4-13.6c-5.9-2.7-12.1-4.3-18.4-5.8c-5.4-1.2-10.9-2-16.5-2.5
			c-3.8-0.4-7.6-0.9-11.4-1.2c-4.4-0.3-8.8-0.3-13.2,0c-0.5,0-0.9,0.1-1.4,0.1c-9.8-0.1-19.3,1.7-28.8,4.1
			C209.3,103.8,203.3,105.7,197.6,108z"/>
		<path class="st13" d="M230.2,192.4c1.9-1.1,4.1-1.2,6.1-2c0.4-0.1,0.9,0.1,1,0.5c0.3,0.5-0.1,0.7-0.4,1c-0.5,0.5-1.3,0.6-1.6,1.4
			c1.4,0.1,2.7-0.6,4-0.3c1.8,0.8,3.5,2,5.2,2.9c8.2,4.4,15.8,3.2,22.9-2.3c0.4-0.5,0.9-0.8,1.5-0.9c1-0.4,2,0.2,3,0.3
			c0.8,0,1.6,0.5,2.7,0.2c-0.9-0.8-1.8-1.4-2.6-2.1c-0.3-0.2-0.3-0.6-0.1-0.8l0,0c0.2-0.2,0.4-0.2,0.6-0.2c2,0.9,4.3,0.9,6,2.4
			c-0.8,3.4-1.7,6.8-2.4,10.2c-0.6,3-2.6,5.6-5.3,7c-5.1,2.8-10.6,4.5-16.3,5.2c-1.4,0.1-2.9-0.1-4.3-0.5c-3.9-0.9-7.6-2.1-11.2-3.7
			c-5-2.2-7.3-6.2-7.9-11.4C230.8,197,230.5,194.7,230.2,192.4z"/>
		<path class="st14" d="M183.6,128.1c-1.3,0.1-2.5-0.5-3.8-0.5c-4.9-0.1-7.1,2.8-7.7,7.1c-0.3,2.2-1,4.5-0.2,6.9
			c0.2,0.6-0.2,1-0.8,0.8c-4.8-1.1-9.6-2.3-13.7-5.2c-0.1,0-0.1-0.1-0.2-0.2c-1.7-1.5-1.6-1.7-0.4-3.5c2.6-3.9,6.4-6.6,9.8-9.6
			c5.1-4.5,11.4-6.8,17.5-9.6c2.2-1,4.4-1.9,6.6-2.9c0.6-0.3,1.3-0.9,1.9,0c-3.9,3.1-6.9,7.3-8.5,12.1
			C183.7,124.9,183.5,126.5,183.6,128.1z"/>
		<path class="st10" d="M335.4,135.4c0.3,0.1,0.6,0.3,0.9,0.3c3.4,0,4.6,2.4,5.5,5.1c0.7,2.1,0.5,4.2,0.5,6.4
			c-0.5,2.9-1.3,5.7-2.3,8.5c-0.6,1.6-1.3,3.1-2.1,4.5c-1.7,3.1-4.8,5.1-8.3,5.6c-1.2-6.5-1.9-13.1-0.5-19.7
			C329.9,141.9,332.1,138.2,335.4,135.4z"/>
		<path class="st14" d="M312.2,111.8c0.9-0.8,1.6,0,2.4,0.3c8.9,3.6,17.4,7.9,25.5,13c2.2,1.3,4.5,2.5,6.7,3.7
			c2.6,1.4,5,3.2,7.1,5.2c0.4,0.4,0.7,0.8,1,1.3c0.8,1.5,0.6,2.4-0.7,3.6c-3,2.6-6.6,3.6-10.6,4.2c-0.7-1.9-1-4-2.2-5.7
			c-0.9-1.4-2.2-2.3-3.8-2.6c-1-0.2-2-0.5-2.9-1c-0.8-3.4-2.5-6.5-4.9-9.1c-0.7-0.8-1.4-1.5-2-2.4c-2.7-3.4-6.4-5.3-10-7.6
			C316,113.7,314.1,112.8,312.2,111.8z"/>
		<path class="st10" d="M173.6,145.8c-0.6-3.1-0.8-6.3-0.6-9.5c0.1-1.1,0.3-2.2,0.6-3.3c0.9-3.3,4.3-5.3,7.6-4.4
			c0.7,0.2,1.3,0.5,1.9,0.9c0.7,2,0.2,4.1,0.4,6.1c0.1,1.7,0.1,3.5,0.1,5.3c0.2,2.3-0.1,4.6-0.9,6.8c-0.6,1.6-1.1,3.3-1.4,5
			c-0.4,1.7-0.8,3.4-1.3,5.3c-1.2-0.5-2.1-1.4-2.7-2.5c-1.6-2.4-2.7-5.1-3.2-7.9C174.1,146.9,173.9,146.3,173.6,145.8z"/>
		<path class="st15" d="M170.7,395.4c0.8-0.9,1.8-0.5,2.7-0.4c6.4,0.8,12.8,1.6,19.3,1.9c0.2,0,0.5,0,0.7,0c2.1,0.2,2.2,0.3,2.3,2.4
			c0.1,2.6,0.5,5.2,0.6,7.9c0,2,0.6,2.3,2.6,2.7c1,0.2,2.1,0.2,3.1,0c1.4-0.4,1.6-0.5,1.3-2c-0.5-2.9-0.8-5.8-0.9-8.8
			c0-1.7,0-1.7,1.8-1.5c2.9,0.2,5.9,0.5,8.8,0.6c5.9,0.1,11.8,0.8,17.7,0.6c1.1,0,1.8,0.2,2,1.5c0.6,4.9,6,7.5,10.1,7.5
			c9.3,0,18.5-0.1,27.8,0.2c4.6,0.2,8.5-3.2,9-7.7c0.3-1.9,0.3-1.9,2.1-1.9c4.4-0.2,8.8-0.3,13.1-0.5c2-0.1,2,0,2,2
			c0,3.7,0,7.3,0,11c0,1.9,0,1.9,1.9,1.9c1.2,0,2.4,0,3.6-0.1c1.5-0.1,1.8-0.4,1.8-1.9c0-1.9,0-3.8,0-5.8c0.2-2,0.4-4.1,0.5-6.1
			c0-0.9,0.3-1.5,1.4-1.5c3.3,0.2,6.4-0.7,9.7-0.6c2-0.5,4-0.2,6-0.2c1.6,0,2,1.3,2.3,2.6c0.2,1.3,0.2,2.6-0.2,3.8
			c-0.9,3.2-1.2,6.6-2.1,9.8c-1.3,4.5-2.4,9.1-3.9,13.6c-0.1,0.3-0.1,0.6-0.2,0.9c-2.8,5.1-3.5,10.9-5.3,16.3
			c-1,2.8-1.9,5.8-3.7,8.3c-2.6,3.6-2.7,8.1-4.1,12.2c-1.5,4.4-2.2,9-4.3,13.4c-1.8,3.8-2.6,8.2-3.7,12.4c-0.5,2.1-1.1,4.1-1.9,6.1
			c-1.5,3.6-0.9,7.5-1.5,11.2c-0.2,1.3-0.5,2.5-1.1,3.6c-0.9,1.9-2,3.8-1.9,6.1c0,0.9-0.3,1.8-0.9,2.4c-3.6,4.1-7.7,7.4-13.3,8.3
			c-5.1,0.7-6.2,0.2-8.7-4.5c-1.5-3.7-2.5-7.5-3.1-11.5c-1-5.4-2.4-10.7-3.7-16.1c-0.6-2.3-0.7-4.7-1.1-7.1
			c-1.2-7.3-2-14.7-2.2-22.1c-0.1-4-0.6-8.1-0.9-12.1c0-0.1-0.2-0.3-0.3-0.4c-0.6-0.1-0.7,0.4-0.7,0.8c0,1.8-0.4,3.5-0.4,5.2
			c0,4.1-0.4,8.1-0.7,12.2c-0.2,3.8-0.3,7.7-1.6,11.3c-0.2,0.6-0.3,1.2-0.3,1.9c0.1,7.4-0.7,14.7-0.4,22c0.2,5.1,0.8,10.2,1.5,15.2
			c0.3,3.2,0.4,6.4,0.4,9.6c0,1.1-0.6,1.2-1.4,1c-3.7-0.8-7.6-1-11.2-2.2c-2.2-0.6-4.5-1-6.8-1c-4.7-0.2-9.4-0.9-13.9-2.1
			c-2.4-0.5-4.9-0.8-7.3-0.8c-0.9-0.1-1.9,0.2-2.9-0.4c0.7-2.3,1-4.6,0.9-7c-0.5-4.9-1.1-9.8-1.6-14.7c-0.1-0.7-0.2-1.4-0.3-2.1
			c-0.2-2.4-0.8-4.7-1.8-6.9c-2.9-5.9-5-12.1-7.4-18.2c-3.1-8.2-6.8-16.2-11.2-23.8c-1.4-2.5-2.5-5.2-3.3-8
			c-3.1-10.2-6.8-20.1-10-30.2c-1.9-5.7-3.4-11.6-4.3-17.6C171.1,397.1,170.8,396.3,170.7,395.4z"/>
		<path class="st16" d="M304,371.4c0.1-2.2-0.1-4.5-0.4-6.7c-0.1-0.8-0.4-1.5-1.3-1.3c-1.5,0.2-3,0.3-4.5,0.3
			c-0.9,0-1.3,0.5-1.3,1.3c-0.1,0.9,0,1.8,0.1,2.6c0.2,1.8,0.3,3.7,0.3,5.5c0.1,1.2-0.5,1.5-1.5,1.6c-2.6,0.1-5.3,0.3-7.9,0.5
			c-1.7,0-3.3,0.1-5,0.4c-1.2,0.3-2-0.2-2.2-1.5s-0.8-2.6-1.6-3.7c-1.5-2.4-4.2-3.9-7.1-3.8c-6.5-0.1-13.1-0.1-19.6,0.1
			c-3.3,0.1-6.5,0.2-9.8,0.3c-4.5-0.1-8.3,3.1-9,7.6c-0.4,2-0.4,2-2.4,2c-5.6,0.1-11.2-0.2-16.7-0.8c-3.2-0.3-6.4-0.1-9.6-0.5
			c-1.5-0.2-1.8-0.3-1.5-1.7c0.7-3.3,0.1-6.7,0.7-10c0.2-1.3-0.2-1.7-1.6-1.8c-0.6,0-1.1,0-1.7-0.1c-2.4-0.2-2.7,0-2.8,2.5
			c-0.1,3.1-0.4,6.2-0.9,9.3c-0.2,1.1-0.7,1.4-1.8,1.4c-4.5,0-8.9-0.4-13.4-0.9c-3-0.3-6-0.8-9-1.1c-0.8-0.1-1.6-0.3-2.4-0.4
			s-1.1-0.6-1-1.3c0.2-5.5-0.1-11,0.4-16.5c0.5-4.8,1.4-9.5,1.6-14.3c0.2-1.6,0.5-3.1,1.1-4.6c1.4-4.9,3.5-9.6,5.1-14.4
			c0.1-0.5,0.4-0.9,0.9-1.1c0,3,1.2,3.9,4,2.9c2.3-0.9,4.1-2.6,5.1-4.8c1.8-3.2,3.4-6.5,4.6-10c1.2-3.6,2.8-7,4.6-10.3
			c0.6,0.1,0.4,0.6,0.4,0.9c0.3,1.5,0.4,1.6,1.9,1.3c7.5-1.2,14.9-2.4,22.4-3.7c2.9-0.5,2.8,0,2.5-3.1c-0.4-4.1-0.3-8.3-1.3-12.6
			c11,0.4,21.8,1.4,32.6,0.7s21.5-1.1,32.3-3c-0.3,3.9-0.6,7.7-1,11.5c-0.4,4.2-0.6,3.8,3.1,4.4c6.8,1.1,13.6,2.4,20.5,3.6
			c1,0.3,2,0.4,3,0.3c1.1-0.3,0.3-2,1.2-2.7c1.7,2.2,2.6,4.8,3.8,7.3c1.7,3.7,3.3,7.4,5,11.2c0.3,0.8,0.8,1.4,1.4,1.9
			c2.2,1.7,3.7,4,4.5,6.6c1.3,3.5,3,6.9,3.6,10.6c1,5.5,1.8,11,2.6,16.5c0.8,6.5,1.1,13,1,19.6c0,1.5,0.2,2-1.9,2.4
			c-3.4,0.6-6.8,0.7-10.2,1.3c-5.6,0.9-11.3,0.8-16.9,1.4c-0.3,0-0.7,0-1,0c-1.7,0-1.8-0.1-2.1-1.9C304,372.1,304,371.7,304,371.4z"
			/>
		<path class="st17" d="M181.4,302c-1,0.2-1.4,0.9-2,1.5c-4.4,4.4-8.8,8.8-13.3,13.2c-3.8,3.7-8.2,6.5-12.7,9.3
			c-2,1.3-4.4,1.3-6.6,1.7c-4.3,0.9-8.7,0.9-13,1.4c-3.2,0.3-6.4-0.2-9.3-1.5c-3.5-1.5-7-3.1-10.3-5c-3.7-2.3-6.9-5.1-10.3-7.7
			c-4.3-3.2-8.2-7.1-12.3-10.5c-3.5-2.9-6.8-6-10.1-9.1c-1.6-1.5-1.6-1.6-0.1-3c5.4-4.7,8.6-11,12.3-17c1.8-2.9,3.2-6,4.3-9.2
			c0.3-0.6,0.6-1.3,1-1.9c1-0.1,1.3,0.7,1.8,1.1c2.1,1.9,4,3.9,6.1,5.7c3,2.6,6.6,4.3,10.4,5.1c2.4,0.5,4.6,1.9,6.9,2.5
			c2.1,0.6,4.1,1.3,6.2,1.9c1.6,0.4,3.3,0.5,5,0.1c1.3-0.2,2.4-1,2.9-2.2c0.6-1.3,1.3-2.6,1.9-3.9c3.3-6.6,6.8-13.2,10.7-19.5
			c1.2-2,2.4-4.2,3.4-6.3c1.8-3.6,4.2-6.9,7.1-9.9c5.2-5.6,11.6-9.7,18-13.8c1.8-1.2,3.6-2.3,5.5-3.4c1.7-1,2.3-0.7,2.6,1.1
			c0.7,4.4,1.5,8.8,2,13.2c0.5,5.1,1.3,10.2,1.8,15.4c0.3,3,0.4,6,1,9c0.7,3.8,1.3,7.7,2.1,11.5c0.5,2.2,0.4,4.4,0.8,6.6
			c0.7,4,0.9,8,1.4,12.1c0.5,2.5,0.1,5.1-1,7.4c-2,3.8-3.7,7.7-5.1,11.8c-1.2,3.3-2.8,6.5-4.7,9.4c-0.8,1.5-2.2,2.6-3.8,3.1
			c-1.8,0.4-2.3,0.1-2.4-1.7c-0.2-4,0.2-8,1.2-11.8l1.1-4.6C181.9,303.3,181.8,302.6,181.4,302z"/>
		<path class="st18" d="M336.6,351.3c-0.8-1.7-0.6-3.6-0.9-5.4c-0.9-4.7-1.4-9.4-2.4-14.1c-0.6-2.1-1.3-4.1-2.1-6.1
			c-0.4-1.1-0.3-2.2,0.4-3.2c3.8-6,7.1-12.3,9.8-18.8c0.7-1.5,0.6-2-0.7-2.5c-4.5-1.6-8.9-3.4-13.5-5.2c-0.3,1.7-0.6,3.4-0.7,5.1
			c-0.1,1.9-0.3,3.8-0.7,5.7c-0.4,1.7-0.4,3.5,0,5.2c0.1,0.4,0.1,0.8,0.1,1.2c0.1,0.6-0.3,1.1-0.9,1.2l0,0c-0.6,0.1-0.8-0.4-1-0.8
			c-2-4.6-4.2-9.1-6.1-13.8c-0.8-1.9-1.9-3.5-2.8-5.3c-0.6-1.2-0.8-2.6-0.8-3.9c0.1-4.4,0.6-8.7,0.6-13.1c-0.1-14.8,0-29.6-0.1-44.4
			c0-2.9,0.7-5.7,0.5-8.6c0.5-3,2-3.9,5.1-3c10.6,2.9,19,9,26.2,17.2c7.9,9,13.8,19.3,20.1,29.4c2.4,4.1,3.9,8.7,4.2,13.4
			c0.5,4.4,1.3,8.7,1.8,13c1,8.8,1.5,17.6,0.2,26.4c-1.8,11.3-5.2,22.3-10.4,32.5c-1.9,3.9-4.4,5.3-8.5,4.5
			c-5.6-1.1-11-2.9-16.1-5.4C337.5,352.4,337,351.9,336.6,351.3z"/>
		<path class="st9" d="M71,555.7c-0.3-1.2-0.5-2.4-0.4-3.5c0.2-7.1-0.4-14.2-0.7-21.3c-0.1-3.7-0.2-7.5-0.4-11.2
			c-0.5-7.8-0.6-15.6-1-23.4c-0.2-4.3-0.1-8.6-0.4-12.9c-0.4-4.8-0.1-9.6-0.5-14.3c-0.4-4.5-0.2-8.9-0.4-13.4
			c-0.5-7.9-0.7-15.8-1-23.7c-0.2-5.7-0.4-11.5-1-17.2c-0.9-10-0.5-20.1-1-30.1c-0.3-5,0.1-10-0.8-15c0-0.2,0-0.5,0-0.7
			c0.2-5.3-0.4-10.5-0.7-15.8c-0.3-4.9,0-9.9-0.5-14.8c-0.4-4.4-0.1-8.8-0.5-13.1c-0.4-4.1-0.2-8.1-0.4-12.2
			c-0.4-6.8-0.8-13.5-1-20.3c0-1.3-0.5-2.5-0.4-3.8c0.1-0.7,0.2-1.2,1-1.4c1.6-0.4,3-1.1,3.3-3c0.5-2.4-0.5-4.9-2.5-6.4
			c-0.6-0.5-1.9-0.4-1.8-1.6c0.1-0.9,1.1-1.1,1.7-1.6c2-1.8,2-5.9,0-8c-0.5-0.5-1-0.9-1.6-1.4c1.2-1,2.6-1.8,3.5-3.4
			c0.9,2.3,2.7,4.2,5,5.2c1.1,0.9,1.2,2.2,1.2,3.5c0.5,11.8,1.3,23.6,1.8,35.4c0.4,8,0.8,16.1,1.2,24.2c0.4,7.8,0.8,15.6,1.2,23.4
			c0.4,7.1,0.8,14.2,1.2,21.3c0.4,7.5,0.7,15,1.3,22.5c0.3,3.3,0.4,6.7,0.5,10c0.4,11.2,1,22.3,1.6,33.5c0.7,12.3,1.4,24.5,2.2,36.8
			c0.5,8.8,1,17.5,1.2,26.3c0.1,8.1,0.7,16.3,1.2,24.4c0.3,4.4,0.4,8.8,0.6,13.2c0.1,3.3,0.6,6.5,0.5,9.8s-1.6,5.5-4.1,6.4
			C76.7,559.2,72.9,558.2,71,555.7z"/>
		<path class="st19" d="M211,226.1c2.6,4.1,6.5,6.9,10.4,9.7c6.5,4.7,13.5,8.7,20.8,12.1c2.9,1.4,5.9,2.7,8.9,4c1.4,0.6,3,0.6,4.4,0
			c9.1-3.8,17.9-8.3,26.3-13.5c3.1-1.9,6-4.2,8.7-6.6c1.4-1.3,2.9-2.4,4.5-3.8c0.2,1.4,0.1,2.8-0.3,4.1c-1.6,8.4-2.4,17-4.1,25.4
			c-1,4.8-1.4,9.7-2,14.6c0,0.1,0,0.3,0,0.5c-0.8,4.9-1.1,5.2-6.6,5.8c-4.3,0.5-8.7,1-13,1.4c-2.4,0.2-4.8,0.4-7.1,0.4
			c-7.5,0.2-15,1.1-22.5,0.5c-3.8-0.3-7.6,0-11.4-0.8c-1.3-0.1-2.6-0.2-3.8-0.1c-2,0-2,0-2.6-2c-1.3-3.8-2-7.7-3.1-11.5
			c-1.9-6.8-3.8-13.6-5.7-20.5c-1.3-4.7-2.3-9.4-3.5-14.1c-0.1-0.5-0.3-1.1,0.1-1.6c0.8-0.2,1.4,0.7,2.3,0.5c0.1-1.7-1.3-3-1.2-4.6
			C210.7,225.8,210.8,225.8,211,226.1z"/>
		<path class="st20" d="M253.6,549c-1.5,0.6-3,1.1-4.4,1.7c-4.9,2-10.1,2.7-15.2,3.6c-4.1,0.8-8.3,1.2-12.4,1.8
			c-1.9,0.3-3.8,0.4-5.7,0.4c-5.3-0.1-10.6,1-15.9,0.5c-3.8-0.3-7.6,0-11.3-1.3c-3.9-1.4-7.6-3.2-10.3-6.5c-0.8-0.9-1.6-1.8-2.4-2.7
			c-0.2-0.5-0.3-0.9,0.4-1.1c4-1.5,7.7-3.8,11.7-5.3c3-1.3,5.9-2.8,8.7-4.6c4.3-2.4,8.5-4.9,12.9-7.3c2-1,4.3-0.6,6.3-0.3
			c4.6,0.8,9.2,1.8,13.8,2.6c1,0.1,2.1,0.2,3.1,0.1c2.7-0.1,5.4,0.3,8,1.1c3,0.8,6,1.4,9.1,1.7c0.6,0.1,1.1,0.2,1.6,0.3
			c3.5,0.7,3,0.9,3.5,3.9c0.4,2.6,0.1,5.4,0.1,8.1C255.1,547.2,254.2,548,253.6,549z"/>
		<path class="st21" d="M200.2,298.9c-2,0-2,0-2.1-1.9c-0.4-4.4-0.6-8.9-1.3-13.3c-0.5-3.5-0.6-7.1-1.1-10.7c-0.4-2.9-1-5.8-1.6-8.7
			c-0.8-4.4-1.4-8.8-1.8-13.2c-0.3-3.6-0.9-7.1-1.2-10.7c-0.3-4.1-1-8.2-1.6-12.3c-0.4-2.4-0.6-4.9-1.2-7.3c-0.3-1.4,0.2-1.7,1.2-2
			c0.1,0,0.1-0.1,0.2-0.1c2.4-1.2,4.2-0.8,6.2,1.3c3.2,3.1,6.8,5.8,10.6,8c0.7,0.4,1.4,0.7,1.5,1.7c0.2,4.2,1.6,8.1,2.6,12.1
			c3.1,11.9,6.5,23.8,9.7,35.7c1.1,4.3,2.3,8.4,2.2,12.9c0,0.9,0.3,1.9,0.4,2.8c0.1,1.6-0.2,1.9-1.8,2.2l-8.5,1.4l-11.5,1.9
			C200.8,298.9,200.5,299,200.2,298.9z"/>
		<path class="st20" d="M347.1,544.7c-0.8,1.3-1.6,2.5-2.4,3.8c-0.3,0.6-0.8,1.2-1.4,1.6c-3,1.7-5.9,3.6-9.3,4.3s-6.9,1.2-10.4,1.3
			c-4.1,0.1-8.2,0.2-12.2,0c-7.3-0.4-14.6-0.6-21.8-2.2c-4-1-8.1-1.7-12.2-2.2c-1.7-0.2-3.3-0.8-4.7-1.6c-0.9-0.6-1.8-1-2.9-1.2
			c-0.4-0.5-0.8-1-1.2-1.5c-0.6-0.5-0.8-1.2-0.7-2c0.8-2.6,0.4-5.2,0.4-7.8s0.2-2.9,2.8-2.6c5.9,0.7,11-1.8,16.3-3.8
			c4.8-1.9,9.6-3.8,14.5-5.4c1.4-0.5,3-0.4,4.4,0.3c6.2,2.8,12.4,5.4,18.5,8.2c7,3.2,14,6,21,9C346.8,543.2,347.3,543.7,347.1,544.7
			z"/>
		<path class="st22" d="M314.9,219.9c-1.5,20.6-0.4,41.2-0.9,61.8c0,3.4-0.3,6.8-0.8,10.2c-0.2,1,0,2.1-0.1,3.1
			c-0.2,1.7-0.7,2.1-2.3,1.9c-7.4-1.3-14.7-2.5-22.1-3.8c-1.1-0.2-1.6-0.8-1.4-1.8c0.5-2.3,0.3-4.6,0.6-6.9c0.6-4.3,1.1-8.7,1.8-13
			c1-6.3,1.8-12.6,3-18.9c0.8-3.8,1.2-7.7,1.8-11.6c0.5-3.3,1-6.6,1.5-9.9c0.1-0.6,0.5-1.2,1.1-1.4c4.3-2.5,8.5-5.3,12.4-8.4
			c1-0.8,1.9-1.7,2.7-2.7c0.5-0.7,1.4-0.9,2.1-0.6C315.1,218.4,315,219.2,314.9,219.9z"/>
		<path class="st23" d="M267,523.1c0.8,0,1,0.6,1.3,1.2c0.9,2.3,3.4,3.6,5.8,3c2-0.3,4-0.8,5.9-1.6c1.5-0.7,3.2-1.1,4-2.8
			c0.1-0.2,0.3-0.5,0.5-0.5c2-0.2,2.6-2.2,3.9-3.3c0.9-0.9,1.3-2.3,0.9-3.5c-0.1-0.6-0.3-1.1,0-1.6c1.8-2.6,2.8-5.6,3-8.7
			c0.2-1.4,0.7-2.8-0.5-4c-0.2-0.2-0.3-0.5-0.1-0.8c0,0,0-0.1,0.1-0.1c1.4-1.1,1.3-2.8,1.8-4.3c1.5-5.2,3-10.3,4.5-15.5
			c0.3-0.7,0.4-1.4,0.5-2.1c-0.1-0.8,0.2-1.6,0.9-2.1c0.9-0.9,1.4-2.1,1.6-3.4c0.5-2.1,0.7-4.4,1.8-6.4c0.3-0.4,0.4-0.8,0.5-1.3
			c-0.1-1.6,0.3-3.2,1.1-4.6c1.1-2.3,0.6-5.1,2.1-7.3c0.5-0.9,1.1-1.8,1.7-2.6c0.7-0.9,1.2-1.9,1.5-3c0.1-0.5,0.2-0.9,0.4-1.4
			c1-1.7,1.6-3.5,1.7-5.4c0.1-1.3,1-2.5,1.4-3.7c0.7-1.8,1.1-3.6,1.3-5.5c0-1,0.3-1.9,0.9-2.6c1.1-1,1.6-2.4,1.5-3.9
			c0-0.4,0.1-0.8,0.3-1.1c1.4-2.8,2.2-5.7,2.6-8.8c0.2-0.9,0.5-1.9,0.9-2.7c0.7-1.6,1.1-3.3,1-5.1c0-0.5,0.1-1,0.3-1.4
			c1.1-2,0.9-4.3,1-6.5c0.1-2-0.9-2.9-2.9-2.9c-1.6,0-3.2,0-4.8,0c0.6-0.4,1.4-0.6,2.1-0.4c5,0.2,9.9-0.5,14.8-0.7
			c1.4,0,1.6,0,1.4,1.4c-0.5,3.3-1.1,6.6-1.7,9.9c-2,11.8-6.4,22.9-10.4,34c-4.2,11.6-8.5,23.2-12.3,35c-1.7,5.1-3.8,10-5,15.2
			c-1.4,6.1-2.3,12.4-3.2,18.6c-0.2,1.7-0.6,3.3-0.8,5c-0.4,2.8-0.4,5.6,1.8,7.9c0.3,0.3,0.5,0.6,0.7,1c0,0,0,0.1,0,0.3
			c-1.8,1.1-4,1.3-6,2.1c-5.9,2.5-12.1,4.5-18,7.2c-0.7,0.3-1.4,0.4-2.1,0.4c-2.6,0.1-5.2,0.2-7.8,0.3c-0.5,0-0.8-0.1-0.9-0.6
			c-0.2-0.6-0.3-1.2-0.4-1.9C267.7,528.6,266.9,525.9,267,523.1z"/>
		<path class="st24" d="M71,555.7c2.3,1.8,4.9,2.2,7.7,1.9c2.6-0.2,4.6-2.2,4.8-4.8c0-2,0.3-4-0.4-5.9c-0.1-0.2-0.1-0.5-0.1-0.7
			c0.3-5.2-0.3-10.4-0.6-15.5c-0.3-4.6,0.2-9.3-0.8-13.8c0-0.2,0-0.3,0-0.5c0.1-6.5-0.7-12.9-0.5-19.4c0.1-3.7-0.4-7.5-0.6-11.2
			c0-2.5-0.1-4.9-0.4-7.4c-0.7-3.6,0.2-7.4-0.8-10.9c0-0.2,0-0.3,0-0.5c0.3-4.4-0.3-8.8-0.6-13.1c-0.2-3.7,0.1-7.5-0.8-11.2
			c0-0.2,0-0.3,0-0.5c0.3-4-0.5-8-0.5-11.9c0-4.6-0.5-9.2-0.6-13.9c-0.1-3.1-0.1-6.2-0.4-9.3c-0.5-5.9-0.7-11.8-1-17.6
			c-0.2-2.9-0.2-5.7-0.4-8.6c-0.5-6-0.7-11.9-1-17.9c-0.2-2.9,0.1-5.8-0.5-8.6c-0.7-4.1,0.2-8.3-0.8-12.4c0-0.2,0-0.3,0-0.5
			c0.3-5.2-0.3-10.4-0.6-15.5c-0.3-4.2,0.3-8.5-0.8-12.6c0-0.2,0-0.3,0-0.5c0.3-4.9-0.4-9.7-0.6-14.6c-0.2-4.4,0-8.9-0.8-13.3
			c0-0.2,0-0.3,0-0.5c0.3-4.6-0.7-9.1-0.5-13.6c0.1-1.3-0.1-2.6-0.5-3.8c3.3-0.9,3-0.8,3.4,2.5c0.5,4.3,0,8.6,0.8,12.9
			c0.1,1,0.1,2.1,0.1,3.1c0,4.7,0.3,9.4,0.9,14c0,0.2,0,0.3,0,0.5c-0.2,5.1,0.4,10.2,0.6,15.3c0.2,4.3,0,8.6,0.8,12.9
			c0,0.2,0,0.3,0,0.5c-0.2,4.2,0.4,8.3,0.5,12.4c0,4.5,0.5,8.9,0.6,13.4c0.2,5.6,0.6,11.3,0.9,16.9c0.3,5.9,0.7,11.8,1,17.7
			c0.3,5.6,0.7,11.3,1,16.9c0.3,6.1,0.7,12.3,1,18.4s0.7,12.4,1,18.6s0.7,12.2,1,18.4s0.7,12.1,1,18.1s0.6,11.9,1,17.9
			c0.2,3.3,0.2,6.7,0.4,10c0.5,7.2,0.7,14.5,1,21.7c0.1,3,0.1,6.1,0.4,9.1c0.6,5,0.3,10,1.3,15c0.7,2.7-0.9,5.4-3.6,6.1
			c-0.2,0.1-0.5,0.1-0.7,0.1c-3.2,0.6-6.2-0.2-9.3-0.2C72.2,559.4,71.1,557.5,71,555.7z"/>
		<path class="st13" d="M77.4,257.2c-0.8,1.4-1.7,2.9-2.4,4.3c-0.7,1.3-1.7,2.5-2.8,3.5c-1.3,1.3-3.4,1.4-4.8,0.3
			c-1.2-0.8-2.1-2-2.5-3.4c-1.3-4.4-1.8-8.9-1.3-13.5c0.4-2.6,1.7-5.1,3.7-6.8c2.8-2.4,5.7-4.4,9.4-4.9c1.2-0.2,2.4-0.2,3.5,0
			c4.1,0.9,7.2,3.2,10.2,5.9c0.5,0.5,0.9,1.1,1.1,1.8c1.3,2.7,2.6,5.5,3.9,8.2c0.9,2,1.6,4.1,2.1,6.3c0.7,2.5,0.4,5.2-0.8,7.6
			c-1,1.9-1.9,3.9-2.8,5.9c-0.4,0.9-0.9,1.2-1.9,0.7c-3.3-1.4-6.7-2.4-10.3-3c-2.7-0.6-3.1-1.2-3.2-3.8c-0.1-3-0.3-6-0.5-9
			L77.4,257.2z"/>
		<path class="st25" d="M329.8,373.3c3.3,0.2,3.8,0.5,3.4,3.6c-0.6,4.4-0.1,8.9-1.2,13.2c-0.5,1.9-1.2,3.2-3,3.9
			c-0.5,0.2-0.8,0.5-1,1c-1.1,0.3-2.2,0.4-3.3,0.4c-5.6,0.2-11.3,0.6-16.9,1c-3.7,0.2-3.3,0.4-3.3-3.3c0-5.2,0-10.4,0-15.6
			c0-2.5,0.1-2.6,2.5-2.7c3.6-0.1,7.2-0.2,10.7-0.5c3.4-0.3,6.8-0.8,10.2-1.1C328.5,373.3,329.2,373.3,329.8,373.3z"/>
		<path class="st26" d="M336.6,351.3c3.1,2,6.6,3,10.1,4c2.2,0.6,4.4,1.4,6.6,2c0.6,0.1,1.3,0.2,1.9,0.3c3.4,0.3,5.6-1.1,7-4.2
			c3.2-6.9,6.3-13.9,7.9-21.5c0.3-1.3,0.8-2.4,1.2-3.6c0.6-2.2,0.9-4.5,1-6.8c0.3-3.3,1.4-6.6,1.2-9.9c-0.3-4.1,0-8.3-0.6-12.3
			c-0.7-4.9-0.7-9.8-2.1-14.6c-0.3-1.6-0.5-3.1-0.5-4.7c-0.7-4.9-2.5-9.6-5.2-13.7c-2-3-3.7-6.1-5.7-9.1c-3-4.9-6.2-9.6-9.7-14.1
			c-3-3.6-5.9-7.3-9.7-10.2c-1.6-1.3-3-2.8-4.8-4c-3.4-2.2-7-4.1-10.8-5.4c-1.1-0.4-2.3-0.8-3.4-1.2c-3-1-4.2-0.5-5.4,2.3
			c-0.2-1.5,0.3-2.8,0.5-4.3c0.1-1,0.8-1.2,1.5-0.9c3.1,1.1,6.4,1.9,9.5,3.2c3.5,1.5,6.9,3.2,10.3,5.1c2.2,1.4,4.2,2.9,6,4.7
			c5.7,5.1,10.7,11,14.8,17.4c3.5,5.3,6.7,10.7,10,16c1.3,2,2.5,4.1,3.5,6.2c1.2,3.1,2,6.4,2.4,9.7c0.8,5.3,1.6,10.5,2.4,15.8
			c0,0.3,0.1,0.7,0.1,1c0,6.2,0.3,12.3-0.1,18.5c-0.4,5.7-1.4,11.4-3,16.9c-1.3,4.6-3.3,9-5.1,13.4c-1.4,3.4-2.9,6.8-4.3,10.1
			c-0.7,2-2.9,3.1-4.9,2.5c-2.5-0.6-4.9-1.2-7.4-1.7c-3.7-0.7-7.1-2.3-10.5-3.8c-1.1-0.5-2.2-1-3.3-1.4
			C337,352.9,336.5,352.1,336.6,351.3L336.6,351.3z"/>
		<path class="st27" d="M67.6,239.9c-2.3,2-2.4,2-4.5-0.1c-0.9-0.8-2-1.4-3.1-1.6c-0.9-0.1-1.5-0.8-1.5-1.7v-0.1
			c-0.2-5.4-0.7-10.8-1-16.2c-0.4-6.4-0.7-12.7-1-19.1c-0.2-3.6-0.2-7.3-0.5-11c-0.2-2.6-0.4-5.2-0.4-8l6.2,1.6
			c2.9,0.9,3.9,3.2,4,5.9c0.4,7.5,0.8,15,1.1,22.4c0.4,8.2,0.6,16.4,1.2,24.6C68.4,237.8,68.2,239,67.6,239.9z"/>
		<path class="st28" d="M337.1,388.3c-0.3-0.2-0.5-0.6-0.4-1c0.8-5.1,0.5-10.2,0.4-15.3c0.1-6.1,0-12.2-0.5-18.2
			c4.3,1.5,8,3.8,12.1,4.8s8.4,2,12.7,3c-0.2,1.7-0.8,3.3-1.6,4.8c-3.6,7.1-8.8,13.2-15.2,18C342.5,386.2,339.9,387.5,337.1,388.3z"
			/>
		<path class="st29" d="M67.7,164.5l-0.2-0.4c1.8-1.1,3.9-1.9,6-2.2c3.8-0.5,7.4-2.4,9.9-5.3c2.1-2.3,4-4.8,5.6-7.4
			c1.5-2.6,2.3-5.5,2.3-8.5c0-5.8,0.1-11.5,0-17.3c-0.3-15.2,0.8-30.3,0.4-45.5c-0.2-7.3-0.4-14.7-0.5-22c0-3.4-0.6-6.7-3-9.4
			c-0.1-1.2,0.8-1.5,1.6-1.7c0.9-0.1,1.8,0.3,2.1,1.2c1.2,2.2,2,4.5,2.3,7c0.4,3.6,0.5,7.2,0.4,10.8c0,24.8-0.1,49.5,0.1,74.3
			c0.1,9-3.8,15.7-9.8,21.8c-2.7,2.8-6.4,4.3-10.3,4.3c-1,0-2.1-0.2-3,0.4L67.7,164.5z"/>
		<path class="st28" d="M92.8,274.9c-4,5.8-7,12.1-12.3,16.7c-0.9,0.9-2.2,1.3-3.5,1.2c-2.7-0.3-3.3-0.8-3.2-3.6
			c0.3-7.1-0.7-14.2-0.7-21.3c-0.1-1.5,0.4-3,1.4-4.1c0.9-1.2,1.7-2.4,2.4-3.8c0.3,2.2,0.5,4.5,0.5,6.7c0,2.8,0.8,3.8,3.6,4.5
			c3.7,0.8,7.3,1.5,10.7,3.2C92.2,274.5,92.3,274.6,92.8,274.9z"/>
		<path class="st30" d="M52.7,171.3c-0.4-2-0.5-3.9-0.4-5.9c0-0.9,0.4-1.2,1.3-1.1c3.2,0.3,6.4,0.9,9.7,0.7c1.7,0.1,3.4,0.1,5,0.1
			c1.1,0,1.8,0.3,1.7,1.6c-0.1,2.7,0.1,5.4-0.2,8.1c-0.3,2.5-1.3,4.8-2.9,6.7c-1,1.3-2.7,1.9-4.3,1.4c-1.2-0.4-2.5-0.5-3.7-0.8
			c-2.1-0.4-3.8-1.9-4.3-4C53.9,175.9,53.3,173.6,52.7,171.3z"/>
		<path class="st31" d="M303.5,401.1c-0.6,0.7-0.4,1.5-0.4,2.3c0,2.3,0,4.6,0,7c0,0.9-0.3,1.3-1.3,1.4c-3.8,0.5-4,0.3-4-3.6
			c0-5,0-9.9,0.1-14.9c0-2.7,0.5-5.4,0.4-8.1c-0.2-5.9-0.3-11.8-0.9-17.7c0-0.5,0-1,0-1.4c0-0.9,0.2-1.4,1.2-1.4c0.3,0,0.6,0,1,0
			c2.8-0.3,2.8-0.3,3.3,2.4c0.1,1,0.2,2.1,0.2,3.1c0,0.8-0.2,1.6,0.4,2.3L303.5,401.1z"/>
		<path class="st32" d="M56.7,239c2.8-0.2,5.2,0.5,6.9,2.8c0.6,0.8,1,1.4,0.5,2.4c-1.4,2.5-2,5.4-1.7,8.3c0.1,0.9-0.3,1.4-1.2,1.3
			c-3.2-0.1-6.4-0.3-9.3-1.9c-2.8-1.8-4.1-5.3-3.3-8.5c0.3-0.9,0.8-1.7,1.6-2.3C52.2,239.7,54.3,238.5,56.7,239z"/>
		<path class="st33" d="M67.6,239.9c-0.2-4.2-0.3-8.4-0.6-12.6c-0.2-3.3,0-6.7-0.4-10c-0.5-3.7-0.1-7.5-0.5-11.2
			c-0.4-3.2-0.1-6.4-0.4-9.5c-0.3-2.5-0.3-5.1-0.5-7.6c-0.2-2.2-1.5-4.1-3.3-5.3c1.9,0.7,3.7-0.1,5.5-1c0.4,1.9,0.6,3.9,0.6,5.8
			c0.1,3.6,0.6,7.1,0.6,10.7c0.1,4.3,0.4,8.6,0.6,12.9c0,3,0.1,6,0.4,9.1c0.7,4.3,0.2,8.6,0.7,12.9C70.8,237.2,71.4,238,67.6,239.9z
			"/>
		<path class="st28" d="M53.7,265.3c-0.6-0.1-1.4-0.1-2.2-0.3c-2.3-0.6-4-2.5-4.4-4.8c-0.3-1.7,1.3-4.9,2.8-5.7
			c1.4-0.8,3-1.1,4.5-0.7c2.3,0.5,4.6,1.2,6.8,2.1c0.9,0.3,1.5,1.1,1.7,2c0.5,2.9-0.7,5.3-3.4,6.2c-1.1,0.4-2.3,0.6-3.5,0.8
			C55.3,265.2,54.5,265.3,53.7,265.3z"/>
		<path class="st34" d="M62.2,271.1c0,1.5-0.4,2.8-1.9,3.5c-0.8,0.4-1.5,0.9-2.2,1.4c-1,0.7-2.2,0.9-3.4,0.6
			c-0.8-0.2-1.6-0.3-2.4-0.3c-2-0.2-3.6-1.5-4.3-3.4c-1.1-2.4-0.1-5.2,2.3-6.3c0.5-0.2,1-0.4,1.6-0.4c1.7-0.2,3.5-0.2,5.2-0.3
			c2.6-0.2,4.9,1.8,5.1,4.4C62.2,270.7,62.2,270.9,62.2,271.1z"/>
		<path class="st35" d="M58.1,286.8c-0.4,0-0.8,0-1.2,0c-3.2-0.3-4.8-2.3-4.5-5.5c0.2-2.5,1.6-3.8,4.1-3.6s4.5,0.4,6.1,2.6
			c0.8,1.2,1,2.7,0.8,4.1c-0.1,0.8-0.7,1.2-1.3,1.5C60.8,286.6,59.4,286.9,58.1,286.8z"/>
		<path class="st0" d="M211,226.1h-0.4c-0.2-0.2-0.6-0.4-0.2-0.6S210.8,225.7,211,226.1z"/>
		<path class="st36" d="M318.4,90.7c-5.7-2.2-11.7-3.2-17.5-4.5c-3-0.7-6.1-0.8-9.2-1.2c-7.2-0.9-14.4-1.4-21.6-1.8
			c-4.8-0.3-9.7-0.5-14.6-0.6s-9.9,0.1-14.8-0.1c-9.3-0.4-18.4,1.3-27.6,2.3c-6.3,0.7-11.9,3.3-17.8,5.2c-0.9,0.4-1.8,0.8-2.8,0.9
			c-0.3-2,0.3-3.8,0.5-5.7c0.6-4.3,0.8-8.8,1.4-13.1c0.7-4.7,2.5-8.8,6.9-11.7c4.3-2.6,9-4.4,14-5.2c5.1-0.9,10.2-2,15.4-2
			c4.2,0,8.3-0.6,12.5-0.4c5.3,0.3,10.6,0.5,16,0.4c14.2-0.3,28.1,2.2,41.8,5.7c9.3,2.4,14.6,8.2,16.9,17.3c1,4,1.2,8,1.6,12.1
			C319.5,89.2,319.5,90.2,318.4,90.7z"/>
		<path class="st14" d="M337.1,109.4c0,0.3,0,0.6,0,1c-0.1,0.9-0.6,1.2-1.3,0.7c-1.6-1-3.4-1.8-5.1-2.5c-6.9-3.2-14.1-6-21.4-8.3
			c-4.5-1.6-9.4-2.3-14.1-3.3c-4-0.8-7.9-1.6-11.9-2.2c-3.3-0.5-6.6-1-9.9-1.2c-2.9-0.2-5.9-0.6-8.8-0.8c-4.1-0.3-8.3-0.8-12.4-0.6
			c-3.8,0.1-7.5,0-11.3,0.1c-3.3,0-6.5,0.6-9.7,0.8c-3.7,0.3-7.4,0.8-11.1,1.1c-4.9,0.4-9.7,1.6-14.5,2.5c-6.6,1.5-13.1,3.5-19.3,6
			c-2.3,0.8-3.5-0.1-3.3-2.5c0-1.6,0.8-3.1,2.2-4c1-0.6,2.1-1.2,3.1-1.8c6.2-3,12.7-5.5,19.3-7.6c2.5-0.6,5.1-1.1,7.7-1.3
			c3.2-0.5,6.4-1,9.7-1.3c3.4-0.3,6.8-0.8,10.3-0.7c7.9,0.1,15.8-0.2,23.7,0.2c4.1,0,8.1,0.3,12.1,0.8c1,0.1,1.9,0.1,2.9,0.1
			c5.2,0.2,10.3,0.6,15.4,1.3c1.8,0.3,3.6,0.3,5.5,0.5c6.9,0.8,13.6,2.3,20.2,4.3c2.9,0.8,5.8,1.9,8.5,3.1c3.6,1.6,6.9,3.7,9.8,6.4
			C335.6,102.6,337,105.9,337.1,109.4z"/>
		<path class="st37" d="M318.4,90.7c0.4-0.6,0.5-1.3,0.5-2.1c-0.6-4.5-0.6-9-2-13.4c-1.2-3.7-2.7-7.3-5.6-10.2
			c-1.9-1.9-4.1-3.3-6.6-4.1c-6.5-2.1-13.2-3.7-19.9-4.9c-4.2-0.8-8.5-1.4-12.8-1.8c-4.8-0.5-9.5-0.7-14.3-0.6
			c-2.9,0.1-5.7,0.4-8.6-0.3c-0.9-0.2-1.9,0.3-2.8,0.4c-2.4,0-4.8-0.2-7.1-0.7c-0.6-0.1-1.2-0.4-1.6-0.1c-2.3,1.3-4.7,0.2-7,0.3
			c0.3-0.2,0.6-0.3,0.9-0.4c6.9-0.8,13.9-0.9,20.8-0.4c5.8,0.3,11.6,0.2,17.5,0.3c4.9,0.1,9.7,0.9,14.5,1.3c7.5,0.7,14.6,3,22,4.5
			c3.5,0.6,6.9,2.1,9.8,4.1c2.7,2,4.8,4.7,6,7.9c1.6,4.1,2.8,8.3,3.4,12.7c0.6,3.5,0.8,7.1,0.6,10.7C323.4,92.6,320.8,92,318.4,90.7
			z"/>
		<path class="st38" d="M347.6,128.1c1-2.4-0.7-3.9-1.9-5.4c-2.1-2.7-5-4.6-7.7-6.6c-0.9-0.7-1.8-1.3-2.6-2c-1-0.9-2-1.8-2.1-3.3
			c2.3,0.7,4.1,2.4,6.1,3.6c2.8,1.7,5.5,3.5,8.3,5.2c2.7,1.8,5,4.2,6.7,7c1.4,2.2,1,4.8,0.8,7.8C352.8,132.1,350.3,130,347.6,128.1z
			"/>
		<path class="st39" d="M88.3,46.6c2.5,0.8,2.9,3,3.3,5.1c0.7,3.8,0.4,7.6,0.5,11.5c0.1,10.1,1,20.3,0.4,30.4
			c-0.9,16.1-0.1,32.3-0.4,48.4c-0.1,3-1.1,5.8-2.7,8.3c-1.8,2.8-3.9,5.4-6.2,7.8c-2.6,2.6-6,4.3-9.7,4.6c-0.7,0-1.4,0.2-2.1,0.5
			c-1.2,0.9-2.5,0.9-3.8,1c-8.5,0-17-0.8-25.4-2.5c-3-0.7-5.7-2.2-7.9-4.3c-4-3.6-5.8-8.3-7.2-13.2c-0.2-0.6-0.3-1.3-0.3-1.9
			c0.3-9.2-0.6-18.3-0.9-27.5c-0.3-14-0.7-27.9-0.7-41.9c0-5.1-0.4-10.2,0-15.3c0.6-4.5,1.5-9,2.6-13.4c1.5-0.8,2,0.3,2.5,1.3
			c0.6,1.3,0.9,2.8,0.9,4.2c-0.1,6.9,1,13.7,0.3,20.6c-0.4,5.2-0.4,10.4,0.1,15.6c0.5,5.7,0,11.3,0.2,17c0.3,7.9,0.8,15.8,2.9,23.5
			c0.7,2.6,1.6,5.1,4.5,6.1c2,1.4,3.4,1.1,4.5-1.1c0.5-1,0.9-2.2,1.3-3.3c0.4-5.3,0.1-10.5,0.2-15.8c0.1-0.7,0.4-0.8,0.9-0.4
			c0.6,0.7,1,1.7,0.9,2.6c0.5,4.1,1.1,8.2,1.9,12.3c0.8,3.6,2.5,6.9,5,9.6c1.9,2.1,5.7,3,7.7,0.2s2.7-5.8,2.5-9.2
			c-0.4-10.5,0.7-20.9,1-31.4c0.2-6.1,0.6-12.3,0.9-18.4c0.4-7.4,1.1-14.8,1.6-22.2c0.3-3.9,0.9-7.6,3.1-10.9
			c2.2,0.4,2.1,2.2,2.1,3.7c0.2,4.3,0.1,8.7-0.2,13c-0.6,6-0.6,12-0.7,17.9c-0.3,15.5-0.1,31-0.1,46.5c0,3.1,0.7,6.2,2,9
			c0.6,1.6,1.6,2.9,3,3.9c0.3,0.2,0.6,0.5,0.9,0.7c2,1.3,3.5,0.9,4.5-1.3c0.7-1.4,1.1-3,1.3-4.6c1.2-9.9,0.9-19.9,1.1-29.9
			c0.3-10.9,0.2-21.7,0.5-32.6c0.1-4.6,0.2-9.1,0.3-13.7C86,53.7,86.9,50,88.3,46.6z"/>
		<path class="st40" d="M61.8,136.7c-0.7,2.1-1,2.3-3,2.4c-3,0.3-4.9-1.6-6.5-3.7c-2.3-3.1-3.8-6.7-4.3-10.5
			c-0.7-3.6-1.2-7.3-1.5-11c0-0.8-0.3-1.6-0.9-2.1c-0.4-0.4-0.3-0.9-0.3-1.4V85c0-0.4,0-0.8,0.2-1.2c0-6.9,0-13.9,0.4-20.8
			c0.2-4.5,0.7-8.9,1.5-13.3c0.4-2.3,1.1-4.5,2.1-6.6c1.6-0.5,1.9,0.8,2.2,1.8c0.5,1.5,0.6,3.2,0.3,4.8c-1.5,13-2,26.1-2.5,39.2
			c-0.6,11.8-0.2,23.6,1.2,35.3c0.4,3.2,1.6,6.2,3.5,8.8c1.2,1.7,2.9,3,4.9,3.7C60,136.9,60.9,136.9,61.8,136.7z"/>
		<path class="st41" d="M59,136.7c-2,0.3-3.4-0.7-4.6-2.2c-2.6-3.1-4.2-7-4.6-11.1c-0.4-4-0.6-8.1-1-12.1
			c-0.5-5.7-0.6-11.5-0.3-17.2c0.2-5.7,0.1-11.3,0.5-16.9c0.3-5.2,0.6-10.3,1-15.5c0.3-3.7,0.6-7.4,1.2-11.1c0.4-2,0.3-4.2-0.3-6.2
			c-0.3-0.8-0.6-1.3-1.5-1.3c0.2-0.5,0.4-1,0.7-1.5c0.5-0.7,0.9-1.9,1.8-1.6c1,0.4,1.7,1.3,1.7,2.4c0.3,2.1,0.4,4.3,0.3,6.5
			c-0.3,3.4-0.5,6.8-1,10.2c-0.4,2.8-0.6,5.7-0.7,8.6c-0.3,7.5-0.9,15-0.8,22.5c0.1,2.7-0.2,5.4-0.3,8.1c-0.1,7.5,0.1,15,0.8,22.5
			C52.7,126.8,54.4,132.5,59,136.7z"/>
		<path class="st42" d="M77.2,138.7c-1.4,0.2-2.3-0.8-2.8-1.8c-1.8-3.1-2.9-6.6-3-10.2c0-16.2-0.2-32.4,0.1-48.6
			c0.1-4.9,0-9.9,0.5-14.8c0.5-5.3,0.2-10.5,0.4-15.7c0.1-1.1-0.4-2.3-1.4-2.9c0-0.2,0-0.3,0.1-0.5c0.5-0.9,1-2.1,2.2-1.9
			c1,0.2,0.8,1.4,1.2,2.2c0.3,0.8,0.4,1.6,0.3,2.4c0.2,5.1,0.2,10.2,0,15.3c-0.3,5.8-0.4,11.6-0.6,17.5c-0.7,16.2-0.3,32.4-0.3,48.6
			c0,3.2,1.6,6.1,2.8,9.1C76.8,137.8,77,138.2,77.2,138.7z"/>
		<path class="st43" d="M39.3,132.4c-1.7,0.4-2.5,0-3.4-1.6c-1.4-2.6-2.4-5.4-2.7-8.4c-0.8-4.5-1.2-9.1-1.6-13.7
			c-0.6-7.3,0.1-14.5-0.5-21.8c-0.4-5.2-0.5-10.4-0.3-15.5c0.1-3.4,0.8-6.9,0.3-10.2c-0.7-4.8,0.2-9.6-0.9-14.3
			c-0.3-1.2-0.1-2.9-2.2-2.8c0-0.1,0-0.2,0-0.2c0.5-1.1,1-2.5,2.4-2.4c1,0.1,1.4,1.5,1.7,2.4c0.9,2.3,1.4,4.8,1.5,7.2
			c0.1,5.7,0.1,11.4,0,17c-0.3,12.4-0.1,24.8,0.3,37.1c0,4.9,0.5,9.7,1.6,14.5c0.2,0.9,0.3,1.9,0.3,2.9
			C35.9,126.3,37.5,129.4,39.3,132.4z"/>
		<path class="st41" d="M45.5,83.8c0,7.4,0,14.8,0.1,22.2c0,1.9,0,3.8,0,5.7c0,4.6,0,9.2,0,13.8c0,0.8,0.3,1.8-0.4,2.5
			c0-13.3,0-26.7,0.1-40C45,86.7,45.1,85.2,45.5,83.8z"/>
		<path class="st25" d="M232.6,384.6c0.1,3.8-0.6,7.6-0.5,11.5c0,1.7-0.1,1.7-1.8,1.7c-6.9,0-13.7-0.4-20.5-0.9
			c-1.8-0.1-3.5-0.1-5.3-0.2c-2-0.2-2-0.4-2.2-2.3c-0.4-5.5-0.3-11,0.4-16.4c0.2-1.7,0.2-1.8,1.8-1.7c5.7,0.5,11.4,0.5,17.1,1.1
			c2.9,0.3,5.7,0.1,8.6,0.2c2.2,0,2.2,0,2.3,2.3L232.6,384.6L232.6,384.6z"/>
		<path class="st44" d="M234,376.6c0-4.4,2.2-7.6,6.1-8.6c2.9-0.2,5.7-0.3,8.6-0.2c7,0,14.1,0,21.1,0c3.2,0,5.2,2.4,4.8,5.7
			c-0.5,0.9-1.3,0.4-2,0.5c-7.8,0-15.5,0-23.3,0c-3,0-6-0.2-9-0.6c-2.5-0.3-4.1,1-4.1,3.5c-0.1,5.1-0.7,10.2-0.6,15.3
			c0.1,2.3,0.7,4,2.9,4.9c0.9,1.1,2.1,1,3.3,1c7.7,0,15.5,0,23.2,0c1.1,0,2.3-0.2,3.3,0.5c0.3,1.5-0.9,1.6-1.8,1.7
			c-5.1,0.4-10.2,0.4-15.3,0c-4.9-0.5-9.9-0.1-14.8-0.3c-1.1-0.1-1.7,0.7-2.5,1.3c-0.5-0.9-0.7-1.9-0.5-2.8c-0.3-4.1-0.3-8.1,0-12.2
			c0-0.8,0.1-1.5,0.1-2.3C234.1,381.5,233.4,379,234,376.6z"/>
		<path class="st25" d="M280,393.4c-0.1-5.1,0.7-10.2,0.5-15.3c0-1.1,0.5-1.5,1.5-1.6c2.4-0.3,4.7-0.4,7.1-0.4
			c4.9-0.7,5.1-0.6,5.1,4.2v9.3c0,1.4-0.2,2.9-0.7,4.2c-0.6,2-2.5,3.3-4.5,3.1c-2.1,0-4.1-0.1-6.2-0.2
			C279.6,396.7,279.6,396.7,280,393.4z"/>
		<path class="st45" d="M234,401.2c0-0.5,0-1,0.1-1.4c0-0.5,0.5-0.9,1-0.8c0.1,0,0.1,0,0.2,0c2,0.6,4.1,0.3,6.2,0.2
			c6.9-0.1,13.8,0.8,20.7,0.5c1.6,0,3.1-0.5,4.7-0.1c0.7,0,1.3-0.3,1.6-0.9c1.5-0.9,3.3-1,4.9-0.2c0.9,2.6-0.4,5.1-3.3,6.4
			c-1.1,0.5-2.3,0.7-3.5,0.6c-9.6-0.1-19.2,0.2-28.8-0.2C235.7,404.8,234.3,403.5,234,401.2z"/>
		<path class="st46" d="M196.6,394c-0.1-4.6,0.1-9.2,0.8-13.7c0.1-1,0.1-2.1,0.1-3.1c0.1-2.8,0.4-5.6,0.8-8.3
			c0.2-1.4,0.1-2.9,0.2-4.3c0.1-1.8,0.1-1.8,2-1.9c0.3,0,0.6,0,0.9,0c1.1,0,1.3,0.5,1.3,1.5c-0.3,4.3-0.4,8.6-0.9,12.9
			c-0.4,3.1-0.1,6.2-0.8,9.3c-0.2,0.9-0.2,1.8,0,2.6c0.6,3.3,0.3,6.5,0.4,9.8c0.1,2.8,0.4,5.6,0.8,8.3c0.3,1.9,0.2,2.1-1.7,2.1
			c-0.3,0-0.6,0-1,0c-1.8-0.1-2.4-0.5-2.4-2.2C197.1,402.6,196.2,398.1,196.6,394z"/>
		<path class="st47" d="M237.8,405.5c0.9-0.5,2-0.6,3-0.5c8.7,0,17.4,0,26,0c1.8,0.1,3.6-0.6,4.9-2c1.2-1.1,1.8-2.7,1.6-4.3
			c0.1-0.5,0.3-0.9,0.6-1.3c0-2.5,0.9-5-0.5-7.4c-1.4-0.6-2.8-0.1-4.2,0.1c-2.1,0.2-4.1,0.2-6.2,0.1c-2.5,0-3.7-0.8-3.6-2.5
			s1.3-2.6,3.8-2.7c2.8-0.1,5.5,0,8.3,0c1.3,0,2.4-0.3,2.7-1.8c0.4-0.8,0.4-1.8,0.1-2.6c-0.3-2.3-0.3-4.6,0-6.8
			c0.3-2.4-1.1-3.9-2.6-5.3c-0.7-0.7-1.7-0.5-2.5-0.5h-26c-1,0-1.9,0-2.9-0.1c0.7-0.3,1.5-0.4,2.3-0.3c9.5,0,18.9-0.1,28.4-0.1
			c1-0.2,2.1,0,3,0.5c2.7,1.9,3.5,4.7,3.6,7.7c0.1,4.4-0.4,8.8-0.6,13.1c-0.2,3.4-0.1,6.9-0.8,10.3c-0.2,1.7-0.8,3.3-1.8,4.6
			c-1.3,1.9-3.4,2.9-5.7,2.8c-8.6-0.2-17.3-0.1-25.9-0.1c-0.8,0.1-1.6,0.1-2.4-0.2C239.4,406.3,238.5,406,237.8,405.5z"/>
		<path class="st48" d="M240.2,406.5c9.3,0,18.7,0,28,0c1,0,2.1,0.3,3-0.5c1.3-1.4,3.1-2.4,3.5-4.4c0.5-1.8,0.8-3.7,0.9-5.6
			c0-3.3,0.7-6.5,0.5-9.8c-0.2-3,0.6-6,0.5-9c0.1-2.8-0.7-5.6-2.3-7.9c-0.2-0.3-0.4-0.7-0.6-1c3.3,0.9,5.6,3.9,5.6,7.4
			c0.1,7.8-0.3,15.5-0.9,23.2c-0.2,2.3-0.3,4.6-2.3,6.4c-1.2,1.2-2.8,1.8-4.5,1.9c-10,0-20,0-30-0.1
			C241.2,407,240.6,406.8,240.2,406.5z"/>
		<path class="st49" d="M280,393.4c0.1,2.8,0.1,2.7,2.8,3c2,0.3,3.9,0.4,5.9,0.4c1.8-0.1,3.5-1.3,4.1-3c0.3-1.1,0.5-2.2,0.6-3.3
			c-0.1-4,0-8,0-12c0-2.3,0-2.3-2.4-2.3h-1.9c2.2-0.8,4.6-0.3,6.8-0.4c0.7,0,0.9,0.5,0.9,1.1c0.6,4.6,0.6,9.2,0.1,13.8
			c-0.1,1.5-0.2,3-0.1,4.5c0,1.1-0.4,1.5-1.5,1.6c-4.6,0.4-9.2,0.6-13.8,0.5c-1.9,0-1.9,0-1.9-1.9C279.6,394.8,279.5,394,280,393.4z
			"/>
		<path class="st50" d="M233.5,386.2c0,4.1,0,8.1,0,12.2c-0.4-0.8-0.5-1.7-0.4-2.5C233.2,392.6,232.8,389.4,233.5,386.2z"/>
		<path class="st50" d="M234,376.6v5.7c0.1,0.6-0.1,1.1-0.4,1.5C233.6,381.5,233.3,379,234,376.6z"/>
		<path class="st51" d="M297.9,123c-3.7-0.2-6.9-1-10.3-1.3c-4.4-0.3-8.8-0.3-13.1-0.1c-1.4,0-2.7,0.1-4.1,0.1
			c-1.8,0-3.3-1.1-3.9-2.8c-0.3-0.7,0-1.5,0.6-1.8c0.9-0.6,2-1,3.1-1c6-0.1,12-0.3,17.8,1.1C291.9,117.9,295.4,120,297.9,123z"/>
		<path class="st51" d="M209.3,123c1.7-2.3,4-4,6.6-4.9c2.8-1,5.7-1.7,8.6-1.8c3.9-0.3,7.8-0.3,11.7-0.2c1.3,0,2.5,0.4,3.7,1
			c0.6,0.3,0.9,0.9,0.8,1.6c-0.5,1.7-2,2.9-3.7,3.1c-2.2,0-4.5-0.1-6.7-0.2c-6.1-0.3-12.1,0.1-18.1,1.2
			C211.4,122.8,210.6,122.8,209.3,123z"/>
		<path class="st52" d="M237.4,140.7c0.3,2.9-0.8,5.6-2.3,8.1c-3.6,6.1-11.3,6.4-15.6,0.8c-2.6-3.4-2.9-7.3-2.7-11.3
			c0.2-2.9,1.4-5.6,3.4-7.7c4.8-5.4,11.3-3.8,14.6,1.1C236.7,134.3,237.6,137.5,237.4,140.7z"/>
		<path class="st53" d="M270.8,140.3c-0.1-3.2,0.9-6.3,2.8-8.8c3.7-5.3,10.2-5.6,14.5-0.8c4.5,5.1,4.5,14.6,0,19.7
			c-4.4,4.9-11.4,4.3-14.8-1.3C271.5,146,270.7,143.9,270.8,140.3z"/>
		<path class="st54" d="M269.6,164.1l-1-0.4c1.9-1.3,2.8-3.6,2.5-5.8c-0.1-1.4-0.9-2.6-2.2-3.2c-1-0.4-2-0.5-3-0.2
			c-1.4,0.2-0.9,1.5-1.4,2.1c-0.5-5.8-2.4-11.2-3.6-16.8c0.6-0.2,0.6,0.2,0.7,0.4c0.1,0.3,0.2,0.6,0.3,0.9c1,3.8,1.9,7.5,2.8,11.3
			c0.2,0.8,0.5,1.3,1.4,1.2c2.3-0.6,4.6,0.7,5.4,2.9c1,2.3,0.4,4.5-1,6.5L269.6,164.1z"/>
		<path class="st55" d="M238.3,160.8h-0.4c-0.7-1.4-0.7-3.1,0-4.6c0.8-2,2.8-3.1,4.9-2.7c1.2,0.2,1.7-0.3,1.9-1.5
			c0.6-3,1.4-6.1,2.2-9.1c0.1-0.9,0.4-1.7,0.9-2.5c0.6,0.3,0.4,0.8,0.3,1.2c-0.9,3.7-1.8,7.4-2.8,11.1c-0.4,1.7-0.5,1.7-2.2,1.5
			c-2.2-0.4-4.3,1-4.6,3.2c-0.1,0.3-0.1,0.6-0.1,0.9C238.2,159.2,238.3,160,238.3,160.8z"/>
		<path class="st56" d="M269,192.6l-1,1.1c-0.6,0.5-0.9-0.3-1.4-0.4L266,193c-0.4-0.1-0.9,0-1.2-0.2c-5-3.6-10.4-0.9-15.7-1.3
			c-1.2-0.1-2.4,0.4-3.2,1.3c-0.3,0.2-0.6,0.3-1,0.3c-0.7-0.2-1.5-0.2-2.2,0.1c-0.5,0.2-1,0.4-1.6,0.5c-0.6,0-1.1-0.3-1.3-0.9
			c0.4-0.7,1.1-0.8,1.8-1c3.2-1.2,6.1-3.1,8.6-5.5c0.3-0.3,0.6-0.7,0.9-1.1c2.5-0.5,5-0.5,7.5,0c2.7,2.6,5.5,5.2,9.2,6.3
			C268.3,191.8,268.9,192,269,192.6z"/>
		<path class="st57" d="M239.8,192.9c0.5,0.3,1,0.5,1.5,0.5c1.5,0.7,3,1.4,4.5,2.3c7.6,3.4,14.6,2.2,21.1-2.7c0.6,0,0.6,0.7,1.1,0.8
			c-4.3,3.9-10,5.9-15.8,5.3c-4.6-0.4-8.5-2.6-12.2-5.2c-0.3-0.3-0.5-0.6-0.7-0.9L239.8,192.9z"/>
		<path class="st58" d="M258.6,185.3c-2.5,0.5-5,0.5-7.5,0c0.9-1.3,1.8-2.6,2.6-4s1.6-1.4,2.4-0.1S257.8,184,258.6,185.3z"/>
		<path class="st59" d="M313.2,385c0.1,1.2-0.9,2.2-2,2.2c-0.1,0-0.1,0-0.2,0c-1.2,0-2.3-0.8-2.6-2c0.2-1.2,1.1-2.1,2.3-2.3
			C311.9,382.9,313,383.8,313.2,385z"/>
		<path class="st60" d="M207.1,386.4c0-1.3,0.5-1.9,1.6-1.9c1.3-0.1,2.5,0.8,2.7,2.1c0,1.1-0.8,2-1.8,2.1c-1.2,0.1-2.3-0.8-2.5-2
			C207.1,386.5,207.1,386.4,207.1,386.4z"/>
		<path class="st61" d="M223.8,389.1c-1.2,0.1-2.2-0.8-2.3-2c0-0.9,1.1-1.8,2.2-1.8c1.1,0,2,0.8,2.1,1.8
			C225.7,388.3,224.8,389.2,223.8,389.1z"/>
		<path class="st62" d="M274.8,382.9c-0.2,2.5-0.2,2.7-2.8,2.8c-2.8,0.1-5.6,0.1-8.4,0.1c-0.6,0-1.3,0-1.9,0.1c-1.1,0-2,0.9-2,2
			c0,0.1,0,0.2,0,0.2c0.1,1.3,1.1,1.4,2.1,1.4c2.8,0,5.6,0.1,8.4-0.2c1.3-0.1,2.7-0.4,4,0.3c0.4,2.9,0.4,5.8,0,8.6l-0.9,0.5
			c-1.6-0.2-3.2-0.2-4.8,0h-18.6h-9.5c-1,0-1.9-0.1-2.1-1.4c-0.6-0.9-0.9-2.1-0.8-3.2c-0.1-5.8,0.7-11.6,0.6-17.4
			c-0.1-2.6,1.1-3.5,3.6-3.4c9.7,0.5,19.4,0.1,29.2,0.2c0.7,0.1,1.4,0,2.1-0.2l1.3,0.5c0.6,0.8,0.4,1.8,0.5,2.7c0,1.5,0.1,3,0.1,4.5
			C275.1,381.7,275.1,382.3,274.8,382.9z"/>
		<path class="st50" d="M273,373.4c-0.8,0.3-1.7,0.4-2.6,0.3h-28c-0.6,0-1.1,0-1.7,0c-1,0-1.9,0.8-1.9,1.9v0.1c0,0.4,0,0.8,0,1.2
			l-0.5,20.3c-2.7-0.5-3.3-1.2-3.3-3.7c-0.2-2.9-0.1-5.9,0.1-8.9c0.3-2.9,0.3-5.9,0.4-8.8c0.2-2.1,2-3.6,4.1-3.5
			c0.1,0,0.3,0,0.4,0.1c3.1,0.6,6.3,0.8,9.5,0.7C257.3,373.3,265.1,373.4,273,373.4z"/>
		<path class="st63" d="M286.7,386.4c-0.2-1.1,0.6-2.2,1.8-2.3c0.2,0,0.4,0,0.5,0c1.1,0,2,0.8,2.1,1.9c0,0.1,0,0.1,0,0.2
			c0.1,1.3-0.9,2.4-2.3,2.5l0,0C287.5,388.7,286.7,387.9,286.7,386.4z"/>
		<path class="st48" d="M274.3,398.3c0-2.9,0-5.8,0-8.6c0.3,0.2,0.5,0.6,0.5,1c0,2.2,0,4.4,0,6.6
			C274.8,397.7,274.6,398.1,274.3,398.3z"/>
		<path class="st48" d="M274.8,382.9c-0.1-0.6-0.1-1.3,0-1.9C275.4,381.5,275.4,382.3,274.8,382.9
			C274.9,382.9,274.9,382.9,274.8,382.9z"/>
		<path class="st64" d="M217.7,140.4c-0.2-3.1,0.7-6.1,2.6-8.6c3.7-5.1,10.1-5,13.7,0.1c3.7,5.1,3.7,12,0,17.1
			c-3.6,5.2-9.9,5.2-13.7,0.1C218.4,146.6,217.5,143.5,217.7,140.4z"/>
		<path class="st64" d="M290.6,140.4c0.1,3.1-0.8,6.1-2.5,8.6c-3.8,5.3-10.3,5.3-13.9-0.1c-3.5-5-3.5-11.7,0-16.7
			c3.7-5.4,10.2-5.4,14-0.1C289.8,134.5,290.7,137.4,290.6,140.4z"/>
		<path class="st65" d="M266.9,192.9c0.3,0.6,0,0.9-0.4,1.2c-6.3,4.2-12.9,5.6-20,2.4c-1.9-0.8-3.9-1.4-5.1-3.2
			c0.4-0.3,0.9-0.5,1.4-0.6c0.6-0.2,1.2-0.2,1.8,0l1,0.1c3.3-0.1,6.6,0.8,9.9,0.9c3.3,0.1,6.5-1.5,9.9-1.1c0.4,0,0.8,0,1.2,0.2
			C266.7,192.9,266.8,192.9,266.9,192.9z"/>
		<path class="st66" d="M266.5,192.8c-1.4,0-2.7,0.2-4,0.6c-3.9,1.4-8,1.2-12,0.7c-1.7-0.2-3.5-0.1-5-1.3c0-1.4,1.2-1.6,2.1-1.8
			c1-0.2,2-0.3,3.1-0.2c2.1,0.2,4.3,0,6.3-0.5c1.9-0.5,4-0.2,5.7,1c0.9,0.7,2.1,1,3.2,1.1C266.2,192.5,266.4,192.7,266.5,192.8z"/>
		<path class="st66" d="M244.5,192.8c-0.6,0.2-1.2,0.2-1.8,0C243.2,192.3,244,192.3,244.5,192.8z"/>
		<path class="st67" d="M256.3,397.8c-4.9,0-9.9,0-14.8,0c-2.1,0-2.1,0-2.1-2.2c0.2-5.3,0.4-10.7,0.4-16c0-1.9,0.1-2,2.1-2
			c7.3,0,14.5,0,21.8,0c2.8,0,5.6-0.1,8.3-0.4c1.7-0.2,1.8,0,1.8,1.6c0,1.3,0,2.6,0,3.8c0,1.6-0.3,1.9-2,2c-1.2,0.1-2.4,0-3.6,0
			c-2.1,0-4.1,0.1-6.2,0.1c-0.8,0-1.6,0.2-2.2,0.8c-1,0.9-1.6,2.3-1.2,3.2c0.5,1.1,1.5,1.7,2.7,1.7c2.5,0.1,4.9,0,7.4-0.2
			c4.5-0.6,4.6-0.6,4.6,3.9c0,4,0.5,3.5-3.4,3.5c-4.5,0-9.1,0-13.6,0L256.3,397.8z"/>
		<path class="st68" d="M256.5,376.6h-14.2c-0.6,0-1.1,0-1.7,0c-0.4,0-0.8-0.3-0.8-0.7c-0.1-0.5,0.1-1,0.7-1
			c0.6-0.1,1.3-0.1,1.9-0.1c8,0,16.1,0,24.2,0c1.9,0,3.8-0.2,5.7-0.3c0.6,0,1.4-0.1,1.4,0.8s-0.7,0.9-1.3,1
			C266.7,377,260.9,376.5,256.5,376.6z"/>
		<path class="st69" d="M231.2,140.6c0.1,2.1-0.4,4.1-1.4,5.9c-1.6,2.7-4,2.8-5.5,0.1c-2.1-3.7-2.1-8.4,0-12.1
			c1.5-2.7,3.9-2.6,5.5,0.1C230.8,136.5,231.3,138.5,231.2,140.6z"/>
		<path class="st69" d="M277,140.4c-0.1-2,0.4-4,1.3-5.8c1.6-2.8,4-2.9,5.5-0.1c2.2,3.8,2.1,8.4,0,12.2c-1.5,2.6-3.8,2.5-5.4-0.1
			C277.3,144.8,276.8,142.6,277,140.4z"/>
		<path class="st70" d="M248,390c-1.2,0-2.3-0.9-2.4-2.1c-0.1-1,0.7-1.9,1.8-2c0.1,0,0.1,0,0.2,0c1.2-0.1,2.3,0.7,2.4,1.9
			c0,0.1,0,0.1,0,0.2c0.1,1-0.7,1.9-1.7,2C248.1,390,248.1,390,248,390z"/>
		<path class="st71" d="M228.1,137.2c1.4,2.2,1.5,5.1,0.1,7.4c-0.8,1-1.6,1-2.2-0.1c-1.2-2.4-1.7-4.8,0-7.2
			C226.7,138,227.4,138.2,228.1,137.2z"/>
		<path class="st72" d="M228.1,137.2c0.3,0.9,0,1.6-1,1.6s-1.2-0.8-1.2-1.6l0,0c0.5-0.7,1.1-1.2,1.9-0.4
			C227.8,137.1,227.9,137.2,228.1,137.2z"/>
		<path class="st71" d="M227.8,136.9c-0.8-0.4-1.4,0-1.9,0.4c0-0.6,0.4-1.1,0.9-1.2C227.4,135.9,228.1,135.9,227.8,136.9z"/>
		<path class="st73" d="M282.2,137.2c1.6,2.1,1.6,5.7,0,7.4c-0.8,0.8-1.3,0.8-2,0c-1.5-1.8-1.5-5.5,0-7.5
			C280.8,138.1,281.5,138.2,282.2,137.2z"/>
		<path class="st74" d="M282.2,137.2c0.4,1-0.1,1.6-1,1.6s-1.3-0.7-1-1.7c0.2,0,0.3-0.1,0.3-0.3c0.5-0.5,1-0.6,1.5,0.1
			C281.9,137,282,137.2,282.2,137.2C282.1,137.2,282.1,137.2,282.2,137.2z"/>
		<path class="st73" d="M282,136.9c-0.5-0.3-1-0.3-1.5-0.1c-0.4-0.6,0.1-0.9,0.5-0.9C281.6,135.9,281.9,136.3,282,136.9z"/>
	</g>
</g>
</svg>
