<svg xmlns="http://www.w3.org/2000/svg" viewBox="0 0 353.38 529.17"><defs><style>.cls-1{fill:#282828;}.cls-2{fill:#221f20;}.cls-3{fill:#16270e;}.cls-4{fill:#2c211b;}.cls-5{fill:#333;}.cls-6{fill:#9f7852;}.cls-7{fill:#2a292d;}.cls-8{fill:#393838;}.cls-9{fill:#88623d;}.cls-10{fill:#825232;}.cls-11{fill:#e7a87e;}.cls-12{fill:#1b1b1b;}.cls-13{fill:#b75924;}.cls-14{fill:#efb289;}.cls-15{fill:#7a3a15;}.cls-16{fill:#5966a5;}.cls-17{fill:#5865a2;}.cls-18{fill:#6b2528;}.cls-19{fill:#6b2529;}.cls-20{fill:#6a2528;}.cls-21{fill:#284a18;}.cls-22{fill:#4b5277;}.cls-23{fill:#4a5276;}.cls-24{fill:#525b8a;}.cls-25{fill:#693f23;}.cls-26{fill:#9e7751;}.cls-27{fill:#52191b;}.cls-28{fill:#805131;}.cls-29{fill:#ecb087;}.cls-30{fill:#a29d9d;}.cls-31{fill:#8e8c8c;}.cls-32{fill:#50587f;}.cls-33{fill:#ecb088;}.cls-34{fill:#683e23;}.cls-35{fill:#e9ae86;}.cls-36{fill:#e4aa84;}.cls-37{fill:#be5d26;}.cls-38{fill:#95481c;}.cls-39{fill:#8a4319;}.cls-40{fill:#c0baba;}.cls-41{fill:#bcb6b6;}.cls-42{fill:#aaa5a5;}.cls-43{fill:#a19c9c;}.cls-44{fill:#a39e9e;}.cls-45{fill:#e5a652;}.cls-46{fill:#e8a853;}.cls-47{fill:#50587e;}.cls-48{fill:#dc9e4b;}.cls-49{fill:#c98b38;}.cls-50{fill:#8b643e;}.cls-51{fill:#cb8d3a;}.cls-52{fill:#1f1f1f;}.cls-53{fill:#433c38;}.cls-54{fill:#443d38;}.cls-55{fill:#534237;}.cls-56{fill:#654f40;}.cls-57{fill:#8b221b;}.cls-58{fill:#69594e;}.cls-59{fill:#f4f4f4;}.cls-60{fill:#38373f;}.cls-61{fill:#39363d;}.cls-62{fill:#37353b;}.cls-63{fill:#352e29;}.cls-64{fill:#363640;}.cls-65{fill:#fff;}.cls-66{fill:#fefefe;}.cls-67{fill:#d58987;}.cls-68{fill:#9c754f;}.cls-69{fill:#5764a2;}.cls-70{fill:#649e30;}.cls-71{fill:#35343b;}.cls-72{fill:#1f211d;}.cls-73{fill:#e1e1e1;}.cls-74{fill:#1f221d;}.cls-75{fill:#dcdcdc;}</style></defs><title>Fichier 1</title><g id="Calque_2" data-name="Calque 2"><g id="Calque_1-2" data-name="Calque 1"><g id="Calque_1-2-2" data-name="Calque 1-2"><path class="cls-1" d="M154,143.47c-.64-3.66-1.17-7.31-.46-11.05.67-3.58,1.17-7.2,1.81-10.79.19-1.1-.53-1.59-1.13-2.19a19.66,19.66,0,0,1-5.36-11.17c.24-.5-.21-1.33.7-1.52.92.5.83,1.47,1.06,2.29a22.22,22.22,0,0,0,3.12,7.2c.36.5.74,1.24,1.4,1.16s.61-1,.81-1.57c2.94-8.11,3.19-16.51,2.63-25,0-.61.15-1.21.15-1.83.14-7.33,3.87-12.7,9.33-17.12a18.6,18.6,0,0,0,5.41-3.62c4.37-2.26,9.12-3.46,13.81-4.69a160.75,160.75,0,0,1,31.8-5.13c11.27-.66,22.29.66,33.37,1.87A108.33,108.33,0,0,1,276.12,66a18.71,18.71,0,0,1,4.38,1.89c1.95,2.48,5,3,7.61,4.36,5.4,3,11.07,5.65,15.36,10.31,3.3,3.59,6.51,7.23,7.47,12.24a7.94,7.94,0,0,1,.14,1.82,3.49,3.49,0,0,1-1,1.6A18,18,0,0,0,305,109.53a58,58,0,0,0,.38,14.54c.27,1.6.95,2,2.46,1.34a11.47,11.47,0,0,0,5.45-5.16,36,36,0,0,0,3.59-9.85c.18-.81,0-1.82,1.06-2.22.82.49.06,1.43.58,2-1.08,5.15-2.31,10.24-6.19,14.15a11.86,11.86,0,0,1-5.44,3.29c-1.7.45-1.61.51-1.44,2.3a31.1,31.1,0,0,1-.75,11.53c-1,1-.44,2.42-.67,3.63a105.35,105.35,0,0,1-4.32,15.2c-.41,1.17-.61,2.77-2.18,2.82-1.34,0-1.5-1.47-2.07-2.38a2.05,2.05,0,0,0-.73-.87,24.23,24.23,0,0,0-2.77,4.25c-4.48,6.94-10.9,11.55-18,15.38-.83.44-1.72,1-2.71.4-.51-.3-.54-.81-.31-2.7-3.58,5-8.43,8.38-13.35,11.64A158.41,158.41,0,0,1,233.15,202a9.4,9.4,0,0,1-7.9.06,148.32,148.32,0,0,1-29.69-16.92,42.08,42.08,0,0,1-8.27-8c.27,2.93-.53,3.57-3,2.26-8.29-4.33-15.4-10-19.86-18.46-.21-.4-.33-.91-.89-1.12-.82.45-.88,1.42-1.34,2.13-1.07,1.62-2,1.62-3-.06a7,7,0,0,1-.76-1.76c-1.58-5.43-3.76-10.72-4.09-16.46A.33.33,0,0,0,154,143.47Z"/><path class="cls-2" d="M353,258.8c-.55-5.38-1.62-10.71-2.27-16.09a36.49,36.49,0,0,0-6-16.22c-2.87-4.32-5.45-8.83-8.22-13.22-5.27-8.35-11.28-16.08-18.95-22.4a25.21,25.21,0,0,0-2.8-2.24,78,78,0,0,0-18.25-8.27c-1.67-.5-3.31-1.13-5-1.6a2.64,2.64,0,0,1-1.21-.67c-.36-.35-.64-.67-.19-1.2a28.66,28.66,0,0,0,4.49-7.69c1.25,1.56,1.32,3.45,2.44,4.82.23.27.35.75.87.46q1.72-4.75,3.43-9.5c.36-.45,0-1.09.42-1.52l0,0a.25.25,0,0,0,0-.34c.31-.47,0-1.11.4-1.56l0,0a.24.24,0,0,0,0-.35c.44-.58-.09-1.4.44-2l.07,0a.19.19,0,0,0,0-.26c.36-.65-.08-1.46.41-2.09a.64.64,0,0,0,.07-.71c.43-.85-.13-1.84.43-2.65a.62.62,0,0,0,0-.71c.5-1-.19-2.11.5-3.11.5-2.23-.15-4.53.36-6.77a2.11,2.11,0,0,0,.1-1.38c-1-.2-.94.69-.94,1.16a55.3,55.3,0,0,1-2.09,9.78c-.77,3-1.9,5.92-2.9,8.86-.2.59-.4,1.4-1.08,1.48-.94.11-.89-.95-1.31-1.47-.68-.83-.56-2.13-1.48-2.83-.8.29-.91,1-1.19,1.54a37.23,37.23,0,0,1-10.81,12.9c-3.24,2.4-6.45,4.93-10.24,6.52-.44.18-.91.49-1.33.1s-.07-.86,0-1.32c.12-.83,1-1.62.22-2.75-1.2,1.45-2.22,2.76-3.31,4a49.68,49.68,0,0,1-9.76,8,158.81,158.81,0,0,1-25.74,14.11,8.57,8.57,0,0,1-7.4-.07c-1.88-.88-3.79-1.7-5.65-2.6a140.17,140.17,0,0,1-22.24-13,41.17,41.17,0,0,1-9.73-9.08c-.3-.39-.47-1.22-1.38-1-.27.81.27,1.42.39,2.1s.47,1.05-.06,1.54-1,.05-1.53-.16a42.24,42.24,0,0,1-7-4.17,39.14,39.14,0,0,1-13.85-15.47c-.22-.46-.31-1.12-1.07-1.12-.75.38-.54,1.27-.95,1.85-.58.8-.55,2.43-1.69,2.33s-1.25-1.65-1.73-2.65v-.23a137.82,137.82,0,0,1-4.33-16.12c-.07-.4-.22-.57-.57-.21,0,2,.09,4.05,0,6.12.52,1.13-.09,2.38.39,3.51l.08.81c.5.78,0,1.73.4,2.52l0,0a.23.23,0,0,0,.09.31c.48.62,0,1.43.41,2.08a.22.22,0,0,0-.05.08.18.18,0,0,0,.11.24c.52.57,0,1.39.44,2v0a.26.26,0,0,0,.09.37c.39.45.07,1.08.39,1.55v0a.26.26,0,0,0,.09.35c.41.42.06,1.05.41,1.48s.16,1.1.47,1.59a23.85,23.85,0,0,0,3,8c.53.29.65-.18.87-.47a27.41,27.41,0,0,1,2.12-5.14c1.09,3.7,3.19,6.37,5.19,9.28a16.67,16.67,0,0,0-7.7,3c-6.92,4.44-14.14,8.44-20.35,13.9a47.72,47.72,0,0,0-11.57,14.5c-3,6.07-6.8,11.75-9.89,17.8q-2.69,5.22-5.32,10.46c-.93,1.87-2.22,3-4.51,2.81a24.06,24.06,0,0,1-4.69-.71c-3.87-1-7.47-2.8-11.32-3.8a21.82,21.82,0,0,1-5.09-2,33.11,33.11,0,0,1-8.41-6.28c-1.25-1.34-2.55-2.66-3.92-3.87a3.47,3.47,0,0,1-1.34-2.4,27.1,27.1,0,0,0-2.91-9.31c-1.11-2.21-2.2-4.45-3.2-6.7a9.21,9.21,0,0,0-1.88-2.75,21.14,21.14,0,0,0-10.44-6,7.75,7.75,0,0,0-4,0c-1.56.46-3.15.82-4.79,1.24-.68-4.75-.56-9.39-.87-14-.51-7.66-.74-15.33-1.13-23-.29-5.5-.65-11-.95-16.5a6,6,0,0,1,.48-3.74,14.58,14.58,0,0,0,1.88-9c-.08-.87,0-1.76,0-2.64.06-2.92.06-2.92,2.91-3.23-.17-1.23-1.22-.91-2-1.09H43.15c-1.45.24-3.12-.57-4.33.9.8,1.32,2.12.83,3.24.88,2.82.13,2.92.15,2.92,3v4.54c.07,2.77-1.24,5.08-2.51,7.37a3.67,3.67,0,0,1-3,1.78c-4.38.39-7.64-1.82-9.16-6-.59-1.77-.54-3.82-2-5.26-.79.15-.65.66-.47,1.2a28.73,28.73,0,0,0,1.93,6.88,7,7,0,0,1,.55,2.29q.42,10.29.89,20.58c.23,5.19.45,10.37.74,15.56.35,6.05.81,12.1,1.16,18.15.16,2,.07,2.19-2,2.14-2.54-.07-4.41,1.28-6.22,2.67a4.81,4.81,0,0,0-1.7,3.31,8.1,8.1,0,0,0,2.38,7.54c.43.43.82.9,1.24,1.36-6.32,3-6.12,9.6-1.32,13-2.31,1.72-3.84,3.72-3,6.72a6.37,6.37,0,0,0,6.16,5.08c-.34.63-.6,1.14-.85,1.63-2.06,4-.14,7.88,4.29,8.57A2.76,2.76,0,0,0,33,249c1.27-.17,1.82.24,1.82,1.63.13,3.83.49,7.65.66,11.48C36,274,36.58,285.84,37,297.73q.41,11.85.93,23.7c.5,11,1.15,22,1.27,33,0,4.87.27,9.74.42,14.61.36,1.24-.05,2.53.25,3.78,0,1.36,0,2.72.14,4.07.63,9.81,1,19.63,1.38,29.45.25,6.39.45,12.78.69,19.16q.59,15.93,1.19,31.86c.24,6.31.44,12.62.71,18.93.4,9.42.85,18.83,1.26,28.25.17,4.15.27,8.31.45,12.46,0,.93-.1,2,.76,2.67,1.34,1.11,2.62,2.33,4.62,2a22.9,22.9,0,0,1,3.1.12c2.22-.06,4.48.14,6.61-.72,1.3-.53,2.49-1.32,2.69-2.8a12,12,0,0,0,.22-4.27,32.6,32.6,0,0,1-.6-5.22c-.5-9.18-1-18.35-1.4-27.53-.44-10.13-.8-20.27-1.44-30.4-.55-8.85-1-17.7-1.46-26.55-.44-9.34-1-18.67-1.44-28-.42-9.1-.86-18.19-1.42-27.28-.59-9.81-1.06-19.62-1.59-29.43-.46-8.53-.94-17.07-1.39-25.6-.24-4.47-.41-8.94-.64-13.41-.39-7.32-.81-14.66-1.2-22-.32-5.94-.67-11.94-.9-17.94a31.38,31.38,0,0,1-.09-6.28,9.9,9.9,0,0,0,2.16.33,4.83,4.83,0,0,1,3.73,1.8c1.53,1.52,3.05,3,4.68,4.46,4.38,3.77,8.57,7.72,13,11.38,5.41,4.48,10.65,9.18,16.77,12.74,2.83,1.65,5.83,2.86,8.83,4.25a20.24,20.24,0,0,0,8.83,1.84,100.61,100.61,0,0,0,15.68-1.56c1.87-.31,3.89-.37,5.55-1.37a70,70,0,0,0,11.55-8.09c4.69-4.25,9.12-8.74,13.54-13.25.43-.45.79-1.1,1.69-1.23-.09.58-.12,1-.21,1.36q-1.37,6.3-2.77,12.59c-.2.36-.31.76.11,1s.46.18.31.83c.23,3.19,2.07,4.42,5,3.19a11.75,11.75,0,0,0,5.51-5.45c3.36-5.92,5-12.62,8.36-18.71.65,1.72,2,1.47,3.4,1.25q10.65-1.73,21.28-3.54c2.93-.5,3.58-1.28,3.18-4.22s-.3-5.91-.76-8.84c-.39-2.39.14-2.79,2.61-2.6a219.28,219.28,0,0,0,29.89.54c9.48-.55,19-.89,28.35-2.49,1.72-.29,2.15.33,2,1.9-.29,3.1-.52,6.2-.87,9.3-.29,2.63.29,3.56,2.64,4,7.62,1.44,15.27,2.66,22.9,4,1.46.26,2.71.19,3.19-1.81a22.23,22.23,0,0,1,2,3.84c3,6.34,4.64,13.34,10,18.34a3.21,3.21,0,0,1,.6,1,63.55,63.55,0,0,1,4.56,12.61,155.64,155.64,0,0,1,3.78,31.84c0,6.77,0,6.65-6.81,7.18-6.56.51-13,1.35-19.56,1.62-2.24.13-4,.08-5.24-2-.71.2-.85.79-1,1.37-.27,9.45-.05,18.89-.1,28.34.37,1.37-.56,3.08,1.14,4.08,1.29-1.43.74-3.32,1.1-5a2.14,2.14,0,0,1,2.4-2c2.64,0,5.23-.54,7.87-.66,5.39-.52,10.82-.48,16.22-.84,1.42-.12,1.55.79,1.37,1.88-1.2,7.25-2.33,14.55-4.6,21.55-6.14,18.92-13.17,37.54-19.84,56.28-4.55,12.78-7,25.87-8.82,39.17-.32,2.32-.23,4.66,1.28,6.66.86,1.13.65,1.77-.75,2.25-6.42,2.19-12.77,4.59-19,7.28-3.39,1.46-6.83,1.34-10.31,1.55-1.86.11-2.59-.89-2.59-2.62-.06-2.56-.5-5.08-.75-7.62-3-9.89-4.84-20.05-7-30.12a105.2,105.2,0,0,1-2.24-15.41c-.37-6.3-.89-12.59-1.08-18.89a31.35,31.35,0,0,0-.46-3.33c-.1-.75-.11-1.83-1.17-1.75s-.92,1.14-1.06,1.9v.48c-.48,5.16-.58,10.36-1,15.53-.27,3.09-.14,6.28-1,9.28a24.32,24.32,0,0,0-.88,7.35,40.52,40.52,0,0,1-.08,5.51,104,104,0,0,0,.43,22.72c.49,4.45,1.36,8.85,1.11,13.37-.2,2.74-.26,2.89-3,2.44-6.84-1.13-13.55-2.9-20.55-3.24-5.66-.28-11.06-2.55-16.79-2.55-1.27,0-1.71-.65-1.42-1.85a14.45,14.45,0,0,0,.35-4.77c-.67-6.6-1.3-13.21-2.3-19.76a12.17,12.17,0,0,0-1.08-3.42c-2.26-4.69-4.11-9.55-6-14.39-3-7.81-5.95-15.67-10-23.07-2.07-3.77-4.42-7.42-5.68-11.61-2.17-7.2-4.57-14.32-7.1-21.4a162.73,162.73,0,0,1-8.06-29.83c-.69-.84.89-1.58.08-2.41-1.15-.43-2.28-.8-1.8,1.2A112.63,112.63,0,0,0,150,376.8c3.19,9.7,6.49,19.36,9.72,29.05,1,3.14,1.82,6.27,3.5,9.14a155.74,155.74,0,0,1,10.12,20.88c3.2,7.92,6,16,9.66,23.72a5.44,5.44,0,0,1,.41,1.62c.8,5.36,1.39,10.75,1.93,16.14a24.09,24.09,0,0,1-.54,9.71,4.76,4.76,0,0,1-2.33,3,287.85,287.85,0,0,1-30.25,15.45c-1.17.51-2.42.91-3,2.21.83.79,1.7,1.19,2.7.25a3,3,0,0,1,1.67-1.28,259.45,259.45,0,0,0,29.74-15.34,12.69,12.69,0,0,1,8.49-1.48c3.89.47,7.6,2,11.51,2.17,7.78.25,15.26,2.32,22.88,3.53,3.11.5,3.79,1.29,3.9,4.42.16,3.41.31,6.84-.84,10.15,1.72.25,1.59,2.36,3,2.87a5.31,5.31,0,0,0-.06-2.85c-.73-2.27-.46-4.58-.46-6.88a20.11,20.11,0,0,0-.46-6.42c-1-3.2-.77-6.47-1-9.72-.08-1.11-.07-2.22-.24-3.34a132.1,132.1,0,0,1-1.47-25.29c.24-5.95-.11-11.93,1.33-17.84.91-3.77.89-7.75,1-11.66a9.42,9.42,0,0,1,.64-3.27c.64,6.54.33,13.07,1.64,19.49.74,3.67.91,7.45,1.67,11.11,1.39,6.6,3.06,13,4.39,19.6.86,4.14,2.69,7.95,2.86,12.32s1.06,8.68,1.06,13.09a54.9,54.9,0,0,1-.79,8.78c1.12-.38,2.44.38,3.44-.75-.22-1.31-1.59-2.23-1.22-3.78a27.35,27.35,0,0,0,.27-6c0-3,.24-3.32,3.31-3.22a24.26,24.26,0,0,0,10.47-1.9c6.11-2.57,12.28-5,18.57-7.11a6.61,6.61,0,0,1,5.09.23q15.63,7,31.39,13.73c3.12,1.33,6.55,2.16,9.12,4.62a2.74,2.74,0,0,0,2.89-.63,2.65,2.65,0,0,0-1.65-1.57c-.9-.31-1.78-.7-2.65-1.07-13.2-5.63-26.45-11.15-39.56-17a8.35,8.35,0,0,1-2.21-1.35c-2.64-2.29-3.23-5.12-2.64-8.44.84-4.79,1.48-9.61,2.31-14.4A80.55,80.55,0,0,1,282,449.12c6.15-18.19,12.51-36.37,19.15-54.37A141,141,0,0,0,306.84,377a178.17,178.17,0,0,0,3.7-20c.22-1.46-.86-1.51-1.78-1.64a41.7,41.7,0,0,0-5,0c-6.63.68-13.33.82-20,1.32-2.47.19-2.77-.22-2.77-2.71,0-4.8-.05-9.59,0-14.38,0-2.56.41-3,2.92-3,7.2.11,14.31-.89,21.45-1.67,2.48-.68,5.23,0,7.48-1.68a4.07,4.07,0,0,0,.62-3c-.09-4.06.26-8.12-.39-12.18-.33-2,.19-2.46,1.72-1.69,6,3,12.57,4.51,19.1,6,2.66.62,2.91,1.13,1.66,3.62-5.09,10.11-12.2,18.22-22.8,22.84-.42.3-.94.73-.85,1.18s.54.4.91.21a13.36,13.36,0,0,0,4.86-1.91c3.17-1.76,5.74-4.27,8.45-6.64,4.68-4.07,7.82-9.22,10.75-14.55a13.6,13.6,0,0,0,1-2.69c.45-1.49.3-3.23,2.13-4,.33-.13.43-.82.62-1.26.46-1.1.9-2.22,1.37-3.32,2.08-4.92,4.39-9.78,6.2-14.78a84.84,84.84,0,0,0,5-26A121.33,121.33,0,0,0,353,258.8Zm-36.2,4.87c-.35.78-.81,1.49-1.15,2.27s-.5,1.58-.77,2.37a18,18,0,0,1-2.1,4l-.09.14a23.77,23.77,0,0,1-3.06,5.12l-.29.37a17.05,17.05,0,0,1-.94,1.73.48.48,0,0,1,0,.17,20.88,20.88,0,0,1-1.37,2.09c-.41.65-.64,1.41-1.11,2a.5.5,0,0,1-.56.23.48.48,0,0,1-.29-.25.49.49,0,0,1-.15-.43c-.31-.65-.36-1.39-.65-2.05-.11-.24-.2-.49-.3-.74l-.29-.45a8,8,0,0,1-1-2.73c-.18-1-.23-2.06-.36-3.09a29.75,29.75,0,0,1-.25-3.14,69.31,69.31,0,0,1,1.32-12.84.4.4,0,0,1,.34-.35h.06a.45.45,0,0,1,.33.06c3.87,2.35,8.54,2.69,12.52,4.76a.43.43,0,0,1,.25.45A.64.64,0,0,1,316.8,263.67Z"/><path class="cls-3" d="M242.36,510c.91-1.52,2.15-.7,3.31-.48a1.76,1.76,0,0,1,2,.08,30,30,0,0,0,8.94,2.55c6.06,1.06,12,2.62,18.18,3.09,11.23.87,22.51,1.77,33.67-.36,5.11-1,10-2.86,12.78-8,.33-.61.66-1.33,1.57-1.25,1-.13,1.85-.64,2.85-.47,1.59,2.15,1.1,4.66.79,6.94-.94,6.92-5.33,12.42-13.23,14.18a56.77,56.77,0,0,1-12.53,1.28,97.59,97.59,0,0,1-10.92-1c-7.83-.89-15.66-1.75-23.47-2.75-5.84-.75-11.76-.74-17.54-2-2.94-.62-5.4-2.1-6.47-5A10.64,10.64,0,0,1,242.36,510Z"/><path class="cls-3" d="M229.34,510c2.13.07,2.13.07,2.43,2.08a1.29,1.29,0,0,0,.45.8c.1,2.13.5,4.27-.88,6.24A4.68,4.68,0,0,1,229,521a62.71,62.71,0,0,1-15.84,3.38c-10,1-20,2.25-29.94,3.63-4.89.68-9.8,1.57-14.77,1-5.62-.59-10.94-1.91-15.37-5.86-3.84-3.43-5.1-7.74-5.16-12.61a4.59,4.59,0,0,1,1.3-3c.82-.38,1.64.91,2.46,0,1.34,0,1.84,1.16,2.57,1.93A23.15,23.15,0,0,0,170.49,517a181.09,181.09,0,0,0,48.91-4.25,59.72,59.72,0,0,0,7.47-2.54C227.69,509.91,228.44,509.31,229.34,510Z"/><path class="cls-4" d="M287.89,72.76l-5.75-2.61c-.71-.33-1.45-.66-1.48-1.62,1.07-.6,2,.06,3,.37a156.77,156.77,0,0,1,34,16.47c1.9,1.19,4,2,5.87,3.24a61.6,61.6,0,0,1,6.83,5.32,10.7,10.7,0,0,0-2.76-8.8c-3.82-4.55-9.27-6.64-13.87-10a19.9,19.9,0,0,0-5.14-3c-6.23-2.71-12.48-5.35-18.9-7.56a171.12,171.12,0,0,0-24.15-6,229.86,229.86,0,0,0-47.85-3.84A237.14,237.14,0,0,0,193.16,57a132.27,132.27,0,0,0-44,14c-4.63,2.4-9.42,4.76-13,8.86-1.68,1.93-3.24,4-4.75,6s-1.19,4.07-.89,6.23a1.08,1.08,0,0,0,.6,1c.44.15.82-.36,1.11-.71a60,60,0,0,1,23.36-17c4.72-2,9.28-4.3,14.11-6,1.15-.4,2.3-1.25,3.62-.45-1.1,1.87-3.08,2.44-4.86,3.31C156.76,77,145.1,81.78,136.1,91.13a23.74,23.74,0,0,0-1.94,2.43c-2,2.68-2,3.42.89,5a34.18,34.18,0,0,0,10.53,3.8c1.19.22,1.42-.29,1.3-1.29a24.35,24.35,0,0,1,.55-5.95c.82-6,6.9-9.05,12-6.11,0,.54.11,1.12-.47,1.49a1.64,1.64,0,0,1-.93,0c-5.43-1-8.07,1-8.44,6.53a36,36,0,0,0,.13,7.41c.11.78.36,1.59-.31,2.27-.06.53.07,1.12-.46,1.5-.14-.29-.4-.59-.38-.87.2-2.58-1.42-3.17-3.52-3.46a34.94,34.94,0,0,1-9.93-3.39c-5.78-2.71-7.38-8.39-6.07-14.13a3.07,3.07,0,0,1,.55-1,63.68,63.68,0,0,1,8.68-9.88,8,8,0,0,1,1.18-.82c5.64-3.3,11.12-6.91,17.33-9.16,1.72-.63,1.69-.72.94-2.48a6.37,6.37,0,0,1,1.4-6.12,20,20,0,0,1,5.81-3.29,3.29,3.29,0,0,0,2.15-3.09c.66-6,1.29-11.92,2-17.86.44-3.52,1.3-7.19,4.14-9.72a26.11,26.11,0,0,1,8.41-5.36c8.74-3.13,17.88-3.94,27-4.86,12.61-1.26,25.22.13,37.82-.2,3.17-.08,6.35.69,9.53.9,9.22.63,18,3.34,27,5.28A24.69,24.69,0,0,1,291.08,22,19.59,19.59,0,0,1,299,32.39a60.31,60.31,0,0,1,3.68,21.11,3.19,3.19,0,0,0,1.86,3.23,18.82,18.82,0,0,1,6.72,6,13.5,13.5,0,0,1,2.41,8.57,2.85,2.85,0,0,0,1.63,3.06c2.08,1.19,4,2.7,6.1,3.8,3.72,1.93,6.49,4.85,9.08,8a5.47,5.47,0,0,1,1.07,2.35c.68,2.82.6,5.71.87,8.57.15,1.56-.81,2.55-1.83,3.44a16.68,16.68,0,0,1-7.1,3.8c-1.4.34-3.06.34-4.11,1.14s-.1,2.72-.75,4a4.34,4.34,0,0,0-.17.69c-.65-.57-.33-1.38-.51-2.07a2.85,2.85,0,0,1-.53-2c-.29-4.15-1.09-8-5.91-9.21-.22-.06-.36-.31-.49-.51-.67-.33-.66-.94-.66-1.55,4.57-.07,7.54,2,8.66,6.59.49,2,1.34,2.12,3,1.63,2.46-.74,4.9-1.41,6.88-3.19,1.59-1.43,1.75-2.4.41-4.08a19.18,19.18,0,0,0-6-4.73c-9-4.93-17.66-10.66-27.12-14.83C293.47,75,290.89,73.38,287.89,72.76Z"/><path class="cls-5" d="M49.52,126c-.55-.63-1.32-.3-2-.46.21-1.06,1.13-1.12,1.87-1.07,6.09.37,10.26-2.86,13.84-7.25A27.63,27.63,0,0,0,70,99c-.15-26.07,0-52.14-.07-78.21,0-4.09-.28-8.17-2-12-1-2.12-2-2.33-3.39-.81C62.8,13,62.36,18,62.17,23.27c-.43,12.31,0,24.62-.5,36.91-.29,7.6-.17,15.18-.38,22.77-.12,4.31-.82,8.59-1.15,12.89a8.45,8.45,0,0,1-.83,2.74c-1.5,3.41-3.88,3.89-6.73,1.35a26.31,26.31,0,0,1-3.79-13.16c.05-13.49-.23-27,.09-40.48q.36-14.79,1.19-29.63A95.11,95.11,0,0,0,49.58,6.4c0-.62-.19-1.38-.9-1.55s-1,.63-1.39,1.12c-2.39,3.79-2.89,8.08-3.15,12.39C43.63,27,42.9,35.52,42.5,44.13,42,55,41.57,65.77,40.78,76.58c-.36,4.85-.08,9.73-.1,14.6a8.68,8.68,0,0,1-3,6.79,3.68,3.68,0,0,1-3.06.14,15.47,15.47,0,0,1-5.91-8.75,49.81,49.81,0,0,1-2-14.41c0-4.79-.7-9.55-.48-14.35.66-15,.47-30.14,2.26-45.15.41-3.43,1.11-7,.21-10.47-.23-.91,0-2.23-1.1-2.45-1.29-.26-1.43,1.2-2,2A62.75,62.75,0,0,0,22.26,22.1c-.56,7.67,0,15.35-.61,23a11.78,11.78,0,0,0-.3,3.55c0,13.29.07,26.57,0,39.85a10.82,10.82,0,0,1-1.46,4.24c-1.51,2.43-3.17,2.63-5.44.77a20.81,20.81,0,0,1-3.76-9.42A161,161,0,0,1,8.57,55.75c.11-6.86-.31-13.72-.31-20.56,0-7.48.3-15,.35-22.48A19.07,19.07,0,0,0,7.12,5.49C6.31,3.4,5.79,3.38,4.35,5.24a97.24,97.24,0,0,0-2.11,10.4c-.18,1.07-.21,2.22-1.17,3C0,18.11.53,17.23.61,16.45.79,12.45,2,8.61,2.73,4.69,3,3.29,5,1.24,5.88,1.36,7.6,1.61,8,3.17,8.61,4.43a21.21,21.21,0,0,1,1.57,8.17A178.56,178.56,0,0,1,10,30.82c-.18,2.78-.08,5.59,0,8.39.14,9.27.17,18.55.51,27.82A75.28,75.28,0,0,0,11.9,80.34c.36,1.64.48,3.32.75,5a17.54,17.54,0,0,0,2.84,6.8c1.14,1.74,2.43,1.64,3.3-.29A11.12,11.12,0,0,0,20,87.26c0-10.39.11-20.79.19-31.18.07-8.8.13-17.59.26-26.39A97.63,97.63,0,0,1,20.89,18c.64-4.64,1.22-9.34,3.09-13.73A11.81,11.81,0,0,1,26.07.77c1-1.1,2-1,3,.13a6.22,6.22,0,0,1,1.38,3.48c.59,5-.12,10-.67,15-.44,3.89-.67,7.79-.88,11.7-.67,12.3-1,24.6-.84,36.92,0,4,.24,8,.53,12a43.5,43.5,0,0,0,2.1,10,19.09,19.09,0,0,0,3.75,6.08c1,1.21,2.18,1,3.11-.3A6.8,6.8,0,0,0,39,91.53c0-.64.08-1.28.06-1.91-.31-9.12.4-18.21.82-27.31.34-7.51.62-15,1.09-22.51.54-8.84,1.21-17.68,1.91-26.52.27-3.51,1.94-6.55,3.65-9.53a3.42,3.42,0,0,1,1.8-1.53c.93-.33,1.77-.23,2.1.88a18.75,18.75,0,0,1,1.11,5.12c.18,11.44-.43,22.85-1,34.27v1.44c0,15-.35,30.07,0,45.1a21.42,21.42,0,0,0,3.14,9.74c1.12,2,2.89,1.75,3.91-.38a14,14,0,0,0,1.09-4.87c1.5-14.34,1-28.74,1.33-43.12.22-9.59.41-19.18.4-28.78A51.21,51.21,0,0,1,63,7.06a3.1,3.1,0,0,1,2.79-2.27,2.88,2.88,0,0,1,2.91,1.75A19.21,19.21,0,0,1,71,13.06a57.38,57.38,0,0,1,.58,7.63c0,26.23-.1,52.46,0,78.69a27.48,27.48,0,0,1-6,17.5c-1,1.26-2,2.45-3.1,3.66A15.36,15.36,0,0,1,49.52,126Z"/><path class="cls-6" d="M147.33,355c-.83-.11-1.89-.76-2,.86-.86-3-.91-6.11-1.35-9.16a21.14,21.14,0,0,1-.42-6.64,8.35,8.35,0,0,0,0-3.85c.06-3.51,0-7,.32-10.53,1.37,1.51.74,3.35.73,5,0,1.89.38,2.82,2.51,3.15a152,152,0,0,0,21.6,2.18c3.86,0,4.21.72,3.92,4.62A124.45,124.45,0,0,0,172,354c.1,3-.43,3.5-3.44,3.49-6.3,0-12.52-1.11-18.79-1.56A3.68,3.68,0,0,1,147.33,355Z"/><path class="cls-7" d="M147.33,355c3.88.39,7.76.79,11.64,1.16a89.78,89.78,0,0,0,10.49.77c1.76,0,1.84,0,1.84-1.69,0-4.16.19-8.3.51-12.44.1-1.28.28-2.54.37-3.81.14-1.83-.13-2.14-1.89-2.2-2.87-.09-5.74-.27-8.6-.44-5.59-.34-11.07-1.39-16.6-2.05-1-.12-1.11-.6-1.1-1.45a50.48,50.48,0,0,0-.1-7.17c-.22-7.35,1-14.59,1.7-21.87a61.14,61.14,0,0,1,4.1-15.12q1.73-4.56,3.41-9.15c.08.22.21.64.22.64,1.2-.35.67.54.72,1a52.63,52.63,0,0,1-3.54,10.15c-2.95,7.06-3.23,14.62-4.3,22-.8,5.56-.44,11.16-.51,16.75,0,1.69.51,2.71,2.34,3a173.39,173.39,0,0,0,20.47,2c3,0,3.32-.27,3.57-3.19.2-2.23.49-4.44.57-6.68.09-2.59,1.17-3.43,3.66-3.2,3.22.29,3.91.95,3.6,3.7s0,5.44-.34,8.14a1.34,1.34,0,0,0,.92,1.67.92.92,0,0,0,.28.05,11.07,11.07,0,0,0,2.36.38c7,0,14,1.17,21,1.07,3.31-.05,3.31,0,4.43-3,1.6-4.3,4.41-6.42,8.78-6.54,9.34-.27,18.67-.58,28-.56,5.45,0,9.23,2.08,11.07,7.31a2.07,2.07,0,0,0,2.42,1.66l.07,0c3.49-.39,7-.36,10.51-.69,1.71-.16,2.4-.79,2.4-2.49s-.34-3.34-.41-5c-.1-2.45.68-3.3,3.14-3.55,4.89-.5,5.48,0,5.8,5,.07,1.17.3,2.41-.67,3.4a1.17,1.17,0,0,0-.48,1c-1.19-.26-1-1.28-1.12-2.1-.12-1-.12-2.07-.29-3.1-.2-1.19-.46-2.18-2.08-1.92s-1.94,1-1.85,2.49c.39,6,1,11.94.75,17.91-.33,7.42-.41,14.83-.4,22.25a4.17,4.17,0,0,0,.32,2.34c.5.8,1.37.68,2.16.6a1.42,1.42,0,0,0,1.27-1.46c.15-1.92,0-3.84.1-5.75.06-1-.21-2.15,1.14-2.58.28,1.28-.43,2.69.49,3.89,1.26,2.18.79,4.47.41,6.73a1.9,1.9,0,0,1-1.49,1.42,6.65,6.65,0,0,1-1.66.23c-4.62.26-5.18-.21-5.13-4.8,0-2.63-.33-5.26-.1-7.9.13-1.56-.7-2.08-2.15-2.16-4-.2-7.95.65-11.95.54-1.21,0-1.53.86-1.85,1.84-1.91,5.92-4.35,7.7-10.46,7.7-8.7,0-17.41.1-26.11,0-5.22-.09-9.53-1.95-11.43-7.36a2.39,2.39,0,0,0-2.56-1.7c-4.39.1-8.77-.37-13.15-.44-3.67-.07-7.32-.4-11-.61-1.89-.11-2.45.68-2.29,2.38.22,2.22.51,4.44.7,6.67s-.45,2.91-2.56,3.24c-3.66.57-5.7-1.06-5.79-4.76,0-1.85-.28-3.67-.48-5.49-.27-2.47-.61-2.82-3.12-2.91-6.87-.26-13.66-1.31-20.48-2a4.2,4.2,0,0,1-.7-.17c-.35-.3-.42-.63,0-.87S147.11,355.34,147.33,355Z"/><path class="cls-8" d="M.56,16.44c.16.7-.16,1.51.49,2.1a2.15,2.15,0,0,1,.69,2.18C1,24.16,1.82,27.57,1.82,31c0,3.92.09,7.84,0,11.75-.31,12,.41,24,.61,35.93.13,8.2.45,16.44,1,24.63C4,112.14,10,120.83,19.75,122.37a150.34,150.34,0,0,0,19.75,2,8.66,8.66,0,0,1,3.54.39.69.69,0,0,1,.37.73c-1.44.4-3-.4-4.41.5-.64.78-1.54.69-2.4.71a14.44,14.44,0,0,1-2.36-.26c-5.38-.73-5.38-.73-5.47,4.58a1.44,1.44,0,0,1-.43,1.29c-.35.27-.34.7-.45,1.07-1.14-2.07-.93-4.33-.86-6.54,0-1.27-.3-1.86-1.64-2-2-.13-4-.46-5.93-.76a19,19,0,0,1-13.55-9C3.24,111,1.22,106.27,1.47,101A190.83,190.83,0,0,0,.74,79.19C.6,77.12.67,75,.62,73,.25,56.33-.11,39.71,0,23.08.05,20.86-.16,18.61.56,16.44Z"/><path class="cls-9" d="M310.51,356.87c-.14-.93-.78-1.06-1.57-1-1.76.06-3.51.07-5.26.1-.25-.91.41-1.34,1-1.69,1.67-1,2.17-2.61,2.53-4.37.82-4.07.34-8.25,1.05-12.32.39-2.22-1.56-2.42-2.74-3.3.91-.65,2-.27,3-.45,1.45-.26,2.89-.59,4.34-.9a1.31,1.31,0,0,1,.48.8c.19,5.19.8,10.4-.49,15.54,0,.33-1.57.54-.06,1a2.22,2.22,0,0,0-1,1.75A15.27,15.27,0,0,1,310.51,356.87Z"/><path class="cls-1" d="M304.21,149.61l-.06-5.47a1.54,1.54,0,0,1,.42-1.3C304.43,145.1,304.88,147.39,304.21,149.61Z"/><path class="cls-10" d="M39.57,369c.69,1.22.35,2.51.25,3.78A7.7,7.7,0,0,1,39.57,369Z"/><path class="cls-1" d="M154.11,149.55c.82,1.09.35,2.33.39,3.51A7.47,7.47,0,0,1,154.11,149.55Z"/><path class="cls-1" d="M303.69,152.68c.09-1.05-.53-2.21.5-3.11A6,6,0,0,1,303.69,152.68Z"/><path class="cls-1" d="M303.26,156c0-.9-.41-1.88.43-2.65A4.49,4.49,0,0,1,303.26,156Z"/><path class="cls-1" d="M154.58,153.87c.76.74.39,1.66.4,2.52A4.46,4.46,0,0,1,154.58,153.87Z"/><path class="cls-1" d="M302.28,161.18c0-.72-.27-1.48.44-2A3.11,3.11,0,0,1,302.28,161.18Z"/><path class="cls-1" d="M155,156.75c.71.58.44,1.35.41,2.08A3.15,3.15,0,0,1,155,156.75Z"/><path class="cls-1" d="M302.78,158.84c0-.73-.3-1.51.41-2.09A3.24,3.24,0,0,1,302.78,158.84Z"/><path class="cls-1" d="M155.51,159.15c.71.54.45,1.3.44,2A3,3,0,0,1,155.51,159.15Z"/><path class="cls-1" d="M301.81,163.11c-.06-.57-.17-1.15.4-1.56A2.06,2.06,0,0,1,301.81,163.11Z"/><path class="cls-1" d="M156.5,163.47c.55.38.46.93.41,1.48A1.8,1.8,0,0,1,156.5,163.47Z"/><path class="cls-1" d="M156.9,165c.65.39.52,1,.47,1.59A2,2,0,0,1,156.9,165Z"/><path class="cls-1" d="M160.33,174.5l.87-.47a.83.83,0,0,1-.61,1Z"/><path class="cls-1" d="M297,174l.87.46c-.09.18-.22.53-.27.52C297.09,174.9,297,174.49,297,174Z"/><path class="cls-1" d="M156,161.55c.55.41.45,1,.39,1.55A2,2,0,0,1,156,161.55Z"/><path class="cls-1" d="M301.31,165c0-.56-.14-1.13.42-1.52A2,2,0,0,1,301.31,165Z"/><path class="cls-11" d="M177.57,122.19a18.59,18.59,0,0,0-2.56-4.61c-.72,2.2-.32,4.08-.39,5.91s0,3.83,0,5.8c-.88-.08-.94-.86-1.18-1.36a50.59,50.59,0,0,1-4-11.48,27,27,0,0,0-1.52-5.49,4.35,4.35,0,0,1-.19-2.12,142.06,142.06,0,0,0,0-18.91,2.77,2.77,0,0,1,.51-1.78c2.89-4.68,5.82-9.33,8.66-14A6.75,6.75,0,0,1,180.85,71c4.93-1.58,9.87-3.16,14.89-4.41a110.37,110.37,0,0,1,13.88-2.3,167.87,167.87,0,0,1,27-.43,140,140,0,0,1,22.71,2.88c5.21,1.12,10.28,2.84,15.43,4.26,3.43,1,6.26,3.12,9.44,4.56,2.74,1.26,3.93,3.4,4.89,6,1.73,4.8,3.67,9.52,5.57,14.26a5.42,5.42,0,0,1,.37,3.5,30.28,30.28,0,0,0-.75,5.68,51.34,51.34,0,0,1-2,10.51,83.9,83.9,0,0,1-4.74,12.76,3.67,3.67,0,0,1-1.34,1.91c-.44-3.84.12-7.6-.4-11.88-.94,1.62-1.58,2.74-2.23,3.85a1.88,1.88,0,0,1-.41,1.35c-3.92,4.47-8.09,8.59-14.2,9.92a8.51,8.51,0,0,1-7.24-1.53,28.47,28.47,0,0,0-15.47-6.28,1.42,1.42,0,0,1-1-.53c.77-1.78,2.11-3.31,2-5.47-.1-3.23-1.74-5.08-4.9-4.76-1.68.17-2-.53-2.36-1.85-.94-3.69-1.63-7.45-2.64-10.66,1,4.24,2.39,8.86,3.12,13.24.83-1,2.33-1,3.88-.53,1.88.54,2.6,2.07,2.83,3.78a6.78,6.78,0,0,1-2.52,6.17,8.5,8.5,0,0,1-2.53,1.75c-2.47,1.23-5.11,2.07-7.62,3.21a9.32,9.32,0,0,1-9.33-1,12.38,12.38,0,0,0-4.75-2.06c-3-.61-5.48-2.09-6.55-5.22-.32-1.75-.58-3.53.52-5.09a3.77,3.77,0,0,1,3.72-1.75c2,.36,2.43-.64,2.82-2.25.88-3.56,1.57-7.18,2.61-10.7-1,3.55-1.8,7.17-2.65,10.77-.37,1.55-.89,2.28-2.71,2.16-2.82-.18-4.48,1.6-4.53,4.38a8.69,8.69,0,0,0,.13,2.39,5,5,0,0,0,1.11,2.09c1.16,1.13.84,1.79-.64,2A30.51,30.51,0,0,0,199.4,132a8.38,8.38,0,0,1-7.51,1.35,26.5,26.5,0,0,1-13.2-8.63A3,3,0,0,1,177.57,122.19Z"/><path class="cls-12" d="M214,121.74c1.48,3.17,4.43,4.21,7.49,4.82a6.74,6.74,0,0,1,3.16,1.42c2.69,2.34,5.88,2,9,1.85a1,1,0,0,0,.65-.25c1.73-2.1,4.42-2.1,6.66-3.08a14,14,0,0,0,3.23-1.91c.54-.3.76.15,1,.44a24.7,24.7,0,0,1,15.43,5.52c3.71,3,7.56,3.11,11.58,1a34.16,34.16,0,0,0,10.19-8.41c.31-.36.63-.7.94-1.06a1.31,1.31,0,0,1,.45,1.7c-2.1,6.69-3.81,13.54-7.42,19.65-1.82,3.08-3.9,5.93-7.19,7.81a18.44,18.44,0,0,1-7.26,2,11.92,11.92,0,0,1-5.69-.29,2.62,2.62,0,0,0-2.06.37c-1.74-.24-3.32-1-5-1.4-.21.13-.19.23-.06.4.47.58,1.56,1,1.13,1.86s-1.41.39-2.16.28a26,26,0,0,1-3.47-.78,23.38,23.38,0,0,1-10.81-7.23,23.69,23.69,0,0,1-1.73-2.58c-1.37-2.31-1.57-2.31-3.08,0-.56.87-1.15,1.72-1.79,2.54-3.07,3.84-7.28,5.94-11.73,7.66a5,5,0,0,1-.66.19,12.8,12.8,0,0,1-1.64.13c-.84,0-1.71.55-2.49-.12-.32-.28-.23-.45.83-2.24-2,.28-3.73,1.35-5.73,1.25-3.65-.08-7.3.23-10.91-.81a13.75,13.75,0,0,1-6.62-4A36.33,36.33,0,0,1,181.49,137a110,110,0,0,1-4.21-13.43c-.14-.58-.35-1.08.24-1.5a30.65,30.65,0,0,0,7.76,7.48,21.29,21.29,0,0,0,6,2.88,8.87,8.87,0,0,0,8.55-1.55,26.86,26.86,0,0,1,15.46-6c-.5-1.21-1.79-1.93-1.75-3.29a.25.25,0,0,1,.34,0A.26.26,0,0,1,214,121.74Z"/><path class="cls-13" d="M173.25,69a70.53,70.53,0,0,0-11.15,4.25c-4.5,2-9.07,3.93-13.47,6.22a49.09,49.09,0,0,0-8,5.64c-1.87,1.5-3.65,3.1-5.49,4.63a11.55,11.55,0,0,0-1.69,2,13.22,13.22,0,0,1-2.47,3,3.36,3.36,0,0,1-1.22-2.27c-.34-3-.41-5.88,2-8.27a53.51,53.51,0,0,0,3.63-4.46c2.78-3.44,6.69-5.34,10.35-7.59,7.47-4.59,15.71-7.38,23.86-10.41,6.69-2.48,13.72-3.57,20.63-5.09a92.11,92.11,0,0,1,10.21-1.12l13.07-1.32c.87-.09,1.75-.13,2.63-.14,5,0,10.07-.11,15.09.06,5.5.19,11,.87,16.44,1.27,8.54.62,16.88,2.3,25.23,4A157.61,157.61,0,0,1,309,71.77c2.27,3.33,5.82,5.17,8.82,7.65,2.35,1.93,4.7,3.87,5.92,6.78.42,1,1.06,2.11-.38,2.89a140.62,140.62,0,0,1-12.26-6.92,148.31,148.31,0,0,0-30.39-13.64c-5.91-2.68-12.15-4.29-18.42-5.83a120.74,120.74,0,0,0-16.5-2.47c-3.8-.4-7.59-.94-11.4-1.16a103.35,103.35,0,0,0-13.17,0c-.47,0-.95.13-1.42.12-9.8-.07-19.31,1.74-28.76,4.1A125.39,125.39,0,0,0,173.25,69Z"/><path class="cls-14" d="M205.89,153.39c1.87-1.13,4.09-1.21,6.06-2a.79.79,0,0,1,1,.46c.25.48-.15.7-.42,1-.49.49-1.33.59-1.57,1.41,1.38.13,2.67-.62,4-.34,1.82.83,3.46,2,5.21,2.91,8.17,4.45,15.77,3.23,23-2.27a2.1,2.1,0,0,1,1.54-.87c1-.44,2,.18,3,.25.84,0,1.63.52,2.67.21-.94-.75-1.8-1.41-2.64-2.1a.58.58,0,0,1-.12-.82h0a.71.71,0,0,1,.62-.19c2,.91,4.31.93,6,2.43-.81,3.41-1.67,6.81-2.39,10.23a10.21,10.21,0,0,1-5.32,7,45.4,45.4,0,0,1-16.31,5.22,12,12,0,0,1-4.26-.5,57.52,57.52,0,0,1-11.22-3.74c-5-2.22-7.25-6.21-7.85-11.41C206.52,158,206.19,155.68,205.89,153.39Z"/><path class="cls-15" d="M159.32,89c-1.27,0-2.46-.47-3.75-.49-4.85-.08-7.1,2.75-7.67,7.12-.29,2.24-1,4.53-.21,6.85a.62.62,0,0,1-.8.84c-4.81-1.08-9.59-2.27-13.7-5.22-.06,0-.11-.11-.18-.16-1.7-1.47-1.62-1.66-.4-3.51,2.59-3.94,6.4-6.58,9.83-9.64,5.11-4.54,11.45-6.81,17.5-9.62,2.17-1,4.36-1.94,6.55-2.89.61-.26,1.25-.88,1.9,0a26.46,26.46,0,0,0-8.53,12.06A13.13,13.13,0,0,0,159.32,89Z"/><path class="cls-11" d="M311.05,96.38a2.89,2.89,0,0,0,.9.3c3.37,0,4.59,2.4,5.49,5.06.71,2.07.52,4.24.54,6.38a54.35,54.35,0,0,1-2.32,8.51,26.89,26.89,0,0,1-2.14,4.54,11.35,11.35,0,0,1-8.3,5.62c-1.2-6.54-1.87-13.09-.52-19.69A19,19,0,0,1,311.05,96.38Z"/><path class="cls-15" d="M287.89,72.76c.89-.75,1.65,0,2.37.31a163.44,163.44,0,0,1,25.53,13c2.18,1.32,4.45,2.48,6.68,3.73A31,31,0,0,1,329.55,95a7,7,0,0,1,1,1.31c.82,1.49.56,2.45-.71,3.56-3,2.65-6.63,3.65-10.58,4.22-.73-1.92-1-4-2.16-5.74a5.92,5.92,0,0,0-3.81-2.61,9.87,9.87,0,0,1-2.93-1,19.21,19.21,0,0,0-4.94-9,26.65,26.65,0,0,1-2-2.37c-2.68-3.38-6.44-5.34-10-7.57C291.69,74.7,289.77,73.78,287.89,72.76Z"/><path class="cls-11" d="M149.3,106.77a35.29,35.29,0,0,1-.56-9.46,16.64,16.64,0,0,1,.64-3.26A6.19,6.19,0,0,1,157,89.67a6.33,6.33,0,0,1,1.89.86c.69,2,.22,4.1.38,6.15.13,1.74.08,3.5.14,5.25a16.69,16.69,0,0,1-.88,6.8,43.84,43.84,0,0,0-1.44,5c-.43,1.7-.82,3.4-1.26,5.25a5.67,5.67,0,0,1-2.7-2.53,22.29,22.29,0,0,1-3.24-7.91A4.31,4.31,0,0,0,149.3,106.77Z"/><path class="cls-16" d="M146.35,356.38c.78-.91,1.81-.46,2.69-.36,6.41.76,12.8,1.62,19.26,1.86H169c2.14.23,2.22.32,2.31,2.43.12,2.63.52,5.24.57,7.88,0,1.95.57,2.32,2.63,2.68a6.92,6.92,0,0,0,3.07,0c1.39-.38,1.56-.53,1.31-2a56.4,56.4,0,0,1-.85-8.8c0-1.72,0-1.67,1.75-1.53,2.94.23,5.89.5,8.83.56,5.91.12,11.8.78,17.71.61,1.1,0,1.79.24,2,1.52.62,4.89,6,7.46,10.07,7.48,9.27.05,18.55-.09,27.81.17a8.6,8.6,0,0,0,9-7.73c.27-1.9.31-1.88,2.12-1.94,4.38-.16,8.77-.34,13.15-.49,2-.07,2,0,2,2v11c0,1.86.05,1.91,1.86,1.94,1.2,0,2.4,0,3.6-.08,1.46-.09,1.76-.37,1.8-1.91.05-1.92,0-3.84,0-5.76.16-2,.36-4.08.46-6.12,0-.94.3-1.53,1.36-1.47,3.25.18,6.43-.74,9.67-.58,2-.48,4-.18,5.95-.18,1.62,0,2,1.33,2.28,2.62a8.79,8.79,0,0,1-.16,3.82c-.89,3.23-1.21,6.56-2.14,9.79-1.3,4.51-2.43,9.08-3.86,13.56a4.79,4.79,0,0,1-.24.92c-2.78,5.1-3.45,10.87-5.28,16.26-1,2.84-1.87,5.76-3.7,8.27-2.62,3.61-2.68,8.13-4.1,12.17-1.55,4.4-2.19,9-4.27,13.36-1.83,3.81-2.63,8.19-3.66,12.37a45.22,45.22,0,0,1-1.93,6.15c-1.47,3.65-.86,7.5-1.5,11.21a14.17,14.17,0,0,1-1.06,3.63c-.88,1.94-2,3.83-1.87,6.11a3.45,3.45,0,0,1-.92,2.43c-3.6,4.06-7.66,7.44-13.28,8.25-5.11.74-6.18.16-8.69-4.5a54.75,54.75,0,0,1-3.15-11.47c-1-5.41-2.38-10.74-3.68-16.08-.56-2.34-.74-4.72-1.14-7.07a156.66,156.66,0,0,1-2.16-22.05c-.11-4-.6-8.1-.93-12.15,0-.13-.16-.26-.25-.38-.57-.06-.67.35-.67.75,0,1.76-.38,3.5-.39,5.24,0,4.08-.44,8.13-.7,12.19-.24,3.79-.27,7.66-1.6,11.33a5.48,5.48,0,0,0-.26,1.88c.1,7.35-.67,14.7-.36,22a146.17,146.17,0,0,0,1.54,15.21,80.33,80.33,0,0,1,.35,9.56c0,1.07-.62,1.21-1.41,1-3.73-.82-7.58-1-11.24-2.2a25.08,25.08,0,0,0-6.83-1,59.86,59.86,0,0,1-13.89-2.12,40.22,40.22,0,0,0-7.34-.8c-.94-.07-1.91.19-2.94-.36a20,20,0,0,0,.9-7q-.81-7.36-1.6-14.73c-.08-.71-.19-1.42-.26-2.13a19.39,19.39,0,0,0-1.82-6.88c-2.93-5.86-5-12.08-7.4-18.17a164.07,164.07,0,0,0-11.21-23.81,35.91,35.91,0,0,1-3.25-8c-3.07-10.16-6.81-20.1-10-30.2A103,103,0,0,1,146.85,359C146.74,358.09,146.52,357.24,146.35,356.38Z"/><path class="cls-17" d="M279.69,332.39a34,34,0,0,0-.42-6.68c-.09-.83-.43-1.5-1.31-1.33a32.65,32.65,0,0,1-4.53.34c-.86,0-1.34.47-1.33,1.34a12.84,12.84,0,0,0,.1,2.63,37.37,37.37,0,0,1,.32,5.49c.08,1.18-.49,1.51-1.55,1.56-2.63.11-5.25.32-7.88.46a32.21,32.21,0,0,0-5,.4c-1.22.26-2-.18-2.16-1.5a8.4,8.4,0,0,0-1.59-3.69,8,8,0,0,0-7.06-3.77c-6.55-.08-13.1-.12-19.64.09-3.27.11-6.54.23-9.81.26a8.89,8.89,0,0,0-9,7.57c-.39,2-.39,2-2.4,2a143.64,143.64,0,0,1-16.72-.77c-3.17-.31-6.38-.09-9.55-.52-1.49-.19-1.75-.34-1.46-1.74.69-3.32.14-6.7.68-10,.22-1.3-.24-1.69-1.56-1.81-.56-.05-1.12,0-1.67-.07-2.43-.23-2.74,0-2.8,2.51a74,74,0,0,1-.89,9.28c-.17,1.14-.72,1.4-1.76,1.39a124.14,124.14,0,0,1-13.35-.87c-3-.32-6-.79-9-1.15-.79-.1-1.56-.33-2.35-.42s-1.06-.58-1-1.31c.23-5.5-.15-11,.38-16.51.46-4.76,1.38-9.47,1.62-14.25a20.8,20.8,0,0,1,1.08-4.65c1.43-4.91,3.49-9.59,5.15-14.42a1.6,1.6,0,0,1,.86-1.07c0,3,1.2,3.89,4,2.91a9.44,9.44,0,0,0,5.08-4.84,58.32,58.32,0,0,0,4.59-10,66.64,66.64,0,0,1,4.6-10.28c.61.09.35.57.41.87.31,1.46.43,1.56,1.89,1.33,7.46-1.23,14.93-2.36,22.36-3.73,2.91-.54,2.83,0,2.52-3.13-.4-4.11-.31-8.27-1.28-12.61,11,.44,21.75,1.35,32.6.71s21.45-1.15,32.29-3c-.34,3.91-.63,7.68-1,11.45-.41,4.21-.6,3.75,3.14,4.38,6.83,1.15,13.63,2.4,20.45,3.6a7.32,7.32,0,0,0,3.05.32c1.12-.33.28-2,1.22-2.72,1.73,2.18,2.65,4.81,3.78,7.33,1.66,3.72,3.32,7.43,4.95,11.16a4.5,4.5,0,0,0,1.37,1.93,13.22,13.22,0,0,1,4.49,6.64c1.25,3.53,2.95,6.93,3.63,10.62,1,5.48,1.84,11,2.61,16.51a138,138,0,0,1,1,19.59c0,1.48.22,2-1.85,2.36-3.38.65-6.81.71-10.2,1.26-5.6.9-11.28.82-16.91,1.35a5.57,5.57,0,0,1-1,0c-1.69,0-1.84-.14-2.15-1.85A7.47,7.47,0,0,1,279.69,332.39Z"/><path class="cls-18" d="M157.12,263c-1,.18-1.45.92-2,1.47-4.43,4.38-8.83,8.79-13.25,13.19-3.77,3.73-8.23,6.53-12.68,9.32-2,1.25-4.4,1.28-6.64,1.72-4.29.85-8.68.94-13,1.4a17.72,17.72,0,0,1-9.33-1.54,101.12,101.12,0,0,1-10.32-5c-3.69-2.26-6.87-5.15-10.31-7.72-4.34-3.24-8.17-7.09-12.35-10.54-3.5-2.89-6.79-6-10.12-9.11-1.57-1.45-1.6-1.62-.07-3,5.41-4.71,8.64-11,12.3-17A46.93,46.93,0,0,0,73.69,227a14.34,14.34,0,0,1,1-1.85c1-.06,1.31.69,1.82,1.15,2.08,1.86,4,3.92,6.09,5.74A23,23,0,0,0,93,237.09c2.43.51,4.56,1.85,6.94,2.51,2.08.56,4.11,1.25,6.17,1.86a11.72,11.72,0,0,0,5,.15,3.85,3.85,0,0,0,2.92-2.24c.63-1.29,1.29-2.58,1.93-3.86,3.3-6.65,6.78-13.2,10.66-19.53a71.15,71.15,0,0,0,3.43-6.31,40.51,40.51,0,0,1,7.07-9.86c5.23-5.62,11.56-9.72,18-13.78,1.81-1.16,3.61-2.34,5.47-3.42,1.71-1,2.31-.73,2.61,1.12.72,4.39,1.52,8.76,2,13.18.53,5.13,1.32,10.24,1.8,15.37.28,3,.45,6,1,9,.69,3.83,1.3,7.68,2.11,11.48.48,2.19.37,4.42.75,6.62.7,4,.87,8,1.37,12.06a11.61,11.61,0,0,1-1,7.4,77.34,77.34,0,0,0-5.11,11.83,40.59,40.59,0,0,1-4.74,9.39,6.55,6.55,0,0,1-3.77,3.12c-1.79.44-2.32.11-2.42-1.74a41.77,41.77,0,0,1,1.17-11.84l1.08-4.64A2.42,2.42,0,0,0,157.12,263Z"/><path class="cls-19" d="M312.31,312.22c-.75-1.71-.6-3.58-.93-5.36-.86-4.68-1.43-9.42-2.38-14.08a54.73,54.73,0,0,0-2.1-6.09,3.37,3.37,0,0,1,.38-3.16,134,134,0,0,0,9.83-18.82c.67-1.5.63-2-.71-2.46-4.49-1.57-8.86-3.44-13.47-5.21a42.52,42.52,0,0,0-.67,5.14,33.69,33.69,0,0,1-.72,5.67,12.32,12.32,0,0,0,0,5.2,5.94,5.94,0,0,1,.14,1.18,1.05,1.05,0,0,1-.89,1.19h-.05c-.61.11-.79-.41-1-.84-2.05-4.58-4.17-9.14-6.09-13.77-.77-1.87-1.93-3.48-2.78-5.29a8.43,8.43,0,0,1-.76-3.9c.08-4.38.65-8.73.62-13.13-.11-14.79,0-29.58-.06-44.37,0-2.88.72-5.7.52-8.58.54-3,2-3.86,5.09-3,10.63,2.86,19.05,9,26.23,17.19,7.9,9,13.8,19.35,20.1,29.43a31,31,0,0,1,4.21,13.39c.46,4.37,1.32,8.67,1.8,13,1,8.83,1.47,17.59.16,26.44a110.54,110.54,0,0,1-10.35,32.5c-1.9,3.91-4.35,5.26-8.53,4.49a66.51,66.51,0,0,1-16.06-5.35A3,3,0,0,1,312.31,312.22Z"/><path class="cls-10" d="M46.69,516.66a10.65,10.65,0,0,1-.43-3.55c.24-7.11-.43-14.19-.65-21.29-.12-3.74-.17-7.49-.41-11.23-.49-7.8-.62-15.62-1-23.42-.23-4.3-.07-8.62-.43-12.91-.39-4.78-.12-9.58-.51-14.34-.37-4.47-.16-8.94-.42-13.39-.47-7.89-.7-15.77-1-23.66-.21-5.73-.44-11.48-1-17.18-.94-10-.46-20.1-1-30.13-.26-5,.09-10-.77-15a4.33,4.33,0,0,1,0-.72c.2-5.27-.36-10.53-.65-15.78-.27-4.94-.05-9.9-.45-14.82-.36-4.39-.1-8.79-.48-13.15-.37-4.07-.19-8.14-.44-12.2-.42-6.76-.82-13.52-1-20.3,0-1.27-.5-2.49-.4-3.79.06-.71.19-1.16,1-1.37,1.59-.41,3-1.09,3.31-3a6.46,6.46,0,0,0-2.45-6.36c-.62-.52-1.89-.42-1.79-1.62.07-.93,1.1-1.06,1.68-1.58,2-1.82,2-5.85,0-8-.5-.47-1-.92-1.57-1.35,1.24-1,2.62-1.78,3.45-3.39a9.57,9.57,0,0,0,5,5.16c1.13.91,1.16,2.19,1.22,3.48.54,11.81,1.26,23.6,1.81,35.41.37,8.05.77,16.11,1.15,24.16Q49,303,49.69,314.74c.41,7.1.76,14.2,1.15,21.29.4,7.5.66,15,1.26,22.48.27,3.34.42,6.7.53,10,.39,11.17,1,22.34,1.63,33.5.67,12.27,1.43,24.55,2.17,36.82.53,8.77,1,17.54,1.18,26.33.12,8.14.7,16.27,1.2,24.4.27,4.39.38,8.78.55,13.17.13,3.27.64,6.52.54,9.81s-1.57,5.52-4.11,6.39C52.35,520.15,48.58,519.18,46.69,516.66Z"/><path class="cls-20" d="M186.69,187c2.64,4.12,6.54,6.89,10.39,9.72a127.18,127.18,0,0,0,20.83,12.08c3,1.41,6,2.69,9,4a5.12,5.12,0,0,0,4.36,0,183.09,183.09,0,0,0,26.31-13.54,61,61,0,0,0,8.72-6.61c1.39-1.27,2.88-2.42,4.55-3.81a10.38,10.38,0,0,1-.29,4.15c-1.64,8.42-2.37,17-4.1,25.38-1,4.8-1.39,9.73-2.05,14.61a1.54,1.54,0,0,1-.05.47c-.84,4.89-1.13,5.17-6.64,5.82-4.33.51-8.66,1-13,1.42-2.38.2-4.78.38-7.14.44-7.49.17-15,1.12-22.46.47-3.8-.32-7.64,0-11.41-.77a22.26,22.26,0,0,0-3.83-.09c-2,0-2,0-2.65-2-1.3-3.77-2-7.69-3.07-11.52-1.91-6.81-3.84-13.62-5.66-20.46-1.25-4.68-2.31-9.41-3.46-14.11-.13-.54-.33-1.08.15-1.57.81-.22,1.4.71,2.28.5.15-1.7-1.26-3-1.18-4.57C186.37,186.79,186.52,186.81,186.69,187Z"/><path class="cls-21" d="M229.34,510c-1.48.57-3,1.13-4.43,1.73-4.88,2-10.06,2.66-15.2,3.61-4.13.77-8.29,1.24-12.44,1.8a37.13,37.13,0,0,1-5.67.43c-5.34-.06-10.64,1-15.95.52-3.77-.34-7.63,0-11.29-1.34-3.91-1.43-7.58-3.2-10.31-6.5-.76-.91-1.58-1.77-2.38-2.66-.21-.48-.28-.89.37-1.12,4-1.46,7.71-3.75,11.74-5.29a69.41,69.41,0,0,0,8.66-4.56c4.31-2.39,8.54-4.94,12.89-7.25,2-1,4.25-.64,6.34-.3,4.6.76,9.17,1.77,13.76,2.6a14.62,14.62,0,0,0,3.1.09,23.84,23.84,0,0,1,8,1.13,67.15,67.15,0,0,0,9.09,1.74c.55.09,1.08.23,1.62.35,3.46.74,3,.87,3.46,3.93.42,2.64.1,5.41.09,8.13C230.77,508.18,229.93,509,229.34,510Z"/><path class="cls-22" d="M175.86,259.91c-2,0-2,0-2.15-1.85-.43-4.43-.65-8.88-1.31-13.29-.53-3.53-.63-7.13-1.11-10.67-.39-2.91-1-5.79-1.59-8.68a124.87,124.87,0,0,1-1.76-13.22c-.3-3.56-.93-7.09-1.2-10.66-.32-4.13-1-8.2-1.62-12.28-.36-2.44-.61-4.91-1.18-7.29-.32-1.35.19-1.73,1.24-2a.85.85,0,0,0,.22-.09c2.41-1.2,4.19-.83,6.23,1.27a51,51,0,0,0,10.64,8c.68.41,1.42.71,1.48,1.7C184,195,185.3,199,186.33,203c3.07,11.93,6.53,23.76,9.69,35.67,1.12,4.27,2.25,8.43,2.19,12.87,0,.94.33,1.88.38,2.83.09,1.64-.18,1.93-1.8,2.2L188.34,258l-11.5,1.91A5.33,5.33,0,0,1,175.86,259.91Z"/><path class="cls-21" d="M322.84,505.62c-.79,1.28-1.6,2.55-2.37,3.84A4.06,4.06,0,0,1,319,511c-3,1.66-5.85,3.59-9.27,4.28a59.2,59.2,0,0,1-10.36,1.31c-4.07.11-8.16.19-12.22,0-7.28-.36-14.56-.64-21.76-2.16a104.46,104.46,0,0,0-12.17-2.19,13.73,13.73,0,0,1-4.73-1.6,9.21,9.21,0,0,0-2.85-1.21c-.41-.49-.79-1-1.23-1.45a2,2,0,0,1-.66-1.95c.75-2.59.35-5.23.42-7.84s.19-2.93,2.75-2.61c5.94.72,11-1.75,16.26-3.81,4.8-1.89,9.59-3.85,14.51-5.44a5.66,5.66,0,0,1,4.35.26c6.16,2.77,12.4,5.37,18.55,8.16,6.95,3.15,14,6,21,9C322.47,504.18,323,504.65,322.84,505.62Z"/><path class="cls-23" d="M290.57,180.87c-1.51,20.59-.4,41.22-.91,61.82a69.94,69.94,0,0,1-.78,10.23c-.17,1,0,2.08-.14,3.11-.17,1.74-.69,2.14-2.31,1.86-7.37-1.25-14.72-2.52-22.09-3.75-1.13-.19-1.57-.83-1.36-1.82.47-2.29.29-4.62.58-6.91.56-4.33,1.12-8.67,1.79-13,1-6.29,1.76-12.6,3-18.85.75-3.82,1.19-7.7,1.78-11.55q.75-4.95,1.49-9.9a1.85,1.85,0,0,1,1.15-1.4,87.9,87.9,0,0,0,12.35-8.42,25.68,25.68,0,0,0,2.72-2.7A1.81,1.81,0,0,1,290,179C290.77,179.36,290.69,180.15,290.57,180.87Z"/><path class="cls-24" d="M242.74,484c.81,0,1,.6,1.33,1.18a5,5,0,0,0,5.79,3,23.33,23.33,0,0,0,5.92-1.63c1.54-.7,3.16-1.1,4-2.79.1-.2.32-.45.51-.47,2-.2,2.6-2.19,3.92-3.27a3.66,3.66,0,0,0,.93-3.51c-.08-.56-.34-1.06,0-1.59a17.57,17.57,0,0,0,3.05-8.71c.16-1.4.73-2.8-.48-4a.55.55,0,0,1-.08-.77l.08-.08c1.38-1.13,1.33-2.81,1.77-4.32q2.24-7.74,4.5-15.49a5.58,5.58,0,0,0,.47-2.09,2.43,2.43,0,0,1,.88-2.12,6,6,0,0,0,1.59-3.35c.52-2.13.7-4.38,1.75-6.38a2.74,2.74,0,0,0,.5-1.32,9,9,0,0,1,1.07-4.6c1.08-2.33.6-5.07,2.12-7.26a25.67,25.67,0,0,1,1.66-2.62,6.62,6.62,0,0,0,1.45-3,5.36,5.36,0,0,1,.42-1.36,13.36,13.36,0,0,0,1.74-5.4c.13-1.34,1-2.5,1.35-3.69a22.3,22.3,0,0,0,1.27-5.54,3.77,3.77,0,0,1,.93-2.6,4.73,4.73,0,0,0,1.52-3.88,2,2,0,0,1,.28-1.13,27.12,27.12,0,0,0,2.61-8.76,13.92,13.92,0,0,1,.85-2.73,10.75,10.75,0,0,0,1-5.09,2.65,2.65,0,0,1,.33-1.37c1.08-2,.9-4.31,1-6.48.13-2-.91-2.89-2.87-2.92h-4.8a2.59,2.59,0,0,1,2.06-.38c5,.18,9.88-.55,14.82-.7,1.38,0,1.56,0,1.35,1.41-.48,3.3-1.12,6.58-1.67,9.88-2,11.8-6.39,22.85-10.4,34-4.18,11.63-8.45,23.24-12.33,35-1.68,5.07-3.79,10-5,15.23-1.41,6.12-2.33,12.35-3.23,18.57-.24,1.66-.56,3.3-.78,4.95-.38,2.83-.4,5.6,1.8,7.86a6,6,0,0,1,.67,1,1.08,1.08,0,0,0,.05.32c-1.84,1.09-4,1.3-6,2.14-5.94,2.53-12.11,4.5-18,7.15a5.21,5.21,0,0,1-2.1.37c-2.61.1-5.22.15-7.82.26-.49,0-.75-.13-.85-.59a9.13,9.13,0,0,1-.38-1.87C243.37,489.59,242.59,486.85,242.74,484Z"/><path class="cls-25" d="M46.69,516.66c2.26,1.82,4.87,2.16,7.66,1.93a5.14,5.14,0,0,0,4.78-4.79c0-2,.32-4-.39-5.94a2.15,2.15,0,0,1-.06-.72c.28-5.19-.33-10.37-.62-15.52-.26-4.6.17-9.25-.8-13.81a3.84,3.84,0,0,1,0-.48c.11-6.46-.74-12.9-.52-19.37.12-3.74-.39-7.48-.57-11.21a49.18,49.18,0,0,0-.43-7.37c-.73-3.64.15-7.35-.85-10.93a1.29,1.29,0,0,1,0-.48c.33-4.4-.33-8.77-.6-13.13-.24-3.71.06-7.49-.79-11.16a1.93,1.93,0,0,1,0-.48c.26-4-.51-8-.48-11.94,0-4.63-.47-9.23-.63-13.85-.1-3.09-.12-6.21-.38-9.3-.49-5.87-.66-11.75-1-17.63-.18-2.86-.17-5.73-.4-8.58-.48-5.95-.68-11.91-1-17.87-.18-2.86,0-5.78-.46-8.57-.74-4.11.2-8.3-.85-12.37a1.85,1.85,0,0,1,0-.47c.33-5.2-.28-10.38-.64-15.53-.29-4.2.25-8.46-.76-12.61a1.85,1.85,0,0,1,0-.47c.34-4.88-.36-9.72-.58-14.58-.21-4.43,0-8.91-.84-13.32a1.85,1.85,0,0,1,0-.47c.32-4.56-.68-9.07-.48-13.62a10.5,10.5,0,0,0-.49-3.77c3.32-.85,3-.82,3.44,2.52.54,4.28,0,8.61.8,12.87a14.72,14.72,0,0,1,.06,3.11,110,110,0,0,0,.92,14.05,1.93,1.93,0,0,1,0,.48c-.24,5.12.36,10.21.63,15.3.23,4.28,0,8.61.77,12.87a1.85,1.85,0,0,1,0,.47c-.18,4.16.45,8.29.48,12.43,0,4.47.47,8.92.62,13.38.18,5.65.64,11.29.93,16.93.29,5.89.65,11.77,1,17.66.28,5.64.67,11.28,1,16.93q.47,9.18,1,18.37c.35,6.12.66,12.41,1,18.62s.68,12.24,1,18.37.66,12.09,1,18.13.63,11.94,1,17.9c.2,3.34.17,6.69.4,10,.51,7.24.69,14.49,1,21.73.14,3,.07,6.07.43,9.06.59,5,.26,10,1.25,15a5,5,0,0,1-3.61,6.09,4.21,4.21,0,0,1-.71.12c-3.18.56-6.19-.18-9.27-.23C47.84,520.4,46.75,518.52,46.69,516.66Z"/><path class="cls-14" d="M53.08,218.2c-.81,1.44-1.66,2.85-2.41,4.32A11.53,11.53,0,0,1,47.82,226a3.76,3.76,0,0,1-4.82.3A5.9,5.9,0,0,1,40.45,223a33.17,33.17,0,0,1-1.26-13.47,10.94,10.94,0,0,1,3.72-6.79c2.76-2.36,5.67-4.37,9.39-4.94a9.47,9.47,0,0,1,3.52,0c4,.91,7.24,3.22,10.21,5.93a5.76,5.76,0,0,1,1.14,1.82c1.3,2.73,2.58,5.48,3.88,8.22a29.34,29.34,0,0,1,2.11,6.32,10.62,10.62,0,0,1-.82,7.57c-1,1.92-1.87,3.89-2.75,5.85-.41.91-.92,1.18-1.86.72a44.33,44.33,0,0,0-10.27-3c-2.65-.57-3.13-1.22-3.23-3.84-.13-3-.33-6-.5-9Z"/><path class="cls-26" d="M305.52,334.25c3.26.16,3.78.46,3.36,3.57-.59,4.39-.14,8.85-1.21,13.2-.47,1.86-1.2,3.22-3,3.92a1.68,1.68,0,0,0-1,1,15.32,15.32,0,0,1-3.31.43c-5.65.16-11.29.64-16.93,1-3.71.22-3.33.36-3.34-3.29V338.52c0-2.51.09-2.6,2.54-2.67,3.58-.12,7.16-.18,10.74-.47,3.42-.28,6.8-.79,10.21-1.07C304.24,334.24,304.88,334.26,305.52,334.25Z"/><path class="cls-27" d="M312.31,312.22c3.1,2,6.6,3,10.12,4,2.2.65,4.39,1.37,6.61,2a9.25,9.25,0,0,0,1.89.26c3.36.3,5.56-1.12,7-4.2,3.23-6.94,6.27-13.94,7.88-21.47.27-1.26.81-2.4,1.17-3.62a34,34,0,0,0,1-6.81c.31-3.32,1.42-6.56,1.18-9.92-.29-4.1,0-8.26-.57-12.28-.71-4.85-.7-9.83-2.14-14.58a28.88,28.88,0,0,1-.51-4.73,32.53,32.53,0,0,0-5.25-13.7c-2-3-3.73-6.08-5.66-9.09A142.89,142.89,0,0,0,325.32,204c-3-3.61-5.92-7.28-9.71-10.16-1.63-1.25-3-2.8-4.75-4A47.69,47.69,0,0,0,300,184.42c-1.13-.41-2.26-.8-3.39-1.18-3-1-4.17-.49-5.39,2.3-.23-1.46.29-2.84.45-4.25.12-1,.8-1.18,1.54-.91,3.14,1.15,6.4,1.92,9.49,3.22A102.32,102.32,0,0,1,313,188.74a36.47,36.47,0,0,1,6,4.72,86.46,86.46,0,0,1,14.83,17.44c3.46,5.26,6.69,10.66,10,16a48.48,48.48,0,0,1,3.54,6.23,42.72,42.72,0,0,1,2.38,9.7c.83,5.25,1.57,10.51,2.35,15.76a5.6,5.6,0,0,1,.06,1c0,6.16.3,12.34-.09,18.47a86.75,86.75,0,0,1-3,16.86A112.79,112.79,0,0,1,344,308.31c-1.39,3.4-2.85,6.76-4.27,10.14a4,4,0,0,1-4.94,2.47c-2.47-.56-4.94-1.17-7.43-1.67-3.71-.74-7.09-2.34-10.53-3.81a28.11,28.11,0,0,0-3.28-1.44,1.48,1.48,0,0,1-1.24-1.68S312.3,312.25,312.31,312.22Z"/><path class="cls-28" d="M43.3,200.9c-2.35,2-2.37,2-4.55-.1a6.4,6.4,0,0,0-3.14-1.59,1.59,1.59,0,0,1-1.47-1.7.22.22,0,0,0,0-.08c-.17-5.4-.68-10.79-1-16.18-.38-6.36-.69-12.71-1-19.07-.17-3.65-.15-7.32-.45-11-.21-2.63-.39-5.23-.36-8l6.19,1.59c2.86.93,3.9,3.18,4,5.89.37,7.48.75,15,1.1,22.44.38,8.19.55,16.4,1.24,24.58A4.65,4.65,0,0,1,43.3,200.9Z"/><path class="cls-29" d="M312.81,349.24a1,1,0,0,1-.39-1c.82-5.08.5-10.18.4-15.29a181.44,181.44,0,0,0-.5-18.21c4.27,1.45,8,3.76,12.13,4.78s8.36,2,12.71,3a13.43,13.43,0,0,1-1.59,4.82,52,52,0,0,1-15.17,18A21.17,21.17,0,0,1,312.81,349.24Z"/><path class="cls-30" d="M43.41,125.48l-.19-.35a17,17,0,0,1,6-2.24,16.24,16.24,0,0,0,9.94-5.28,45.2,45.2,0,0,0,5.61-7.44,16.34,16.34,0,0,0,2.29-8.46c0-5.75.09-11.51,0-17.26-.3-15.18.75-30.35.44-45.52-.15-7.34-.39-14.68-.47-22,0-3.37-.59-6.7-3-9.37C64,6.39,64.83,6,65.67,5.82A2,2,0,0,1,67.8,7a20.93,20.93,0,0,1,2.32,7,74.43,74.43,0,0,1,.42,10.76c0,24.77-.12,49.53.11,74.3.08,9-3.84,15.7-9.78,21.79a14.23,14.23,0,0,1-10.3,4.26c-1,0-2.09-.2-3,.45Z"/><path class="cls-29" d="M68.54,235.83c-4,5.79-7,12.07-12.26,16.7a4.27,4.27,0,0,1-3.46,1.2c-2.74-.27-3.28-.75-3.17-3.57C49.93,243,49,236,49,228.85a5.49,5.49,0,0,1,1.4-4.11A26,26,0,0,0,52.78,221a62.92,62.92,0,0,1,.51,6.71c0,2.8.82,3.83,3.63,4.45,3.65.81,7.33,1.51,10.71,3.24A3.87,3.87,0,0,1,68.54,235.83Z"/><path class="cls-31" d="M28.34,132.3a24.48,24.48,0,0,1-.38-5.92c0-.95.4-1.16,1.34-1.08,3.23.28,6.43,1,9.7.68,1.68,0,3.35.13,5,.13,1.14,0,1.78.31,1.74,1.63-.1,2.71.08,5.44-.18,8.13a13.85,13.85,0,0,1-2.87,6.72A3.84,3.84,0,0,1,38.4,144c-1.21-.37-2.49-.53-3.73-.81a5.54,5.54,0,0,1-4.35-4C29.63,136.9,29,134.59,28.34,132.3Z"/><path class="cls-32" d="M279.19,362.08c-.62.68-.4,1.51-.41,2.29v7c0,.87-.34,1.25-1.25,1.36-3.81.46-4,.29-4-3.57,0-5,0-9.91.06-14.86,0-2.71.53-5.39.43-8.11-.22-5.9-.33-11.79-.89-17.67v-1.44c0-.85.24-1.39,1.2-1.37a7.53,7.53,0,0,0,.95,0c2.81-.29,2.78-.28,3.33,2.38a23.11,23.11,0,0,1,.24,3.1c0,.78-.18,1.62.44,2.29Z"/><path class="cls-33" d="M32.43,200c2.83-.17,5.16.47,6.87,2.78.58.78,1,1.43.47,2.36a14.59,14.59,0,0,0-1.69,8.32c.06.88-.3,1.37-1.22,1.34-3.19-.11-6.4-.25-9.25-1.86a7.84,7.84,0,0,1-3.31-8.51,4.27,4.27,0,0,1,1.63-2.3C27.92,200.66,30,199.49,32.43,200Z"/><path class="cls-34" d="M43.3,200.9c-.24-4.2-.31-8.42-.6-12.6-.24-3.34,0-6.69-.42-10-.46-3.74-.08-7.49-.51-11.18-.38-3.18-.09-6.36-.45-9.5-.28-2.54-.27-5.07-.47-7.59a7.09,7.09,0,0,0-3.31-5.27c1.94.71,3.67-.07,5.51-1a29.24,29.24,0,0,1,.59,5.82c.12,3.58.56,7.13.64,10.71.08,4.3.38,8.59.59,12.87a88,88,0,0,0,.43,9.05c.67,4.27.17,8.57.74,12.85C46.45,198.17,47.05,199,43.3,200.9Z"/><path class="cls-29" d="M29.41,226.27c-.6-.07-1.4-.1-2.17-.26a6.2,6.2,0,0,1-4.44-4.76c-.25-1.71,1.27-4.91,2.85-5.73a5.83,5.83,0,0,1,4.52-.67A40.18,40.18,0,0,1,37,217a2.59,2.59,0,0,1,1.7,2c.52,2.89-.69,5.3-3.44,6.23a24,24,0,0,1-3.47.84A18.36,18.36,0,0,1,29.41,226.27Z"/><path class="cls-35" d="M37.9,232.1c0,1.52-.38,2.81-1.91,3.53A19.8,19.8,0,0,0,33.77,237a4.14,4.14,0,0,1-3.41.65,20.88,20.88,0,0,0-2.36-.31A5.1,5.1,0,0,1,23.69,234a4.75,4.75,0,0,1,3.87-6.73c1.74-.22,3.5-.21,5.24-.3a4.77,4.77,0,0,1,5.1,4.42A4,4,0,0,1,37.9,232.1Z"/><path class="cls-36" d="M33.75,247.8a11.81,11.81,0,0,1-1.19,0c-3.23-.31-4.82-2.25-4.5-5.49.24-2.45,1.64-3.77,4.09-3.63s4.55.42,6.08,2.62a5.61,5.61,0,0,1,.77,4.09c-.08.8-.7,1.21-1.34,1.55A7.09,7.09,0,0,1,33.75,247.8Z"/><path class="cls-1" d="M186.69,187h-.45c-.23-.16-.58-.43-.21-.6S186.53,186.69,186.69,187Z"/><path class="cls-37" d="M294.09,51.65c-5.68-2.17-11.66-3.18-17.55-4.52-3.05-.69-6.15-.83-9.23-1.23-7.19-.93-14.43-1.36-21.62-1.83q-7.27-.45-14.58-.64c-4.93-.12-9.88.11-14.81-.09-9.29-.39-18.38,1.31-27.55,2.31-6.3.68-11.94,3.3-17.83,5.22a10.42,10.42,0,0,1-2.77.94c-.32-2,.27-3.83.5-5.68.55-4.35.77-8.75,1.43-13.07.72-4.73,2.46-8.84,6.9-11.72a37.83,37.83,0,0,1,14-5.15c5.08-.94,10.17-2,15.38-2,4.16.05,8.27-.59,12.47-.38,5.31.26,10.65.51,16,.4,14.24-.29,28.07,2.18,41.81,5.66,9.29,2.36,14.62,8.18,16.93,17.26,1,4,1.19,8,1.64,12.08C295.23,50.16,295.18,51.16,294.09,51.65Z"/><path class="cls-15" d="M312.76,70.38v1c-.08.9-.62,1.15-1.3.68a39,39,0,0,0-5.14-2.54A185.28,185.28,0,0,0,285,61.2c-4.55-1.57-9.41-2.26-14.15-3.25-4-.82-7.94-1.61-11.94-2.21-3.29-.49-6.6-1-9.93-1.22-2.93-.23-5.86-.61-8.78-.8-4.13-.28-8.25-.77-12.41-.64-3.75.12-7.51,0-11.26.06-3.27,0-6.49.61-9.74.82-3.73.25-7.42.84-11.15,1.11-4.93.37-9.7,1.59-14.54,2.53a122.27,122.27,0,0,0-19.34,6c-2.27.85-3.46-.06-3.3-2.52a4.68,4.68,0,0,1,2.2-4c1-.61,2-1.24,3.12-1.78a136.52,136.52,0,0,1,19.34-7.57,49.46,49.46,0,0,1,7.74-1.31c3.22-.46,6.43-1,9.67-1.26,3.42-.25,6.81-.75,10.25-.72,7.9.08,15.82-.16,23.72.15a91.07,91.07,0,0,1,12.13.79,18.48,18.48,0,0,0,2.88.08,142.3,142.3,0,0,1,15.43,1.32c1.81.25,3.64.34,5.46.54a117.64,117.64,0,0,1,20.24,4.32,59.85,59.85,0,0,1,8.52,3.11,34.44,34.44,0,0,1,9.75,6.42A13.15,13.15,0,0,1,312.76,70.38Z"/><path class="cls-38" d="M294.09,51.65a3.33,3.33,0,0,0,.47-2.07c-.63-4.47-.61-9-2-13.39-1.22-3.74-2.73-7.31-5.58-10.18a16.75,16.75,0,0,0-6.65-4.12A146,146,0,0,0,260.44,17a113.91,113.91,0,0,0-12.75-1.75,136.65,136.65,0,0,0-14.31-.63c-2.85.1-5.73.36-8.59-.33-.85-.2-1.85.29-2.8.37A31.92,31.92,0,0,1,214.9,14c-.55-.08-1.19-.37-1.64-.11-2.29,1.32-4.66.22-7,.35a3.78,3.78,0,0,1,.85-.37,118.47,118.47,0,0,1,20.8-.43c5.83.35,11.64.18,17.46.26,4.88.06,9.66.9,14.49,1.34,7.5.7,14.64,3,22,4.51a25,25,0,0,1,9.83,4.12,17.39,17.39,0,0,1,6,7.88,54.05,54.05,0,0,1,3.39,12.67,47.77,47.77,0,0,1,.61,10.68C299.1,53.54,296.44,53,294.09,51.65Z"/><path class="cls-39" d="M323.34,89.08c1-2.37-.67-3.91-1.9-5.43-2.15-2.66-5-4.58-7.73-6.58-.89-.66-1.82-1.27-2.65-2A4.82,4.82,0,0,1,309,71.75c2.34.7,4.11,2.37,6.14,3.6,2.8,1.68,5.49,3.52,8.31,5.18a20.87,20.87,0,0,1,6.67,7c1.38,2.15,1,4.83.81,7.78A78,78,0,0,0,323.34,89.08Z"/><path class="cls-40" d="M64,7.53c2.49.79,2.87,3,3.27,5.08.69,3.79.45,7.62.49,11.45.11,10.13,1,20.27.42,30.39-.86,16.13-.14,32.26-.43,48.39A16,16,0,0,1,65,111.15,48,48,0,0,1,58.81,119a15.8,15.8,0,0,1-9.71,4.62,4.33,4.33,0,0,0-2.06.51,6.28,6.28,0,0,1-3.82,1,126.63,126.63,0,0,1-25.39-2.48A16.61,16.61,0,0,1,10,118.34c-4-3.61-5.76-8.3-7.19-13.24a6.34,6.34,0,0,1-.25-1.89c.29-9.18-.65-18.33-.87-27.5C1.32,61.71,1,47.78,1,33.81c0-5.1-.37-10.2.05-15.3A122.28,122.28,0,0,1,3.63,5.11c1.48-.83,2,.25,2.49,1.3A10.51,10.51,0,0,1,7,10.61c-.13,6.86,1,13.68.27,20.59a84.25,84.25,0,0,0,.15,15.56c.48,5.65,0,11.35.2,17,.34,7.9.8,15.81,2.93,23.49.71,2.56,1.56,5.11,4.46,6.11,2,1.37,3.4,1.06,4.49-1.08A33.39,33.39,0,0,0,20.81,89c.44-5.25.09-10.51.2-15.75.07-.68.42-.81.92-.38a3.79,3.79,0,0,1,.92,2.63c.55,4.1,1.07,8.21,1.92,12.27a20.46,20.46,0,0,0,5.05,9.61c1.92,2.14,5.65,3,7.72.23a13.77,13.77,0,0,0,2.54-9.21c-.39-10.47.66-20.91,1-31.36.2-6.14.58-12.28.93-18.41.43-7.41,1.06-14.8,1.63-22.2.3-3.9.93-7.58,3.09-10.89,2.21.36,2.12,2.22,2.13,3.71a124.88,124.88,0,0,1-.17,13c-.56,6-.6,12-.72,17.93-.31,15.49-.08,31-.12,46.48a21.83,21.83,0,0,0,2,9,8.25,8.25,0,0,0,3,3.91c.31.24.61.51.94.72,2,1.26,3.46.88,4.47-1.25a14.24,14.24,0,0,0,1.29-4.57c1.15-9.94.86-19.92,1.13-29.89.3-10.86.22-21.73.47-32.59.1-4.55.18-9.1.3-13.65A35.09,35.09,0,0,1,64,7.53Z"/><path class="cls-41" d="M37.54,97.69c-.71,2.08-1,2.28-3,2.45-3,.26-4.86-1.56-6.54-3.68A22,22,0,0,1,23.69,86,110.08,110.08,0,0,1,22.2,75a3,3,0,0,0-.9-2.14c-.38-.4-.28-.9-.29-1.37V46a2.46,2.46,0,0,1,.18-1.17c0-6.94,0-13.88.36-20.82a94.07,94.07,0,0,1,1.5-13.27,29.94,29.94,0,0,1,2.07-6.58c1.63-.55,1.89.76,2.23,1.75a10.74,10.74,0,0,1,.34,4.78c-1.49,13-2,26.08-2.51,39.16A216.3,216.3,0,0,0,26.4,85.17,18.6,18.6,0,0,0,29.9,94a10.27,10.27,0,0,0,4.87,3.7A7.81,7.81,0,0,0,37.54,97.69Z"/><path class="cls-42" d="M34.74,97.68c-2,.28-3.37-.67-4.64-2.22a20.38,20.38,0,0,1-4.59-11c-.44-4-.59-8.08-1-12.09a121.9,121.9,0,0,1-.28-17.2c.21-5.65.14-11.31.45-16.94q.41-7.74,1-15.45c.29-3.69.63-7.41,1.23-11.1a12.33,12.33,0,0,0-.31-6.15c-.26-.76-.6-1.29-1.45-1.33a9.29,9.29,0,0,1,.7-1.5c.48-.68.87-1.87,1.85-1.56a2.65,2.65,0,0,1,1.68,2.42A42.36,42.36,0,0,1,29.69,10c-.33,3.41-.5,6.84-1,10.23A85,85,0,0,0,28,28.77c-.33,7.49-.89,15-.75,22.48.06,2.71-.19,5.42-.25,8.13a195.76,195.76,0,0,0,.85,22.46C28.43,87.76,30.08,93.43,34.74,97.68Z"/><path class="cls-43" d="M52.92,99.63c-1.45.18-2.26-.76-2.83-1.82a21.45,21.45,0,0,1-3-10.2c0-16.21-.16-32.42.11-48.62.08-4.92,0-9.89.49-14.79.54-5.25.23-10.48.36-15.71a3,3,0,0,0-1.36-2.87,1.52,1.52,0,0,1,.1-.46c.53-.88,1-2.07,2.2-1.87,1,.16.82,1.4,1.15,2.17a6.33,6.33,0,0,1,.35,2.36c.23,5.1.18,10.2,0,15.3-.25,5.82-.37,11.65-.61,17.48-.67,16.2-.3,32.42-.27,48.63,0,3.21,1.59,6.13,2.76,9.09A10.44,10.44,0,0,0,52.92,99.63Z"/><path class="cls-44" d="M15,93.41c-1.73.38-2.45,0-3.44-1.61a23.34,23.34,0,0,1-2.72-8.37c-.77-4.53-1.19-9.11-1.6-13.7C6.6,62.46,7.33,55.19,6.77,48a146.26,146.26,0,0,1-.32-15.53c.11-3.41.81-6.88.32-10.24-.68-4.76.21-9.58-.91-14.27C5.57,6.72,5.71,5,3.63,5.14a1,1,0,0,1,0-.24c.5-1.1,1-2.46,2.35-2.36C7,2.62,7.33,4,7.69,5a21.36,21.36,0,0,1,1.45,7.23c.14,5.68.07,11.35,0,17C8.89,41.57,9.08,54,9.4,66.33A65.14,65.14,0,0,0,11,80.8a18.39,18.39,0,0,1,.31,2.86C11.6,87.27,13.19,90.38,15,93.41Z"/><path class="cls-42" d="M21.19,44.82q0,11.1.07,22.22V86.59c0,.84.29,1.76-.44,2.49q0-20,.06-40A12,12,0,0,1,21.19,44.82Z"/><path class="cls-26" d="M208.3,345.61c.12,3.84-.55,7.64-.49,11.47,0,1.66-.08,1.72-1.8,1.72-6.85,0-13.69-.42-20.52-.87-1.75-.12-3.51-.07-5.25-.23-2-.2-2-.35-2.18-2.32a83.46,83.46,0,0,1,.41-16.42c.2-1.68.18-1.81,1.84-1.68,5.7.47,11.44.53,17.14,1.1,2.85.29,5.73.13,8.6.18,2.23,0,2.23,0,2.25,2.27Z"/><path class="cls-45" d="M209.69,337.61c0-4.38,2.22-7.56,6.12-8.64a66.58,66.58,0,0,1,8.59-.16h21.09c3.2,0,5.17,2.37,4.84,5.66-.49.88-1.32.44-2,.53l-23.26,0a64.51,64.51,0,0,1-9-.62c-2.51-.34-4.08,1-4.11,3.47-.07,5.1-.72,10.18-.59,15.31.06,2.34.72,4,2.94,4.94.88,1.07,2.11,1,3.3,1h23.21a5.75,5.75,0,0,1,3.27.45c.29,1.53-.88,1.59-1.82,1.66a95.06,95.06,0,0,1-15.28,0c-4.94-.46-9.87-.08-14.8-.32-1.11-.06-1.71.71-2.46,1.27a4.17,4.17,0,0,1-.51-2.83,82.4,82.4,0,0,1,0-12.17c0-.77.07-1.54.11-2.31C209.81,342.47,209.09,340,209.69,337.61Z"/><path class="cls-26" d="M255.69,354.4c-.06-5.09.66-10.16.45-15.26-.05-1.15.48-1.46,1.52-1.63a56.66,56.66,0,0,1,7.13-.36c4.94-.69,5.1-.56,5.11,4.21v9.31a11.84,11.84,0,0,1-.66,4.22,4.39,4.39,0,0,1-4.53,3.15q-3.09,0-6.18-.19C255.25,357.63,255.25,357.71,255.69,354.4Z"/><path class="cls-46" d="M209.69,362.17a9.82,9.82,0,0,1,.1-1.43.93.93,0,0,1,1-.83.78.78,0,0,1,.21,0c2,.56,4.12.29,6.17.24,6.92-.15,13.8.8,20.72.55,1.56,0,3.1-.54,4.7-.14a1.77,1.77,0,0,0,1.62-.85,4.87,4.87,0,0,1,4.87-.16c.87,2.56-.44,5.12-3.3,6.44a7.89,7.89,0,0,1-3.49.65c-9.61-.1-19.22.24-28.83-.19C211.42,365.74,210,364.46,209.69,362.17Z"/><path class="cls-47" d="M172.34,355a78.41,78.41,0,0,1,.8-13.69,19,19,0,0,0,.07-3.11,60.91,60.91,0,0,1,.82-8.3c.17-1.44.11-2.87.18-4.3.1-1.8.12-1.83,2-1.86h.95c1.08,0,1.34.52,1.27,1.51-.32,4.29-.4,8.6-.92,12.86-.38,3.09-.14,6.22-.75,9.29a7.21,7.21,0,0,0,0,2.62c.61,3.25.32,6.53.39,9.8a69.79,69.79,0,0,0,.79,8.3c.27,1.9.17,2.11-1.69,2.15h-1c-1.79-.08-2.39-.52-2.39-2.24C172.84,363.53,171.88,359.1,172.34,355Z"/><path class="cls-48" d="M213.47,366.49a5.28,5.28,0,0,1,3-.52h26a6.33,6.33,0,0,0,4.9-2,5,5,0,0,0,1.6-4.29,3.62,3.62,0,0,1,.62-1.26c0-2.48.85-5-.5-7.38-1.43-.58-2.81-.08-4.22.08a49.19,49.19,0,0,1-6.19.09c-2.54,0-3.67-.84-3.65-2.45s1.34-2.64,3.8-2.69c2.77-.06,5.55,0,8.33,0,1.27,0,2.4-.28,2.67-1.79a3.52,3.52,0,0,0,.07-2.65,30.09,30.09,0,0,1,0-6.84c.32-2.37-1.1-3.87-2.65-5.31-.74-.68-1.66-.47-2.52-.47h-26c-1,0-1.91,0-2.87-.06a3.83,3.83,0,0,1,2.31-.3q14.19-.06,28.39-.08a4.94,4.94,0,0,1,3,.5c2.74,1.86,3.46,4.71,3.56,7.73.15,4.4-.36,8.78-.64,13.15-.21,3.42-.11,6.88-.82,10.26a10.53,10.53,0,0,1-1.77,4.65,6.52,6.52,0,0,1-5.7,2.83c-8.62-.16-17.25-.06-25.87-.07a4.48,4.48,0,0,1-2.35-.21A6.61,6.61,0,0,1,213.47,366.49Z"/><path class="cls-49" d="M215.9,367.43h28c1,0,2.13.33,3-.54,1.3-1.37,3.08-2.4,3.51-4.43a25.39,25.39,0,0,0,.93-5.62c-.05-3.28.7-6.51.52-9.77-.16-3.05.59-6,.55-9.05a12.47,12.47,0,0,0-2.34-7.85,6.64,6.64,0,0,1-.57-1.05,7.67,7.67,0,0,1,5.65,7.37c.15,7.76-.27,15.5-.88,23.23-.17,2.25-.34,4.62-2.31,6.35a6.59,6.59,0,0,1-4.52,1.87c-10,0-20,0-30-.07A2,2,0,0,1,215.9,367.43Z"/><path class="cls-50" d="M255.69,354.4c.11,2.8.12,2.69,2.83,3a38,38,0,0,0,5.93.43,4.79,4.79,0,0,0,4.14-3,12.56,12.56,0,0,0,.59-3.28c-.07-4,0-8,0-12,0-2.3,0-2.3-2.44-2.33h-1.92c2.24-.81,4.56-.32,6.83-.43.72,0,.87.54.92,1.15a60.18,60.18,0,0,1,.09,13.81,32.8,32.8,0,0,0-.13,4.54c0,1.08-.38,1.49-1.5,1.63a130.06,130.06,0,0,1-13.82.47c-1.87,0-1.89,0-1.89-1.86C255.3,355.76,255.15,355,255.69,354.4Z"/><path class="cls-51" d="M209.16,347.17v12.17a4,4,0,0,1-.36-2.54C208.87,353.59,208.46,350.36,209.16,347.17Z"/><path class="cls-51" d="M209.69,337.61v5.7a1.85,1.85,0,0,1-.43,1.55C209.29,342.44,209,340,209.69,337.61Z"/><path class="cls-52" d="M273.55,84c-3.66-.2-6.92-1-10.25-1.28a115,115,0,0,0-13.13-.1c-1.35,0-2.7.09-4.06.09a4.28,4.28,0,0,1-3.94-2.81,1.39,1.39,0,0,1,.65-1.83A6.3,6.3,0,0,1,246,77c6-.07,12-.29,17.84,1.08A17,17,0,0,1,273.55,84Z"/><path class="cls-52" d="M185,84a13.8,13.8,0,0,1,6.63-4.9,30.67,30.67,0,0,1,8.62-1.85A114.54,114.54,0,0,1,211.92,77a7.45,7.45,0,0,1,3.66,1,1.41,1.41,0,0,1,.81,1.57,4.39,4.39,0,0,1-3.74,3.11c-2.24,0-4.47,0-6.7-.17a77.34,77.34,0,0,0-18.1,1.17C187.08,83.79,186.28,83.82,185,84Z"/><path class="cls-53" d="M213.13,101.68c.3,2.86-.83,5.59-2.32,8.15-3.56,6.1-11.27,6.41-15.56.77-2.6-3.42-2.95-7.26-2.71-11.33a12.59,12.59,0,0,1,3.37-7.73c4.77-5.37,11.31-3.82,14.63,1.13A14.07,14.07,0,0,1,213.13,101.68Z"/><path class="cls-54" d="M246.52,101.23a13.76,13.76,0,0,1,2.77-8.81c3.71-5.31,10.21-5.64,14.52-.82,4.54,5.09,4.52,14.65,0,19.73-4.39,4.89-11.37,4.32-14.81-1.33C247.15,107,246.35,104.88,246.52,101.23Z"/><path class="cls-55" d="M245.26,125l-1-.44a6,6,0,0,0,2.47-5.84,4,4,0,0,0-2.18-3.23,4.89,4.89,0,0,0-3-.2c-1.44.18-.86,1.49-1.39,2.13-.53-5.75-2.43-11.18-3.6-16.8.57-.16.61.22.72.42a4.76,4.76,0,0,1,.3.9c.95,3.77,1.93,7.54,2.83,11.33.2.82.46,1.34,1.39,1.18a4.52,4.52,0,0,1,5.39,2.91c1,2.33.37,4.5-1,6.5Z"/><path class="cls-56" d="M214,121.74h-.43a5,5,0,0,1,0-4.58,4.35,4.35,0,0,1,4.85-2.71c1.24.18,1.66-.28,1.91-1.46.65-3,1.43-6.06,2.19-9.07a7.07,7.07,0,0,1,.9-2.47c.6.3.37.83.28,1.19-.9,3.72-1.82,7.44-2.8,11.15-.44,1.67-.51,1.66-2.2,1.46a4,4,0,0,0-4.65,3.23,4.34,4.34,0,0,0-.06.88A18.89,18.89,0,0,0,214,121.74Z"/><path class="cls-57" d="M244.69,153.62l-1,1.1c-.64.51-.94-.28-1.43-.35l-.65-.25c-.39-.07-.88,0-1.17-.19-5-3.55-10.44-.9-15.66-1.31a4.11,4.11,0,0,0-3.22,1.25,1.58,1.58,0,0,1-1,.33,4,4,0,0,0-2.2.05,5.33,5.33,0,0,1-1.56.48,1.3,1.3,0,0,1-1.34-.86c.43-.67,1.15-.78,1.82-1a25.45,25.45,0,0,0,8.59-5.46,8.64,8.64,0,0,0,.9-1.1,20,20,0,0,1,7.47,0c2.72,2.63,5.48,5.19,9.22,6.34C244,152.77,244.55,153,244.69,153.62Z"/><path class="cls-58" d="M215.49,153.87a2.57,2.57,0,0,0,1.54.47,46.87,46.87,0,0,1,4.47,2.27c7.62,3.42,14.61,2.23,21.13-2.72.59,0,.64.66,1.07.83A20.16,20.16,0,0,1,227.89,160c-4.56-.43-8.49-2.56-12.16-5.19a4.1,4.1,0,0,1-.74-.92Z"/><path class="cls-59" d="M234.27,146.28a20,20,0,0,1-7.47,0,42,42,0,0,0,2.59-4c.75-1.39,1.6-1.37,2.41-.05S233.45,145,234.27,146.28Z"/><path class="cls-60" d="M288.89,346a2.14,2.14,0,0,1-2.05,2.25h-.16a2.74,2.74,0,0,1-2.6-2,2.69,2.69,0,0,1,2.33-2.27A2.34,2.34,0,0,1,288.89,346Z"/><path class="cls-61" d="M182.8,347.33c0-1.32.48-1.92,1.56-1.94a2.49,2.49,0,0,1,2.73,2.09,2.09,2.09,0,0,1-1.82,2.13,2.26,2.26,0,0,1-2.46-2A1.93,1.93,0,0,1,182.8,347.33Z"/><path class="cls-62" d="M199.44,350.12a1.92,1.92,0,1,1-.12-3.78,2.13,2.13,0,0,1,2.13,1.81A2,2,0,0,1,199.44,350.12Z"/><path class="cls-63" d="M250.52,343.89c-.21,2.55-.22,2.67-2.78,2.79-2.78.13-5.57.06-8.36.08a17.43,17.43,0,0,0-1.91.08,2,2,0,0,0-2,2,1.93,1.93,0,0,0,0,.24c.14,1.27,1.11,1.44,2.1,1.43,2.79,0,5.58.1,8.37-.16,1.33-.12,2.7-.38,4,.29a29.64,29.64,0,0,1,0,8.62l-.94.49a24,24,0,0,0-4.79,0H216.09c-1,0-1.94-.11-2.1-1.4a4.47,4.47,0,0,1-.75-3.18c-.06-5.81.67-11.61.55-17.43,0-2.57,1.08-3.49,3.57-3.36,9.71.49,19.43.09,29.15.21a4.61,4.61,0,0,0,2.12-.17l1.32.45c.65.82.44,1.78.46,2.71,0,1.49.07,3,.11,4.46A2.59,2.59,0,0,1,250.52,343.89Z"/><path class="cls-51" d="M248.69,334.37a4.44,4.44,0,0,1-2.57.29h-28a15.51,15.51,0,0,0-1.67,0,1.88,1.88,0,0,0-1.9,1.86v1.34L214,358.2c-2.66-.47-3.31-1.16-3.34-3.72a76.86,76.86,0,0,1,.06-8.85c.33-2.94.31-5.87.44-8.8a3.8,3.8,0,0,1,4.12-3.45,3.32,3.32,0,0,1,.44.06,42.43,42.43,0,0,0,9.48.74C233,334.29,240.83,334.34,248.69,334.37Z"/><path class="cls-64" d="M262.38,347.36a2.06,2.06,0,0,1,1.76-2.33,2,2,0,0,1,.55,0,2,2,0,0,1,2.08,1.92v.16a2.39,2.39,0,0,1-2.26,2.51h0C263.19,349.67,262.4,348.83,262.38,347.36Z"/><path class="cls-49" d="M250,359.25v-8.62a1.18,1.18,0,0,1,.5,1v6.61A1.15,1.15,0,0,1,250,359.25Z"/><path class="cls-49" d="M250.52,343.89a4.68,4.68,0,0,1,0-1.9,1.27,1.27,0,0,1,.09,1.81Z"/><path class="cls-65" d="M193.37,101.38a13.09,13.09,0,0,1,2.6-8.6c3.73-5.06,10.1-5,13.67.14a14.4,14.4,0,0,1,0,17.06c-3.58,5.18-9.92,5.18-13.66.12A13.11,13.11,0,0,1,193.37,101.38Z"/><path class="cls-65" d="M266.31,101.35a13.66,13.66,0,0,1-2.53,8.57c-3.77,5.32-10.31,5.27-13.94-.15a14.63,14.63,0,0,1,0-16.68c3.67-5.41,10.19-5.43,14-.09A13.65,13.65,0,0,1,266.31,101.35Z"/><path class="cls-66" d="M242.63,153.89c.28.55,0,.88-.42,1.17-6.27,4.2-12.89,5.56-20,2.44-1.85-.8-3.87-1.39-5.15-3.16a2.67,2.67,0,0,1,1.37-.58,3.58,3.58,0,0,1,1.78,0l1,.14c3.34-.13,6.59.77,9.94.85s6.53-1.46,9.9-1.08a3.08,3.08,0,0,1,1.17.17A.82.82,0,0,0,242.63,153.89Z"/><path class="cls-67" d="M242.23,153.8a11.09,11.09,0,0,0-4,.61c-3.92,1.41-8,1.17-12,.71-1.69-.19-3.51-.14-5-1.26,0-1.39,1.18-1.6,2.14-1.81a13.71,13.71,0,0,1,3.07-.2,17.74,17.74,0,0,0,6.32-.54,6.85,6.85,0,0,1,5.68,1,5.77,5.77,0,0,0,3.23,1.06C241.85,153.43,242,153.67,242.23,153.8Z"/><path class="cls-67" d="M220.18,153.72a2.59,2.59,0,0,1-1.78,0A1.32,1.32,0,0,1,220.18,153.72Z"/><path class="cls-68" d="M232,358.77H217.15c-2.06,0-2.15,0-2.08-2.17.18-5.34.41-10.68.41-16,0-1.93.05-2,2.05-2h21.78a70.36,70.36,0,0,0,8.34-.4c1.72-.2,1.76,0,1.81,1.64v3.83c0,1.59-.34,1.92-2,2-1.19.08-2.39,0-3.59,0-2.07,0-4.15.06-6.22.06a3,3,0,0,0-2.18.78c-1,.9-1.56,2.32-1.16,3.2A2.84,2.84,0,0,0,237,351.4a55.38,55.38,0,0,0,7.4-.17c4.55-.59,4.57-.57,4.56,3.87,0,4,.5,3.48-3.36,3.51H232Z"/><path class="cls-69" d="M232.18,337.62H218c-.56,0-1.12,0-1.67-.05a.76.76,0,0,1-.81-.72c-.05-.52.14-1,.71-1.05a17.33,17.33,0,0,1,1.91-.1c8,0,16.11,0,24.16-.05,1.91,0,3.82-.19,5.72-.26.62,0,1.38-.15,1.41.83s-.68.9-1.32,1C242.37,338,236.63,337.5,232.18,337.62Z"/><path class="cls-70" d="M206.91,101.6a10.71,10.71,0,0,1-1.37,5.94c-1.6,2.72-4,2.81-5.49,0a12.16,12.16,0,0,1,0-12.1c1.48-2.73,3.88-2.6,5.49.12A11.68,11.68,0,0,1,206.91,101.6Z"/><path class="cls-70" d="M252.69,101.4A10.67,10.67,0,0,1,254,95.63c1.6-2.75,4-2.87,5.52-.12a12.16,12.16,0,0,1-.05,12.17c-1.45,2.64-3.8,2.54-5.39-.06A10.89,10.89,0,0,1,252.69,101.4Z"/><path class="cls-71" d="M223.69,351a2.44,2.44,0,0,1-2.45-2.15,1.88,1.88,0,0,1,1.78-2h.16a2.17,2.17,0,0,1,2.38,1.92,1.09,1.09,0,0,1,0,.18,1.86,1.86,0,0,1-1.68,2Z"/><path class="cls-72" d="M203.78,98.16a6.91,6.91,0,0,1,.07,7.37c-.76,1-1.65,1-2.24-.13-1.21-2.36-1.68-4.79,0-7.19C202.35,99,203.07,99.15,203.78,98.16Z"/><path class="cls-73" d="M203.78,98.16c.33.93,0,1.6-1,1.65s-1.22-.75-1.21-1.6h0c.52-.72,1.09-1.23,1.94-.4C203.49,98,203.54,98.17,203.78,98.16Z"/><path class="cls-72" d="M203.49,97.84c-.76-.42-1.35,0-1.94.4a1.28,1.28,0,0,1,.93-1.23C203.13,96.82,203.75,96.84,203.49,97.84Z"/><path class="cls-74" d="M257.86,98.2c1.59,2,1.56,5.69-.05,7.39-.78.81-1.3.82-1.95,0-1.48-1.8-1.48-5.48,0-7.46C256.5,99.11,257.17,99.19,257.86,98.2Z"/><path class="cls-75" d="M257.86,98.2c.37,1-.08,1.61-1,1.61s-1.29-.72-1-1.66c.23,0,.3-.12.3-.32.52-.49,1-.61,1.49.06a.24.24,0,0,0,.14.3Z"/><path class="cls-74" d="M257.69,97.89a1.61,1.61,0,0,0-1.48-.06c-.39-.61.08-.85.5-.91C257.31,96.84,257.57,97.31,257.69,97.89Z"/></g></g></g></svg>