<svg xmlns="http://www.w3.org/2000/svg" viewBox="0 0 342.6 342.6"><defs><style>.cls-1{fill:#dbac56;}.cls-2{fill:#efe19e;}.cls-3{fill:#ccbf89;}.cls-4{fill:#ec6339;}.cls-5{fill:#fffffe;}</style></defs><g id="Calque_2" data-name="Calque 2"><g id="Calque_1-2" data-name="Calque 1"><g id="Calque_2-2" data-name="Calque 2"><circle class="cls-1" cx="171.3" cy="171.3" r="171.3"/><polygon class="cls-2" points="20.3 208 60 122.6 129.9 108 119.6 192.2 20.3 208"/><polygon class="cls-3" points="129.9 108 195.6 127.2 204.5 211.4 119.6 192.2 129.9 108"/><polygon class="cls-2" points="195.6 127.2 278.4 119.7 314 199.8 204.5 211.4 195.6 127.2"/><path class="cls-4" d="M200.4,72a31.1,31.1,0,1,0-49.2,25.3L170.1,158l17.5-60.8A31.29,31.29,0,0,0,200.4,72Z"/><path class="cls-5" d="M113.8,246.3a10.74,10.74,0,0,0-8.6-4.2,11.62,11.62,0,0,0-4.2.8,9.55,9.55,0,0,0-3.3,2.2,11.2,11.2,0,0,0-2.2,3.3,11.42,11.42,0,0,0,0,8.4,11.05,11.05,0,0,0,2.2,3.4,8.34,8.34,0,0,0,3.3,2.2,11.09,11.09,0,0,0,4.1.8,11.54,11.54,0,0,0,8.6-4.1V271l-1,.4c-1.5.5-3,.9-4.3,1.2a17.22,17.22,0,0,1-3.9.4,19.44,19.44,0,0,1-7.6-1.5,19.76,19.76,0,0,1-6.4-4.2,21.57,21.57,0,0,1-4.5-6.5,20,20,0,0,1-1.7-8.2,19.24,19.24,0,0,1,1.7-8.1,20,20,0,0,1,10.8-10.6,19.94,19.94,0,0,1,7.7-1.5,23,23,0,0,1,4.5.5,25.34,25.34,0,0,1,4.7,1.5v11.9Z"/><path class="cls-5" d="M144.5,265.2H130.2l-2.3,6.7H117.2l14.6-38.4h10.9l14.6,38.4H146.6Zm-2.6-7.6-4.5-12.8-4.5,12.8Z"/><path class="cls-5" d="M193.8,271.9H181.4l-9.5-14.8v14.8h-10V233.5h15.5a16,16,0,0,1,5.6.9,9.91,9.91,0,0,1,3.9,2.6,10.48,10.48,0,0,1,2.3,3.8,13.89,13.89,0,0,1,.8,4.6,11.31,11.31,0,0,1-2.1,7.1,11.06,11.06,0,0,1-6.2,3.7Zm-21.9-21.3h1.9a7.11,7.11,0,0,0,4.5-1.2,4.63,4.63,0,0,0,0-7,7.51,7.51,0,0,0-4.5-1.2h-1.9Z"/><path class="cls-5" d="M212.7,241.9v30h-10v-30h-8.2v-8.5h26.4v8.5Z"/><path class="cls-5" d="M247.2,241.9H235.3v6.4h11.2v8.5H235.3v6.6h11.9v8.5H225.3V233.5h21.9Z"/><path class="cls-5" d="M57.6,254.3l5.9,7.9-4.7,3.3L51,254.3l7.8-11.1,4.5,3.1Zm11.4,0,5.8,7.9-4.7,3.3-7.8-11.2,7.8-11.1,4.6,3.1Z"/><path class="cls-5" d="M262.1,251.2l-5.7-8.1,4.5-3.1,7.8,11.1-7.8,11.2-4.7-3.3Zm11.3,0-5.7-8.1,4.6-3.1,7.8,11.1-7.8,11.2-4.7-3.3Z"/></g></g></g></svg>