<svg id="Calque_1" data-name="Calque 1" xmlns="http://www.w3.org/2000/svg" viewBox="0 0 11.77 13.95"><defs><style>.cls-1{fill:#c1272d;}.cls-2{fill:#8cc63f;stroke:#000;stroke-miterlimit:10;}</style></defs><g id="pomme"><path class="cls-1" d="M304.12,215.24a3.46,3.46,0,0,1-1.06-.17,2.91,2.91,0,0,1-.93.14,4.08,4.08,0,0,1-2.84-1.3,6,6,0,0,1-1.72-4.15c0-3.75,2.15-4.31,3.43-4.31a6.21,6.21,0,0,1,1.73.26,9.47,9.47,0,0,1,2.46-.41c2.82,0,3.15,2.64,3.15,4.63a5.91,5.91,0,0,1-1.29,3.92,3.93,3.93,0,0,1-2.93,1.39Z" transform="translate(-297.07 -201.78)"/><path d="M305.19,205.8c1.64,0,2.65.95,2.65,4.13s-1.88,4.81-3.72,4.81a3,3,0,0,1-1.06-.2,2.55,2.55,0,0,1-.93.17c-2.05,0-4.06-2.35-4.06-5S299.27,206,301,206a6.28,6.28,0,0,1,1.73.28,9.88,9.88,0,0,1,2.46-.43m0-1a9.93,9.93,0,0,0-2.46.39A6.91,6.91,0,0,0,301,205c-1.18,0-3.93.46-3.93,4.81a6.49,6.49,0,0,0,1.86,4.5,4.57,4.57,0,0,0,3.2,1.45,3.57,3.57,0,0,0,.92-.12,3.89,3.89,0,0,0,1.07.15c2.35,0,4.72-2,4.72-5.81,0-1.27,0-5.13-3.65-5.13Z" transform="translate(-297.07 -201.78)"/><path class="cls-2" d="M303,205.43c-.29-.19-.37-1,0-1.85a2.4,2.4,0,0,1,2.28-1.28,2.52,2.52,0,0,1-.51,2.46C304,205.41,303.3,205.66,303,205.43Z" transform="translate(-297.07 -201.78)"/></g></svg>