<svg id="Calque_1" data-name="Calque 1" xmlns="http://www.w3.org/2000/svg" xmlns:xlink="http://www.w3.org/1999/xlink" viewBox="0 0 170.51 148.29"><defs><style>.cls-1,.cls-3,.cls-5{fill:none;}.cls-2{clip-path:url(#clip-path);}.cls-3,.cls-5{stroke:#000;stroke-miterlimit:10;}.cls-3{stroke-linecap:round;}.cls-4{fill:#ff9e7e;}</style><clipPath id="clip-path" transform="translate(-458.99 -370.9)"><rect class="cls-1" width="1000" height="1000"/></clipPath></defs><title>cochon_03</title><g class="cls-2"><path class="cls-3" d="M616,486c-.22.85-3.83,15.18,3,20,2.54,1.8,6.91,2.54,8,1,1.32-1.86-2-7.28-4-7-1.18.17-2,2.35-2,4,0,3.23,3.2,6.37,8,8" transform="translate(-458.99 -370.9)"/><path class="cls-4" d="M617.5,485.5c-.34,2.95-2.44,18.1-14,26-20.57,14.06-53.65-6.75-62-12-8.07-5.08-35.77-22.5-43-51-2-8-2.18-15.92-9-24s-12.27-6.83-21-17c-3.66-4.26-8-13-9-22,0-.27,0-.55,0-.82.59-7.65,9.21-14.15,16-13.18h0c5,4,8,6,13,8,2.86.26,3.52-1.13,7-2,8.67-2.16,18.77,2.91,24,9,4.63,5.38,4.72,10.71,6,15,21,9,53.1,16.19,79,47,2.88,3.42,15.2,18.08,13,37" transform="translate(-458.99 -370.9)"/><path class="cls-5" d="M617.5,485.5c-.34,2.95-2.44,18.1-14,26-20.57,14.06-53.65-6.75-62-12-8.07-5.08-35.77-22.5-43-51-2-8-2.18-15.92-9-24s-12.27-6.83-21-17c-3.66-4.26-8-13-9-22,0-.27,0-.55,0-.82.59-7.65,9.21-14.15,16-13.18h0c5,4,8,6,13,8,2.86.26,3.52-1.13,7-2,8.67-2.16,18.77,2.91,24,9,4.63,5.38,4.72,10.71,6,15,21,9,53.1,16.19,79,47C607.38,451.92,619.7,466.58,617.5,485.5Z" transform="translate(-458.99 -370.9)"/><path class="cls-4" d="M539.5,453.5a138.83,138.83,0,0,0-8,16c-8.39,19.87-11.19,28.39-15.55,39.14-.76,1.86-1.56,3.79-2.45,5.86-5.14,2.55-12.84,1.94-17-2,0-1.78,0-3.72.12-5.86.33-9.87,1.32-23.82,1.88-44.14.37-13.54-1-23-4.1-30" transform="translate(-458.99 -370.9)"/><path class="cls-3" d="M539.5,453.5a138.83,138.83,0,0,0-8,16c-8.39,19.87-11.19,28.39-15.55,39.14-.76,1.86-1.56,3.79-2.45,5.86-5.14,2.55-12.84,1.94-17-2,0-1.78,0-3.72.12-5.86.33-9.87,1.32-23.82,1.88-44.14.37-13.54-1-23-4.1-30" transform="translate(-458.99 -370.9)"/><path class="cls-4" d="M603.5,511.5c-15,9-29.37,7-38,7-8,0-14-1.27-20.74-2.8-1.7-.39-3.44-.8-5.26-1.2a10.15,10.15,0,0,1,1-14c2-.29,3.89-.58,5.6-.86,10.14-1.7,15.27-3.28,20.4-4.14-4-4-5-10-4-15,1.13-5.64,6.42-9,11-12" transform="translate(-458.99 -370.9)"/><path class="cls-3" d="M603.5,511.5c-15,9-29.37,7-38,7-8,0-14-1.27-20.74-2.8-1.7-.39-3.44-.8-5.26-1.2a10.15,10.15,0,0,1,1-14c2-.29,3.89-.58,5.6-.86,10.14-1.7,15.27-3.28,20.4-4.14-4-4-5-10-4-15,1.13-5.64,6.42-9,11-12" transform="translate(-458.99 -370.9)"/><path d="M543.5,508.5a18.52,18.52,0,0,0,1.26,7.2c-1.7-.39-3.44-.8-5.26-1.2a10.15,10.15,0,0,1,1-14c2-.29,3.89-.58,5.6-.86a19.15,19.15,0,0,0-2.6,8.86" transform="translate(-458.99 -370.9)"/><path class="cls-5" d="M543.5,508.5a18.52,18.52,0,0,0,1.26,7.2c-1.7-.39-3.44-.8-5.26-1.2a10.15,10.15,0,0,1,1-14c2-.29,3.89-.58,5.6-.86A19.15,19.15,0,0,0,543.5,508.5Z" transform="translate(-458.99 -370.9)"/><path d="M516,508.64c-.76,1.86-1.56,3.79-2.45,5.86-5.14,2.55-12.84,1.94-17-2,0-1.78,0-3.72.12-5.86a17.42,17.42,0,0,0,5.88,2.83c5.91,1.6,10.47-.33,13.45-.83" transform="translate(-458.99 -370.9)"/><path class="cls-5" d="M516,508.64c-.76,1.86-1.56,3.79-2.45,5.86-5.14,2.55-12.84,1.94-17-2,0-1.78,0-3.72.12-5.86a17.42,17.42,0,0,0,5.88,2.83C508.41,511.07,513,509.14,516,508.64Z" transform="translate(-458.99 -370.9)"/><path class="cls-4" d="M475.52,371.51c-.66,2.85-2.88,6.17-6.25,8.91s-6.85,4.13-9.74,4.26c.59-7.65,9.21-14.15,16-13.18h0" transform="translate(-458.99 -370.9)"/><path class="cls-3" d="M475.52,371.51c-.66,2.85-2.88,6.17-6.25,8.91s-6.85,4.13-9.74,4.26c.59-7.65,9.21-14.15,16-13.18Z" transform="translate(-458.99 -370.9)"/><path class="cls-4" d="M503.5,387.5c-1.4,4.9-2,16,0,21,9,0,12.35.24,15-4,5-8-13-24-15-17" transform="translate(-458.99 -370.9)"/><path class="cls-3" d="M503.5,387.5c-1.4,4.9-2,16,0,21,9,0,12.35.24,15-4C523.5,396.5,505.5,380.5,503.5,387.5Z" transform="translate(-458.99 -370.9)"/><path d="M493.36,390c-1.67,1.41-3.41,2.11-3.88,1.56s.49-2.16,2.16-3.58,3.41-2.11,3.88-1.56-.5,2.16-2.16,3.58" transform="translate(-458.99 -370.9)"/><path d="M470,376.24a1.3,1.3,0,0,1-1.33,1.09,1.1,1.1,0,0,1-.67-1.46,1.31,1.31,0,0,1,1.34-1.1,1.1,1.1,0,0,1,.66,1.47" transform="translate(-458.99 -370.9)"/><path d="M465.19,379a7.27,7.27,0,0,0,1.33-.49,5.81,5.81,0,0,0,1.18-.72,3.23,3.23,0,0,0,1.33-2l1,.12a2.74,2.74,0,0,1-.7,1.53,4,4,0,0,1-1.27.92,6.06,6.06,0,0,1-2.87.63" transform="translate(-458.99 -370.9)"/></g></svg>