<svg id="Calque_1" data-name="Calque 1" xmlns="http://www.w3.org/2000/svg" xmlns:xlink="http://www.w3.org/1999/xlink" viewBox="0 0 190.62 105.12"><defs><style>.cls-1,.cls-3,.cls-5{fill:none;}.cls-2{clip-path:url(#clip-path);}.cls-3,.cls-5{stroke:#000;stroke-miterlimit:10;}.cls-3{stroke-linecap:round;}.cls-4{fill:#ff9e7e;}</style><clipPath id="clip-path" transform="translate(-472.38 -664.6)"><rect class="cls-1" width="1000" height="1000"/></clipPath></defs><title>cochon</title><g class="cls-2"><path class="cls-3" d="M644.5,689.5a18,18,0,0,1,9,5c2.72,2.87,5,8,4,11s-3.43,2.35-5,0c-2-3,.07-8.69,4-11a9.16,9.16,0,0,1,6-1" transform="translate(-472.38 -664.6)"/><path class="cls-4" d="M645.5,726.5c-3.62,10.86-1.32,5.68-3,15-1.66,7.2-2.71,15.33-3.66,18.27a52.42,52.42,0,0,1-13.76,1c.76-5.4,1.83-16.32.42-21.25-3-2-7-3-9-5-16,5-50,12-75,0a.78.78,0,0,0-.22,0c-11.77-1.4-19.91-4-26.35-9.55a33.54,33.54,0,0,1-3.43-3.42c-3.28-3.75-5.21-.63-12-1-6.24-.34-19.87-2-23.92-7.89,1.4-1,2.42-4.05,2.42-7.61,0-4.16-1.39-7.57-3.16-8,1.86-2.21,8.08-1.06,8.66-4.54,1-6,.85-10.7,4-17,4-8,15.24-9.73,17-10,7.24-1.11,15.69.26,25,2,16,3,51.52,7.5,68,6,11-1,16.15-2.54,23-1,11.18,2.5,27.33,10.66,29,24,1,8-2,24-4,30" transform="translate(-472.38 -664.6)"/><path class="cls-5" d="M645.5,726.5c-3.62,10.86-1.32,5.68-3,15-1.66,7.2-2.71,15.33-3.66,18.27a52.42,52.42,0,0,1-13.76,1c.76-5.4,1.83-16.32.42-21.25-3-2-7-3-9-5-16,5-50,12-75,0a.78.78,0,0,0-.22,0c-11.77-1.4-19.91-4-26.35-9.55a33.54,33.54,0,0,1-3.43-3.42c-3.28-3.75-5.21-.63-12-1-6.24-.34-19.87-2-23.92-7.89,1.4-1,2.42-4.05,2.42-7.61,0-4.16-1.39-7.57-3.16-8,1.86-2.21,8.08-1.06,8.66-4.54,1-6,.85-10.7,4-17,4-8,15.24-9.73,17-10,7.24-1.11,15.69.26,25,2,16,3,51.52,7.5,68,6,11-1,16.15-2.54,23-1,11.18,2.5,27.33,10.66,29,24C650.5,704.5,647.5,720.5,645.5,726.5Z" transform="translate(-472.38 -664.6)"/><path class="cls-5" d="M606.5,707.5a30.48,30.48,0,0,0,3,17c2.18,4.32,5,8.25,7,10" transform="translate(-472.38 -664.6)"/><path class="cls-4" d="M545.5,717.5a54.35,54.35,0,0,1-2,11,40.83,40.83,0,0,1-2.22,6c-.57,1.25-1.15,2.45-1.78,4-3.34,8.29-2,19.5-3,23.53a43.88,43.88,0,0,1-13.35.42c.88-4.64.31-17.05.31-24,0-5.32-6.15-11.21-8.57-13.58l-.43-.42" transform="translate(-472.38 -664.6)"/><path class="cls-5" d="M545.5,717.5a54.35,54.35,0,0,1-2,11,40.83,40.83,0,0,1-2.22,6c-.57,1.25-1.15,2.45-1.78,4-3.34,8.29-2,19.5-3,23.53a43.88,43.88,0,0,1-13.35.42c.88-4.64.31-17.05.31-24,0-5.32-6.15-11.21-8.57-13.58l-.43-.42" transform="translate(-472.38 -664.6)"/><path class="cls-4" d="M502.5,671.5c-3,7,2,22,9,28a38.8,38.8,0,0,0,11-20c-3-9-17.92-12.86-20-8" transform="translate(-472.38 -664.6)"/><path class="cls-5" d="M502.5,671.5c-3,7,2,22,9,28a38.8,38.8,0,0,0,11-20C519.5,670.5,504.58,666.64,502.5,671.5Z" transform="translate(-472.38 -664.6)"/><path d="M494.38,688.93c0,2.19-.6,4-1.33,4s-1.32-1.77-1.32-4,.59-4,1.32-4,1.33,1.78,1.33,4" transform="translate(-472.38 -664.6)"/><path class="cls-4" d="M478,705c0,3.56-1,6.57-2.42,7.61a.76.76,0,0,1-.08-.11c-2.87-4.3-3.64-10.8-1-15a4.22,4.22,0,0,1,.34-.46c1.77.39,3.16,3.8,3.16,8" transform="translate(-472.38 -664.6)"/><path class="cls-5" d="M478,705c0,3.56-1,6.57-2.42,7.61a.76.76,0,0,1-.08-.11c-2.87-4.3-3.64-10.8-1-15a4.22,4.22,0,0,1,.34-.46C476.61,697.43,478,700.84,478,705Z" transform="translate(-472.38 -664.6)"/><path d="M476.38,703.63a1.31,1.31,0,0,1-.21,1.71,1.1,1.1,0,0,1-1.5-.6,1.31,1.31,0,0,1,.21-1.71,1.11,1.11,0,0,1,1.5.6" transform="translate(-472.38 -664.6)"/><path d="M474.76,709a6.34,6.34,0,0,0,.63-1.28,6.24,6.24,0,0,0,.36-1.33,3.23,3.23,0,0,0-.41-2.36l.8-.6a2.69,2.69,0,0,1,.55,1.59,4,4,0,0,1-.28,1.55,6,6,0,0,1-1.65,2.43" transform="translate(-472.38 -664.6)"/><path d="M536.54,762a18.26,18.26,0,0,1-2,5.47c-4,2-8.85,2.56-12,0a30.18,30.18,0,0,1,.69-5,43.88,43.88,0,0,0,13.35-.42" transform="translate(-472.38 -664.6)"/><path class="cls-5" d="M536.54,762a18.26,18.26,0,0,1-2,5.47c-4,2-8.85,2.56-12,0a30.18,30.18,0,0,1,.69-5A43.88,43.88,0,0,0,536.54,762Z" transform="translate(-472.38 -664.6)"/><path d="M638.84,759.77a36.54,36.54,0,0,1-2.34,5.73c-3.54,2.71-7,3-12,1a46.08,46.08,0,0,1,.58-5.75,52.42,52.42,0,0,0,13.76-1" transform="translate(-472.38 -664.6)"/><path class="cls-5" d="M638.84,759.77a36.54,36.54,0,0,1-2.34,5.73c-3.54,2.71-7,3-12,1a46.08,46.08,0,0,1,.58-5.75A52.42,52.42,0,0,0,638.84,759.77Z" transform="translate(-472.38 -664.6)"/></g></svg>