<svg id="Calque_1" data-name="Calque 1" xmlns="http://www.w3.org/2000/svg" xmlns:xlink="http://www.w3.org/1999/xlink" viewBox="0 0 85.89 22"><defs><style>.cls-1,.cls-3{fill:none;}.cls-2{clip-path:url(#clip-path);}.cls-3{stroke:#000;stroke-miterlimit:10;}.cls-4{fill:#655f41;}.cls-5{fill:#e08951;}</style><clipPath id="clip-path" transform="translate(-561.86 -146)"><rect class="cls-1" width="1000" height="1000"/></clipPath></defs><title>limace</title><g class="cls-2"><path class="cls-3" d="M641.89,160.64a14.57,14.57,0,0,0,3.61-10.14" transform="translate(-561.86 -146)"/><path class="cls-4" d="M643.94,164.7a7.23,7.23,0,0,1-.44,1.8c-30,1-68,1-81,1a3.8,3.8,0,0,1,1.6-1.89c11-8,73.19-18.26,79.4-4.11a6.13,6.13,0,0,1,.44,3.2" transform="translate(-561.86 -146)"/><path class="cls-3" d="M643.94,164.7a7.23,7.23,0,0,1-.44,1.8c-30,1-68,1-81,1a3.8,3.8,0,0,1,1.6-1.89c11-8,73.19-18.26,79.4-4.11A6.13,6.13,0,0,1,643.94,164.7Z" transform="translate(-561.86 -146)"/><path class="cls-5" d="M643.94,164.7a7.23,7.23,0,0,1-.44,1.8c-30,1-68,1-81,1a3.8,3.8,0,0,1,1.6-1.89,24,24,0,0,0,6.4-.11c2.48-.38,2.62-.8,5-1,3.68-.31,5.64.49,9,1,2.2.33,1.91-.93,11-1s8.22,1.2,12,1c7-.36,7.17-1.14,12-1,6.06.17,5.87,1.4,10,1,5.46-.52,6.92-2.76,11-2a12.71,12.71,0,0,1,3.44,1.2" transform="translate(-561.86 -146)"/><path class="cls-3" d="M643.94,164.7a7.23,7.23,0,0,1-.44,1.8c-30,1-68,1-81,1a3.8,3.8,0,0,1,1.6-1.89,24,24,0,0,0,6.4-.11c2.48-.38,2.62-.8,5-1,3.68-.31,5.64.49,9,1,2.2.33,1.91-.93,11-1s8.22,1.2,12,1c7-.36,7.17-1.14,12-1,6.06.17,5.87,1.4,10,1,5.46-.52,6.92-2.76,11-2A12.71,12.71,0,0,1,643.94,164.7Z" transform="translate(-561.86 -146)"/><path class="cls-3" d="M635.5,159.5c2-3,3-5,3-9" transform="translate(-561.86 -146)"/><path d="M647.75,148.25A2.25,2.25,0,1,1,645.5,146a2.25,2.25,0,0,1,2.25,2.25" transform="translate(-561.86 -146)"/><path d="M640.68,148.28a2.25,2.25,0,1,1-2.25-2.25,2.25,2.25,0,0,1,2.25,2.25" transform="translate(-561.86 -146)"/></g></svg>