<svg id="Calque_1" data-name="Calque 1" xmlns="http://www.w3.org/2000/svg" xmlns:xlink="http://www.w3.org/1999/xlink" viewBox="0 0 82.37 33.11"><defs><style>.cls-1,.cls-4,.cls-5{fill:none;}.cls-2{clip-path:url(#clip-path);}.cls-3{fill:#ff9e7e;}.cls-4,.cls-5{stroke:#000;stroke-miterlimit:10;}.cls-5{stroke-linecap:round;}</style><clipPath id="clip-path" transform="translate(-301 -493)"><rect class="cls-1" width="1000" height="1000"/></clipPath></defs><title>porcelais</title><g class="cls-2"><path class="cls-3" d="M380.5,515.5c1.54,5.14,1,8,0,10-3-1-4-1-5-2a6,6,0,0,1-2-4" transform="translate(-301 -493)"/><path class="cls-4" d="M380.5,515.5c1.54,5.14,1,8,0,10-3-1-4-1-5-2a6,6,0,0,1-2-4" transform="translate(-301 -493)"/><path class="cls-5" d="M308.5,506.5a4.08,4.08,0,0,1-3,3c-1.84.36-4-.84-4-2s2.06-2.48,3-2c.67.34,1.16,1.77,0,7" transform="translate(-301 -493)"/><path class="cls-3" d="M323.5,493.5c-4.85,0-9.81,1.07-13,5-3.79,4.67-3.67,12.33-1,16,8,11,66,8,71,4,3.37-2.7,2.95-10.28,0-14-1.38-1.74-4-4-14-4-8-4-10-3-13-2-8-3-19-2-24,0,0-3-3-5-6-5" transform="translate(-301 -493)"/><path class="cls-4" d="M323.5,493.5c-4.85,0-9.81,1.07-13,5-3.79,4.67-3.67,12.33-1,16,8,11,66,8,71,4,3.37-2.7,2.95-10.28,0-14-1.38-1.74-4-4-14-4-8-4-10-3-13-2-8-3-19-2-24,0C329.5,495.5,326.5,493.5,323.5,493.5Z" transform="translate(-301 -493)"/><path class="cls-3" d="M369.5,502.5c0,7,4,9,5,10,2-1,3-3,3-8" transform="translate(-301 -493)"/><path class="cls-4" d="M369.5,502.5c0,7,4,9,5,10,2-1,3-3,3-8" transform="translate(-301 -493)"/></g></svg>