<svg id="Calque_1" data-name="Calque 1" xmlns="http://www.w3.org/2000/svg" xmlns:xlink="http://www.w3.org/1999/xlink" viewBox="0 0 74.28 45.6"><defs><style>.cls-1,.cls-3,.cls-5{fill:none;}.cls-2{clip-path:url(#clip-path);}.cls-3,.cls-5{stroke:#000;stroke-miterlimit:10;}.cls-3{stroke-linecap:round;}.cls-4{fill:#ff9e7e;}</style><clipPath id="clip-path" transform="translate(-195.27 -474.34)"><rect class="cls-1" width="1000" height="1000"/></clipPath></defs><title>porcelais_02</title><g class="cls-2"><path class="cls-3" d="M206,486c-5.49,2.07-9.2,3-9.82,1.9-1.82-3.11,3.2-5.38,3.52-5,1.37,1.78-.38,5.37-3.93,8.1" transform="translate(-195.27 -474.34)"/><path class="cls-4" d="M267.44,493.06a3.92,3.92,0,0,1-1.94.44c-5,0-4.36.16-7,2-2.27,1.58-2.56,2.26-5,6-2.11,3.24-7.72,3.68-12,4-20.58,1.55-27,1-33-2-5.81-2.91-5.32-13-5-14s1.63-8.09,8-10c10-3,16.85,1.5,32-2,8-3,12.95-3.65,16-1,2.05,1.78,3,4,4,7,2.82,1.88,3,1.11,4.67,2.68l.33.32c.8,2.4,1,5.44-1.06,6.56" transform="translate(-195.27 -474.34)"/><path class="cls-5" d="M267.44,493.06a3.92,3.92,0,0,1-1.94.44c-5,0-4.36.16-7,2-2.27,1.58-2.56,2.26-5,6-2.11,3.24-7.72,3.68-12,4-20.58,1.55-27,1-33-2-5.81-2.91-5.32-13-5-14s1.63-8.09,8-10c10-3,16.85,1.5,32-2,8-3,12.95-3.65,16-1,2.05,1.78,3,4,4,7,2.82,1.88,3,1.11,4.67,2.68l.33.32C269.3,488.9,269.46,491.94,267.44,493.06Z" transform="translate(-195.27 -474.34)"/><path class="cls-4" d="M223.5,498.5a7.52,7.52,0,0,1-5,7c-1.56,5.88-1.9,6.85-1.52,9.31.12.72.29,1.56.52,2.69-1.76,2.16-5.89,2.54-8,1-.29-1.16-.54-2-.76-2.62a21,21,0,0,1-1.24-6.38c-.33-3.89-4.18-10-4.18-18" transform="translate(-195.27 -474.34)"/><path class="cls-5" d="M223.5,498.5a7.52,7.52,0,0,1-5,7c-1.56,5.88-1.9,6.85-1.52,9.31.12.72.29,1.56.52,2.69-1.76,2.16-5.89,2.54-8,1-.29-1.16-.54-2-.76-2.62a21,21,0,0,1-1.24-6.38c-.33-3.89-4.18-10-4.18-18" transform="translate(-195.27 -474.34)"/><path class="cls-4" d="M255.5,498.5a19.43,19.43,0,0,0-4,9,21.28,21.28,0,0,0-.2,6.28,22.53,22.53,0,0,1,.2,2.72,5.17,5.17,0,0,1-6,1,27.89,27.89,0,0,1-1.48-3.08,35.06,35.06,0,0,1-1.52-5.92c-.84-4.42-.11-8.87-1-11" transform="translate(-195.27 -474.34)"/><path class="cls-5" d="M255.5,498.5a19.43,19.43,0,0,0-4,9,21.28,21.28,0,0,0-.2,6.28,22.53,22.53,0,0,1,.2,2.72,5.17,5.17,0,0,1-6,1,27.89,27.89,0,0,1-1.48-3.08,35.06,35.06,0,0,1-1.52-5.92c-.84-4.42-.11-8.87-1-11" transform="translate(-195.27 -474.34)"/><path class="cls-3" d="M267.44,493.06a5.17,5.17,0,0,1-.94-3.06,4.84,4.84,0,0,1,1.67-3.82l.33.32C269.3,488.9,269.46,491.94,267.44,493.06Z" transform="translate(-195.27 -474.34)"/><path d="M267.46,488.73a.57.57,0,0,0,.09.72.4.4,0,0,0,.62,0,.57.57,0,0,0-.09-.72.4.4,0,0,0-.62,0" transform="translate(-195.27 -474.34)"/><path d="M268.14,491.1a3.14,3.14,0,0,1-.69-1.05,1.68,1.68,0,0,1-.16-.65.92.92,0,0,1,.26-.73l.34.36c-.17.15-.18.55-.11.93a4.43,4.43,0,0,0,.36,1.14" transform="translate(-195.27 -474.34)"/><path d="M261,484c0,1.1-.45,2-1,2s-1-.9-1-2,.45-2,1-2,1,.9,1,2" transform="translate(-195.27 -474.34)"/><path class="cls-5" d="M249,478c.74-1.65,7-1,8.5-.5,2.5,3.5-3.24,7.47-5,8C249.5,484.5,248.5,480.5,249,478Z" transform="translate(-195.27 -474.34)"/><path d="M251.5,516.5a5.17,5.17,0,0,1-6,1,27.89,27.89,0,0,1-1.48-3.08c2.59-.12,5.09-.35,7.28-.64a22.53,22.53,0,0,1,.2,2.72" transform="translate(-195.27 -474.34)"/><path class="cls-5" d="M251.5,516.5a5.17,5.17,0,0,1-6,1,27.89,27.89,0,0,1-1.48-3.08c2.59-.12,5.09-.35,7.28-.64A22.53,22.53,0,0,1,251.5,516.5Z" transform="translate(-195.27 -474.34)"/><path d="M217.5,517.5c-1.76,2.16-5.89,2.54-8,1-.29-1.16-.54-2-.76-2.62a29.3,29.3,0,0,0,8.24-1.07c.12.72.29,1.56.52,2.69" transform="translate(-195.27 -474.34)"/><path class="cls-5" d="M217.5,517.5c-1.76,2.16-5.89,2.54-8,1-.29-1.16-.54-2-.76-2.62a29.3,29.3,0,0,0,8.24-1.07C217.1,515.53,217.27,516.37,217.5,517.5Z" transform="translate(-195.27 -474.34)"/></g></svg>