<svg id="Calque_1" data-name="Calque 1" xmlns="http://www.w3.org/2000/svg" xmlns:xlink="http://www.w3.org/1999/xlink" viewBox="0 0 61.03 36.08"><defs><style>.cls-1,.cls-4,.cls-5{fill:none;}.cls-2{clip-path:url(#clip-path);}.cls-3{fill:#ff9e7e;}.cls-4,.cls-5{stroke:#000;stroke-miterlimit:10;}.cls-5{stroke-linecap:round;}</style><clipPath id="clip-path" transform="translate(-231 -423.36)"><rect class="cls-1" width="1000" height="1000"/></clipPath></defs><title>porcelais_04</title><g class="cls-2"><path class="cls-3" d="M264.5,436.5a5.39,5.39,0,0,1-1.65.28c-2.12,0-3.7-1-5.35.72-1.45,1.55-.82,4-1,4s-2.07-6.55,1-9a3.8,3.8,0,0,1,3.46-.71,19.63,19.63,0,0,1,2.54.71c1,1,2,3,1,4" transform="translate(-231 -423.36)"/><path class="cls-4" d="M264.5,436.5a5.39,5.39,0,0,1-1.65.28c-2.12,0-3.7-1-5.35.72-1.45,1.55-.82,4-1,4s-2.07-6.55,1-9a3.8,3.8,0,0,1,3.46-.71,19.63,19.63,0,0,1,2.54.71C264.5,433.5,265.5,435.5,264.5,436.5Z" transform="translate(-231 -423.36)"/><path class="cls-5" d="M280.5,455.5c.4-.4,4.32-4.23,8-3,1.51.51,3.27,2,3,3-.32,1.23-3.43,1.82-4,1-.36-.52.07-1.93,4-6" transform="translate(-231 -423.36)"/><path class="cls-3" d="M280.5,457.5c-7,3-41,1-45-3-1.68-1.68-3-3-2-9-1.42-4.21-2-4-2-5.8a1.27,1.27,0,0,1,0-.2c.71-3.29,5.28-5.94,8-5l.05.05c1,1,1.42,1.6,3.95,3.95a30.47,30.47,0,0,0,4,3c6-3,23.62-5.37,33-1,6.61,3.08,6.73,14.12,0,17" transform="translate(-231 -423.36)"/><path class="cls-4" d="M280.5,457.5c-7,3-41,1-45-3-1.68-1.68-3-3-2-9-1.42-4.21-2-4-2-5.8a1.27,1.27,0,0,1,0-.2c.71-3.29,5.28-5.94,8-5l.05.05c1,1,1.42,1.6,3.95,3.95a30.47,30.47,0,0,0,4,3c6-3,23.62-5.37,33-1C287.11,443.58,287.23,454.62,280.5,457.5Z" transform="translate(-231 -423.36)"/><path class="cls-3" d="M270.5,447.5c-2-3-2-8,3-11a14.36,14.36,0,0,0-3-6.44c2-.56,6.91-1.68,7.8-1.41a32.49,32.49,0,0,1,7.18,20.85" transform="translate(-231 -423.36)"/><path class="cls-4" d="M270.5,447.5c-2-3-2-8,3-11a14.36,14.36,0,0,0-3-6.44c2-.56,6.91-1.68,7.8-1.41a32.49,32.49,0,0,1,7.18,20.85" transform="translate(-231 -423.36)"/><path class="cls-3" d="M247.5,441.5a7,7,0,0,0,4-5,49.87,49.87,0,0,0,1.9-9.56c1.1-.44,5.07.21,5.65.64a34.78,34.78,0,0,1-1.55,17.92" transform="translate(-231 -423.36)"/><path class="cls-4" d="M247.5,441.5a7,7,0,0,0,4-5,49.87,49.87,0,0,0,1.9-9.56c1.1-.44,5.07.21,5.65.64a34.78,34.78,0,0,1-1.55,17.92" transform="translate(-231 -423.36)"/><path class="cls-3" d="M239.55,434.55a8.66,8.66,0,0,1-3.13,3.51,7.66,7.66,0,0,1-4.91,1.64,1.27,1.27,0,0,1,0-.2c.71-3.29,5.28-5.94,8-5l.05.05" transform="translate(-231 -423.36)"/><path class="cls-4" d="M239.55,434.55a8.66,8.66,0,0,1-3.13,3.51,7.66,7.66,0,0,1-4.91,1.64,1.27,1.27,0,0,1,0-.2c.71-3.29,5.28-5.94,8-5Z" transform="translate(-231 -423.36)"/><path class="cls-3" d="M237.5,450.5c-1.63,4.09-1,6,0,8,3,1,6-2,6-4" transform="translate(-231 -423.36)"/><path class="cls-4" d="M237.5,450.5c-1.63,4.09-1,6,0,8,3,1,6-2,6-4" transform="translate(-231 -423.36)"/><path class="cls-5" d="M237.28,444.51a1.87,1.87,0,0,0,2,2.23" transform="translate(-231 -423.36)"/><path d="M235,437.35a.55.55,0,0,0,.63-.35.41.41,0,0,0-.26-.57.56.56,0,0,0-.63.36.39.39,0,0,0,.26.56" transform="translate(-231 -423.36)"/><path d="M236.92,435.83a3.63,3.63,0,0,1-.71,1,1.88,1.88,0,0,1-.55.39.88.88,0,0,1-.78,0l.21-.45c.2.1.58,0,.91-.24a4.43,4.43,0,0,0,.92-.77" transform="translate(-231 -423.36)"/><path d="M278.32,428.65a26.65,26.65,0,0,0-7.8,1.41,10,10,0,0,1-1-1.56c.69-1.7,3.83-2.45,6-2a10.31,10.31,0,0,1,2.82,2.15" transform="translate(-231 -423.36)"/><path class="cls-4" d="M278.32,428.65a26.65,26.65,0,0,0-7.8,1.41,10,10,0,0,1-1-1.56c.69-1.7,3.83-2.45,6-2A10.31,10.31,0,0,1,278.32,428.65Z" transform="translate(-231 -423.36)"/><path d="M259.05,427.58a48.66,48.66,0,0,0-5.65-.64c.07-.86.1-1.66.1-2.44,1.28-1.51,4,0,5,1a10.13,10.13,0,0,1,.55,2.08" transform="translate(-231 -423.36)"/><path class="cls-4" d="M259.05,427.58a48.66,48.66,0,0,0-5.65-.64c.07-.86.1-1.66.1-2.44,1.28-1.51,4,0,5,1A10.13,10.13,0,0,1,259.05,427.58Z" transform="translate(-231 -423.36)"/><path d="M264.5,436.5a5.39,5.39,0,0,1-1.65.28,26.26,26.26,0,0,0-1.89-5,19.63,19.63,0,0,1,2.54.71c1,1,2,3,1,4" transform="translate(-231 -423.36)"/><path class="cls-4" d="M264.5,436.5a5.39,5.39,0,0,1-1.65.28,26.26,26.26,0,0,0-1.89-5,19.63,19.63,0,0,1,2.54.71C264.5,433.5,265.5,435.5,264.5,436.5Z" transform="translate(-231 -423.36)"/></g></svg>