<svg id="Calque_1" data-name="Calque 1" xmlns="http://www.w3.org/2000/svg" xmlns:xlink="http://www.w3.org/1999/xlink" viewBox="0 0 78.26 21.57"><defs><style>.cls-1,.cls-3,.cls-5{fill:none;}.cls-2{clip-path:url(#clip-path);}.cls-3,.cls-5{stroke:#000;stroke-miterlimit:10;}.cls-3{stroke-linecap:round;}.cls-4{fill:#ff9e7e;}</style><clipPath id="clip-path" transform="translate(-301.4 -538)"><rect class="cls-1" width="1000" height="1000"/></clipPath></defs><title>porcelais_03</title><g class="cls-2"><path class="cls-3" d="M369.17,547c5.06-.62,7.41-2.57,7.28-3.45s-2.2-3.49-3.47-1,3.15,3.18,6,2.24" transform="translate(-301.4 -538)"/><path class="cls-4" d="M372.5,547.5c0,1.4-2,7-12,8-25.71,2.57-48.42,2-56.69.08l-.31-.08c-2-1-1.87-3.41-1-6l.36-.24c2.66-1.74,2.91-1.57,3.64-3.76,2-6,10.81-6,12-6a17.94,17.94,0,0,1,8,2c11-2,17.72-4.4,32-2,6.35,1.07,13.94,4.44,14,8" transform="translate(-301.4 -538)"/><path class="cls-5" d="M372.5,547.5c0,1.4-2,7-12,8-25.71,2.57-48.42,2-56.69.08l-.31-.08c-2-1-1.87-3.41-1-6l.36-.24c2.66-1.74,2.91-1.57,3.64-3.76,2-6,10.81-6,12-6a17.94,17.94,0,0,1,8,2c11-2,17.72-4.4,32-2C364.85,540.57,372.44,543.94,372.5,547.5Z" transform="translate(-301.4 -538)"/><path class="cls-4" d="M325.5,549.5a5.19,5.19,0,0,1,0,3c-1.74.87-8,.23-12.9.7-1.1,1.3-1.1,2.3-.18,5.6,5.08.7,13.87-.19,19.08-.3a1.75,1.75,0,0,0,.82-.2c1.47-.78,1.41-3.7,1.18-5.8" transform="translate(-301.4 -538)"/><path class="cls-5" d="M325.5,549.5a5.19,5.19,0,0,1,0,3c-1.74.87-8,.23-12.9.7-1.1,1.3-1.1,2.3-.18,5.6,5.08.7,13.87-.19,19.08-.3a1.75,1.75,0,0,0,.82-.2c1.47-.78,1.41-3.7,1.18-5.8" transform="translate(-301.4 -538)"/><path class="cls-4" d="M372.28,546.5c.22,3-1.18,4.46-.78,5a8.05,8.05,0,0,0,3.63,1c1.07,2.92.54,4.34.1,5-3.73,0-5.73,1-17.73,0a5.06,5.06,0,0,1-3.56-1.26c-1.88-2-.77-5.73-.44-6.74" transform="translate(-301.4 -538)"/><path class="cls-5" d="M372.28,546.5c.22,3-1.18,4.46-.78,5a8.05,8.05,0,0,0,3.63,1c1.07,2.92.54,4.34.1,5-3.73,0-5.73,1-17.73,0a5.06,5.06,0,0,1-3.56-1.26c-1.88-2-.77-5.73-.44-6.74" transform="translate(-301.4 -538)"/><path class="cls-4" d="M316.5,542.5a5.13,5.13,0,0,0,.49,2.39,9.61,9.61,0,0,0,3.51,3.61,10.19,10.19,0,0,0,2.56-3.2,8.55,8.55,0,0,0,.44-2.8c-1-2-6.17-1.81-7,0" transform="translate(-301.4 -538)"/><path class="cls-5" d="M316.5,542.5a5.13,5.13,0,0,0,.49,2.39,9.61,9.61,0,0,0,3.51,3.61,10.19,10.19,0,0,0,2.56-3.2,8.55,8.55,0,0,0,.44-2.8C322.52,540.53,317.33,540.69,316.5,542.5Z" transform="translate(-301.4 -538)"/><path class="cls-3" d="M311.5,547.5c2,0,3,0,4-2" transform="translate(-301.4 -538)"/><path class="cls-4" d="M305.5,552.5a4.67,4.67,0,0,1-1.69,3.08l-.31-.08c-2-1-1.87-3.41-1-6l.36-.24c1.32.68,2.64,1.79,2.64,3.24" transform="translate(-301.4 -538)"/><path class="cls-5" d="M305.5,552.5a4.67,4.67,0,0,1-1.69,3.08l-.31-.08c-2-1-1.87-3.41-1-6l.36-.24C304.18,549.94,305.5,551.05,305.5,552.5Z" transform="translate(-301.4 -538)"/><path d="M312.42,558.8a11.93,11.93,0,0,1-1.92-.3c-2-1-1.76-3.64,0-5a20.79,20.79,0,0,1,2.1-.3c-.69,2-.31,4-.18,5.6" transform="translate(-301.4 -538)"/><path class="cls-5" d="M312.42,558.8a11.93,11.93,0,0,1-1.92-.3c-2-1-1.76-3.64,0-5a20.79,20.79,0,0,1,2.1-.3C311.91,555.18,312.29,557.21,312.42,558.8Z" transform="translate(-301.4 -538)"/><path d="M378.5,557.5h-3.27c.71-1.43.43-3.19-.1-5,.65,0,1.41,0,2.37,0a3.48,3.48,0,0,1,1,5" transform="translate(-301.4 -538)"/><path class="cls-5" d="M378.5,557.5h-3.27c.71-1.43.43-3.19-.1-5,.65,0,1.41,0,2.37,0A3.48,3.48,0,0,1,378.5,557.5Z" transform="translate(-301.4 -538)"/><path d="M303.86,551.88a.57.57,0,0,1-.09.72.41.41,0,0,1-.63,0,.57.57,0,0,1,.09-.72.4.4,0,0,1,.63,0" transform="translate(-301.4 -538)"/><path d="M303.18,554.25a4.38,4.38,0,0,0,.36-1.15c.06-.37,0-.77-.12-.92l.34-.37a.93.93,0,0,1,.27.74,1.73,1.73,0,0,1-.16.65,3.42,3.42,0,0,1-.69,1" transform="translate(-301.4 -538)"/></g></svg>