<svg id="Calque_10" data-name="Calque 10" xmlns="http://www.w3.org/2000/svg" viewBox="0 0 169.45 230.36"><defs><style>.cls-1,.cls-3{fill:#fcd44e;}.cls-1,.cls-3,.cls-4,.cls-8{stroke:#000;}.cls-1,.cls-8{stroke-linecap:round;}.cls-1,.cls-2,.cls-3,.cls-4,.cls-5,.cls-7,.cls-8{stroke-miterlimit:10;}.cls-2{fill:#c7973c;}.cls-2,.cls-5,.cls-7{stroke:#1d1d1b;}.cls-4{fill:#ed1c24;}.cls-5{fill:#b38334;}.cls-6{fill:#1d1d1b;}.cls-7{fill:#194048;}.cls-8{fill:none;}.cls-9{fill:#f7931e;}</style></defs><path class="cls-1" d="M555.32,713.82c1.51,7.11-10.39,10.4-20.4,27.94-1.43,2.51-14.13,32.64-8.31,36,5.65.83,10,.77,16,6.9-5.38.68-14.93-3.56-12.5-2.86,4.19,1.22,8,3,9.19,4.48-4.65,1.55-15.4,0-21.61-.93s-2.7-8.62,2.22-32.81c8.19-40.3,6.19-45.63,12.3-48.07C540.9,701.06,553.86,707,555.32,713.82Z" transform="translate(-423.79 -560.96)"/><path class="cls-1" d="M538.45,717.68c1.52,7.1-10.39,10.4-20.39,27.93-1.44,2.51-14.13,32.65-8.31,36,5.65.83,10,.78,16,6.9-5.37.69-14.92-3.56-12.5-2.85,4.2,1.22,8,3,9.2,4.47-4.66,1.55-15.4,0-21.61-.92s-2.7-8.62,2.22-32.82c8.19-40.3,6.18-45.62,12.3-48.06C524,704.91,537,710.84,538.45,717.68Z" transform="translate(-423.79 -560.96)"/><path class="cls-2" d="M583,712.42c-9.85,15.5-23.43,21.83-44.12,31.48-18.48,8.62-30.63,14.29-47.44,12.86-6.72-.57-23.94-4.43-33.25-14.85-6-6.7-8-13.08-6.88-22.17-.12-.17-.23-.34-.36-.51,6-12.66,13.7-31.83,29.59-57.07,0,.13,0,.26,0,.38,6.79,3.85,24.32-6.26,35.23-21.79,4.22,1.34,10.85-2.87,19.08-.38,11.3,3.42,15.5,16.4,20.4,14.63,2.67-1,2.07-5,5.32-6.21,4.33-1.55,8.35,4.64,11.31,3.55,2.49-.91,2.6-6.4,2.26-12.51a46.88,46.88,0,0,1,5.27,5.2c12.35,14.24,13.21,31.93,13.31,34.58C593.27,695.83,585.87,707.82,583,712.42Z" transform="translate(-423.79 -560.96)"/><path class="cls-3" d="M565.66,594.48c6.65-2.37,15.46,1.32,16,3.94.65,3.37-14,7.45-17.29,4.71C562.53,601.62,562.39,595.65,565.66,594.48Z" transform="translate(-423.79 -560.96)"/><path class="cls-4" d="M562.11,611.55c1.93,6.37,1.5,10.35,5.1,13.3.66.54,2.58,2.12,4.21,1.55,2.76-.95,2.94-7.39,2.44-11.08a18.73,18.73,0,0,0-3.32-8.65c-4.24-5.89-12-9.17-13.53-7.54C555.85,600.38,559.55,603.1,562.11,611.55Z" transform="translate(-423.79 -560.96)"/><path class="cls-4" d="M565.66,597.36a18.8,18.8,0,0,0,7.54-8.2c3.08-6.78.75-13.25,0-15.08-3.93-9.55-15.76-13.62-15.3-12.41.56,1.48,2.73,3.82,3.1,6.21-4.21-2.72-9.56-3.89-12-3.55-1,.14,1.8,3.18,2.22,5.1-6.23-3.6-20.65,2.39-20.84,4.21-.09.84,2.84,1.5,4.43,3.1-4.93,3.45-8.73,6.72-10,9.31-.67,1.4,6-.55,10.86,2.44,4.12,2.51,3,5.68,6.65,8.87C548,602.36,558.63,601.69,565.66,597.36Z" transform="translate(-423.79 -560.96)"/><path class="cls-5" d="M571.87,652.34c-3,1.09-7-5.1-11.31-3.55-3.25,1.17-2.65,5.25-5.32,6.21-4.9,1.77-9.1-11.21-20.4-14.63-8.23-2.49-14.86,1.72-19.08.38a56.2,56.2,0,0,0,6-10.8c4-9.66,3-16.1,10.42-28.15,4.25-6.93,9.88-15.82,19.51-17.3,6.29-1,14.44,1.21,17.07,6.43,1.79,3.55-.24,6-2.21,16.19-1.77,9.15-3.07,15.87-1.11,22.17,1.65,5.32,4.61,7.05,8.69,10.54C574.47,645.94,574.36,651.43,571.87,652.34Z" transform="translate(-423.79 -560.96)"/><ellipse class="cls-6" cx="139.27" cy="37.91" rx="2.49" ry="5.27"/><path class="cls-7" d="M480.49,662.16c-15.89,25.24-23.56,44.41-29.59,57.07-5.67-8.1-9.73-7.79-15.82-13.46-8.26-7.69-6.65-16-3.55-31-3.26-11.57-6.24-16.57-5.76-23.94.27-4.14,1.33-5.76,5.54-7.32-3.77-5.54-8.35-12.05-6.65-15.29a7.65,7.65,0,0,1,9.76-2.89c-2.66-4.65-5.71-12.13-3.33-15.07,1.91-2.36,6.87-3.55,10.86-.89-.22-3.77-2.29-11.05,0-14.19,2.44-3.32,8-1.77,11.53.45,0-4.44-1.77-9.76,1.33-13.75,5.1-6.56,14.44,7.64,18.62,21.95C481,629.6,479.46,651.59,480.49,662.16Z" transform="translate(-423.79 -560.96)"/><path class="cls-8" d="M534.05,708c-2.44-.47-5.42-1.45-6.33-3.74-1.24-3.09,2.38-5.87,1.2-9.25s-5.1-2.57-6.77-5.42c-2.71-4.65,2-16.29,11.22-19,7-2.07,14,1.86,17.7,6.18,5.69,6.65,4.53,15.25,4.32,16.79C552.52,714.85,521,725.61,519,726.15c-2.24.6-13,5.13-33.24-4-.48-8.82,2.22-15.55,11.6-24.46" transform="translate(-423.79 -560.96)"/><path class="cls-9" d="M491.6,709.94l24.27-17" transform="translate(-423.79 -560.96)"/><path d="M491.6,709.94c1.91-1.59,3.87-3.08,5.85-4.56s4-2.92,6-4.34,4.06-2.81,6.13-4.16l3.11-2c1.06-.64,2.1-1.31,3.18-1.93-1,.8-1.93,1.55-2.89,2.33l-3,2.23c-2,1.49-4,2.92-6,4.35s-4.06,2.81-6.13,4.15S493.74,708.69,491.6,709.94Z" transform="translate(-423.79 -560.96)"/><path class="cls-9" d="M489.19,720.27l34.07-22.95" transform="translate(-423.79 -560.96)"/><path d="M489.19,720.27c2.72-2.09,5.51-4.08,8.3-6.06s5.62-3.91,8.45-5.83,5.7-3.81,8.59-5.65l4.33-2.75c1.47-.89,2.91-1.8,4.4-2.66-1.36,1-2.75,2-4.13,3.07l-4.18,3c-2.78,2-5.61,3.91-8.45,5.84s-5.69,3.8-8.58,5.64S492.15,718.52,489.19,720.27Z" transform="translate(-423.79 -560.96)"/><path class="cls-9" d="M498.56,722.67l24.91-16" transform="translate(-423.79 -560.96)"/><path d="M498.56,722.67c2-1.51,4-2.93,6-4.33s4.1-2.76,6.16-4.11,4.17-2.65,6.29-3.91l3.19-1.89c1.08-.6,2.15-1.23,3.25-1.8-1,.76-2,1.47-3,2.21l-3,2.12c-2,1.42-4.1,2.76-6.16,4.11s-4.17,2.65-6.29,3.91S500.75,721.5,498.56,722.67Z" transform="translate(-423.79 -560.96)"/><path class="cls-9" d="M509.82,723.91l20.25-14" transform="translate(-423.79 -560.96)"/><path d="M509.82,723.91c3.15-2.66,6.47-5.08,9.84-7.43s6.81-4.59,10.41-6.6c-3.15,2.66-6.47,5.08-9.84,7.43S513.42,721.89,509.82,723.91Z" transform="translate(-423.79 -560.96)"/></svg>