<svg id="Calque_2" data-name="Calque 2" xmlns="http://www.w3.org/2000/svg" viewBox="0 0 105.02 209"><defs><style>.cls-1{fill:#fcd44e;}.cls-1,.cls-2,.cls-3,.cls-4,.cls-5{stroke:#000;stroke-miterlimit:10;}.cls-2,.cls-6{fill:#f7931e;}.cls-3{fill:#f7a953;}.cls-4{fill:#ed1c24;}.cls-5{fill:none;stroke-linecap:round;}</style></defs><path class="cls-1" d="M284.33,249.41c-1.14,2.51,4.88,8.21,5.43,17.41.33,5.44,1.65,10.82-2.07,16.07-2.4,3.4-7.57,4.33-7.31,5.1s3.83-.59,4.65.66c1.22,1.87-4.73,7.68-4.21,8.2s6.8-6.61,10.42-5.09c2.53,1.06,2.47,5.83,3.33,5.76.49,0,1.45-1.68,1.33-9.09-.09-5-1.13-7.33-.89-12.08.57-11.56,2.47-14,6.65-19.73C306.05,250.61,286.55,244.53,284.33,249.41Z" transform="translate(-254.97 -95.79)"/><path class="cls-1" d="M302,258.66c.23,2.94,7.33-4.54,11.58,1.17s3.42,23.4.75,30.11c-2.11,5.32-6.78,6.65-7.62,9.35-.32,1,5.39-3.12,6.65-2s-2.77,4.54-1.55,6.87c2.33-.89,2.92-6.27,5.1-6,1.89.24,3.31,6.07,4,6s-.38-7.61-.44-9.53c0,0,1.31-14.23,3.93-26.89,2.93-14.17,8.85-18.07,6.65-20.84C326.8,241.57,301.46,251.84,302,258.66Z" transform="translate(-254.97 -95.79)"/><path class="cls-2" d="M359.48,155.3c-.25,4.59-4.18,5.94-4.32,11.64-.08,3.26,1.2,3.15,1.33,7.65.13,4.27-1,5.51-.66,9.31a19.93,19.93,0,0,0,2,7c3.07,7.07,2.35,29.77-10.64,48.88a53.84,53.84,0,0,1-25.61,19.73A48.25,48.25,0,0,1,269,247.75c-13.4-14.31-15.95-35.24-11.64-50.88,3.64-13.21,11.87-17.34,14.52-26.13a5,5,0,0,1,.78.86c2.31,3.2.51,7.61,2.55,8.53,1.58.72,3.05-1.74,5.32-1.11,2.57.72,2.83,4.48,4.43,4.44s2.07-4.22,4.11-4.44c1.73-.18,2.47,2.76,4.43,2.66,1.74-.08,1.93-2.44,4.43-3.43,1.89-.75,3,.09,4.77,0,2.32-.12,4.24-1.85,5.68-3.69,4.56,5.24,12.3,10.28,19.15,8.68,6.43-15.74,19.73-32.81,24.94-38.91C356,144.49,359.74,150.56,359.48,155.3Z" transform="translate(-254.97 -95.79)"/><path class="cls-3" d="M308.41,174.56c-1.44,1.84-3.36,3.57-5.68,3.69-1.73.09-2.88-.75-4.77,0-2.5,1-2.69,3.35-4.43,3.43-2,.1-2.7-2.84-4.43-2.66-2,.22-2.42,4.39-4.11,4.44s-1.86-3.72-4.43-4.44c-2.27-.63-3.74,1.83-5.32,1.11-2-.92-.24-5.33-2.55-8.53a5,5,0,0,0-.78-.86,16.91,16.91,0,0,0,.45-1.8A144.54,144.54,0,0,0,274.69,145c-.07-8.41-1.06-13.15,2.32-17.62a14.73,14.73,0,0,1,6.43-4.8,28.52,28.52,0,0,0,.11,11,2.12,2.12,0,0,0,.74,1.2,26.68,26.68,0,0,1,1.48-6.06,56.16,56.16,0,0,1,2.84-7h0c6.76.29,10.59,5.74,11,6.31a10,10,0,0,1,.93,1.67,13.78,13.78,0,0,1,1.1,6.27c0,2.47-.32,5.34-.37,9-.1,7.87-.23,19.21,5.32,27.27A23.73,23.73,0,0,0,308.41,174.56Z" transform="translate(-254.97 -95.79)"/><path class="cls-1" d="M283.22,136.24c-4.21,6.95-4.81,10.44-4.77,13.41a12,12,0,0,0,9-1.44,4.93,4.93,0,0,0,2.44-4.21" transform="translate(-254.97 -95.79)"/><ellipse cx="293.71" cy="135.78" rx="4.19" ry="1.51" transform="translate(-108.91 327.9) rotate(-87.66)"/><ellipse cx="278.95" cy="136.24" rx="4.19" ry="1.51" transform="translate(-123.52 313.61) rotate(-87.66)"/><path class="cls-4" d="M303.2,126.48a4.18,4.18,0,0,1-2.64,3.22,10,10,0,0,0-.93-1.67c-.39-.57-4.22-6-11-6.31h0a56.16,56.16,0,0,0-2.84,7,26.68,26.68,0,0,0-1.48,6.06,2.12,2.12,0,0,1-.74-1.2,28.52,28.52,0,0,1-.11-11c2.54-16.16,14.25-34.32,12.2-22.47-.61,3.5,6,1.41,4.21,2.11-2,.77-4,5.24.55,4.87,4.1-.33-1.18,6.53,1.48,7.27,1,.28-1.7,3.41.72,3.93,1.56.34-1.26,3.32-.47,4.64A6.06,6.06,0,0,1,303.2,126.48Z" transform="translate(-254.97 -95.79)"/><path class="cls-5" d="M331.71,223.62c.31-1.7.41-3.87-.84-5-1.69-1.58-4.39.07-6.29-1.54s-.38-3.94-1.81-5.73c-2.33-2.92-11.06-2.75-15.1,2.52-3.1,4-2.29,9.52-.42,13,2.88,5.34,8.74,6.74,9.79,7,14.52,3.47,29.35-14.24,30.19-15.38.95-1.3,6.57-7.13,5.73-22.51-5.59-2.51-10.62-2.45-18.73,1.4" transform="translate(-254.97 -95.79)"/><path class="cls-6" d="M343.59,196.64l-17,11.46" transform="translate(-254.97 -95.79)"/><path d="M343.59,196.64a94.28,94.28,0,0,1-8.24,6.15,92.29,92.29,0,0,1-8.81,5.31,92.84,92.84,0,0,1,8.25-6.14A94.33,94.33,0,0,1,343.59,196.64Z" transform="translate(-254.97 -95.79)"/><path class="cls-6" d="M350.88,197.66,327.52,214" transform="translate(-254.97 -95.79)"/><path d="M350.88,197.66c-1.83,1.53-3.72,3-5.62,4.39s-3.84,2.81-5.77,4.18-3.91,2.7-5.91,4l-3,1.93c-1,.61-2,1.25-3.06,1.84.91-.78,1.85-1.5,2.78-2.24l2.84-2.16c1.89-1.43,3.83-2.8,5.77-4.17s3.91-2.7,5.91-4S348.81,198.85,350.88,197.66Z" transform="translate(-254.97 -95.79)"/><path class="cls-6" d="M350.09,204.33l-16.6,12.11" transform="translate(-254.97 -95.79)"/><path d="M350.09,204.33a105,105,0,0,1-16.6,12.11,93.1,93.1,0,0,1,8-6.46A91.5,91.5,0,0,1,350.09,204.33Z" transform="translate(-254.97 -95.79)"/><path class="cls-6" d="M348.08,211.92,334,221.52" transform="translate(-254.97 -95.79)"/><path d="M348.08,211.92a72.12,72.12,0,0,1-14.13,9.6,74.14,74.14,0,0,1,14.13-9.6Z" transform="translate(-254.97 -95.79)"/></svg>