<svg id="Calque_7" data-name="Calque 7" xmlns="http://www.w3.org/2000/svg" viewBox="0 0 163.07 128.24"><defs><style>.cls-1{fill:#fcd44e;}.cls-1,.cls-2,.cls-3,.cls-4,.cls-5{stroke:#000;stroke-miterlimit:10;}.cls-2{fill:#ed1c24;}.cls-3,.cls-6{fill:#f7931e;}.cls-4{fill:#f7a953;}.cls-5{fill:none;stroke-linecap:round;}</style></defs><path class="cls-1" d="M695.73,289.43c.32,4.73-.29,9.85-2,12.18-2.33-1.74-4.88-6.65-6.12-11C686.85,288.08,695.54,286.49,695.73,289.43Z" transform="translate(-548.41 -174.07)"/><path class="cls-1" d="M612.67,273.17c-3,3.58,1,7-1.32,17.16-.49,2.2-2.15,6.84,0,7.92,2.64,1.32,5.28,1.32,7.92,1.32,0,0-3.21-1.9-2.64-2.64,1.32,1.32,9.24,3.17,9.24,2.64,0-2.64-6.32-3.14-7.92-6.6-3.23-7,10.56-16.81,7.92-21.12C624.15,269.05,615.94,269.3,612.67,273.17Z" transform="translate(-548.41 -174.07)"/><path class="cls-2" d="M690.81,286c1,3.85,6,5.48,7.2,5.88a10.19,10.19,0,0,0,7.32,0c2.27-1,4-3.12,3.65-3.66-1-.11-3.06.58-3.21.22s4.38-2.56,4.1-3.44c-1.77-.31-2.79.08-3.21-.77-.68-1.35,4.35-3.77,4.32-6-1.79.2-4.11,1.55-5.32.34,1.77-2.89,1.77-7.87-.11-6-.89-.89-2-2.55-2.55-.22-2.09-.53-2.49-2.33-3.66-2.33s-2.22,2.19-3,3.88C692.16,283.09,690.11,283.36,690.81,286Z" transform="translate(-548.41 -174.07)"/><path class="cls-3" d="M668.3,254.4c-.91,2.25-7.21.81-8,2.88-.61,1.65,3.17,3.19,3,6-.21,3.26-5.59,4.54-5.21,6.87.26,1.65,3.07,1.6,3.54,3.44.41,1.59-1.36,2.9-2.78,4.42-6.34-.89-11.87,1-21.22,1.54-11.71.63-24.7,1.32-34.36-5.5-14-9.84-18.7-23.13-23.85-35.21-4.08-2.31-10.87-4.25-13.2-9.32s-2.23-7.69-1.11-13.35c-3.22-.29-5.4-3-7.23-6.68-2.3-4.66-3-7-.15-13.09-4.89-4-4.9-4.93-7.16-10.76-.24-.63-3.21-8.51-.63-11,11.8,5.76,22.15,16,53.61,23.55,17.19,4.13,17.33-.72,27.49,3.94,20.6,9.46,30.18,28.4,39.56,45.24-1.88.09-3.78.46-4.2,1.57C665.78,250.64,669,252.67,668.3,254.4Z" transform="translate(-548.41 -174.07)"/><path class="cls-4" d="M702.74,283.81c-1.21,4.5-6.59,6.46-7,6.62-3,1.05-6.58.89-16.79-3.62-9.17-4.05-10-5.56-14.36-7.28a24.58,24.58,0,0,0-5.69-1.53c1.42-1.52,3.19-2.83,2.78-4.42-.47-1.84-3.28-1.79-3.54-3.44-.38-2.33,5-3.61,5.21-6.87.17-2.8-3.61-4.34-3-6,.77-2.07,7.07-.63,8-2.88.71-1.73-2.52-3.76-1.88-5.43.42-1.11,2.32-1.48,4.2-1.57.18.32.35.64.53.95,1.62,2.89,10.85,11.15,23.56,20.34C701.1,273.31,704,279.18,702.74,283.81Z" transform="translate(-548.41 -174.07)"/><path class="cls-5" d="M620.19,256.64c-.33-1.4-.51-3.2.48-4.22,1.33-1.38,3.65-.13,5.15-1.55s.15-3.29,1.26-4.84c1.8-2.53,9-2.77,12.65,1.42,2.74,3.21,2.32,7.81.92,10.78-2.16,4.56-7,6-7.82,6.23-11.91,3.53-25-10.52-25.75-11.43s-5.77-5.63-5.75-18.44c4.53-2.34,8.71-2.5,15.61.34" transform="translate(-548.41 -174.07)"/><path class="cls-6" d="M609.13,234.76l14.67,8.76" transform="translate(-548.41 -174.07)"/><path d="M609.13,234.76a73.25,73.25,0,0,1,14.67,8.76,63.45,63.45,0,0,1-7.59-4A64.38,64.38,0,0,1,609.13,234.76Z" transform="translate(-548.41 -174.07)"/><path class="cls-6" d="M603.13,235.93l20.12,12.51" transform="translate(-548.41 -174.07)"/><path d="M603.13,235.93c3.56,1.75,7,3.76,10.32,5.83s6.65,4.26,9.8,6.68c-3.56-1.75-7-3.76-10.33-5.83S606.27,238.35,603.13,235.93Z" transform="translate(-548.41 -174.07)"/><path class="cls-6" d="M604.08,241.43l14.31,9.32" transform="translate(-548.41 -174.07)"/><path d="M604.08,241.43a72.87,72.87,0,0,1,14.31,9.32,64.77,64.77,0,0,1-7.43-4.24A66.29,66.29,0,0,1,604.08,241.43Z" transform="translate(-548.41 -174.07)"/><path class="cls-6" d="M606.08,247.64,618.24,255" transform="translate(-548.41 -174.07)"/><path d="M606.08,247.64a45.62,45.62,0,0,1,6.34,3.25,44,44,0,0,1,5.82,4.11,45.62,45.62,0,0,1-6.34-3.25A44,44,0,0,1,606.08,247.64Z" transform="translate(-548.41 -174.07)"/><ellipse cx="694.94" cy="285.43" rx="1.51" ry="2.78" transform="translate(-360.85 665.42) rotate(-69.85)"/></svg>