<svg id="Calque_8" data-name="Calque 8" xmlns="http://www.w3.org/2000/svg" viewBox="0 0 239.43 264.23"><defs><style>.cls-1{fill:#fcd44e;}.cls-1,.cls-2,.cls-3,.cls-4,.cls-6{stroke:#000;stroke-miterlimit:10;}.cls-2,.cls-5,.cls-6{fill:#f7931e;}.cls-3{fill:#ed1c24;}.cls-4{fill:#f7a953;}.cls-6{stroke-linecap:round;}</style></defs><path class="cls-1" d="M605.23,552c-4.32-1.82-7-4.71-13.3-12.63-10.9-13.63-8.65-20.12-12.8-25.44a48.19,48.19,0,0,0-5.19-2.27,34.39,34.39,0,0,0,14-5.33,18.06,18.06,0,0,1,3,7.47c2.16,15,11.79,25.07,13.12,28.23-2.63-.39-5.06-2.18-7-2.83C597.67,541.23,604.07,546.7,605.23,552Z" transform="translate(-422.84 -291.72)"/><path class="cls-1" d="M560.34,526.75c-1.33,4-12.73,2.35-27.77,13.3-7.34,5.35-7.81,10-12.14,13.3-.06-3.88.94-5.77,1.67-10-3.79,3.24-5.14,5.94-10,11.47-2-10.81,15.46-22.78,30.26-32.09,1.29-.81.19-3.33-1-5.07a38.27,38.27,0,0,0,15.28-4.44C556.67,520.51,561.9,522.07,560.34,526.75Z" transform="translate(-422.84 -291.72)"/><path class="cls-2" d="M588,506.35a34.39,34.39,0,0,1-14,5.33c-12.41-4.66-26.57-5.3-27.9-10.2-2.38-8.75,36.47-28.31,40.4-23.28,1.88,2.41-5.9,8.3-4.65,18.12C582.24,499.85,585.45,502.53,588,506.35Z" transform="translate(-422.84 -291.72)"/><path class="cls-2" d="M645.8,451.6c.67,6.48-.89,13.64-6.32,18.62-4.42,4.06-10,5.49-17,4-4.32,6.48-9.25,9.81-18.29,12.64-6.38,2-7.08-.8-16.62.33-4.33.52-12.56,4.47-20.18,8.26l-2.77,1.38c-2.27,1.14-7.9,7.95-8,16.3v.13a38.27,38.27,0,0,1-15.28,4.44,7.62,7.62,0,0,0-1.35-1.58c-9.64-7.48-22-17.27-31.09-21.45-1.28-.59-2.5-1.22-3.65-1.88-16-9.23-20.48-25.91-27.11-43.18-.35-.91-.68-1.8-1-2.66,1.07-4.73,2.12-10.24,6-11.42,3.47-1.06,6.24,2.28,8.42.67,3.38-2.5-1.46-11.79,2.22-14.63,2.26-1.75,5.46.7,7.09-1.11,2-2.26-2.35-6.76-.44-10.86,1.12-2.41,3.59-2.94,5.49-3.78,3.14,1.9,6.3,3.67,9.48,5.22,42,20.49,96.66,7,134.67,21,1.51.55,12,4.48,11.64,8.64C661.46,444.63,652.45,451.6,645.8,451.6Z" transform="translate(-422.84 -291.72)"/><path class="cls-1" d="M437,386.92c-8,1.88-10.32,3.22-13.47,6.65,3.12,4,12.8,4.6,19.95,2.49C446.5,395.16,442.36,385.65,437,386.92Z" transform="translate(-422.84 -291.72)"/><path class="cls-3" d="M437.13,389.41c-3.5-1.76-4.89-5.41-5.82-7.81-4.11-10.73,2.12-22.15,3.16-22,.6.11,1.17,3.38,1.33,5.15,2.56,1.51,6.38-5.15,9-3.49-1.39,2.94-4.54,6.46-3.66,7.48,3.37-2,10.59-5.45,11.48-4.32-1,2-2.15,2.86-1.5,4,4.16-1.66,8-.94,8.48.17.3.73-2.7,2-2.5,3.32.37,2.3,10.16,2.47,10.15,3.5,0,.56-3,.28-4,2-1.18,2,1.77,4.4,1,6.65s-4.06,2.25-11.14,3.49C441.86,389.55,440.18,391,437.13,389.41Z" transform="translate(-422.84 -291.72)"/><path class="cls-4" d="M500.48,409.59c-1.91,4.1,2.48,8.6.44,10.86-1.63,1.81-4.83-.64-7.09,1.11-3.68,2.84,1.16,12.13-2.22,14.63-2.18,1.61-4.95-1.73-8.42-.67-3.86,1.18-4.91,6.69-6,11.42-4.72-13.18-5-20.48-13.31-27.6-7-6-9.25-7-17.29-13.13-7.69-5.9-14.62-18.36-10.64-24.45,2.65-4.05,9-4.27,11.64-4.32,19.64-.4,38.69,16.5,58.36,28.37C504.07,406.65,501.6,407.18,500.48,409.59Z" transform="translate(-422.84 -291.72)"/><ellipse cx="445.62" cy="387.1" rx="2.04" ry="3.74" transform="translate(-551.58 -40.78) rotate(-27.64)"/><polygon points="24.32 89.38 19.22 94.36 17.67 93.25 24.32 89.38"/><g id="aile"><rect class="cls-5" x="542.36" y="357.65" width="24.24" height="77.81" transform="translate(-234.17 -470.4) rotate(21.97)"/><path class="cls-6" d="M566.59,370.87c14.63-15.3,14-17.13,17.95-21.28,2.64-2.74,11.51-5.77,11.14,6-.33,10.64-3.49,15.3-7.81,22.78,6,0,12.64.83,12.64,8,0,7.49-5.66,8.48-9.65,10.64,4.33,1.35,7.48,3.13,6.15,9.11-1,4.3-7.14,4.8-11.3,8.35,3.66,2.16,6.77,5.8,6.32,9.65-.44,3.67-5.12,4.59-8.15,8.31,3,1.66,3.19,5.33,2.33,8.31-1.83,6.32-7.65,5.82-13,7.65a15.74,15.74,0,0,1-2.5,11.81c-1.71,2.71-6,5.49-17.62,4.82" transform="translate(-422.84 -291.72)"/><path class="cls-6" d="M556.89,363.23c8-18.62,12.31-31.26,15.13-36.74,1.4-2.71,4.71-9.73,9.81,1.83,5.37,12.14-6.72,44.15-14.46,53.53" transform="translate(-422.84 -291.72)"/><path class="cls-6" d="M551.68,343.47c0-19.12,1.16-31.56,1.16-35.75,0-8,9.86-7.49,12.93,2.5,5.34,17.36-.75,50.42-4.62,64.34" transform="translate(-422.84 -291.72)"/><path class="cls-6" d="M516.21,449.35a134.07,134.07,0,0,0,17.12-34.25c5.09-15.41,8.78-41.39,4.16-72.5-2-13.46-6.82-24.27-9.48-37.74-.94-4.77,2.5-12.66,6.65-12.64,7.77,0,23.11,25.28,25.11,80.81" transform="translate(-422.84 -291.72)"/><path class="cls-6" d="M543.64,362.72c4.14-.62,6.2.34,7.32,1.33a9.4,9.4,0,0,1,3,5c3.55,1.75,4.24,1.88,5.82,4,2.47,3.3,1.66,6.82.83,12.14,3,2.66,3.35,3,4.32,6.32,1.25,4.18.64,7.31-2,11.47,2.63,4.66,3.36,7.41,2.49,13-.74,4.77-1.77,5.82-4,9.48,2.22,5.15,3.15,6.72,2.16,11-1.09,4.74-3.65,6.82-7.48,10a7.5,7.5,0,0,1-.83,7.65c-1.72,2.15-5.64,1.91-8.81,1.33" transform="translate(-422.84 -291.72)"/></g></svg>