<svg id="Calque_4" data-name="Calque 4" xmlns="http://www.w3.org/2000/svg" viewBox="0 0 86.99 119.1"><defs><style>.cls-1{fill:#f7931e;}.cls-1,.cls-2,.cls-3,.cls-4,.cls-5{stroke:#000;stroke-miterlimit:10;}.cls-2{fill:#f7a953;}.cls-3{fill:#fcd44e;}.cls-4{fill:none;}.cls-5{fill:#ed1c24;}</style></defs><path class="cls-1" d="M447.69,249.83c-3.16-12.06-9.64-21-16.05-23.7a6.91,6.91,0,0,0-5.4,5c-.79,4,1.41,7.07,3.33,10.15-3.86-.84-5.42,2.29-5.16,4.65.33,3,1.83,4.49,4.33,7.48-3,1.58-4.31,3.9-4.83,7.57-.61,4.32,1.57,9.25,4.41,10.39C433.39,273.4,451,262.4,447.69,249.83Z" transform="translate(-417.19 -192.07)"/><path class="cls-1" d="M502.77,302.51c-1.48,4.39-2.91,8.16-7.61,8.16-16,0-38.78-.15-63.17-.15-6.17,0-10.66-5.72-11.32-13.22-1.14-12.94,1.95-23.88,9.16-33.1,5.13-6.55,10.24-7.4,15.85-12.86a4.22,4.22,0,0,0,2.26,1.95c2.18.7,3.78-1.36,6.65-.44,3.36,1.08,3.2,4.56,6,5.1s4.16-3,8-2.88c2.81.1,3.5,2.12,6,2.66a6.4,6.4,0,0,0,3.43-.28c3,2.39,6.32,4.15,12.2,10.25C491.06,268.63,507.69,287.84,502.77,302.51Z" transform="translate(-417.19 -192.07)"/><ellipse class="cls-1" cx="425.71" cy="280.2" rx="13.3" ry="7.44" transform="translate(-376.5 422.04) rotate(-74.29)"/><ellipse class="cls-1" cx="495.31" cy="280.2" rx="7.44" ry="13.3" transform="translate(-474.56 -47.46) rotate(-15.71)"/><path class="cls-2" d="M478,257.45a6.4,6.4,0,0,1-3.43.28c-2.48-.54-3.17-2.56-6-2.66-3.82-.15-5.07,3.44-8,2.88s-2.63-4-6-5.1c-2.87-.92-4.47,1.14-6.65.44a4.22,4.22,0,0,1-2.26-1.95c.08-.09.17-.17.26-.26,3.46-10.64,3.52-23.46,7.65-34.26,1-2.73,3.38-6.78,6.9-8.94a47.63,47.63,0,0,0,3.67,12.7c.16-5,0-10.48,1.59-14.14a10.82,10.82,0,0,1,6.8,2.73c1.72,1.56,3,3.81,3.4,9.29a75.75,75.75,0,0,1,0,9.56q0,.54-.06,1.11c-1,16.89-3.89,19-1.66,24.61A24.58,24.58,0,0,0,478,257.45Z" transform="translate(-417.19 -192.07)"/><path class="cls-3" d="M459.91,224.25c-.9,4.74-.44,6.65,1.11,9.09,2.65-1.15,4.6-2.4,6.87-7.54" transform="translate(-417.19 -192.07)"/><path class="cls-4" d="M454.59,221.09a7.09,7.09,0,0,1,5.21-.39" transform="translate(-417.19 -192.07)"/><path class="cls-4" d="M469.94,221.81c1.61,0,3.59,2.09,3.59,3" transform="translate(-417.19 -192.07)"/><path class="cls-5" d="M477.45,214.5c.46,1.47-.22,2.84-1.5,4-.4-5.48-1.68-7.73-3.4-9.29a10.82,10.82,0,0,0-6.8-2.73c-1.55,3.66-1.43,9.12-1.59,14.14a47.63,47.63,0,0,1-3.67-12.7c-.95-6.12-.85-11.87.17-14.67,1.4.58,3.87-1.36,4.82-.33-.17,1.33,1.75,2.08.92,3,.76.49,1.63-.6,2.57-.16,0,1.66,3.49,2.16,1.91,3.49.93.61,1,1.08,2.17.66.74.42.47,1,.07,1.56s-.92,1.18-.66,1.69c2.08,0,2.1,1.44,3.25,2.24-1.67,1.66-.17,2,.74,2.91s-1.31.94-1.24,1.33c.09.56,1.91.24,2.66,1.16C477.12,212.08,479,213.58,477.45,214.5Z" transform="translate(-417.19 -192.07)"/></svg>