<svg id="Calque_9" data-name="Calque 9" xmlns="http://www.w3.org/2000/svg" viewBox="0 0 115.04 116.92"><defs><style>.cls-1,.cls-2{fill:#fcd44e;}.cls-1,.cls-2,.cls-3{stroke:#000;stroke-miterlimit:10;}.cls-2,.cls-3{stroke-linecap:round;}.cls-3{fill:#fcd888;}.cls-4{fill:#1d1d1b;}</style></defs><path class="cls-1" d="M344.52,677.89c5.65-3.78,9.34-4,13.19-3.16,2.05,4.82-3.63,13.17-8,13C346.75,687.57,340.56,680.54,344.52,677.89Z" transform="translate(-243.61 -667.64)"/><path class="cls-2" d="M286.57,756.87c-.52,2.62,1.45,3.48,2.75,7.9,1.91,6.49-1.64,10.36,1.41,12.22,2.49,1.52,5.91,1.24,10.14.75,3-.36-3.4-5.94-5.15-15.13-1.27-6.65.38-10.34-1.58-11.31C292,750.24,287.3,753.25,286.57,756.87Z" transform="translate(-243.61 -667.64)"/><path class="cls-2" d="M285.87,752c-.77,3.45,5.23,4.68,8,12.75,2.35,6.89,2.17,15.13,3.9,15.53a32.86,32.86,0,0,1,9,3.65c.74-1-2.06-4.13-2.22-5.55,1.89,1.17,7.42.94,7.32.78-2.66-4-6.76-3.16-11-5.43-4.55-7.57,5.21-18.4,6.66-25.61C308.68,742.16,287.11,746.44,285.87,752Z" transform="translate(-243.61 -667.64)"/><path class="cls-3" d="M300,684.71c9.72-6.32,15.15-11.72,20.73-14.63a21.76,21.76,0,0,1,21.45,2c7.08,4.79,11.53,13.12,11.31,20.95-.2,6.79-2.83,12.14-9.31,22-5.2,7.85-3.12,10.63-5.32,16.29-1.39,3.58-11.52,23.83-29.6,27.27-18.95,3.61-39.07,3.72-46.89-9.64-8.15-5.82-11.3-11.64-7.31-24.78-6-4.48-9.64-10.43-10.48-15.46-1.27-7.62-.17-9,4.82-17-3.66-5.82-3-12.17-1.33-13,4.82-2.32,6.2,6.46,14.63,10.31C272.86,684.87,287.54,684.38,300,684.71Z" transform="translate(-243.61 -667.64)"/><ellipse class="cls-4" cx="340.71" cy="682.8" rx="2.49" ry="5.27" transform="translate(-593.09 -310.33) rotate(-38.23)"/></svg>