<svg id="Calque_6" data-name="Calque 6" xmlns="http://www.w3.org/2000/svg" viewBox="0 0 94.63 83.59"><defs><style>.cls-1,.cls-2{fill:#fcd44e;}.cls-1,.cls-2,.cls-3{stroke:#000;stroke-miterlimit:10;}.cls-1,.cls-3{stroke-linecap:round;}.cls-3{fill:#fcd888;}.cls-4{fill:#1d1d1b;}</style></defs><path class="cls-1" d="M383.93,559c-.82,1.83,2.38,3.69,4.66,10.42,1.05,3.12,1.92,5.78.66,7.76-1.87,2.94-5,2.27-7.31,5.26.44.55,5.46-1.52,6.65-.83-.6,1-2.77,1.11-3.49,2.16,1.16.34,5.59.72,6.37-1,.54-4,2-15.57,4.21-23.77C396.94,554.21,385,556.65,383.93,559Z" transform="translate(-331.16 -501.25)"/><path class="cls-1" d="M387.78,564c.37,2,4.07,1.65,9.8,5.85,2.65,1.94,4.89,3.63,5,6,.16,3.49-2.82,4.75-3,8.51.68.2,3.59-4.38,5-4.5.11,1.2-1.63,2.5-1.61,3.77,1.15-.39,5-2.62,4.64-4.48-1.87-3.6-7.27-13.92-10.21-21.88C395.69,552.63,387.31,561.49,387.78,564Z" transform="translate(-331.16 -501.25)"/><path class="cls-2" d="M335.26,523a25.74,25.74,0,0,0-3.43,15.52c5.48.09,7.81-.84,12.86-3.16C350,532.93,337.61,519.32,335.26,523Z" transform="translate(-331.16 -501.25)"/><path class="cls-3" d="M369.35,508.3c7.56,1.51,11.8-1.69,17.84-2.24,11.15-1,12.59,1.85,17.52,4.18,5.2-2.16,5.63-7.86,9.31-7.54,2.83.25,5.57,3.86,5.76,7.09.16,2.66,1,4.16-.45,6.49,3.21,2.55,2.88,3.23,4.89,6.81s1.11,11.42-1.66,16.19a20.07,20.07,0,0,1-.12,13.08c-2.62,8.25-10.64,13.06-16,15.07-14.63,5.54-40.79,3.11-50.54-12.41-4.7-7.47-5.13-9-10.53-15.58-6.87-8.41-9.14-9.67-11-15-3.12-8.81,3.12-18.44,10.13-21C359.43,498,363.81,507.19,369.35,508.3Z" transform="translate(-331.16 -501.25)"/><ellipse class="cls-4" cx="344.66" cy="523.98" rx="2.49" ry="5.27" transform="translate(-613.4 4.07) rotate(-54.96)"/></svg>