<svg id="Calque_5" data-name="Calque 5" xmlns="http://www.w3.org/2000/svg" viewBox="0 0 80.25 85.4"><defs><style>.cls-1{fill:#fcd888;}.cls-1,.cls-3,.cls-6{stroke:#000;}.cls-1,.cls-5,.cls-6{stroke-linecap:round;}.cls-1,.cls-3,.cls-5,.cls-6{stroke-miterlimit:10;}.cls-2{fill:#1d1d1b;}.cls-3,.cls-4,.cls-6{fill:#fcd44e;}.cls-5{fill:none;stroke:#1d1d1b;}</style></defs><path class="cls-1" d="M280.51,404c-.09-6.88.91-10.48,3-14.63a18.06,18.06,0,0,1,13.8-9.31c10.43-.88,18.22,10.74,21.28,15.3,7.54,11.24,9.78,39.9,4,50.05-6.28,11-14.7,13.57-29.48,17.12-12.68,3-23.84.28-27.72-.55-.75-.16-3.88-1.67-4.15-3.44-2.21-.52-3.14.17-4.16-.66-1.5-1.24-2.11-3.22-1.66-6.16-2.33-1.27-3-1.71-3.33-3.32s.8-3.23,2-4.16c2.29-1.77,4.47-.38,6.32-1.49,2.7-1.63,2-6.66,3.16-12.14C265.85,419.77,270.86,415.35,280.51,404Z" transform="translate(-251.51 -379.55)"/><ellipse class="cls-2" cx="294.92" cy="395.56" rx="2.49" ry="5.27" transform="translate(-356.59 -272.87) rotate(-17.46)"/><ellipse class="cls-2" cx="307.48" cy="391.61" rx="2.49" ry="5.27" transform="translate(-354.82 -269.29) rotate(-17.46)"/><path class="cls-3" d="M303,393.51a9.28,9.28,0,0,1,8.87,4.77c-.89,2.39-3.44,5.85-9.09,5.87" transform="translate(-251.51 -379.55)"/><polygon class="cls-4" points="49.34 82.86 37.7 76.53 43.11 74.74 51.28 79.5 49.34 82.86"/><path class="cls-5" d="M307.05,461.57l-12.3-7" transform="translate(-251.51 -379.55)"/><path class="cls-6" d="M289.54,456.5a89.13,89.13,0,0,0,14.27,7.5c2.24.94,6,.56,6.53-2.42.65-3.64-.61-9.61-1.54-10.72-.73,1.28-.54,4.55-1.19,6-1.36-1.86-2.47-6.88-3.52-7.59-.42,1.12.22,7-.47,8.81-1.08-1.3-3.13-3.68-3.87-4,.1,1.08,1.11,3.37,2.57,6.34" transform="translate(-251.51 -379.55)"/><polygon class="cls-4" points="71.97 77.24 58.53 69.88 64.47 68.39 73.91 73.88 71.97 77.24"/><path class="cls-5" d="M327.8,454.92q-6.17-3.48-12.31-7" transform="translate(-251.51 -379.55)"/><path class="cls-6" d="M310.28,449.85a89.61,89.61,0,0,0,14.27,7.5c2.24.94,6,.56,6.53-2.42.65-3.64-.61-9.61-1.54-10.73-.73,1.29-.53,4.56-1.19,6-1.36-1.86-2.47-6.88-3.52-7.59-.42,1.12.23,7-.47,8.81-1.07-1.3-3.13-3.68-3.87-4,.1,1.08,1.11,3.37,2.57,6.34" transform="translate(-251.51 -379.55)"/></svg>