<svg id="Calque_6" data-name="Calque 6" xmlns="http://www.w3.org/2000/svg" viewBox="0 0 101.87 101.08"><defs><style>.cls-1{fill:#fddbbe;}.cls-1,.cls-2,.cls-3{stroke:#1d1d1b;stroke-miterlimit:10;}.cls-2{fill:#575756;}.cls-3,.cls-5{fill:#ededed;}.cls-4{fill:#1d1d1b;}.cls-6{fill:#c3e0ee;}</style></defs><path class="cls-1" d="M343,511.58a10.1,10.1,0,0,1-2.49-3.69,28.46,28.46,0,0,1-1.4-6.24c-1-7.48-.24-10.39-1.88-15.36-1.87-5.7-5.48-16.54-6-17.93-.89-2.53,19.9,3,17.23,10.29-1.8,4.92-5.12,13.41-1.94,22.72a19.13,19.13,0,0,0,2.53,4.94c1.06,1.54,2,2.66,2.33,4.37C351.83,512.78,346.74,512.65,343,511.58Z" transform="translate(-281.08 -415.08)"/><path class="cls-1" d="M313,471.42c-1.83,3.51-5.86,4.91-7.15,5.35-3.13,1.08-4.28.37-5,1.39-1.39,2,2.23,5.5,4.87,12.23a34.36,34.36,0,0,1,2.39,12,8.48,8.48,0,0,1-.65,3.22c-1.72,1.23-6-.95-8.48-3.41-2.19-2.16-2.8-4.72-3-7.44-.34-4.74.61-10-3.26-14.44-2.88-3.33,6.36-9.93,7.29-13.55a34,34,0,0,0,.63-14c-1.15-9.74,10.53,4.55,12.92,11.48A9.45,9.45,0,0,1,313,471.42Z" transform="translate(-281.08 -415.08)"/><path class="cls-1" d="M377.9,512.13a6.92,6.92,0,0,1-3.13,2.4,10.15,10.15,0,0,1-7.46.71,6.93,6.93,0,0,1-3.64-3.33,52,52,0,0,1-2.75-6.26c-1.52-3.71-4.47-10.92-8.17-16-7.13-9.75-15-8.66-17.48-16.55a25.65,25.65,0,0,1,16.88-2A10.83,10.83,0,0,0,351,472.8c4.55,5,8.65,7.86,12.43,17.58,3.91,10,8.31,14.83,11.26,17.55C377.08,510.16,378.51,511,377.9,512.13Z" transform="translate(-281.08 -415.08)"/><path class="cls-1" d="M306.58,513.64c-1.93,1.53-5.73.83-6.4-.18-4.07-6.19-15.12-27-13.14-33.38.94-3,2.27-3.81,3-5.48a11.54,11.54,0,0,0,6.82,1.93c3.34-.22,5.91-2.07,8.11-3.3a33.42,33.42,0,0,1-2.69,7c-2.29,4.62-3.93,3.84-4.79,6.57-1.9,6,8.18,18.29,10.3,24.68A2.86,2.86,0,0,1,306.58,513.64Z" transform="translate(-281.08 -415.08)"/><path class="cls-2" d="M308.09,502.39a8.48,8.48,0,0,1-.65,3.22c-1.72,1.23-6-.95-8.48-3.41-2.19-2.16-2.8-4.72-3-7.44A42,42,0,0,0,308.09,502.39Z" transform="translate(-281.08 -415.08)"/><path class="cls-2" d="M377.9,512.13a6.92,6.92,0,0,1-3.13,2.4,10.15,10.15,0,0,1-7.46.71,6.93,6.93,0,0,1-3.64-3.33c2.66-.37,6.23.63,8.23-1.25a33.85,33.85,0,0,0,2.76-2.73C377.08,510.16,378.51,511,377.9,512.13Z" transform="translate(-281.08 -415.08)"/><path class="cls-2" d="M343,511.58a10.1,10.1,0,0,1-2.49-3.69,37.61,37.61,0,0,0,8.57-1.58c1.06,1.54,2,2.66,2.33,4.37C351.83,512.78,346.74,512.65,343,511.58Z" transform="translate(-281.08 -415.08)"/><path class="cls-3" d="M382.05,442.79c-.95,2.49-3.33,3.65-4.62,4.26-4.75,2.24-7.24,0-9.59,1.95a3,3,0,0,0-.6.66c-1.33,1.89.11,4.31-1.88,7.87s-3.53,5.17-9.06,7.45c-.82,2.79-2.6,6-4.15,6.13a25.65,25.65,0,0,0-16.88,2,3,3,0,0,1-.1-.32c-3.93.43-9.29.43-14.6-3.53-7.58,2.15-10.89.69-14.88-.73-.06.72.89,1.42-.25,2.45a19.93,19.93,0,0,1-.44,2.24,33.42,33.42,0,0,1-2.69,7c-2.29,4.62-3.93,3.84-4.79,6.57-1.63,5.15,5.59,15,9,21.69a23.63,23.63,0,0,1,1.3,3,2.86,2.86,0,0,1-1.24,2.13c-1.93,1.53-5.73.83-6.4-.18s-1.32-2.09-2.14-3.5c-4.84-8.39-12.7-24.44-11-29.88.94-3,2.27-3.81,3-5.48a6.17,6.17,0,0,0,.5-1.87.43.43,0,0,0,0-.11c-5.21-.37-11.5-9.92-8-18.82-2.62-7.73,4.75-14.43,10.3-15.28,6.51-8.72,27.87-5.88,34.45-3.55,3.89-2.33,13.17-2.33,20.43-.17,1.57-1,1.87-1.82,2-2.31h0c-4.35-3-8-6.22-8.15-9.4,1.26-1.59,4.29-2.65,7.29-2,3.29.68,4.22,2.25,6.21,2.74,2-1.06,2.12-2.26,5.5-3.56,2.67-1,3.51-.57,5.51-1.24,1.77-1.65,1.61-2.53,3.73-3.37,1.91.77,3.16,1.65,3.19,3.19,0,1.15-.89,1.34-.89,2.31,0,2,4.06,2.28,5.51,5.33.93,2-.45,2.5.35,5.15,1,3.12,3.1,3.13,4.09,6.39A7.53,7.53,0,0,1,382.05,442.79Z" transform="translate(-281.08 -415.08)"/><path class="cls-1" d="M306.58,513.64c-1.93,1.53-5.73.83-6.4-.18s-1.32-2.09-2.14-3.5c-4.84-8.39-12.7-24.44-11-29.88.94-3,2.27-3.81,3-5.48a6.17,6.17,0,0,0,.5-1.87c5.6-1.16,11.08.49,14.87-1.74a19.93,19.93,0,0,1-.44,2.24,33.42,33.42,0,0,1-2.69,7c-2.29,4.62-3.93,3.84-4.79,6.57-1.63,5.15,5.59,15,9,21.69a23.63,23.63,0,0,1,1.3,3A2.86,2.86,0,0,1,306.58,513.64Z" transform="translate(-281.08 -415.08)"/><path class="cls-2" d="M306.58,513.64c-1.93,1.53-5.73.83-6.4-.18s-1.32-2.09-2.14-3.5a15.32,15.32,0,0,0,8.48-1.44,23.63,23.63,0,0,1,1.3,3A2.86,2.86,0,0,1,306.58,513.64Z" transform="translate(-281.08 -415.08)"/><path class="cls-1" d="M382.05,442.79a5.82,5.82,0,0,1-1,1.67,10.11,10.11,0,0,1-3.65,2.59c-4.75,2.24-7.24,0-9.59,1.95a3,3,0,0,0-.6.66,16.89,16.89,0,0,1-8.45-6.74c-3.16-5-1.89-5.88-5.1-8.11a25.11,25.11,0,0,0-4-2.32h0c-4.35-3-8-6.22-8.15-9.4,1.26-1.59,4.29-2.65,7.29-2,3.29.68,4.22,2.25,6.21,2.74,2-1.06,2.12-2.26,5.5-3.56,2.67-1,3.51-.57,5.51-1.24,1.77-1.65,1.61-2.53,3.73-3.37,1.91.77,3.16,1.65,3.19,3.19,0,1.15-.89,1.34-.89,2.31,0,2,4.06,2.28,5.51,5.33.93,2-.45,2.5.35,5.15,1,3.12,3.1,3.13,4.09,6.39.06.2.15.51.23.89A7,7,0,0,1,382.05,442.79Z" transform="translate(-281.08 -415.08)"/><path class="cls-4" d="M299.88,454.13a11.48,11.48,0,0,1,5.95,10.62,27.73,27.73,0,0,0-2.32-5.68A26.9,26.9,0,0,0,299.88,454.13Z" transform="translate(-281.08 -415.08)"/><path class="cls-5" d="M333.33,461.14a11.66,11.66,0,0,0-.43,5,11.5,11.5,0,0,0,1,3.29" transform="translate(-281.08 -415.08)"/><path class="cls-4" d="M333.33,461.14a41.29,41.29,0,0,0,0,4.16c.08,1.36.31,2.67.54,4.12a6.93,6.93,0,0,1-1.53-4.06A7.07,7.07,0,0,1,333.33,461.14Z" transform="translate(-281.08 -415.08)"/><ellipse class="cls-4" cx="365.64" cy="433.52" rx="1.92" ry="3.32" transform="translate(-383.68 -301.54) rotate(-15.51)"/><path class="cls-4" d="M382.05,442.79a5.82,5.82,0,0,1-1,1.67c-3.52.67-7.82-2.35-7.58-2.83s5.09,1.84,5.88.63a1.33,1.33,0,0,0-.1-1.25c-.48-.82-1.52-.54-2-1.3-.39-.57-.36-1.55.05-1.83.7-.48,1.95,1.48,3.85,1.36a2.51,2.51,0,0,0,1.13-.36A7,7,0,0,1,382.05,442.79Z" transform="translate(-281.08 -415.08)"/><path class="cls-4" d="M343.26,423.43c-.58,1.53,3.18,4.16,4.06,4.78,2.8,2,6.15,3,6.37,2.62.08-.15-.34-.46-.8-.95-2.44-2.58-.95-6.17-3.11-6.77C346.94,422.33,346.2,422.63,343.26,423.43Z" transform="translate(-281.08 -415.08)"/><path class="cls-4" d="M367.44,419.62a2.18,2.18,0,0,1,1.15-.12,3.91,3.91,0,0,1,1.07.33,3.05,3.05,0,0,1,1.54,1.6,7.76,7.76,0,0,1-2-.7A11.36,11.36,0,0,1,367.44,419.62Z" transform="translate(-281.08 -415.08)"/><line class="cls-2" x1="93.5" y1="95.76" x2="96" y2="98.04"/><line class="cls-2" x1="67.22" y1="93.69" x2="69.44" y2="96.9"/><line class="cls-2" x1="24.28" y1="95.93" x2="25.5" y2="98.56"/><path class="cls-6" d="M301.51,441.89a11.11,11.11,0,0,0-1.73,1.42,9.06,9.06,0,0,0-1.34,1.65,4.28,4.28,0,0,0-.72,1.86,2.91,2.91,0,0,0,.59,2,2.41,2.41,0,0,1-1.37-2,3.92,3.92,0,0,1,.65-2.42,6.06,6.06,0,0,1,1.7-1.72A4.51,4.51,0,0,1,301.51,441.89Z" transform="translate(-281.08 -415.08)"/><path class="cls-6" d="M348.3,466.52A11.52,11.52,0,0,0,350,465a9.73,9.73,0,0,0,1.24-1.72,4.22,4.22,0,0,0,.62-1.9,2.85,2.85,0,0,0-.7-1.95,2.4,2.4,0,0,1,1.48,1.89,3.91,3.91,0,0,1-.52,2.45,6.19,6.19,0,0,1-1.6,1.81A4.56,4.56,0,0,1,348.3,466.52Z" transform="translate(-281.08 -415.08)"/><path class="cls-6" d="M354.31,451.15a11.89,11.89,0,0,0,1.83,1.28,9.3,9.3,0,0,0,1.95.85,4.39,4.39,0,0,0,2,.2,3,3,0,0,0,1.75-1.1,2.39,2.39,0,0,1-1.53,1.85,3.89,3.89,0,0,1-2.5,0,6,6,0,0,1-2.11-1.17A4.45,4.45,0,0,1,354.31,451.15Z" transform="translate(-281.08 -415.08)"/><path class="cls-6" d="M322.08,464.42a11,11,0,0,0,2.07.85,9.52,9.52,0,0,0,2.09.4,4.24,4.24,0,0,0,2-.25,2.88,2.88,0,0,0,1.46-1.46,2.36,2.36,0,0,1-1.08,2.14,3.85,3.85,0,0,1-2.43.57,5.89,5.89,0,0,1-2.32-.68A4.41,4.41,0,0,1,322.08,464.42Z" transform="translate(-281.08 -415.08)"/><path class="cls-6" d="M291.75,461.38a11.76,11.76,0,0,0-.47,2.19,10,10,0,0,0,0,2.12,4.43,4.43,0,0,0,.61,1.91,2.87,2.87,0,0,0,1.7,1.17,2.39,2.39,0,0,1-2.3-.67,3.9,3.9,0,0,1-1-2.3,6.06,6.06,0,0,1,.24-2.4A4.53,4.53,0,0,1,291.75,461.38Z" transform="translate(-281.08 -415.08)"/></svg>