<svg id="Calque_7" data-name="Calque 7" xmlns="http://www.w3.org/2000/svg" viewBox="0 0 64.55 117.52"><defs><style>.cls-1{fill:#fddbbe;}.cls-1,.cls-2,.cls-3{stroke:#1d1d1b;stroke-miterlimit:10;}.cls-2{fill:#ededed;}.cls-3{fill:#575756;}.cls-4{fill:#1d1d1b;}.cls-5{fill:#c3e0ee;}</style></defs><path class="cls-1" d="M459.24,516.89c-.61,2.79-1.31,4.74-2.07,5.37-2.34,1.94-7.35,2.11-8.81.26-.77-1-.4-2.41.14-4.32a28,28,0,0,0,1.18-5.38c.39-4.19.39-6.48-1.32-20.8A138.67,138.67,0,0,1,447.05,473c-.32-3.92,14.39-2.47,14.85,3.55C462.6,485.61,461.46,506.77,459.24,516.89Z" transform="translate(-430.51 -411.16)"/><path class="cls-2" d="M494.26,512.48a1.3,1.3,0,0,1-.29.76c-2.55,3.12-8.67,3.42-9,1-.42-3.55,1-8.59-.13-20.39-.16-1.71-1.15-11.8-4.88-16.1a1.28,1.28,0,0,0-1.05-.39,1,1,0,0,1-.84-.37,1.38,1.38,0,0,0-2-.05,4.35,4.35,0,0,1-2.83,1.53,1.34,1.34,0,0,0-1.32,1.44,1.42,1.42,0,0,1-.39,1.1,1.34,1.34,0,0,0-.3.77c-.39,4.09-1.24,8.53-1.84,15.08-.36,3.76-1.87,13.88-4.92,28.21a1.42,1.42,0,0,1-.39.72c-3.48,3.24-11.84,3.32-10.88-.14,2.16-7.75,5.29-29.12,6.46-39.47a1.47,1.47,0,0,0-.6-1.29.61.61,0,0,1-.23-.34,1.23,1.23,0,0,0-1.48-1.2,6.94,6.94,0,0,1-2.89.12c-5.4.72-11.58-7.5-11.36-13.42a1.38,1.38,0,0,0-.21-.79c-3.4-5.5,2.43-14.72,5.1-21.07a1.33,1.33,0,0,0,0-1.12,39.84,39.84,0,0,1-3.08-7.1c-.11-.33-.21-.68-.32-1.05-1.17-4-.68-4.53-.92-5.38a1.27,1.27,0,0,0-.49-.67c-3.32-2.43-9.78-4.24-11.66-9.21a5.1,5.1,0,0,1-.1-4.17,1.33,1.33,0,0,1,1.22-.77c2.37,0,6,1.82,13.38,2.55a1.33,1.33,0,0,0,.59-.07c4.54-1.51,7.31-2.34,11.52-1.57a1.44,1.44,0,0,0,.89-.13,28,28,0,0,0,5.24-3.56,19.57,19.57,0,0,1,5.56-3.83,1.37,1.37,0,0,1,1.57.41,4.32,4.32,0,0,1,1.21,2.95c.6,3.87-2.75,7.45-5.81,10.4a1.27,1.27,0,0,0-.41.76c-.62,4.11,2.28,5.62,1,10.41a15.91,15.91,0,0,1-.8,2.34h0c-.05.11-.09.22-.14.32a1.37,1.37,0,0,0,1.79,1.82l.94-.37a1.25,1.25,0,0,0,.73-.56c1.34-2.56,7.74-1.94,9.82,1.19a1.35,1.35,0,0,0,.76.56c4.54,1.37,8.73,9.16,7.15,16a1.32,1.32,0,0,0,.61,1.41c2.21,1.42,3.25,3.2,2.58,4.92a1.36,1.36,0,0,0,.12,1.24,12.37,12.37,0,0,1,2.1,5.61A278.93,278.93,0,0,1,494.26,512.48Z" transform="translate(-430.51 -411.16)"/><path class="cls-1" d="M467.41,437a15.91,15.91,0,0,1-.8,2.34h0a17.06,17.06,0,0,0-2.14,2.67c-1.67,2.46-3.87,5.26-5.9,5.48-3,.32-3.19,0-6.71-2.42s-5.13-3.66-6.94-5.15c-.11-.33-.21-.68-.32-1.05-1.35-4.66-.49-4.6-1.1-5.82-3.22-2.55-10-4.31-12-9.44a4.86,4.86,0,0,1,.32-4.88c2.39-.46,6,1.72,14.48,2.52,4.88-1.63,7.71-2.52,12.28-1.58a28.21,28.21,0,0,0,5.66-3.78c2.73-2.46,4.64-3.61,6.5-4.16,1.55,1.81,1.55,1.81,1.84,3.69.62,4-3,7.71-6.14,10.71C465.55,430.58,468.71,432,467.41,437Z" transform="translate(-430.51 -411.16)"/><path class="cls-3" d="M459.24,516.89c-.61,2.79-1.31,4.74-2.07,5.37-2.34,1.94-7.35,2.11-8.81.26-.77-1-.4-2.41.14-4.32C451.52,519.7,456.61,518,459.24,516.89Z" transform="translate(-430.51 -411.16)"/><path class="cls-1" d="M471.32,481.2c-.37,4.24-1.26,8.77-1.89,15.61-.33,3.47-1.64,12.33-4.22,24.9-.25,1.21-.52,2.45-.79,3.73-3.28,3.53-12.17,3.72-11.18.16.22-.79.45-1.72.69-2.77,2.16-9.54,4.9-28.67,5.87-37.63C464.1,485.62,468.26,483.1,471.32,481.2Z" transform="translate(-430.51 -411.16)"/><path class="cls-1" d="M494.45,508.5c-.06,1.55-.13,3-.22,4.4-2.37,3.43-8.92,3.85-9.22,1.29a16.08,16.08,0,0,1,0-2.81,98.24,98.24,0,0,0-.09-17.58c-.17-1.78-1.23-12.63-5.34-16.59,3.07-2.56,8.77-7.39,11-12a13.18,13.18,0,0,1,2.52,6.26A287.83,287.83,0,0,1,494.45,508.5Z" transform="translate(-430.51 -411.16)"/><path class="cls-3" d="M494.45,508.5c-.06,1.55-.13,3-.22,4.4-2.37,3.43-8.92,3.85-9.22,1.29a16.08,16.08,0,0,1,0-2.81A23.84,23.84,0,0,0,494.45,508.5Z" transform="translate(-430.51 -411.16)"/><path class="cls-3" d="M465.21,521.71c-.25,1.21-.52,2.45-.79,3.73-3.28,3.53-12.17,3.72-11.18.16.22-.79.45-1.72.69-2.77C459.09,523.54,462.68,522.9,465.21,521.71Z" transform="translate(-430.51 -411.16)"/><ellipse class="cls-4" cx="462.24" cy="430.71" rx="1.92" ry="3.32" transform="translate(-528.84 -271.89) rotate(-15.51)"/><ellipse class="cls-4" cx="448.97" cy="432.64" rx="1.92" ry="3.32" transform="translate(-529.84 -275.37) rotate(-15.51)"/><path class="cls-4" d="M454.9,440c0,.5.84.6,1.94,1.64a1.24,1.24,0,0,1,.43,1.33c-.27.77-3.06,0-3.15.38s1.8,1.4,3.89,1.16c1.84-.2,3.19-1.38,3.11-1.55s-1.5.32-2.11-.22c-.36-.32-.22-.78-.07-1.26.32-1,1.33-1,1.41-1.79,0-.53-.45-1.4-.78-1.17-.56.39-.74,1.18-1.56,1.33s-1.2-.53-2.1-.78C455.41,439,454.89,439.64,454.9,440Z" transform="translate(-430.51 -411.16)"/><path class="cls-4" d="M465.76,423.3c-.72-.45.7-3.92,1.71-5.83a12.21,12.21,0,0,1,2.68-3.42c.85.74.69,2.94-.27,5.17C468.78,421.74,466.4,423.7,465.76,423.3Z" transform="translate(-430.51 -411.16)"/><path class="cls-4" d="M433.13,421.12c-.08.9,1.94,3.43,2.48,4,2.28,2.42,6.05,5.24,6.84,4.51s-1.21-5-4.66-7.22C436,421.28,434.29,420.7,433.13,421.12Z" transform="translate(-430.51 -411.16)"/><path class="cls-4" d="M472.91,457.82a32.27,32.27,0,0,1,.14,3.81,12.68,12.68,0,0,1-.22,1.93c-.14.66-.34,1.26-.51,1.86a35.23,35.23,0,0,0-1,3.59l-.74,3.7a19.5,19.5,0,0,1,0-3.82,17.7,17.7,0,0,1,.78-3.76,21.6,21.6,0,0,0,.91-3.58C472.47,460.33,472.61,459.06,472.91,457.82Z" transform="translate(-430.51 -411.16)"/><path class="cls-4" d="M465,445.54a8.59,8.59,0,0,1,6.58,6.39,39.61,39.61,0,0,0-3.06-3.43A38.7,38.7,0,0,0,465,445.54Z" transform="translate(-430.51 -411.16)"/><path class="cls-4" d="M481.1,469.17a41.09,41.09,0,0,0,.28-7.33,42.84,42.84,0,0,0-1.15-7.25,16.38,16.38,0,0,1,.87,14.58Z" transform="translate(-430.51 -411.16)"/><line class="cls-3" x1="26.38" y1="113.79" x2="25.52" y2="116.97"/><line class="cls-3" x1="20.49" y1="109.19" x2="19.73" y2="112.43"/><line class="cls-3" x1="57.63" y1="101.01" x2="57.63" y2="104.68"/><path class="cls-3" d="M405.21,366.29" transform="translate(-430.51 -411.16)"/><path class="cls-5" d="M450,460.82a11.59,11.59,0,0,0-1.73,1.42,9.43,9.43,0,0,0-1.33,1.65,4.28,4.28,0,0,0-.72,1.86,2.91,2.91,0,0,0,.59,2,2.39,2.39,0,0,1-1.37-2,3.87,3.87,0,0,1,.65-2.41,6,6,0,0,1,1.7-1.73A4.47,4.47,0,0,1,450,460.82Z" transform="translate(-430.51 -411.16)"/><path class="cls-5" d="M480.51,448a12,12,0,0,0-1.93-1.14,10.13,10.13,0,0,0-2-.68,4.37,4.37,0,0,0-2,0,2.9,2.9,0,0,0-1.66,1.24,2.37,2.37,0,0,1,1.38-2,3.9,3.9,0,0,1,2.49-.22,5.87,5.87,0,0,1,2.2,1A4.52,4.52,0,0,1,480.51,448Z" transform="translate(-430.51 -411.16)"/><path class="cls-5" d="M474,472.11a11.92,11.92,0,0,0,2-.93,9.47,9.47,0,0,0,1.72-1.25,4.51,4.51,0,0,0,1.18-1.62,2.92,2.92,0,0,0-.07-2.07,2.39,2.39,0,0,1,.82,2.26,3.91,3.91,0,0,1-1.25,2.16,6,6,0,0,1-2.08,1.23A4.64,4.64,0,0,1,474,472.11Z" transform="translate(-430.51 -411.16)"/><path class="cls-5" d="M458,480.73a12.94,12.94,0,0,0,1.36-1.78,9.93,9.93,0,0,0,.92-1.92,4.39,4.39,0,0,0,.27-2,2.89,2.89,0,0,0-1-1.79,2.41,2.41,0,0,1,1.8,1.59,3.88,3.88,0,0,1-.09,2.5,5.83,5.83,0,0,1-1.25,2.07A4.5,4.5,0,0,1,458,480.73Z" transform="translate(-430.51 -411.16)"/></svg>