<svg id="Calque_5" data-name="Calque 5" xmlns="http://www.w3.org/2000/svg" viewBox="0 0 201.32 172.17"><defs><style>.cls-1{fill:#fddbbe;}.cls-1,.cls-2,.cls-3{stroke:#1d1d1b;stroke-miterlimit:10;}.cls-2,.cls-5{fill:#ededed;}.cls-3{fill:#575756;}.cls-4{fill:#1d1d1b;}.cls-6{fill:#c3e0ee;}</style></defs><path class="cls-1" d="M123.67,488.73c-.55,6.21,0,13.81.12,19.38,0,3.17-.09,5.68-.71,6.91-7,.54-11.46,1.35-9.24-4.41.12-.32.24-.63.34-.93,1.61-4.64,1.4-8.38,1.37-23,0-12.47-1.09-18.29-1.09-21.54,0-3.49,12.37-1.27,11.25,2.84C124.4,472.78,124.6,478.28,123.67,488.73Z" transform="translate(-51.34 -352.49)"/><path class="cls-1" d="M251.78,522.05c-.57,3.4-6.3,1.67-12.25,1.67.09-1.24.15-2.93.18-4.9.08-6.75-.24-16.78-1.28-23.21-2-12.31-9.88-16.91-10.83-20-1-3.33,15-5.09,15.09-.83.14,4.95,1.94,10.15,4.11,20.42,1.52,7.2,3.94,16.69,4.77,22.52A16.14,16.14,0,0,1,251.78,522.05Z" transform="translate(-51.34 -352.49)"/><path class="cls-2" d="M65.84,426c-5.81,15.64.2,20.09,6.63,23.3,9.27,12.3,32.22,13.42,40.18,11.94,1.42,2.69-1.13,5.29,2.08,8.34,2.28,2.16,6.41,4.46,9.67,3.22,4.18-1.58,2.74-7.39,6.06-10,6.57,2.54,22,16.5,41.5,14,19.78,5.4,29.37.76,38.09-10,8.78,3,9.95,12.11,20.28,12.51,5.53.21,11.88-1.58,12.5-4.55.79-3.71-7.93-6.62-7.58-11.94.21-3.09,4.45-1.6,6.07-7,9.7-8.43,10.84-20.35,10-26.34,4.23-9.77-9.51-30.52-13.83-30.89-14.15-12-30.72-13.66-35.44-8.53-11.26-.25-18.33,3.29-24.44,8.53-7.19-2.13-14.74-2.13-28.05-2.84-13.55-8.23-23.82-8.23-33.54-11.18-4.62-9.33-10.22-10.51-17.81-12.89-4.06-4.19-10.51.8-12.32,1.52-16.47,6.52-23.73,25.76-20.85,31.83C60,412.33,60,419.62,65.84,426Z" transform="translate(-51.34 -352.49)"/><path class="cls-1" d="M61.73,372.28c3.09-5.77,4.13-7.19,7.66-9.61.64-.44,5.33-3.67,9.67-1.48s7,5.52,7.77,7.38c1.37-.6,1.58-1.4,4-2.17,2.17-.69,3.62.46,5.68,1.46-.41,2.41-3.36,7.63-9.08,10.31-3.92,5.27-3.38,7.08-9,14.87-3.29,4.58-5.35,6.54-7.74,6.51s-3.23-2.7-5.89-1.86c-2.93.92-3.9,2.45-6.19,2.47-3.49,0-6.77-5.76-6.8-11.16S57.06,381,61.73,372.28Z" transform="translate(-51.34 -352.49)"/><path class="cls-3" d="M73.81,366c-1.18-2.85,4.82-8.73,10.94-11.31a23.12,23.12,0,0,1,15.65-.6,23.38,23.38,0,0,1,12.35,9.52c1.26,2,4.78,7.59,2.91,13.25-1.29,3.92-4.78,6.67-5.54,6.21s1.73-3.49,1.32-7.91a13.71,13.71,0,0,0-6.36-9.88,14.79,14.79,0,0,0-10.8-1.83c-4.18.86-7,4.08-11.32,5.28S74.8,368.41,73.81,366Z" transform="translate(-51.34 -352.49)"/><path class="cls-3" d="M123.08,515c-7,.54-11.46,1.35-9.24-4.41.12-.32.24-.63.34-.93,3.52.37,6.43-.47,9.61-1.57C123.83,511.28,123.7,513.79,123.08,515Z" transform="translate(-51.34 -352.49)"/><path class="cls-3" d="M251.78,522.05c-.57,3.4-6.3,1.67-12.25,1.67.09-1.24.15-2.93.18-4.9,4.71.16,8.22.33,11.86-1.12A16.14,16.14,0,0,1,251.78,522.05Z" transform="translate(-51.34 -352.49)"/><ellipse class="cls-4" cx="24.43" cy="22.66" rx="1.92" ry="3.32"/><path class="cls-4" d="M86.91,371.83c1.52-2.49,2.77-3.53,4.18-4a9.07,9.07,0,0,1,3.84.79c-.47,2-4.79,5.81-5.42,6.32-1.29,1.06-2.5,1.64-3,1.47A5.55,5.55,0,0,1,86.91,371.83Z" transform="translate(-51.34 -352.49)"/><path class="cls-4" d="M194.24,444.51a36.1,36.1,0,0,0,1.79,5.41,27.43,27.43,0,0,0,2.69,4.94,28,28,0,0,0,3.63,4.29,32.94,32.94,0,0,0,4.46,3.55,18.94,18.94,0,0,1-5-3,20.66,20.66,0,0,1-3.93-4.31A20.9,20.9,0,0,1,194.24,444.51Z" transform="translate(-51.34 -352.49)"/><path class="cls-5" d="M137.87,443.35c0,4.3-2,10.14-3.64,14.39" transform="translate(-51.34 -352.49)"/><path class="cls-4" d="M137.87,443.35a13.67,13.67,0,0,1,0,3.78,27.11,27.11,0,0,1-.75,3.69,30.17,30.17,0,0,1-2.89,6.92c.53-2.46,1.27-4.82,1.92-7.19A68,68,0,0,0,137.87,443.35Z" transform="translate(-51.34 -352.49)"/><path class="cls-4" d="M56.4,387.85c.79-.39,2.08-.65,2.46-.13s-.63,2.18-2,2.21c-.86,0-1.26-.51-2.59,4-.13.48-.89.92-.89-2.29C53.42,388.9,56.28,387.9,56.4,387.85Z" transform="translate(-51.34 -352.49)"/><path class="cls-6" d="M73.39,434.48a5,5,0,0,0-.22,2.8,7.64,7.64,0,0,0,1,2.58,3.4,3.4,0,0,0,1.93,1.6,2.36,2.36,0,0,0,2.11-.92l.79-.81,0,1.13a4.28,4.28,0,0,0,1,2.93,1.54,1.54,0,0,0,1.28.36,4.15,4.15,0,0,0,1.45-.59l.85-.5-.13.94a3.72,3.72,0,0,0,.36,2.26,3.87,3.87,0,0,0,1.72,1.6,7.8,7.8,0,0,0,5,.58,7.29,7.29,0,0,1-2.58.48,6.57,6.57,0,0,1-2.65-.5,4.64,4.64,0,0,1-2.16-1.75,4.31,4.31,0,0,1-.58-2.78l.71.45a4.57,4.57,0,0,1-1.83.77,2.52,2.52,0,0,1-2.06-.57,3.76,3.76,0,0,1-1-1.75,7.36,7.36,0,0,1-.29-1.9l.83.32a4.88,4.88,0,0,1-1.33.93,3.09,3.09,0,0,1-.82.21,3.61,3.61,0,0,1-.87-.06,4.08,4.08,0,0,1-2.29-2.11,6.91,6.91,0,0,1-.81-2.86A4.74,4.74,0,0,1,73.39,434.48Z" transform="translate(-51.34 -352.49)"/><path class="cls-6" d="M95.69,441.39a4.89,4.89,0,0,0,1.89,2.06,7.5,7.5,0,0,0,2.57,1,3.4,3.4,0,0,0,2.48-.32,2.37,2.37,0,0,0,.77-2.18l-.06-1.13.86.74a4.32,4.32,0,0,0,2.85,1.24,1.56,1.56,0,0,0,1.13-.69,4.25,4.25,0,0,0,.56-1.47l.2-1,.61.75a3.64,3.64,0,0,0,1.9,1.26,3.86,3.86,0,0,0,2.34-.17,7.78,7.78,0,0,0,3.8-3.25,7.31,7.31,0,0,1-1.4,2.22,6.72,6.72,0,0,1-2.16,1.6,4.79,4.79,0,0,1-2.76.4,4.39,4.39,0,0,1-2.43-1.47l.81-.22a4.66,4.66,0,0,1-.68,1.87,2.54,2.54,0,0,1-1.82,1.13,3.76,3.76,0,0,1-2-.42,7.42,7.42,0,0,1-1.59-1.08l.79-.4a4.71,4.71,0,0,1-.22,1.61,3,3,0,0,1-.4.75,3.9,3.9,0,0,1-.63.59,4.1,4.1,0,0,1-3.11.25,7.09,7.09,0,0,1-2.65-1.35A4.68,4.68,0,0,1,95.69,441.39Z" transform="translate(-51.34 -352.49)"/><path class="cls-6" d="M79.46,406.62a5,5,0,0,0-2.63,1,7.85,7.85,0,0,0-1.93,2,3.4,3.4,0,0,0-.65,2.42A2.37,2.37,0,0,0,76,413.52l1.06.38-1,.5a4.32,4.32,0,0,0-2.23,2.16,1.5,1.5,0,0,0,.21,1.31A4.23,4.23,0,0,0,75.13,419l.81.56-.92.27a3.74,3.74,0,0,0-1.9,1.27,4,4,0,0,0-.74,2.24A7.83,7.83,0,0,0,73.93,428a7.08,7.08,0,0,1-1.51-2.15,6.44,6.44,0,0,1-.65-2.61,4.64,4.64,0,0,1,.69-2.69,4.31,4.31,0,0,1,2.28-1.69l-.1.83a4.55,4.55,0,0,1-1.47-1.34,2.5,2.5,0,0,1-.34-2.11A3.7,3.7,0,0,1,74,414.6a7,7,0,0,1,1.61-1.06l.06.89a4.85,4.85,0,0,1-1.4-.82,2.89,2.89,0,0,1-.54-.66,3.44,3.44,0,0,1-.3-.81,4,4,0,0,1,1-3,7.12,7.12,0,0,1,2.26-1.94A4.72,4.72,0,0,1,79.46,406.62Z" transform="translate(-51.34 -352.49)"/><path class="cls-6" d="M233.12,417.16a5,5,0,0,0,1-2.61,7.72,7.72,0,0,0-.2-2.76,3.43,3.43,0,0,0-1.39-2.09,2.39,2.39,0,0,0-2.29.27l-1,.55.29-1.09a4.35,4.35,0,0,0-.15-3.1,1.53,1.53,0,0,0-1.12-.71,4.08,4.08,0,0,0-1.57.14l-1,.24.4-.87a3.69,3.69,0,0,0,.3-2.26,4,4,0,0,0-1.19-2,7.82,7.82,0,0,0-4.6-2,7.09,7.09,0,0,1,2.62.28,6.52,6.52,0,0,1,2.38,1.23,4.61,4.61,0,0,1,1.57,2.3,4.43,4.43,0,0,1-.23,2.83l-.56-.63a4.45,4.45,0,0,1,2-.22,2.51,2.51,0,0,1,1.82,1.14,3.73,3.73,0,0,1,.5,2,7.11,7.11,0,0,1-.27,1.91l-.7-.55a4.65,4.65,0,0,1,1.54-.5,2.71,2.71,0,0,1,.85,0,4.67,4.67,0,0,1,.81.31,4.07,4.07,0,0,1,1.59,2.68,7.07,7.07,0,0,1,0,3A4.74,4.74,0,0,1,233.12,417.16Z" transform="translate(-51.34 -352.49)"/><path class="cls-6" d="M213.7,446.07a4.94,4.94,0,0,0-1.5,2.37,7.55,7.55,0,0,0-.32,2.74,3.47,3.47,0,0,0,1,2.32,2.4,2.4,0,0,0,2.3.17l1.07-.35-.49,1a4.31,4.31,0,0,0-.44,3.07,1.5,1.5,0,0,0,1,.91,4,4,0,0,0,1.56.16l1-.05-.56.77a3.68,3.68,0,0,0-.73,2.17,4,4,0,0,0,.78,2.22,7.81,7.81,0,0,0,4.13,2.82,7.05,7.05,0,0,1-2.51-.78,6.43,6.43,0,0,1-2.11-1.67,4.65,4.65,0,0,1-1.1-2.55,4.37,4.37,0,0,1,.78-2.73l.42.72a4.65,4.65,0,0,1-2-.16,2.52,2.52,0,0,1-1.56-1.47,3.87,3.87,0,0,1-.12-2,7.47,7.47,0,0,1,.63-1.81l.59.66a4.79,4.79,0,0,1-1.61.21,3.11,3.11,0,0,1-.83-.19,4,4,0,0,1-.74-.46,4,4,0,0,1-1-2.93,7,7,0,0,1,.6-2.91A4.71,4.71,0,0,1,213.7,446.07Z" transform="translate(-51.34 -352.49)"/><path class="cls-6" d="M169,465.12a4.94,4.94,0,0,0,1.93,2,7.73,7.73,0,0,0,2.58,1,3.39,3.39,0,0,0,2.48-.38,2.34,2.34,0,0,0,.73-2.18l-.08-1.13.87.72a4.26,4.26,0,0,0,2.87,1.18,1.53,1.53,0,0,0,1.12-.71,4.27,4.27,0,0,0,.53-1.48l.19-1,.62.73a3.68,3.68,0,0,0,1.92,1.23,3.87,3.87,0,0,0,2.34-.22,7.78,7.78,0,0,0,3.74-3.33,7.25,7.25,0,0,1-1.36,2.26,6.62,6.62,0,0,1-2.14,1.63,4.58,4.58,0,0,1-2.74.46,4.46,4.46,0,0,1-2.46-1.42l.81-.24a4.73,4.73,0,0,1-.64,1.88,2.55,2.55,0,0,1-1.81,1.17,3.82,3.82,0,0,1-2-.39,7.2,7.2,0,0,1-1.61-1.05l.79-.4a4.73,4.73,0,0,1-.19,1.61,3,3,0,0,1-.39.76,3.21,3.21,0,0,1-.62.6,4.08,4.08,0,0,1-3.1.31,7,7,0,0,1-2.67-1.3A4.67,4.67,0,0,1,169,465.12Z" transform="translate(-51.34 -352.49)"/><path class="cls-6" d="M134.71,413.36a5,5,0,0,0,1-2.6,7.73,7.73,0,0,0-.19-2.76,3.42,3.42,0,0,0-1.37-2.1,2.36,2.36,0,0,0-2.29.25l-1,.55.29-1.1a4.31,4.31,0,0,0-.12-3.1,1.52,1.52,0,0,0-1.12-.71,4,4,0,0,0-1.56.13l-1,.23.4-.87a3.62,3.62,0,0,0,.32-2.26,4,4,0,0,0-1.17-2,7.77,7.77,0,0,0-4.58-2,7,7,0,0,1,2.61.29,6.59,6.59,0,0,1,2.38,1.26,4.68,4.68,0,0,1,1.55,2.31,4.4,4.4,0,0,1-.26,2.82l-.55-.63a4.45,4.45,0,0,1,2-.2,2.5,2.5,0,0,1,1.81,1.15,3.88,3.88,0,0,1,.49,2,7,7,0,0,1-.29,1.9l-.69-.55a4.63,4.63,0,0,1,1.54-.49,3,3,0,0,1,.85,0,3.1,3.1,0,0,1,2.38,3,7.12,7.12,0,0,1-.07,3A4.7,4.7,0,0,1,134.71,413.36Z" transform="translate(-51.34 -352.49)"/><path class="cls-6" d="M156.25,429.8a4.86,4.86,0,0,0,1.44,2.4,7.46,7.46,0,0,0,2.3,1.53,3.43,3.43,0,0,0,2.5.18,2.34,2.34,0,0,0,1.19-2l.17-1.12.69.9a4.33,4.33,0,0,0,2.54,1.78,1.53,1.53,0,0,0,1.25-.45,4.2,4.2,0,0,0,.84-1.32l.4-.9.44.84a3.68,3.68,0,0,0,1.61,1.63,3.91,3.91,0,0,0,2.33.3,7.72,7.72,0,0,0,4.38-2.42,7.18,7.18,0,0,1-1.83,1.9,6.41,6.41,0,0,1-2.44,1.12,4.62,4.62,0,0,1-2.77-.16,4.39,4.39,0,0,1-2.09-1.92l.84-.06a4.6,4.6,0,0,1-1,1.7,2.52,2.52,0,0,1-2,.73,3.79,3.79,0,0,1-1.86-.81,7.28,7.28,0,0,1-1.34-1.38l.86-.22a4.65,4.65,0,0,1-.55,1.52,2.79,2.79,0,0,1-.54.66,3.48,3.48,0,0,1-.74.45,4,4,0,0,1-3.09-.39,7,7,0,0,1-2.32-1.85A4.69,4.69,0,0,1,156.25,429.8Z" transform="translate(-51.34 -352.49)"/><path class="cls-4" d="M78.46,361.23a10.81,10.81,0,0,0,2.28,2c.81.57,1.72,1,2.59,1.77a5.6,5.6,0,0,1-3.16-.94,4.36,4.36,0,0,1-1.2-1.22A2.85,2.85,0,0,1,78.46,361.23Z" transform="translate(-51.34 -352.49)"/><path class="cls-4" d="M82.88,357.67a11,11,0,0,0,1.76,2.47c.66.73,1.44,1.4,2.13,2.3a5.4,5.4,0,0,1-2.86-1.63,4.36,4.36,0,0,1-.9-1.45A2.89,2.89,0,0,1,82.88,357.67Z" transform="translate(-51.34 -352.49)"/><path class="cls-4" d="M88.63,356.21A11.21,11.21,0,0,0,89.81,359c.49.87,1.1,1.69,1.58,2.72A5.51,5.51,0,0,1,89,359.5a4.34,4.34,0,0,1-.56-1.62A3,3,0,0,1,88.63,356.21Z" transform="translate(-51.34 -352.49)"/><path class="cls-4" d="M94.83,355a11.14,11.14,0,0,0,.13,3c.15,1,.44,2,.52,3.1A5.52,5.52,0,0,1,94,358.24a4.48,4.48,0,0,1,0-1.71A2.88,2.88,0,0,1,94.83,355Z" transform="translate(-51.34 -352.49)"/><path class="cls-4" d="M101,356a11.21,11.21,0,0,0-.83,2.92c-.16,1-.2,2-.47,3.1a5.5,5.5,0,0,1-.52-3.25,4.45,4.45,0,0,1,.58-1.61A2.89,2.89,0,0,1,101,356Z" transform="translate(-51.34 -352.49)"/><path class="cls-4" d="M105.59,358.42a10.89,10.89,0,0,0-.92,2.28,13.68,13.68,0,0,1-.88,2.41,4.23,4.23,0,0,1-.08-2.7,3.55,3.55,0,0,1,.68-1.25A2.17,2.17,0,0,1,105.59,358.42Z" transform="translate(-51.34 -352.49)"/><path class="cls-4" d="M109.54,361.72c-.39.24-.76.4-1.09.57a3.46,3.46,0,0,0-.8.59,8.42,8.42,0,0,1-1.81,1.57,4,4,0,0,1,.38-1.22,3.74,3.74,0,0,1,.74-1.07,2.31,2.31,0,0,1,1.27-.62A2.65,2.65,0,0,1,109.54,361.72Z" transform="translate(-51.34 -352.49)"/><path class="cls-4" d="M111.63,364.45c-.65.39-1.09.65-1.57,1a7.54,7.54,0,0,1-1.71.9,2.6,2.6,0,0,1,1.17-1.74A2,2,0,0,1,111.63,364.45Z" transform="translate(-51.34 -352.49)"/><path class="cls-4" d="M113.93,368.05c-.78.19-1.33.33-1.93.53a9.67,9.67,0,0,1-2,.5,2.86,2.86,0,0,1,1.71-1.45A2.21,2.21,0,0,1,113.93,368.05Z" transform="translate(-51.34 -352.49)"/><path class="cls-4" d="M115.26,372l-1.61.13A4.88,4.88,0,0,1,112,372a2.17,2.17,0,0,1,1.63-.87,2,2,0,0,1,1,.18A1.33,1.33,0,0,1,115.26,372Z" transform="translate(-51.34 -352.49)"/><path class="cls-4" d="M114.81,377.13a8.38,8.38,0,0,1-1.21-.11,2.47,2.47,0,0,1-1.17-.6,1.51,1.51,0,0,1,1.39-.38,1.57,1.57,0,0,1,.67.36A.94.94,0,0,1,114.81,377.13Z" transform="translate(-51.34 -352.49)"/></svg>