<svg id="Calque_2" data-name="Calque 2" xmlns="http://www.w3.org/2000/svg" viewBox="0 0 146.78 135.36"><defs><style>.cls-1{fill:#fddbbe;}.cls-1,.cls-2,.cls-4{stroke:#1d1d1b;stroke-miterlimit:10;}.cls-2{fill:#ededed;}.cls-3{fill:#1d1d1b;}.cls-4{fill:#575756;}.cls-5{fill:#c3e0ee;}</style></defs><path class="cls-1" d="M102.81,106.53c-.26,2.2,2.53,10.7,2.93,13.26a15,15,0,0,0,1.85,4.93c1.81,3.55,1.31,5.78,2,12,.64,5.63,1.49,13.24,2.93,13.4,3.51.41,3.55-32,6.32-49C119.81,95.23,103.28,102.67,102.81,106.53Z" transform="translate(-48.58 -23.71)"/><path class="cls-1" d="M120.76,118.41c-1,6.79-1.39,13.86-2.29,17.62a86.93,86.93,0,0,0-1.87,15.48,44.75,44.75,0,0,0,0,5c-6,4.54-8.5.16-8.74-1,0-.23.51-2.29,1.22-5.14,1.08-4.36,2.52-10.56,2.69-14.79.1-2.65.86-17.36.78-20.36-.18-6.86.32-9,.73-9.48,1.79-2.2,6.65-1.41,8.27-.3S122.06,109.17,120.76,118.41Z" transform="translate(-48.58 -23.71)"/><path class="cls-1" d="M167.19,103.09c-.87,1.92-2.68,7.53-3.21,8.93-2.29,6-4.41,11.72-6.87,16.56a41.68,41.68,0,0,1-3.69,6.12c-8.4,2.65-12.26-.95-10.69-3,.78-1.05,1.72-2.16,2.73-3.36,3.83-4.53,8.75-10.43,10.83-20.21a25.18,25.18,0,0,0,.77-6.63c-.22-5.82-2.69-8.39-1.24-10.63,1.15-1.77,4.16-2.45,6.17-1.6C166,90.93,169.72,97.49,167.19,103.09Z" transform="translate(-48.58 -23.71)"/><path class="cls-1" d="M190.41,107.27c-1.36,14-1.6,21.07-3.11,29-.32,1.73-.71,3.5-1.18,5.39-7,4.5-10.59.48-9.67-2,.38-1,.69-1.88,1-2.77a95,95,0,0,0,2.64-11.4c1.05-5.43,3.73-14.31.19-21.5-1.6-3.25-3.64-5.16-2.83-7.52s4.29-4.2,6.93-3.52c3.58.91,5.17,5,5.76,7.72A21.94,21.94,0,0,1,190.41,107.27Z" transform="translate(-48.58 -23.71)"/><path class="cls-2" d="M77.85,43.68A31.08,31.08,0,0,0,63.51,69c-2.12,3.87-2.12,10.6,7.17,22,1.21,14.63,3.56,16.12,7,15.52,5.25,4.43,15.74,12,22.83,9,4.18-1.78,5-5.6,8.47-5.48,4.31.14,5,6,9,6.52,5.17.71,6.93-8.76,16.82-14.87,4.57-.3,11.28-2.1,20.08-4.82,4.68,3.29,13.76,5.56,17,2.61.67-.62,1.55-1.93,2.21-1.7s.11,2.42.92,3.52c1.6,2.2,10.23,1.68,14.47-3,6.59-7.26,4.84-18.74,2.48-36.64,2.36-2.44,1.53-5.13,2.35-8.22,2.75-10.39-5.23-20.06-14.87-22.82-8.54-6.5-16.74-8.49-26.6-4-21.94-.91-25.58,0-40.17,9.52-6.72-.67-14.31-2.36-24.12,3.78C83,38.77,79.85,39.67,77.85,43.68Z" transform="translate(-48.58 -23.71)"/><path class="cls-1" d="M49.08,62.18c0-2,6-5.94,17.14-6.77,9.75-.72,10.94-5.79,14.85-5.92,5-.16,8.34,4.68,15.19,4.11,7.32-.61,13.67,1.85,14.3,3.93.56,1.86-3.35,6.12-7.51,6.79s-5.91-1.95-8-.89c-1.54.76.1,6.06-2.5,13-1.68,4.5-3.46,3.16-5.91,9.26-1.15,2.86-1.3,4.42-3.07,5.88-.22.19-1.74,2.82-6.54,1.58-4.42-1.15-5.47-4.39-6.3-7.13-.42-1.38.52-2.79.37-4.58a17.85,17.85,0,0,0-1.12-4.12c-.49-1.49-.55-2.48-1-6.07-.29-2.19-2.53-3.49-3.12-6.1-.41-1.86-2.82.94-6,.92C55.09,66.07,49.11,64.31,49.08,62.18Z" transform="translate(-48.58 -23.71)"/><ellipse class="cls-3" cx="38.74" cy="43.1" rx="1.59" ry="2.75"/><ellipse class="cls-3" cx="23.31" cy="43.1" rx="1.59" ry="2.75"/><path class="cls-3" d="M72.64,84.22c-.07.11,1.08,2.39,2.26,2.63,1.68.35,1.17,1.65,1.27,2.49s0,1.1-.11,1.17c-.57.46-2.24-.82-2.3-.73a5,5,0,0,0,2.41,1.68,7,7,0,0,0,5.66-.61c0-.1-3.71,1.43-4.76.11a2.35,2.35,0,0,1-.34-1.74c0-.77.07-1.71,1.58-1.75,2.13-.06,4.87-2.84,4.65-3.18s-2.86,1.46-5.89,1.4C75.05,85.66,72.76,84,72.64,84.22Z" transform="translate(-48.58 -23.71)"/><path class="cls-3" d="M93.72,59.63c-.24-1.64,3.17-3,5.49-3.64,3.8-1.13,6.67.56,8.8,2,1.25.86-3.94,5.19-5.89,4.82C96.31,61.7,94,61.89,93.72,59.63Z" transform="translate(-48.58 -23.71)"/><path class="cls-3" d="M59.1,57.8c1.61-.46,6.34-.74,7.32,1.5.56,1.28-2.61,4.65-3.86,4.87-6.73,1.18-11.21-1-11.44-2.07C51.35,60.53,54.21,59.2,59.1,57.8Z" transform="translate(-48.58 -23.71)"/><path class="cls-3" d="M130.9,84.38a11.36,11.36,0,0,1,2.89,3.05,12.54,12.54,0,0,1,1.68,3.92,11.83,11.83,0,0,1-1,8.26,21,21,0,0,0,.48-4.06,16.09,16.09,0,0,0-.44-4A18.38,18.38,0,0,0,130.9,84.38Z" transform="translate(-48.58 -23.71)"/><path class="cls-3" d="M169.65,75.21a17,17,0,0,0-.78,2.75l-.71,2.78c-.48,1.85-1,3.7-1.6,5.51a5,5,0,0,0-.12,2.58,6.07,6.07,0,0,0,1.16,2.38,17.47,17.47,0,0,0,4.27,3.67A12.84,12.84,0,0,1,167,91.71a6.36,6.36,0,0,1-1.48-2.65,5.93,5.93,0,0,1,.08-3.1c.59-1.83,1.18-3.64,1.82-5.45.31-.9.64-1.8,1-2.7l.56-1.33A4.6,4.6,0,0,1,169.65,75.21Z" transform="translate(-48.58 -23.71)"/><path class="cls-3" d="M103.68,84.82a32.08,32.08,0,0,1-.93,6.81,36.78,36.78,0,0,1-2.25,6.53,37.46,37.46,0,0,1-3.44,6c-.66.94-1.37,1.85-2.1,2.73s-1.54,1.7-2.37,2.49c.66-.94,1.36-1.83,2-2.79s1.27-1.88,1.85-2.85a60,60,0,0,0,3.17-6A56.75,56.75,0,0,0,102,91.43,66.57,66.57,0,0,0,103.68,84.82Z" transform="translate(-48.58 -23.71)"/><path class="cls-3" d="M86.67,44.29a13.49,13.49,0,0,1,6.42,1.31,16,16,0,0,1,5.27,3.87c-1.94-1-3.76-2.09-5.69-3A44.59,44.59,0,0,0,86.67,44.29Z" transform="translate(-48.58 -23.71)"/><path class="cls-4" d="M116.59,156.55c-6,4.54-8.5.16-8.74-1,0-.23.51-2.29,1.22-5.14a11.55,11.55,0,0,0,7.53,1.08A44.75,44.75,0,0,0,116.59,156.55Z" transform="translate(-48.58 -23.71)"/><path class="cls-4" d="M157.11,128.58a41.68,41.68,0,0,1-3.69,6.12c-8.4,2.65-12.26-.95-10.69-3,.78-1.05,1.72-2.16,2.73-3.36C148.48,130.05,152.27,130.26,157.11,128.58Z" transform="translate(-48.58 -23.71)"/><path class="cls-4" d="M187.3,136.28c-.32,1.73-.71,3.5-1.18,5.39-7,4.5-10.59.48-9.67-2,.38-1,.69-1.88,1-2.77C180.17,137.87,183.41,137.75,187.3,136.28Z" transform="translate(-48.58 -23.71)"/><path class="cls-4" d="M111.89,153.41l-1.07,5.16" transform="translate(-48.58 -23.71)"/><line class="cls-4" x1="97.54" y1="106.93" x2="94.77" y2="110"/><line class="cls-4" x1="131.54" y1="115.17" x2="130.57" y2="119.44"/><path class="cls-5" d="M179.51,61.43a5,5,0,0,0,2-2,7.3,7.3,0,0,0,.92-2.6,3.36,3.36,0,0,0-.43-2.47,2.37,2.37,0,0,0-2.2-.68l-1.13.11.71-.89a4.31,4.31,0,0,0,1.11-2.9,1.54,1.54,0,0,0-.74-1.09,4,4,0,0,0-1.49-.5l-1-.17.71-.63a3.77,3.77,0,0,0,1.19-1.95,3.9,3.9,0,0,0-.28-2.34,7.78,7.78,0,0,0-3.41-3.66A7.13,7.13,0,0,1,177.75,41a6.49,6.49,0,0,1,1.69,2.09,4.75,4.75,0,0,1,.52,2.74,4.43,4.43,0,0,1-1.36,2.49l-.26-.8a4.54,4.54,0,0,1,1.9.6,2.5,2.5,0,0,1,1.2,1.77,3.75,3.75,0,0,1-.34,2,7,7,0,0,1-1,1.63l-.42-.77a4.45,4.45,0,0,1,1.61.15,2.73,2.73,0,0,1,.77.37,3.25,3.25,0,0,1,.62.61,4.07,4.07,0,0,1,.38,3.09,7.16,7.16,0,0,1-1.24,2.7A4.72,4.72,0,0,1,179.51,61.43Z" transform="translate(-48.58 -23.71)"/><path class="cls-5" d="M175.18,76.76A5,5,0,0,0,173.46,79a7.5,7.5,0,0,0-.6,2.7,3.38,3.38,0,0,0,.72,2.4,2.38,2.38,0,0,0,2.27.4l1.11-.24-.59,1a4.29,4.29,0,0,0-.76,3,1.52,1.52,0,0,0,.87,1,4.14,4.14,0,0,0,1.54.31l1,0-.63.72a3.69,3.69,0,0,0-1,2.08,4,4,0,0,0,.56,2.28,7.72,7.72,0,0,0,3.82,3.22,7.14,7.14,0,0,1-2.42-1A6.52,6.52,0,0,1,177.45,95a4.66,4.66,0,0,1-.84-2.65,4.47,4.47,0,0,1,1-2.64l.35.77a4.54,4.54,0,0,1-1.95-.37,2.5,2.5,0,0,1-1.41-1.61,3.79,3.79,0,0,1,.09-2,7.48,7.48,0,0,1,.81-1.74l.52.72a4.63,4.63,0,0,1-1.62,0,3,3,0,0,1-.81-.27,3.84,3.84,0,0,1-.69-.53,4,4,0,0,1-.74-3,7,7,0,0,1,.89-2.84A4.74,4.74,0,0,1,175.18,76.76Z" transform="translate(-48.58 -23.71)"/><path class="cls-5" d="M112.93,107.74a5,5,0,0,0,2.8.06,7.58,7.58,0,0,0,2.52-1.14,3.42,3.42,0,0,0,1.48-2,2.39,2.39,0,0,0-1-2.06l-.86-.74,1.13-.1a4.3,4.3,0,0,0,2.86-1.21,1.5,1.5,0,0,0,.28-1.29,4.37,4.37,0,0,0-.67-1.42l-.56-.82,1,.08a3.73,3.73,0,0,0,2.23-.49,3.89,3.89,0,0,0,1.49-1.82,7.73,7.73,0,0,0,.28-5,7,7,0,0,1,.64,2.55,6.61,6.61,0,0,1-.35,2.67,4.63,4.63,0,0,1-1.61,2.26,4.47,4.47,0,0,1-2.74.75l.4-.74a4.58,4.58,0,0,1,.88,1.78,2.5,2.5,0,0,1-.45,2.09,3.71,3.71,0,0,1-1.68,1.15,7,7,0,0,1-1.88.4l.27-.84a4.5,4.5,0,0,1,1,1.27,3,3,0,0,1,.27.81,3.08,3.08,0,0,1-2,3.28,7.32,7.32,0,0,1-2.81,1A4.7,4.7,0,0,1,112.93,107.74Z" transform="translate(-48.58 -23.71)"/><path class="cls-5" d="M144.24,49.67a5,5,0,0,0,0-2.8,7.78,7.78,0,0,0-1.16-2.51,3.45,3.45,0,0,0-2-1.46A2.38,2.38,0,0,0,139,44l-.73.86-.12-1.12a4.27,4.27,0,0,0-1.23-2.85,1.53,1.53,0,0,0-1.3-.27,4.39,4.39,0,0,0-1.41.69l-.81.56.07-.95a3.75,3.75,0,0,0-.52-2.23,4,4,0,0,0-1.83-1.47,7.76,7.76,0,0,0-5-.23,7.17,7.17,0,0,1,2.55-.66,6.58,6.58,0,0,1,2.67.31,4.71,4.71,0,0,1,2.28,1.6,4.37,4.37,0,0,1,.77,2.73l-.74-.39a4.65,4.65,0,0,1,1.77-.91,2.52,2.52,0,0,1,2.1.43,3.73,3.73,0,0,1,1.17,1.67,7.3,7.3,0,0,1,.42,1.88l-.85-.26a4.49,4.49,0,0,1,1.26-1,3,3,0,0,1,.81-.28,3.54,3.54,0,0,1,.86,0A4,4,0,0,1,143.64,44a7,7,0,0,1,1,2.8A4.78,4.78,0,0,1,144.24,49.67Z" transform="translate(-48.58 -23.71)"/><path class="cls-5" d="M108.07,82.31a5,5,0,0,0,2.74-.58A7.57,7.57,0,0,0,113,80.05a3.46,3.46,0,0,0,1-2.31A2.39,2.39,0,0,0,112.51,76l-1-.52,1.07-.36a4.31,4.31,0,0,0,2.51-1.82,1.55,1.55,0,0,0,0-1.33,4.12,4.12,0,0,0-1-1.23l-.72-.67.94-.14a3.63,3.63,0,0,0,2.06-1,3.89,3.89,0,0,0,1-2.11,7.71,7.71,0,0,0-.87-4.92,6.93,6.93,0,0,1,1.2,2.34,6.32,6.32,0,0,1,.27,2.67,4.56,4.56,0,0,1-1,2.57,4.43,4.43,0,0,1-2.5,1.36l.22-.82A4.66,4.66,0,0,1,116,71.54a2.5,2.5,0,0,1,0,2.14,3.79,3.79,0,0,1-1.38,1.5,7.46,7.46,0,0,1-1.74.82l.07-.88a4.79,4.79,0,0,1,1.26,1,3.18,3.18,0,0,1,.45.73,3.58,3.58,0,0,1,.18.85,4.08,4.08,0,0,1-1.36,2.8A7.09,7.09,0,0,1,111,82.09,4.74,4.74,0,0,1,108.07,82.31Z" transform="translate(-48.58 -23.71)"/></svg>