<svg id="Calque_3" data-name="Calque 3" xmlns="http://www.w3.org/2000/svg" viewBox="0 0 94.59 133.93"><defs><style>.cls-1{fill:#fddbbe;}.cls-1,.cls-2,.cls-3{stroke:#1d1d1b;stroke-miterlimit:10;}.cls-2{fill:#575756;}.cls-3,.cls-5{fill:#ededed;}.cls-4{fill:#1d1d1b;}.cls-6{fill:#c3e0ee;}</style></defs><path class="cls-1" d="M277.25,153.57a11.62,11.62,0,0,1-1.3,3.93c-3.28,3.36-6.51,1.24-5.71-.92a18.91,18.91,0,0,0,.84-3.9,77.94,77.94,0,0,0,.1-15c-1.18-14.57-10.59-32.19-6.28-35.52,2.23-1.73,8.33-.48,10,3.14,2,4.34,1.54,8.23,2.18,17.62C277.68,132.09,278.62,146.07,277.25,153.57Z" transform="translate(-238.77 -27.24)"/><path class="cls-1" d="M287.38,132.71c-1.67,10.64-1.8,15.58-.65,20.33.17.65.35,1.3.56,2,1.35,4.26-1.42,7.71-6.38,4.26a40.69,40.69,0,0,1-.58-5.78c-.52-9.57-.14-26.21,1.33-30.09,1.62-4.27,4.54-13.2,5.72-15.55,1.91-3.82,12.23-2.08,11.17.93C296.19,115.5,289.51,119.09,287.38,132.71Z" transform="translate(-238.77 -27.24)"/><path class="cls-2" d="M277.25,153.57a11.62,11.62,0,0,1-1.3,3.93c-3.28,3.36-6.51,1.24-5.71-.92a18.91,18.91,0,0,0,.84-3.9C272.54,153.52,274.42,153.89,277.25,153.57Z" transform="translate(-238.77 -27.24)"/><path class="cls-2" d="M280.91,159.26a40.69,40.69,0,0,1-.58-5.78,14.15,14.15,0,0,0,6.4-.44c.17.65.35,1.3.56,2C288.64,159.26,285.87,162.71,280.91,159.26Z" transform="translate(-238.77 -27.24)"/><line class="cls-2" x1="45.67" y1="129.2" x2="46.52" y2="133.35"/><line class="cls-2" x1="34.07" y1="128.29" x2="32.86" y2="131.58"/><path class="cls-1" d="M302,128c-.82,1.47-5.49,1.31-6.06-.7a34.79,34.79,0,0,1-.78-3.47,42.59,42.59,0,0,1-.26-12.54c.2-1.89,4.24-1.3,5.57-.08,2.12,1.94-1.14,5.77.78,11.92.09.29.22.68.34,1.12C302,125.54,302.42,127.28,302,128Z" transform="translate(-238.77 -27.24)"/><path class="cls-2" d="M302,128c-.82,1.47-5.49,1.31-6.06-.7a34.79,34.79,0,0,1-.78-3.47,26.37,26.37,0,0,0,6.43.42C302,125.54,302.42,127.28,302,128Z" transform="translate(-238.77 -27.24)"/><line class="cls-2" x1="60.86" y1="98.76" x2="61.92" y2="101.56"/><path class="cls-1" d="M260.51,111c-2.12,1.94,1.14,5.77-.78,11.92-.09.29-.22.68-.34,1.12-.39,1.32-.79,3.06-.41,3.75.82,1.47,5.49,1.31,6.06-.7a34.79,34.79,0,0,0,.78-3.47,42.59,42.59,0,0,0,.26-12.54" transform="translate(-238.77 -27.24)"/><path class="cls-2" d="M259,127.76c.82,1.47,5.49,1.31,6.06-.7a34.79,34.79,0,0,0,.78-3.47,26.37,26.37,0,0,1-6.43.42C259,125.33,258.6,127.07,259,127.76Z" transform="translate(-238.77 -27.24)"/><line class="cls-2" x1="22.61" y1="98.55" x2="21.56" y2="101.35"/><path class="cls-3" d="M249.16,49c-4.43,4.47-11.53,15.18-9.31,28-1.47,7.3-.42,9.65,6.74,15.8,1.19,7.74,1.19,12.87,11.45,17.56,3.9,4.77,6.35,6.82,8.48,6.32,2.66-.64,3.84-4.22,5.92-5.53,3.23.66,3.87,2,6.91,1.58,3.83-.57,5.2-5.34,6.6-5.88-.47,3.36-.87,7.19,5.24,10.42,3.7,2,10.46-.27,14-4.34,2.45-2.83,3.31-5.06,5.13-7.7,3.06-2,5.11-3.28,6.71-3.35,9.79-.45,14.37-19.46,12.62-22.89,3.3-5.89,8-25.52-8.88-35.32-8.61-17.52-26.18-17.52-31.37-14.21C266.42,24.59,251.35,43.07,249.16,49Z" transform="translate(-238.77 -27.24)"/><path class="cls-1" d="M272.31,31.91c5.21-.58,5-2.22,8.87-2.51,6.61-.49,7.89,4.16,15.08,3.85,3.5-.15,4.31-1.31,8.37-1,1.4.1,6.48.41,7.54,2.84a10,10,0,0,1-7.37,6.7c-3.37.58-5.69-1.31-7.76-1.39-1.31,1.42-1.13,3.29-2.12,9.6-1.37,8.76-.4,9.72-1.84,12.22a12.73,12.73,0,0,1-10.89,5.87A13,13,0,0,1,271,61.55c-.73-1.39-.94-4.4-1.34-10.38-.43-6.36-.64-9-1.14-10.77-2.12.18-3.68,1.32-7.24.72-4.15-.69-7.56-3.71-8.37-5.53.26-2.32,6.66-3.54,9.88-3.85C267.15,31.33,268,32.39,272.31,31.91Z" transform="translate(-238.77 -27.24)"/><ellipse class="cls-4" cx="51.98" cy="15.83" rx="1.59" ry="2.75"/><ellipse class="cls-4" cx="35.86" cy="15.83" rx="1.59" ry="2.75"/><path class="cls-4" d="M277.85,54.16c-.43.54-.37,2.6.67,3.22s1.83-.41,2.66.16c1,.72,1.12,3.62,0,4.06-1.9.73-4.12-.19-4.39.35s2.82,2.17,6.08,2.21c3,0,6.16-1.66,6.07-2s-3,.19-4.26-.27c-1.39-.52-1.25-3.52-.14-4.28s2.31.49,3.32-.27a2.35,2.35,0,0,0,.35-3.06c-1.92-1.75-2.1,1.14-5.17,1.08C279.7,55.26,279.51,52.06,277.85,54.16Z" transform="translate(-238.77 -27.24)"/><path class="cls-4" d="M296.09,36c-.76.52.63,1.79.81,1.92,7,5.13,12.43.05,13.36-2-2.56-2.44-5-2.39-7.94-2A13.11,13.11,0,0,0,296.09,36Z" transform="translate(-238.77 -27.24)"/><path class="cls-4" d="M255,35.41a16.64,16.64,0,0,1,6.88-2c2.67-.27,7.65.5,8.47,2.26A8,8,0,0,1,266.37,39C260.72,41.33,255.79,37.14,255,35.41Z" transform="translate(-238.77 -27.24)"/><path class="cls-5" d="M249.19,61.88a47.82,47.82,0,0,0-2.46,22.4" transform="translate(-238.77 -27.24)"/><path class="cls-4" d="M249.19,61.88A71.06,71.06,0,0,0,247.12,73a103.38,103.38,0,0,0-.39,11.3,36.94,36.94,0,0,1-.6-11.4A32.28,32.28,0,0,1,249.19,61.88Z" transform="translate(-238.77 -27.24)"/><path class="cls-5" d="M316.81,65a76.2,76.2,0,0,1-1.91,23.91" transform="translate(-238.77 -27.24)"/><path class="cls-4" d="M316.81,65a49.26,49.26,0,0,1,.49,12.07,47.35,47.35,0,0,1-2.4,11.84c.56-4,1.1-7.94,1.4-11.92S316.71,69.05,316.81,65Z" transform="translate(-238.77 -27.24)"/><path class="cls-6" d="M299.46,86.71a5,5,0,0,0-2.74.58A7.57,7.57,0,0,0,294.53,89a3.46,3.46,0,0,0-1,2.31A2.39,2.39,0,0,0,295,93.05l1,.52-1.07.36a4.28,4.28,0,0,0-2.51,1.83,1.49,1.49,0,0,0,0,1.32,4,4,0,0,0,1,1.23l.72.67-1,.14a3.7,3.7,0,0,0-2,1,3.89,3.89,0,0,0-1.05,2.11,7.71,7.71,0,0,0,.87,4.92,6.93,6.93,0,0,1-1.2-2.34,6.49,6.49,0,0,1-.28-2.67,4.64,4.64,0,0,1,1.06-2.57,4.36,4.36,0,0,1,2.5-1.35l-.22.81a4.47,4.47,0,0,1-1.26-1.54,2.5,2.5,0,0,1-.05-2.14,3.72,3.72,0,0,1,1.38-1.5,7.46,7.46,0,0,1,1.74-.82l-.07.88a4.6,4.6,0,0,1-1.26-1,2.87,2.87,0,0,1-.45-.73,3.48,3.48,0,0,1-.18-.85,4,4,0,0,1,1.36-2.79,7.12,7.12,0,0,1,2.51-1.6A4.74,4.74,0,0,1,299.46,86.71Z" transform="translate(-238.77 -27.24)"/><path class="cls-6" d="M264.7,111a4.91,4.91,0,0,0,2.6-1,7.68,7.68,0,0,0,1.88-2,3.44,3.44,0,0,0,.58-2.44A2.37,2.37,0,0,0,268,104l-1.07-.35,1-.53a4.35,4.35,0,0,0,2.18-2.22,1.53,1.53,0,0,0-.25-1.3,3.86,3.86,0,0,0-1.17-1l-.82-.54.91-.3a3.66,3.66,0,0,0,1.86-1.31,3.91,3.91,0,0,0,.68-2.26,7.77,7.77,0,0,0-1.68-4.71,7,7,0,0,1,1.58,2.11,6.53,6.53,0,0,1,.71,2.59,4.59,4.59,0,0,1-.61,2.71,4.4,4.4,0,0,1-2.24,1.75l.08-.84a4.66,4.66,0,0,1,1.51,1.3,2.58,2.58,0,0,1,.4,2.11,3.83,3.83,0,0,1-1.11,1.71,7.35,7.35,0,0,1-1.58,1.1l-.08-.89a4.75,4.75,0,0,1,1.42.79c.23.14.37.43.56.64a3.71,3.71,0,0,1,.32.8,4.06,4.06,0,0,1-.88,3,7.12,7.12,0,0,1-2.21,2A4.69,4.69,0,0,1,264.7,111Z" transform="translate(-238.77 -27.24)"/><path class="cls-6" d="M321.09,63.57a4.87,4.87,0,0,0,1.47-2.38,7.52,7.52,0,0,0,.29-2.74,3.39,3.39,0,0,0-1-2.31,2.38,2.38,0,0,0-2.3-.15l-1.07.36.48-1a4.29,4.29,0,0,0,.41-3.07,1.48,1.48,0,0,0-1-.9,4.18,4.18,0,0,0-1.56-.14l-1,.06.55-.78a3.68,3.68,0,0,0,.71-2.17,4,4,0,0,0-.8-2.22,7.79,7.79,0,0,0-4.16-2.77,7.11,7.11,0,0,1,2.52.75,6.38,6.38,0,0,1,2.12,1.65,4.62,4.62,0,0,1,1.13,2.54,4.41,4.41,0,0,1-.75,2.74l-.43-.72a4.65,4.65,0,0,1,2,.14,2.55,2.55,0,0,1,1.58,1.45,3.77,3.77,0,0,1,.13,2,6.73,6.73,0,0,1-.61,1.82l-.59-.66a4.49,4.49,0,0,1,1.6-.22,3.16,3.16,0,0,1,.84.18,3.75,3.75,0,0,1,.74.45,4.1,4.1,0,0,1,1.08,2.92,7.25,7.25,0,0,1-.58,2.92A4.67,4.67,0,0,1,321.09,63.57Z" transform="translate(-238.77 -27.24)"/><path class="cls-6" d="M266.3,58.61a4.93,4.93,0,0,0-2.78-.35,7.44,7.44,0,0,0-2.62.87A3.43,3.43,0,0,0,259.21,61a2.38,2.38,0,0,0,.82,2.16l.77.82h-1.13a4.32,4.32,0,0,0-3,.89,1.55,1.55,0,0,0-.42,1.26,4.11,4.11,0,0,0,.52,1.48l.46.88-.93-.18a3.67,3.67,0,0,0-2.27.25,3.88,3.88,0,0,0-1.68,1.65,7.8,7.8,0,0,0-.81,4.94,7.4,7.4,0,0,1-.36-2.61,6.66,6.66,0,0,1,.62-2.61,4.64,4.64,0,0,1,1.85-2.08,4.4,4.4,0,0,1,2.8-.46l-.48.7a4.61,4.61,0,0,1-.68-1.87,2.49,2.49,0,0,1,.66-2,3.8,3.8,0,0,1,1.8-1,7.26,7.26,0,0,1,1.91-.2l-.36.81a4.48,4.48,0,0,1-.86-1.37,2.51,2.51,0,0,1-.18-.83,3.61,3.61,0,0,1,.1-.86,4,4,0,0,1,2.21-2.19,7,7,0,0,1,2.9-.68A4.7,4.7,0,0,1,266.3,58.61Z" transform="translate(-238.77 -27.24)"/><path class="cls-6" d="M274.37,74.76a5,5,0,0,0,1.93,2,7.54,7.54,0,0,0,2.58,1,3.39,3.39,0,0,0,2.48-.37,2.37,2.37,0,0,0,.74-2.18L282,74.09l.87.72A4.26,4.26,0,0,0,285.76,76a1.5,1.5,0,0,0,1.11-.71,4,4,0,0,0,.54-1.48l.19-1,.61.73a3.68,3.68,0,0,0,1.92,1.23,4,4,0,0,0,2.35-.21,7.71,7.71,0,0,0,3.74-3.32,7.05,7.05,0,0,1-1.37,2.25,6.48,6.48,0,0,1-2.13,1.63,4.67,4.67,0,0,1-2.75.45,4.4,4.4,0,0,1-2.45-1.42l.8-.24a4.48,4.48,0,0,1-.64,1.88A2.54,2.54,0,0,1,285.87,77a3.82,3.82,0,0,1-2-.39,7.56,7.56,0,0,1-1.61-1l.79-.41a4.68,4.68,0,0,1-.19,1.61,3,3,0,0,1-.39.76,3.9,3.9,0,0,1-.62.6,4,4,0,0,1-3.1.3,7.12,7.12,0,0,1-2.68-1.3A4.84,4.84,0,0,1,274.37,74.76Z" transform="translate(-238.77 -27.24)"/></svg>