<svg id="Calque_10" data-name="Calque 10" xmlns="http://www.w3.org/2000/svg" viewBox="0 0 198.9 123.03"><defs><style>.cls-1{fill:#fddbbe;}.cls-1,.cls-2,.cls-4{stroke:#1d1d1b;stroke-miterlimit:10;}.cls-2{fill:none;stroke-linecap:round;}.cls-3{fill:#1d1d1b;}.cls-4{fill:#575756;}</style></defs><path class="cls-1" d="M495.91,305.69q-1.64-1.59-3.16-3.38c-7.49-8.81-12.95-21.05-15.77-31.72h0a72.27,72.27,0,0,1-1.69-8.23c-1.41-10,18.35-16.2,17.29-13.19a59.86,59.86,0,0,0-2.17,6.72,53.08,53.08,0,0,0-1.27,9.8c-.89,17.92,7.89,29.16,14.33,36.72l2,2.3C507.64,307.28,496.75,306.51,495.91,305.69Z" transform="translate(-459.64 -191.02)"/><path class="cls-1" d="M657.47,291.5a.61.61,0,0,1,0,.14c-.12,2.47-3.65,3.26-6.87,3a10.91,10.91,0,0,1-3.77-.94c-3.89-1.95-3.87-6.68-6.48-7.6a31.88,31.88,0,0,1-8.65-4.21c-3.43-2.55-2.38-6.24-4.32-10.31-6.1-5.76-20.41-13.73-29.59-9.14-3.5,1.75-3.7,3.7-7.32,4.49-6.77,1.47-11.12-4.24-14.3-2.16-1.26,2.18-.95,4.25-2.49,12.3-1.23,6.4-2.27,6.32-2.66,9.64-1.22,10.39,2.67,15.94,6.69,21.62.54.77,1.08,1.54,1.62,2.33,1.38,2-6.08,2.85-9.15,1A10.45,10.45,0,0,1,566.3,307c-5.37-11.27-1.62-35.85-1.95-43.6-1.41-.81-4.28-.5-10,.17-13.32,1.57-17.51,4.28-23.28,5-17.61,2.17-28.54-8-38.41-14.13-.77.44-1.53.92-2.28,1.45A53.4,53.4,0,0,0,477,270.58h0a14.82,14.82,0,0,0-.75,1.46c-6.62,15.67-6.63,28-4.7,35.42a24.52,24.52,0,0,0,.88,2.77c1.11,2.86-5.55,4.86-10.31,1.72-.31-1.08-.58-2.18-.8-3.31-2.67-13.15-.14-29.09,1.8-39.4,2-10.48,10.46-10.67,12.13-18.48S473,239.83,472.57,225c-.25-8.23.74-13.46-.16-13.64-1.89-.38-6.81,22.36-9.48,21.95-1.41-.22-2.06-6.88-1.16-12.8,1.68-11.15,9.4-23.57,21.61-27.77,2.09-.72,6.08-1.81,16-.83,13.38,1.32,19.16,4.61,45.89,14,19.33,6.76,25.26,8.18,32.93,7.48,3.53-.32,5.73-.94,9.31-.17,8.24,1.78,11.34,8.27,20.11,19.29,13,16.3,23.34,20.39,32,25.66,3.32,2,6.45.27,10.26,2.77,4,2.62,5.3,7,7,12.64C659.13,281.35,657.47,286.52,657.47,291.5Z" transform="translate(-459.64 -191.02)"/><path class="cls-2" d="M645.88,273.44c-.55,3.65-5.21,8.2-9.86,6.2-1.67-3.54.91-8.18,1.55-9.86" transform="translate(-459.64 -191.02)"/><ellipse class="cls-3" cx="651.06" cy="276.42" rx="2.79" ry="1.58" transform="translate(-395.68 479.87) rotate(-56.9)"/><path class="cls-3" d="M657.46,291.64c-.12,2.47-3.65,3.26-6.87,3-.52-1.59-.33-3.56.06-3.69.75,2.41,1.39,2.81,2.91,2.75a1.9,1.9,0,0,0,1.58-1.42c.24-1.07-.92-1.82-.67-2.24S656.36,290.5,657.46,291.64Z" transform="translate(-459.64 -191.02)"/><path class="cls-4" d="M570.17,311.62A10.45,10.45,0,0,1,566.3,307a54,54,0,0,0,11.4,1.3c.54.77,1.08,1.54,1.62,2.33C580.7,312.65,573.24,313.48,570.17,311.62Z" transform="translate(-459.64 -191.02)"/><path class="cls-4" d="M495.91,305.69q-1.64-1.59-3.16-3.38c4.6.72,8.43,1,10.72.09l2,2.3C507.64,307.28,496.75,306.51,495.91,305.69Z" transform="translate(-459.64 -191.02)"/><path class="cls-4" d="M462.1,312c-.31-1.08-.58-2.18-.8-3.31,4.91.64,8.7.54,10.23-1.18a24.52,24.52,0,0,0,.88,2.77C473.52,313.1,466.86,315.1,462.1,312Z" transform="translate(-459.64 -191.02)"/><line class="cls-4" x1="116.46" y1="118.81" x2="118.12" y2="121.08"/><line class="cls-4" x1="43.3" y1="113.01" x2="45.12" y2="115.12"/><line class="cls-4" x1="8.66" y1="119.49" x2="9.66" y2="122.53"/><path class="cls-3" d="M494.3,251.61a34.81,34.81,0,0,1,3.19-3.12,41.23,41.23,0,0,1,3.59-2.67,35.5,35.5,0,0,1,8.06-3.9,36.62,36.62,0,0,1,8.77-1.83,44.5,44.5,0,0,1,4.47-.14,38.56,38.56,0,0,1,4.44.42,56.38,56.38,0,0,0-8.82.48,46.92,46.92,0,0,0-8.54,2,44.37,44.37,0,0,0-8,3.61A49.24,49.24,0,0,0,494.3,251.61Z" transform="translate(-459.64 -191.02)"/><path class="cls-3" d="M567.18,236.3a28,28,0,0,0-1.84,2.79,25.61,25.61,0,0,0-1.49,3,23.63,23.63,0,0,0-1.68,6.32,23.13,23.13,0,0,0,.16,6.54,26.82,26.82,0,0,0,2,6.33,18.06,18.06,0,0,1-1.64-2.95,22.26,22.26,0,0,1-1.08-3.23,19.42,19.42,0,0,1,1.58-13.34A19.56,19.56,0,0,1,567.18,236.3Z" transform="translate(-459.64 -191.02)"/><path class="cls-3" d="M603.54,258.25a15.25,15.25,0,0,1,3.4-1.25l3.46-.95h.12A21.93,21.93,0,0,1,620.69,259a32.32,32.32,0,0,1,4.41,2.91,25.07,25.07,0,0,1,2,1.7,15.47,15.47,0,0,1,1.81,1.9,35.9,35.9,0,0,0-4.16-3.13,40.08,40.08,0,0,0-4.49-2.58,29.61,29.61,0,0,0-4.76-1.92,20.42,20.42,0,0,0-5-.88h.12c-1.17.27-2.37.45-3.56.64l-1.76.28C604.71,258,604.13,258.11,603.54,258.25Z" transform="translate(-459.64 -191.02)"/><path class="cls-3" d="M509.54,210.25A33.82,33.82,0,0,1,504.89,232a77.25,77.25,0,0,0,3.18-10.68A76.45,76.45,0,0,0,509.54,210.25Z" transform="translate(-459.64 -191.02)"/></svg>