<svg id="Calque_4" data-name="Calque 4" xmlns="http://www.w3.org/2000/svg" viewBox="0 0 126 146.94"><defs><style>.cls-1{fill:#fddbbe;}.cls-1,.cls-2,.cls-4{stroke:#1d1d1b;stroke-miterlimit:10;}.cls-2{fill:#ededed;}.cls-3{fill:#1d1d1b;}.cls-4{fill:#575756;}.cls-5{fill:#c3e0ee;}</style></defs><path class="cls-1" d="M157.93,321.87c-.1-.78-.18-1.69-.28-2.73-.3-3.5-.64-8.51-1.56-15.41-1.4-10.64-2.15-13-2.66-15.22-.59-2.54,8.77-1.68,9.15,1.89.51,4.72-.59,6.9.22,15.47a96.19,96.19,0,0,0,1.6,11.18c.21,1.09.41,2.05.58,3.05C165.34,322.21,163.38,325.55,157.93,321.87Z" transform="translate(-59.53 -179.92)"/><path class="cls-1" d="M140.7,322.63c0,2.92-2.38,5.75-7,1.77-.1-.81-.2-1.83-.3-3-.33-4-.74-9.93-1.64-16.79a82.49,82.49,0,0,0-3.06-15.1c-.59-2.54,10.79,2,11.18,5.59a85.3,85.3,0,0,1,.74,11.48c0,6.19,0,10.39.08,13.5C140.68,321,140.69,321.85,140.7,322.63Z" transform="translate(-59.53 -179.92)"/><path class="cls-1" d="M115.83,310.72c-.29-.9-.59-2-.9-3.16-1.6-6.3-3.33-16-4.15-21.21-.63-4,11.67-4.44,11.86-.39.34,7.29.33,14.39.83,21.84.08,1.16.17,2.32.27,3.5C124.07,315,119.46,314.35,115.83,310.72Z" transform="translate(-59.53 -179.92)"/><path class="cls-1" d="M82.58,281.22c-1.43,8.43-3.42,16.66-4.83,23.71-.06.33-.13.65-.19,1-.68,3.44-2,5.77-7.26.46.09-.9.13-2.12.15-3.56.09-6.41-.36-17.07-.52-22.42C69.8,276,83.3,276.93,82.58,281.22Z" transform="translate(-59.53 -179.92)"/><path class="cls-2" d="M131.89,208c5.25-17.16,11.81-16,22.89-17,9.2-.83,22.9,3.84,19.8,17.37,2.58,3.83,2.58,9.56-.51,16.11,3.09,8.56,7.73,17.87,4.55,30.27.74,15.18-6.11,34-15,38.84-.71,4.3-7.93,4-9.64,2.41s-.2-6.18-2.06-9.48c-4.4.59-8.57,2.26-13.21-1-1.59,3,4.41,7.44,2.68,10.45s-9.68,1.55-10.71,1.34c-8.51-1.7-10.31-5.1-17.15-8-4.3.67-7.61,1.91-12.85.27-8.91-2.79-11.2-10.19-14.74-12.86-1.24,1.58-.89,6.52-4.28,8.84s-9.77-.23-13.13-2.68c-11.13-2.17-10.38-36-3.21-53.83.5-10.22,6.71-23.44,20.09-25.72,9.52-7.61,19.28-5.68,27.05-2.68C122.91,203.27,126.3,205.54,131.89,208Z" transform="translate(-59.53 -179.92)"/><path class="cls-1" d="M124.85,181.67c-.27,3.05,2,8.08,7.12,11.22,3.45,2.12,6,.84,8.06,2.64,1.42,3.9,0,6.77,2.06,14.61a27.92,27.92,0,0,0,6.55,11.61c.88,3.68,4.59,5,7.12,5.06,2,0,5-2,5.43-5.43,3.28-4.48,4.92-6.72,5.43-7.87,3.67-8.14,2.17-13.26,2.63-17,2.22-1.89,4.77,1,8.43-1.68,4.7-3.49,6.7-6.82,7.3-10.87-2.12-1.1-6.23-2.75-10.18-.57-3.4,1.87-5.33,4.53-8,5.45-4.29-.63-6.28-5.51-12.53-5.06-5.54.39-6.31,2.86-10.47,4.16-3.28-.73-3.76-3.56-8.26-6C131.76,179.78,128.25,180.17,124.85,181.67Z" transform="translate(-59.53 -179.92)"/><ellipse class="cls-3" cx="104.76" cy="19.45" rx="1.59" ry="2.75"/><ellipse class="cls-3" cx="86.4" cy="19.45" rx="1.59" ry="2.75"/><path class="cls-3" d="M148.87,209.22a24.67,24.67,0,0,1-.15,3.68,32.2,32.2,0,0,1-.5,3.63,7.69,7.69,0,0,1-.49-3.73A8.19,8.19,0,0,1,148.87,209.22Z" transform="translate(-59.53 -179.92)"/><path class="cls-3" d="M161.46,209.22a8.34,8.34,0,0,1,1.15,3.58,7.82,7.82,0,0,1-.49,3.73,32.28,32.28,0,0,1-.51-3.63A27.67,27.67,0,0,1,161.46,209.22Z" transform="translate(-59.53 -179.92)"/><path class="cls-3" d="M150.73,214.35c-.75.75.37,2.27,1.86,3.49a5,5,0,0,1,1.67,2c.34.66.81,1.24.51,2-.55,1.3-3.75-.59-3.9-.33s1.95,1.79,4.68,1.86a5,5,0,0,0,3.8-1.64c-.06-.22-3.44,1.27-3.58.23a4.13,4.13,0,0,1,.9-2.3,9.32,9.32,0,0,1,1.67-2.12c1.13-1.25,2.23-2.21,1.62-2.8-1.06-1-1.67,1.86-4.58,1.68C152.86,216.19,151.47,213.61,150.73,214.35Z" transform="translate(-59.53 -179.92)"/><path class="cls-3" d="M169.48,192.72c-.84-1.75,1.9-4.69,3.82-6.1,3.07-2.26,7.91-3,9.85-1.88-.05,2.78-2.61,5.89-6.48,8.62C174.36,195,170.27,194.37,169.48,192.72Z" transform="translate(-59.53 -179.92)"/><path class="cls-3" d="M127.28,182.86c-.26,1.95,1.8,5.88,4.86,8,1.71,1.2,5.59,3.37,6.68,1.88,1.42-2,.2-6.29-3-8.81A8.43,8.43,0,0,0,127.28,182.86Z" transform="translate(-59.53 -179.92)"/><path class="cls-3" d="M109.16,262.76a32.82,32.82,0,0,0,.12,6.19l.61,6.18c.2,2.06.39,4.14.51,6.2a10.83,10.83,0,0,0,.53,3,4.79,4.79,0,0,0,1.92,2.29,4.58,4.58,0,0,1-2.34-2.09,9.48,9.48,0,0,1-.87-3.08c-.28-2.07-.52-4.13-.74-6.2s-.37-4.14-.41-6.23A20.11,20.11,0,0,1,109.16,262.76Z" transform="translate(-59.53 -179.92)"/><path class="cls-3" d="M73.64,250.71a43.11,43.11,0,0,0,1,6.35,35.3,35.3,0,0,0,2.08,6,34.35,34.35,0,0,0,3.14,5.53,40.85,40.85,0,0,0,4.1,4.94,24.62,24.62,0,0,1-2.51-2.07,31.55,31.55,0,0,1-2.21-2.41,25.76,25.76,0,0,1-3.43-5.58,26.19,26.19,0,0,1-1.92-6.26,29.9,29.9,0,0,1-.36-3.25A25.31,25.31,0,0,1,73.64,250.71Z" transform="translate(-59.53 -179.92)"/><path class="cls-3" d="M133.76,217.87a21.77,21.77,0,0,0,1.67,3.39,20.45,20.45,0,0,0,2.17,3,19.73,19.73,0,0,0,2.69,2.56,17.65,17.65,0,0,0,3.1,2,19.3,19.3,0,0,0,7.07,2.06,21.23,21.23,0,0,0,3.74,0,21.79,21.79,0,0,0,3.73-.6,18,18,0,0,1-7.52,1.35,17.33,17.33,0,0,1-7.48-1.95,17.32,17.32,0,0,1-5.92-5A17.64,17.64,0,0,1,133.76,217.87Z" transform="translate(-59.53 -179.92)"/><path class="cls-4" d="M140.7,322.63c0,2.92-2.38,5.75-7,1.77-.1-.81-.2-1.83-.3-3a7.11,7.11,0,0,0,7.3-1.32C140.68,321,140.69,321.85,140.7,322.63Z" transform="translate(-59.53 -179.92)"/><path class="cls-4" d="M157.93,321.87c-.1-.78-.18-1.69-.28-2.73a6.79,6.79,0,0,0,6.75-2.09c.21,1.09.41,2.05.58,3.05C165.34,322.21,163.38,325.55,157.93,321.87Z" transform="translate(-59.53 -179.92)"/><path class="cls-4" d="M115.83,310.72c-.29-.9-.59-2-.9-3.16,3.85,1,6.63,1,8.54.24.08,1.16.17,2.32.27,3.5C124.07,315,119.46,314.35,115.83,310.72Z" transform="translate(-59.53 -179.92)"/><path class="cls-4" d="M77.75,304.93c-.06.33-.13.65-.19,1-.68,3.44-2,5.77-7.26.46.09-.9.13-2.12.15-3.56C72.71,304.72,75.53,305.53,77.75,304.93Z" transform="translate(-59.53 -179.92)"/><line class="cls-4" x1="102.75" y1="140.36" x2="104.02" y2="143.28"/><line class="cls-4" x1="78.3" y1="143.28" x2="79.05" y2="146.32"/><line class="cls-4" x1="61.66" y1="130.75" x2="62.92" y2="133.74"/><line class="cls-4" x1="15.72" y1="126.93" x2="15.12" y2="129.52"/><path class="cls-5" d="M111.6,216.53a5,5,0,0,0-2.74.59,7.71,7.71,0,0,0-2.19,1.68,3.42,3.42,0,0,0-1,2.3,2.38,2.38,0,0,0,1.48,1.77l1,.53-1.08.36a4.3,4.3,0,0,0-2.51,1.82,1.53,1.53,0,0,0,0,1.32,4,4,0,0,0,1,1.23l.72.67-.94.15a3.62,3.62,0,0,0-2.06,1,3.92,3.92,0,0,0-1,2.11,7.86,7.86,0,0,0,.87,4.93,7.22,7.22,0,0,1-1.2-2.34,6.52,6.52,0,0,1-.27-2.68,4.63,4.63,0,0,1,1.06-2.57A4.39,4.39,0,0,1,105.2,228l-.22.81a4.52,4.52,0,0,1-1.26-1.53,2.5,2.5,0,0,1,0-2.14,3.82,3.82,0,0,1,1.38-1.51,6.72,6.72,0,0,1,1.74-.81l-.07.88a4.53,4.53,0,0,1-1.27-1A2.81,2.81,0,0,1,105,222a3.93,3.93,0,0,1-.18-.84,4.07,4.07,0,0,1,1.37-2.8,7.08,7.08,0,0,1,2.51-1.6A4.78,4.78,0,0,1,111.6,216.53Z" transform="translate(-59.53 -179.92)"/><path class="cls-5" d="M89.27,252a5,5,0,0,0-1.06,2.6,7.67,7.67,0,0,0,.16,2.75,3.44,3.44,0,0,0,1.35,2.12,2.38,2.38,0,0,0,2.29-.23l1-.54-.3,1.09a4.29,4.29,0,0,0,.09,3.11,1.52,1.52,0,0,0,1.11.72,4,4,0,0,0,1.56-.11l1-.22-.41.86a3.67,3.67,0,0,0-.34,2.25,3.8,3.8,0,0,0,1.16,2.05,7.72,7.72,0,0,0,4.56,2.06,7.24,7.24,0,0,1-2.61-.33,6.49,6.49,0,0,1-2.37-1.27,4.73,4.73,0,0,1-1.53-2.33,4.34,4.34,0,0,1,.29-2.82l.54.64a4.6,4.6,0,0,1-2,.18,2.52,2.52,0,0,1-1.8-1.17,3.76,3.76,0,0,1-.47-2,7.47,7.47,0,0,1,.3-1.9l.7.55a4.52,4.52,0,0,1-1.55.48,2.72,2.72,0,0,1-.85,0,3.71,3.71,0,0,1-.8-.32,4.06,4.06,0,0,1-1.55-2.71,7.07,7.07,0,0,1,.09-3A4.76,4.76,0,0,1,89.27,252Z" transform="translate(-59.53 -179.92)"/><path class="cls-5" d="M100,207.69a5,5,0,0,0-2.38-1.49,7.75,7.75,0,0,0-2.74-.32,3.48,3.48,0,0,0-2.31,1,2.35,2.35,0,0,0-.17,2.3l.35,1.08-1-.49a4.31,4.31,0,0,0-3.07-.44,1.52,1.52,0,0,0-.91,1,4.25,4.25,0,0,0-.15,1.57l0,1-.77-.55a3.77,3.77,0,0,0-2.17-.73,4,4,0,0,0-2.22.79,7.82,7.82,0,0,0-2.81,4.14,7.36,7.36,0,0,1,.77-2.52,6.64,6.64,0,0,1,1.67-2.11,4.66,4.66,0,0,1,2.55-1.11,4.46,4.46,0,0,1,2.73.77l-.72.43a4.5,4.5,0,0,1,.16-2,2.52,2.52,0,0,1,1.46-1.57,3.83,3.83,0,0,1,2-.12,7.39,7.39,0,0,1,1.82.63l-.66.58a4.69,4.69,0,0,1-.21-1.6,2.7,2.7,0,0,1,.19-.83,3.48,3.48,0,0,1,.45-.74,4.06,4.06,0,0,1,2.93-1.06,7,7,0,0,1,2.91.6A4.77,4.77,0,0,1,100,207.69Z" transform="translate(-59.53 -179.92)"/><path class="cls-5" d="M117.08,265.68a5,5,0,0,0,.58,2.74,7.71,7.71,0,0,0,1.68,2.19,3.45,3.45,0,0,0,2.31,1,2.38,2.38,0,0,0,1.77-1.47l.52-1,.36,1.08a4.3,4.3,0,0,0,1.82,2.51,1.55,1.55,0,0,0,1.33,0,4.46,4.46,0,0,0,1.23-1l.67-.72.14.94a3.67,3.67,0,0,0,1,2.06,4,4,0,0,0,2.11,1,7.77,7.77,0,0,0,4.92-.86,7.12,7.12,0,0,1-2.34,1.2,6.49,6.49,0,0,1-2.67.27,4.7,4.7,0,0,1-2.58-1.06,4.44,4.44,0,0,1-1.35-2.5l.82.23a4.79,4.79,0,0,1-1.54,1.26,2.54,2.54,0,0,1-2.14,0,3.72,3.72,0,0,1-1.5-1.38,6.75,6.75,0,0,1-.82-1.74l.88.07a4.68,4.68,0,0,1-1,1.27,2.84,2.84,0,0,1-.73.44,3.6,3.6,0,0,1-.85.19,4.09,4.09,0,0,1-2.8-1.37,6.92,6.92,0,0,1-1.59-2.51A4.71,4.71,0,0,1,117.08,265.68Z" transform="translate(-59.53 -179.92)"/><path class="cls-5" d="M165.87,272.05a4.82,4.82,0,0,0,2.61-1,7.52,7.52,0,0,0,1.89-2,3.45,3.45,0,0,0,.6-2.44,2.39,2.39,0,0,0-1.75-1.5l-1.07-.36,1-.53a4.32,4.32,0,0,0,2.18-2.2,1.52,1.52,0,0,0-.24-1.31,4.23,4.23,0,0,0-1.16-1.05l-.82-.54.9-.3a3.65,3.65,0,0,0,1.88-1.31,3.86,3.86,0,0,0,.68-2.25,7.79,7.79,0,0,0-1.65-4.72,7,7,0,0,1,1.56,2.12,6.42,6.42,0,0,1,.71,2.59,4.68,4.68,0,0,1-.63,2.71,4.41,4.41,0,0,1-2.25,1.74l.09-.84a4.77,4.77,0,0,1,1.5,1.31,2.54,2.54,0,0,1,.39,2.11,3.68,3.68,0,0,1-1.12,1.7,7.35,7.35,0,0,1-1.58,1.1l-.08-.89a4.64,4.64,0,0,1,1.42.79,2.91,2.91,0,0,1,.55.65,3.26,3.26,0,0,1,.32.8,4,4,0,0,1-.89,3,7.16,7.16,0,0,1-2.22,2A4.72,4.72,0,0,1,165.87,272.05Z" transform="translate(-59.53 -179.92)"/><path class="cls-5" d="M146.87,234.76a5,5,0,0,0,1.55,2.33,7.64,7.64,0,0,0,2.37,1.41,3.37,3.37,0,0,0,2.51.06,2.37,2.37,0,0,0,1.1-2l.11-1.13.74.86a4.27,4.27,0,0,0,2.62,1.67,1.58,1.58,0,0,0,1.22-.51,4.16,4.16,0,0,0,.78-1.37l.36-.92.48.83a3.68,3.68,0,0,0,1.67,1.55,4,4,0,0,0,2.35.19,7.74,7.74,0,0,0,4.26-2.63,7.12,7.12,0,0,1-1.73,2,6.59,6.59,0,0,1-2.39,1.25,4.63,4.63,0,0,1-2.78,0,4.43,4.43,0,0,1-2.18-1.82l.84-.09a4.55,4.55,0,0,1-1,1.74,2.54,2.54,0,0,1-2,.83,3.74,3.74,0,0,1-1.91-.73,6.72,6.72,0,0,1-1.4-1.31l.84-.26a4.67,4.67,0,0,1-.46,1.55,3.07,3.07,0,0,1-.52.68,3.41,3.41,0,0,1-.71.48,4,4,0,0,1-3.11-.23,7.12,7.12,0,0,1-2.41-1.75A4.64,4.64,0,0,1,146.87,234.76Z" transform="translate(-59.53 -179.92)"/></svg>