<svg id="Calque_9" data-name="Calque 9" xmlns="http://www.w3.org/2000/svg" viewBox="0 0 169.7 134.71"><defs><style>.cls-1{fill:#fddbbe;}.cls-1,.cls-2,.cls-4{stroke:#1d1d1b;stroke-miterlimit:10;}.cls-2{fill:#ededed;}.cls-3{fill:#1d1d1b;}.cls-4{fill:#575756;}.cls-5{fill:#c3e0ee;}</style></defs><path class="cls-1" d="M465.74,156.66c3.33,6.12-3,4.42-8.41,4.16-.37-.33-.68-1.89-.93-4.09s-.42-4.94-.51-7.77c-.35-10.89,4.06-11.86,3.77-21.4-.2-6.46-3.19-10.73-1.66-14.63,2.36-6,11.89-6.94,14.41-4.66,4.55,4.15-8,25.39-7.74,37.91.08,4.64-.47,7.74,1,10.31Z" transform="translate(-362.24 -28.22)"/><path class="cls-1" d="M413.77,156.83c-1.13-1.3-2.25-2.67-3.34-4.07-6.36-8.09-11.9-17.11-13-20-1.28-3.53-1.34-21.51,2.89-27.71,4-5.9,17.81,1.56,18.62,7,.64,4.31-6,5.52-7.65,11.64-2.77,10.47,5.52,21.26,11.33,28.38,1.11,1.36,2.13,2.59,3,3.66C427.86,158.56,419.09,157.27,413.77,156.83Z" transform="translate(-362.24 -28.22)"/><path class="cls-1" d="M386.39,158.27c.78,3.12-6.65,6.09-10.2,2.55a30.1,30.1,0,0,1-2.12-4.42c-.79-2.42-1.43-6.5-1.65-15.31-.39-15.42,1-17.82,2.11-19.29,4.21-5.44,15-8.9,15.52-5.21.69,4.76-6.3,11.27-5.54,26,.41,8.17.6,10.21,1.39,13.6C386,156.86,386.2,157.52,386.39,158.27Z" transform="translate(-362.24 -28.22)"/><path class="cls-2" d="M479.72,45.31c12.06-9.31,16.81-12.52,25.44-14,10.28-1.79,13.22,35.61,5.16,46.56,2.92,11.08-8.42,32.2-17.74,31-4.65,5.32-13.18,4.17-17.85,2.27-1.44,1.78-.89,2.72-2.66,4.49-4.21,4.22-13.42,4.89-16.62.5-1.55-2.12.07-4.18-1.17-5.32-2.73,0-10.27,6.65-20.95,8.64-14.52,2.71-21.45-2.82-32.25-5.48-6.17,2.78-5,8-13,11.64-4.85,2.23-13.22,3.94-17.79,0-3.76-3.24-9.87-7.6-2.5-22.62-7.81-16.32-5.37-20.55-1-28.43,3.85-15,13.43-22.71,17.45-23.94,3.44-7.51,14.75-8.94,46.56-3.66,13.41-3.85,21.24-1.61,27.38,1.8C468,44.39,474.77,44,479.72,45.31Z" transform="translate(-362.24 -28.22)"/><path class="cls-1" d="M483.49,40.1c.5-3.16,3.25-5.52,6.87-6a6.79,6.79,0,0,1,4,.44c3.66-2.94,6-5.26,10.42-5.76,4.55-.52,8.82,1.55,12.42,5.1,2.6-1.22,3.32-.87,6.21-.45,4.1.61,7.2,3.38,8,5.1-1.11,2.16-5.66,3-9.09,3.11-3,.1-3.22.27-4.66.22a38.34,38.34,0,0,1,.22,11.75c-.25,2.46-.59,5.68-2.88,7.31-2.68,1.91-6.52.56-10-.66s-10.08-3.56-11.75-8.87c-1.32-4.17,1-8.14-.67-9.09-1.11-.63-2.31,1-4.88.67A5.87,5.87,0,0,1,483.49,40.1Z" transform="translate(-362.24 -28.22)"/><ellipse class="cls-3" cx="139.67" cy="13.42" rx="1.59" ry="2.75"/><ellipse class="cls-3" cx="152.59" cy="13.42" rx="1.59" ry="2.75"/><path class="cls-3" d="M510.11,51.91c-.42.38-.15,1.75.62,2.24s1.57-.17,2.21.34a1.73,1.73,0,0,1,.29,2.12c-1,1.31-5.23-1-5.49-.42s4.46,2.44,5.5,2.41c2.08-.05,3.17-1.65,3-2s-1.09.35-1.66-.13a1.45,1.45,0,0,1,0-2c.37-.29.78.07,1.2-.21a1.72,1.72,0,0,0,.13-2.33c-.5-.33-1,.45-2.33.59C511.7,52.81,510.62,51.45,510.11,51.91Z" transform="translate(-362.24 -28.22)"/><path class="cls-3" d="M493.77,38.61a3.31,3.31,0,0,0-2.49-2.16c-2-.35-4.59,1.51-5.41,3.07a3.39,3.39,0,0,0,2.91,2C491.23,41.27,493.27,40.23,493.77,38.61Z" transform="translate(-362.24 -28.22)"/><path class="cls-3" d="M518.38,39.11A8.14,8.14,0,0,1,520.5,36c3-1.76,7.69,1.16,8.52,2.28-.41,1.06-2.83,1.43-3.86,1.71C521.91,40.81,519.25,40.23,518.38,39.11Z" transform="translate(-362.24 -28.22)"/><path class="cls-4" d="M457.33,160.82c-.37-.33-.68-1.89-.93-4.09a17.82,17.82,0,0,0,9.34-.07C469.07,162.78,462.7,161.08,457.33,160.82Z" transform="translate(-362.24 -28.22)"/><path class="cls-4" d="M413.77,156.83c-1.13-1.3-2.25-2.67-3.34-4.07,5.12,1.33,9.22.87,12.23-.7,1.11,1.36,2.13,2.59,3,3.66C427.86,158.56,419.09,157.27,413.77,156.83Z" transform="translate(-362.24 -28.22)"/><path class="cls-4" d="M376.19,160.82a30.1,30.1,0,0,1-2.12-4.42c4.86,1.35,8.81,1.12,11.83-.16.14.62.3,1.28.49,2C387.17,161.39,379.74,164.36,376.19,160.82Z" transform="translate(-362.24 -28.22)"/><line class="cls-4" x1="102.4" y1="130.16" x2="103.54" y2="132.62"/><line class="cls-4" x1="59.51" y1="125.95" x2="62.22" y2="129.19"/><line class="cls-4" x1="19.61" y1="131.12" x2="20.51" y2="133.87"/><path class="cls-3" d="M453.48,92.13a29.94,29.94,0,0,0-.89,8.11,30.28,30.28,0,0,0,1.47,8,16,16,0,0,1-.58-16.14Z" transform="translate(-362.24 -28.22)"/><path class="cls-3" d="M408.45,92.76a22.29,22.29,0,0,1-1.29,8.35,19,19,0,0,1-4.48,7.16,47,47,0,0,0,3.54-7.5A76.1,76.1,0,0,0,408.45,92.76Z" transform="translate(-362.24 -28.22)"/><path class="cls-5" d="M484.67,98.83a4.93,4.93,0,0,0,2.69.79,7.62,7.62,0,0,0,2.73-.43,3.41,3.41,0,0,0,2-1.55,2.37,2.37,0,0,0-.45-2.26l-.63-.94,1.11.19a4.29,4.29,0,0,0,3.08-.4,1.56,1.56,0,0,0,.62-1.17,4.14,4.14,0,0,0-.28-1.55l-.31-.93.89.32a3.72,3.72,0,0,0,2.28.12,4,4,0,0,0,1.93-1.36,7.8,7.8,0,0,0,1.59-4.74,7.06,7.06,0,0,1-.07,2.63,6.58,6.58,0,0,1-1,2.48,4.62,4.62,0,0,1-2.16,1.75,4.39,4.39,0,0,1-2.84,0l.58-.61a4.5,4.5,0,0,1,.38,2,2.5,2.5,0,0,1-1,1.9,3.74,3.74,0,0,1-1.93.67,7.64,7.64,0,0,1-1.92-.11l.48-.75a4.84,4.84,0,0,1,.64,1.49,3.05,3.05,0,0,1,0,.86,4.13,4.13,0,0,1-.24.83,4,4,0,0,1-2.54,1.8,7.11,7.11,0,0,1-3,.21A4.78,4.78,0,0,1,484.67,98.83Z" transform="translate(-362.24 -28.22)"/><path class="cls-5" d="M456.62,96.69a4.9,4.9,0,0,0,.12,2.79,7.57,7.57,0,0,0,1.29,2.45,3.44,3.44,0,0,0,2.11,1.36,2.4,2.4,0,0,0,2-1.16l.68-.91.18,1.12a4.33,4.33,0,0,0,1.37,2.79,1.58,1.58,0,0,0,1.31.2,4.29,4.29,0,0,0,1.38-.76l.78-.6,0,1a3.77,3.77,0,0,0,.63,2.2,4,4,0,0,0,1.9,1.38,7.75,7.75,0,0,0,5,0,7.08,7.08,0,0,1-2.51.79,6.4,6.4,0,0,1-2.68-.18,4.58,4.58,0,0,1-2.36-1.47,4.4,4.4,0,0,1-.92-2.69l.77.35a4.48,4.48,0,0,1-1.73,1,2.54,2.54,0,0,1-2.12-.31,3.86,3.86,0,0,1-1.25-1.61,7.36,7.36,0,0,1-.51-1.86l.86.22a4.66,4.66,0,0,1-1.21,1.08,3.27,3.27,0,0,1-.79.32,4.13,4.13,0,0,1-.86,0,4,4,0,0,1-2.53-1.82,7.14,7.14,0,0,1-1.16-2.74A4.75,4.75,0,0,1,456.62,96.69Z" transform="translate(-362.24 -28.22)"/><path class="cls-5" d="M414.64,97.35a5,5,0,0,0-.48,2.76,7.74,7.74,0,0,0,.74,2.66,3.45,3.45,0,0,0,1.77,1.78,2.4,2.4,0,0,0,2.2-.71l.86-.73-.07,1.13a4.33,4.33,0,0,0,.75,3,1.52,1.52,0,0,0,1.24.47,4,4,0,0,0,1.5-.45l.9-.41-.23.92a3.69,3.69,0,0,0,.15,2.28,4,4,0,0,0,1.57,1.76,7.74,7.74,0,0,0,4.89,1,7.2,7.2,0,0,1-2.62.24,6.61,6.61,0,0,1-2.58-.75,4.65,4.65,0,0,1-2-1.94,4.39,4.39,0,0,1-.32-2.83l.67.51a4.61,4.61,0,0,1-1.9.6,2.5,2.5,0,0,1-2-.76,3.84,3.84,0,0,1-.88-1.84,7.32,7.32,0,0,1-.11-1.92l.8.4a4.63,4.63,0,0,1-1.41.79,2.6,2.6,0,0,1-.84.14,3.59,3.59,0,0,1-.86-.14,4.08,4.08,0,0,1-2.08-2.31,7.09,7.09,0,0,1-.54-2.93A4.82,4.82,0,0,1,414.64,97.35Z" transform="translate(-362.24 -28.22)"/><path class="cls-5" d="M376.51,110.92a5,5,0,0,0,2.39,1.45,7.58,7.58,0,0,0,2.75.29,3.45,3.45,0,0,0,2.3-1,2.4,2.4,0,0,0,.14-2.31l-.37-1.06,1,.47a4.31,4.31,0,0,0,3.08.4,1.53,1.53,0,0,0,.89-1,4,4,0,0,0,.13-1.56l-.06-1,.78.55a3.67,3.67,0,0,0,2.18.69,3.91,3.91,0,0,0,2.2-.81,7.82,7.82,0,0,0,2.76-4.18,7.36,7.36,0,0,1-.74,2.53,6.51,6.51,0,0,1-1.64,2.13,4.6,4.6,0,0,1-2.53,1.14,4.38,4.38,0,0,1-2.75-.73l.72-.44a4.62,4.62,0,0,1-.13,2,2.5,2.5,0,0,1-1.44,1.59,3.88,3.88,0,0,1-2,.15,7.48,7.48,0,0,1-1.82-.6l.66-.6a4.75,4.75,0,0,1,.22,1.61,2.73,2.73,0,0,1-.17.83,3.48,3.48,0,0,1-.45.74,4.08,4.08,0,0,1-2.91,1.1,7.08,7.08,0,0,1-2.92-.57A4.68,4.68,0,0,1,376.51,110.92Z" transform="translate(-362.24 -28.22)"/><path class="cls-5" d="M390.1,62a5,5,0,0,0-2.74.58,7.89,7.89,0,0,0-2.19,1.68,3.46,3.46,0,0,0-1,2.31,2.39,2.39,0,0,0,1.48,1.77l1,.52-1.07.36A4.28,4.28,0,0,0,383.08,71a1.53,1.53,0,0,0,0,1.32,4,4,0,0,0,1,1.23l.72.67-.94.14a3.7,3.7,0,0,0-2.06,1,3.89,3.89,0,0,0-1.05,2.11,7.78,7.78,0,0,0,.87,4.92,6.93,6.93,0,0,1-1.2-2.34,6.32,6.32,0,0,1-.27-2.67,4.63,4.63,0,0,1,1.05-2.57,4.36,4.36,0,0,1,2.5-1.35l-.22.81a4.52,4.52,0,0,1-1.26-1.53,2.49,2.49,0,0,1,0-2.15,3.7,3.7,0,0,1,1.37-1.5,7.46,7.46,0,0,1,1.74-.82l-.07.89a4.83,4.83,0,0,1-1.26-1,3.18,3.18,0,0,1-.45-.73,3.48,3.48,0,0,1-.18-.85,4,4,0,0,1,1.36-2.79,7.12,7.12,0,0,1,2.51-1.6A4.74,4.74,0,0,1,390.1,62Z" transform="translate(-362.24 -28.22)"/><path class="cls-5" d="M438.34,57.83a5,5,0,0,0-2.22-1.71,7.73,7.73,0,0,0-2.7-.57,3.45,3.45,0,0,0-2.39.75,2.39,2.39,0,0,0-.39,2.27l.26,1.11-1-.58a4.27,4.27,0,0,0-3-.73,1.54,1.54,0,0,0-1,.87,4.28,4.28,0,0,0-.29,1.55l-.05,1-.72-.62a3.66,3.66,0,0,0-2.08-.93,3.94,3.94,0,0,0-2.29.58,7.8,7.8,0,0,0-3.18,3.86,7.27,7.27,0,0,1,1-2.43,6.52,6.52,0,0,1,1.86-1.95,4.66,4.66,0,0,1,2.64-.87,4.41,4.41,0,0,1,2.65,1l-.76.35a4.52,4.52,0,0,1,.34-1.95,2.56,2.56,0,0,1,1.6-1.43,3.9,3.9,0,0,1,2,.07,7.52,7.52,0,0,1,1.75.8l-.71.52a4.4,4.4,0,0,1-.06-1.62,2.67,2.67,0,0,1,.27-.81,2.91,2.91,0,0,1,.52-.69,4,4,0,0,1,3-.78,7.07,7.07,0,0,1,2.85.87A4.67,4.67,0,0,1,438.34,57.83Z" transform="translate(-362.24 -28.22)"/><path class="cls-5" d="M471.62,56.54a5,5,0,0,0-1.6,2.3,7.56,7.56,0,0,0-.45,2.73,3.4,3.4,0,0,0,.85,2.35,2.38,2.38,0,0,0,2.29.29l1.09-.31-.53,1a4.23,4.23,0,0,0-.59,3,1.54,1.54,0,0,0,.92,1,4.28,4.28,0,0,0,1.55.23h1l-.59.75a3.7,3.7,0,0,0-.83,2.13,3.9,3.9,0,0,0,.68,2.25,7.8,7.8,0,0,0,4,3,7.24,7.24,0,0,1-2.48-.89,6.44,6.44,0,0,1-2-1.77,4.59,4.59,0,0,1-1-2.6,4.4,4.4,0,0,1,.9-2.69l.39.74a4.51,4.51,0,0,1-2-.25,2.53,2.53,0,0,1-1.49-1.54,3.83,3.83,0,0,1,0-2,7.52,7.52,0,0,1,.71-1.78l.56.69a4.55,4.55,0,0,1-1.61.13,2.78,2.78,0,0,1-.83-.23,3.45,3.45,0,0,1-.71-.49,4,4,0,0,1-.91-3,6.88,6.88,0,0,1,.74-2.89A4.68,4.68,0,0,1,471.62,56.54Z" transform="translate(-362.24 -28.22)"/></svg>