<svg id="Calque_8" data-name="Calque 8" xmlns="http://www.w3.org/2000/svg" viewBox="0 0 190.18 145.25"><defs><style>.cls-1{fill:#fddbbe;}.cls-1,.cls-2,.cls-3,.cls-5{stroke:#1d1d1b;stroke-miterlimit:10;}.cls-2{fill:#575756;}.cls-3{fill:#ededed;}.cls-4{fill:#1d1d1b;}.cls-5{fill:none;}.cls-6{fill:#c3e0ee;}</style></defs><path class="cls-1" d="M392.26,265.4c-1,13.56-3.7,30.84-8.39,43-.65,1.7-1.35,3.29-2.08,4.76-4.14,1.69-9.8,1.66-11-.5-.61-1.12.21-2.4,1.63-4.37A45.63,45.63,0,0,0,378,299a43.59,43.59,0,0,0,3.32-15.8c.26-9.91-3.16-13.9-.5-17C383.13,263.55,392.57,261.29,392.26,265.4Z" transform="translate(-226.59 -176.51)"/><path class="cls-1" d="M410,312.08a32,32,0,0,1-1.06,4.7c-3.24,1.71-11.11,2.16-10.31-1,.29-1.14.68-2.29,1.1-3.46,2.25-6.19,5.65-13.09,2.73-23.14-2-6.76-7-8.45-6.49-14.8.34-4.06,2.85-8.62,5.66-8.81,4.47-.32,9.44,10.38,9.47,13.46C411.19,290.6,411.33,303.54,410,312.08Z" transform="translate(-226.59 -176.51)"/><path class="cls-1" d="M298.43,314.35a43.94,43.94,0,0,1-1.6,5.92c-4.66,1.27-9.69,1.63-11.14-.83-.75-1.27-.05-2.65,1.05-4.69a34.38,34.38,0,0,0,2.77-6.12c2.15-6.66,1.12-12.62-.33-20.95-1.81-10.39-6.2-16.46-3.81-19.95,1.84-2.68,9.58-3.86,10.79-.83C300.5,277.76,301.45,299.83,298.43,314.35Z" transform="translate(-226.59 -176.51)"/><path class="cls-2" d="M298.43,314.35a43.94,43.94,0,0,1-1.6,5.92c-4.66,1.27-9.69,1.63-11.14-.83-.75-1.27-.05-2.65,1.05-4.69A28.27,28.27,0,0,0,298.43,314.35Z" transform="translate(-226.59 -176.51)"/><path class="cls-2" d="M383.87,308.36c-.65,1.7-1.35,3.29-2.08,4.76-4.14,1.69-9.8,1.66-11-.5-.61-1.12.21-2.4,1.63-4.37A28.22,28.22,0,0,0,383.87,308.36Z" transform="translate(-226.59 -176.51)"/><path class="cls-2" d="M410,312.08a32,32,0,0,1-1.06,4.7c-3.24,1.71-11.11,2.16-10.31-1,.29-1.14.68-2.29,1.1-3.46A28.35,28.35,0,0,0,410,312.08Z" transform="translate(-226.59 -176.51)"/><path class="cls-3" d="M243.62,184.59c4.75-4.92,11.17-5.43,12.14-5.82,18.61-7.42,31.59,10.49,32.75,18.13,10.12,5.22,18.73-3.71,42.4,2.07,13.14-5.78,36.64-6.94,50-5.23,10.09-.55,29,4,30.92,14,4.66,5.18,5.33,19.11,1.33,26.28.75,13.19,5,15.4,2,21.61,1.06,12.42-9.27,28-18.46,28.6-8.25.51-9.31-11.56-22.44-15.8-9.65,4.71-16.52,7-31.43,3.49-14.57,2.79-29.21.18-34.91-4.82-3.22,2.77-2,6.19-5.66,8.65-2.76,1.84-7.45,2.59-19.62-2.66-14.53-2.51-28-8.59-31.76-21.45-10.64-7.26-8.58-19.06-10.8-34.09C238,203.32,236.51,192,243.62,184.59Z" transform="translate(-226.59 -176.51)"/><path class="cls-1" d="M261.91,190.91c-1.43,1-2.71-.16-4.16.67a16.92,16.92,0,0,1-2.16,10.64c-1.87,3.19-4.42,5.76-10.81,10.31-4.16,2.95-7.2,3.32-9.44,3h0a9.57,9.57,0,0,1-1.19-.25c-3.36-.9-4.68-3.66-4.19-7.5a1.82,1.82,0,0,1,0-.32c.56-3.73,3.14-5,6.32-12.38.52-1.2,1.25-3,.5-3.83s-2.49.44-5.32,0a7,7,0,0,1-4.32-2.49,7.21,7.21,0,0,1,4.82-3.82c2.11-.51,3.77-.06,6.24-.1,4-1.05,3.24-1.78,6.9-2.07,4.75-.36,6.31.5,10,1.17,1-.57,1.15-1.18,2.33-1.5,1.59-.43,4.75.49,6.36,1.78A5.9,5.9,0,0,1,261.91,190.91Z" transform="translate(-226.59 -176.51)"/><path class="cls-4" d="M237.63,212.19a12.92,12.92,0,0,1-2.29,3.33h0a9.57,9.57,0,0,1-1.19-.25c-3.36-.9-4.68-3.66-4.19-7.5a2.05,2.05,0,0,0,1.36.93c1.47.19,2.43-1.82,3.75-1.41.53.17,1,.71,1,1.16-.1,1-2.66.69-3.57,2.33a2.25,2.25,0,0,0,.08,2.49C233.77,214.37,234.92,213.17,237.63,212.19Z" transform="translate(-226.59 -176.51)"/><ellipse class="cls-4" cx="24.16" cy="16.69" rx="1.27" ry="2.46"/><path class="cls-4" d="M256.48,186a3.57,3.57,0,0,0,1.11,2.77,3.07,3.07,0,0,0,3.54.11c1.3-.86,1.41-2.18,1.22-3.55C260.91,183.92,256.38,182.93,256.48,186Z" transform="translate(-226.59 -176.51)"/><path class="cls-4" d="M228.86,188.54c.34-.58,1.54-1.95,2.57-1.79,2.13.34,4.42,2.38,4.58,3a9.17,9.17,0,0,1-5.32.13C229.24,189.4,229.18,189.22,228.86,188.54Z" transform="translate(-226.59 -176.51)"/><line class="cls-5" x1="60.76" y1="140.02" x2="59.1" y2="142.93"/><line class="cls-5" x1="146.88" y1="133.37" x2="145.06" y2="136.95"/><line class="cls-5" x1="175.4" y1="137.81" x2="174.4" y2="141.11"/><path class="cls-6" d="M401.45,224.66a4.93,4.93,0,0,0,1-2.61,7.68,7.68,0,0,0-.21-2.75,3.42,3.42,0,0,0-1.38-2.09,2.42,2.42,0,0,0-2.3.27l-1,.55.28-1.09a4.33,4.33,0,0,0-.14-3.11,1.55,1.55,0,0,0-1.12-.7,4.08,4.08,0,0,0-1.57.14l-1,.24.39-.87a3.63,3.63,0,0,0,.31-2.26,4,4,0,0,0-1.2-2,7.76,7.76,0,0,0-4.59-2,7,7,0,0,1,2.61.28,6.56,6.56,0,0,1,2.39,1.23,4.67,4.67,0,0,1,1.57,2.3,4.37,4.37,0,0,1-.24,2.83l-.55-.64a4.6,4.6,0,0,1,2-.21,2.52,2.52,0,0,1,1.82,1.14,3.73,3.73,0,0,1,.5,2,7.16,7.16,0,0,1-.27,1.91l-.7-.55a4.57,4.57,0,0,1,1.54-.5,2.71,2.71,0,0,1,.85,0,4,4,0,0,1,.81.31,4.07,4.07,0,0,1,1.59,2.68,7.07,7.07,0,0,1,0,3A4.68,4.68,0,0,1,401.45,224.66Z" transform="translate(-226.59 -176.51)"/><path class="cls-6" d="M395.11,274.61a5,5,0,0,0,2.79-.23,8,8,0,0,0,2.39-1.39,3.52,3.52,0,0,0,1.27-2.17,2.4,2.4,0,0,0-1.24-1.94l-.93-.65,1.11-.22a4.28,4.28,0,0,0,2.72-1.49,1.54,1.54,0,0,0,.15-1.31,4.19,4.19,0,0,0-.82-1.35l-.63-.75,1,0a3.66,3.66,0,0,0,2.16-.72,4,4,0,0,0,1.31-2,7.76,7.76,0,0,0-.24-5,7.38,7.38,0,0,1,.9,2.48,6.73,6.73,0,0,1-.07,2.68,4.71,4.71,0,0,1-1.38,2.42,4.41,4.41,0,0,1-2.65,1l.33-.77a4.57,4.57,0,0,1,1.05,1.68,2.47,2.47,0,0,1-.23,2.13,3.73,3.73,0,0,1-1.55,1.31,7.27,7.27,0,0,1-1.83.6l.18-.87a4.62,4.62,0,0,1,1.13,1.16,3.25,3.25,0,0,1,.35.78,4.11,4.11,0,0,1,.07.86,4,4,0,0,1-1.71,2.6,6.92,6.92,0,0,1-2.69,1.26A4.7,4.7,0,0,1,395.11,274.61Z" transform="translate(-226.59 -176.51)"/><path class="cls-6" d="M252.72,231.35a5,5,0,0,0-1.4,2.42,7.57,7.57,0,0,0-.22,2.75,3.42,3.42,0,0,0,1.05,2.28,2.38,2.38,0,0,0,2.31.09l1-.39-.45,1a4.31,4.31,0,0,0-.33,3.09,1.51,1.51,0,0,0,1,.87,4.06,4.06,0,0,0,1.57.1l1-.09-.53.8a3.7,3.7,0,0,0-.65,2.19,3.94,3.94,0,0,0,.87,2.19,7.84,7.84,0,0,0,4.24,2.66,7.37,7.37,0,0,1-2.55-.68,6.58,6.58,0,0,1-2.16-1.59,4.59,4.59,0,0,1-1.2-2.51,4.38,4.38,0,0,1,.67-2.76l.45.71a4.77,4.77,0,0,1-2-.09,2.52,2.52,0,0,1-1.62-1.41,3.75,3.75,0,0,1-.19-2,7.14,7.14,0,0,1,.56-1.84l.61.65a4.75,4.75,0,0,1-1.6.26,2.77,2.77,0,0,1-.84-.16,3.69,3.69,0,0,1-.75-.42,4,4,0,0,1-1.16-2.89,7,7,0,0,1,.5-2.94A4.75,4.75,0,0,1,252.72,231.35Z" transform="translate(-226.59 -176.51)"/><path class="cls-6" d="M325,257.54a4.92,4.92,0,0,0,1.65,2.26,7.47,7.47,0,0,0,2.43,1.32,3.41,3.41,0,0,0,2.5,0,2.39,2.39,0,0,0,1-2.07l.06-1.13.77.83a4.32,4.32,0,0,0,2.69,1.55,1.51,1.51,0,0,0,1.2-.56,4.07,4.07,0,0,0,.72-1.39l.32-.94.52.81a3.61,3.61,0,0,0,1.74,1.47,3.91,3.91,0,0,0,2.35.1,7.73,7.73,0,0,0,4.14-2.8,7.07,7.07,0,0,1-1.65,2.05,6.48,6.48,0,0,1-2.32,1.34,4.62,4.62,0,0,1-2.78.08,4.39,4.39,0,0,1-2.26-1.73l.83-.13a4.5,4.5,0,0,1-.88,1.78,2.55,2.55,0,0,1-1.94.91,3.76,3.76,0,0,1-1.93-.64,7.09,7.09,0,0,1-1.46-1.26l.84-.29a4.63,4.63,0,0,1-.41,1.56,2.78,2.78,0,0,1-.48.71,3.92,3.92,0,0,1-.7.51,4.07,4.07,0,0,1-3.11-.11,6.94,6.94,0,0,1-2.48-1.64A4.73,4.73,0,0,1,325,257.54Z" transform="translate(-226.59 -176.51)"/><path class="cls-6" d="M282.57,210.11a5,5,0,0,0,1-2.61,7.68,7.68,0,0,0-.21-2.75,3.43,3.43,0,0,0-1.39-2.09,2.37,2.37,0,0,0-2.29.27l-1,.55.28-1.1a4.25,4.25,0,0,0-.15-3.1,1.51,1.51,0,0,0-1.12-.7,4,4,0,0,0-1.56.14l-1,.24.4-.87a3.69,3.69,0,0,0,.3-2.26,3.93,3.93,0,0,0-1.19-2,7.8,7.8,0,0,0-4.59-2,7.23,7.23,0,0,1,2.61.28,6.43,6.43,0,0,1,2.39,1.24,4.64,4.64,0,0,1,1.57,2.29,4.36,4.36,0,0,1-.24,2.83l-.56-.63a4.66,4.66,0,0,1,2-.21,2.49,2.49,0,0,1,1.81,1.14,3.75,3.75,0,0,1,.51,2,7.59,7.59,0,0,1-.27,1.91l-.7-.55a4.84,4.84,0,0,1,1.53-.51,3.12,3.12,0,0,1,.86,0,3.24,3.24,0,0,1,.8.31,4.09,4.09,0,0,1,1.6,2.68,7.08,7.08,0,0,1,0,3A4.74,4.74,0,0,1,282.57,210.11Z" transform="translate(-226.59 -176.51)"/><path class="cls-6" d="M297.64,268a4.94,4.94,0,0,0,2.29-1.62,7.77,7.77,0,0,0,1.35-2.41,3.42,3.42,0,0,0,0-2.5,2.39,2.39,0,0,0-2.06-1.05l-1.12-.08.84-.76a4.27,4.27,0,0,0,1.59-2.66,1.56,1.56,0,0,0-.54-1.21,4.11,4.11,0,0,0-1.39-.74l-.93-.33.81-.51a3.65,3.65,0,0,0,1.51-1.72,4,4,0,0,0,.12-2.35,7.74,7.74,0,0,0-2.74-4.18,7.09,7.09,0,0,1,2,1.68,6.58,6.58,0,0,1,1.31,2.34,4.7,4.7,0,0,1,0,2.78,4.38,4.38,0,0,1-1.76,2.23l-.12-.83a4.75,4.75,0,0,1,1.77.91,2.54,2.54,0,0,1,.88,1.95,3.79,3.79,0,0,1-.67,1.93,7,7,0,0,1-1.28,1.43l-.28-.84a4.67,4.67,0,0,1,1.56.43,3.28,3.28,0,0,1,.7.49,3.94,3.94,0,0,1,.5.71,4.06,4.06,0,0,1-.15,3.11,7,7,0,0,1-1.68,2.45A4.67,4.67,0,0,1,297.64,268Z" transform="translate(-226.59 -176.51)"/><path class="cls-4" d="M307.24,242.29a30.88,30.88,0,0,1,2.08,8.2,19.4,19.4,0,0,1-.74,8.43,50.05,50.05,0,0,0-.25-8.32C308.05,247.84,307.54,245.1,307.24,242.29Z" transform="translate(-226.59 -176.51)"/><path class="cls-5" d="M368.65,244.28a17.51,17.51,0,0,0-1.1,12.64,16.9,16.9,0,0,0,4.87,7.54" transform="translate(-226.59 -176.51)"/></svg>